<?xml version="1.0" encoding="utf-8"?>
<!-- Generator: Adobe Illustrator 21.0.0, SVG Export Plug-In . SVG Version: 6.00 Build 0)  -->
<svg version="1.1" id="Layer_1" xmlns="http://www.w3.org/2000/svg" xmlns:xlink="http://www.w3.org/1999/xlink" x="0px" y="0px"
	 viewBox="0 0 1000 1000" enable-background="new 0 0 1000 1000" xml:space="preserve">
<defs>
	<circle id="SVGID_1_" cx="500" cy="500" r="416"/>
</defs>
<clipPath id="SVGID_2_">
	<use xlink:href="#SVGID_1_"  overflow="visible"/>
</clipPath>
<rect x="83.982" y="84" clip-path="url(#SVGID_2_)" fill="#7E2918" width="832.035" height="832"/>
<g clip-path="url(#SVGID_2_)">
	<circle fill="#A2A2A2" cx="115.968" cy="109.673" r="8.753"/>
	<circle fill="#A2A2A2" cx="201.308" cy="109.673" r="8.753"/>
	<circle fill="#A2A2A2" cx="286.649" cy="109.673" r="8.753"/>
	<circle fill="#A2A2A2" cx="371.989" cy="109.673" r="8.753"/>
	<circle fill="#A2A2A2" cx="457.33" cy="109.673" r="8.753"/>
	<circle fill="#A2A2A2" cx="542.67" cy="109.673" r="8.753"/>
	<circle fill="#A2A2A2" cx="628.011" cy="109.673" r="8.753"/>
	<circle fill="#A2A2A2" cx="713.351" cy="109.673" r="8.753"/>
	<circle fill="#A2A2A2" cx="798.691" cy="109.673" r="8.753"/>
	<circle fill="#A2A2A2" cx="884.032" cy="109.673" r="8.753"/>
	<circle fill="#A2A2A2" cx="159.529" cy="163.87" r="8.753"/>
	<circle fill="#A2A2A2" cx="244.87" cy="163.87" r="8.753"/>
	<circle fill="#A2A2A2" cx="330.21" cy="163.87" r="8.753"/>
	<circle fill="#A2A2A2" cx="415.551" cy="163.87" r="8.753"/>
	<circle fill="#A2A2A2" cx="500.892" cy="163.87" r="8.753"/>
	<circle fill="#A2A2A2" cx="586.232" cy="163.87" r="8.753"/>
	<circle fill="#A2A2A2" cx="671.572" cy="163.87" r="8.753"/>
	<circle fill="#A2A2A2" cx="756.913" cy="163.87" r="8.753"/>
	<circle fill="#A2A2A2" cx="842.253" cy="163.87" r="8.753"/>
	<circle fill="#A2A2A2" cx="115.968" cy="230.749" r="8.753"/>
	<circle fill="#A2A2A2" cx="201.308" cy="230.749" r="8.753"/>
	<circle fill="#A2A2A2" cx="286.649" cy="230.749" r="8.753"/>
	<circle fill="#A2A2A2" cx="371.989" cy="230.749" r="8.753"/>
	<circle fill="#A2A2A2" cx="457.33" cy="230.749" r="8.753"/>
	<circle fill="#A2A2A2" cx="542.67" cy="230.749" r="8.753"/>
	<circle fill="#A2A2A2" cx="628.011" cy="230.749" r="8.753"/>
	<circle fill="#A2A2A2" cx="713.351" cy="230.749" r="8.753"/>
	<circle fill="#A2A2A2" cx="798.691" cy="230.749" r="8.753"/>
	<circle fill="#A2A2A2" cx="884.032" cy="230.749" r="8.753"/>
	<circle fill="#A2A2A2" cx="159.529" cy="284.946" r="8.753"/>
	<circle fill="#A2A2A2" cx="244.87" cy="284.946" r="8.753"/>
	<circle fill="#A2A2A2" cx="330.21" cy="284.946" r="8.753"/>
	<circle fill="#A2A2A2" cx="415.551" cy="284.946" r="8.753"/>
	<circle fill="#A2A2A2" cx="500.892" cy="284.946" r="8.753"/>
	<circle fill="#A2A2A2" cx="586.232" cy="284.946" r="8.753"/>
	<circle fill="#A2A2A2" cx="671.572" cy="284.946" r="8.753"/>
	<circle fill="#A2A2A2" cx="756.913" cy="284.946" r="8.753"/>
	<circle fill="#A2A2A2" cx="842.253" cy="284.946" r="8.753"/>
	<circle fill="#A2A2A2" cx="115.968" cy="351.825" r="8.753"/>
	<circle fill="#A2A2A2" cx="201.308" cy="351.825" r="8.753"/>
	<circle fill="#A2A2A2" cx="286.649" cy="351.825" r="8.753"/>
	<circle fill="#A2A2A2" cx="371.989" cy="351.825" r="8.753"/>
	<circle fill="#A2A2A2" cx="457.33" cy="351.825" r="8.753"/>
	<circle fill="#A2A2A2" cx="542.67" cy="351.825" r="8.753"/>
	<circle fill="#A2A2A2" cx="628.011" cy="351.825" r="8.753"/>
	<circle fill="#A2A2A2" cx="713.351" cy="351.825" r="8.753"/>
	<circle fill="#A2A2A2" cx="798.691" cy="351.825" r="8.753"/>
	<circle fill="#A2A2A2" cx="884.032" cy="351.825" r="8.753"/>
	<circle fill="#A2A2A2" cx="159.529" cy="406.022" r="8.753"/>
	<circle fill="#A2A2A2" cx="244.87" cy="406.022" r="8.753"/>
	<circle fill="#A2A2A2" cx="330.21" cy="406.022" r="8.753"/>
	<circle fill="#A2A2A2" cx="415.551" cy="406.022" r="8.753"/>
	<circle fill="#A2A2A2" cx="500.892" cy="406.022" r="8.753"/>
	<circle fill="#A2A2A2" cx="586.232" cy="406.022" r="8.753"/>
	<circle fill="#A2A2A2" cx="671.572" cy="406.022" r="8.753"/>
	<circle fill="#A2A2A2" cx="756.913" cy="406.022" r="8.753"/>
	<circle fill="#A2A2A2" cx="842.253" cy="406.022" r="8.753"/>
	<circle fill="#A2A2A2" cx="115.968" cy="472.902" r="8.753"/>
	<circle fill="#A2A2A2" cx="201.308" cy="472.902" r="8.753"/>
	<circle fill="#A2A2A2" cx="286.649" cy="472.902" r="8.753"/>
	<circle fill="#A2A2A2" cx="371.989" cy="472.902" r="8.753"/>
	<circle fill="#A2A2A2" cx="457.33" cy="472.902" r="8.753"/>
	<circle fill="#A2A2A2" cx="542.67" cy="472.902" r="8.753"/>
	<circle fill="#A2A2A2" cx="628.011" cy="472.902" r="8.753"/>
	<circle fill="#A2A2A2" cx="713.351" cy="472.902" r="8.753"/>
	<circle fill="#A2A2A2" cx="798.691" cy="472.902" r="8.753"/>
	<circle fill="#A2A2A2" cx="884.032" cy="472.902" r="8.753"/>
	<circle fill="#A2A2A2" cx="159.529" cy="527.098" r="8.753"/>
	<circle fill="#A2A2A2" cx="244.87" cy="527.098" r="8.753"/>
	<circle fill="#A2A2A2" cx="330.21" cy="527.098" r="8.753"/>
	<circle fill="#A2A2A2" cx="415.551" cy="527.098" r="8.753"/>
	<circle fill="#A2A2A2" cx="500.892" cy="527.098" r="8.753"/>
	<circle fill="#A2A2A2" cx="586.232" cy="527.098" r="8.753"/>
	<circle fill="#A2A2A2" cx="671.572" cy="527.098" r="8.753"/>
	<circle fill="#A2A2A2" cx="756.913" cy="527.098" r="8.753"/>
	<circle fill="#A2A2A2" cx="842.253" cy="527.098" r="8.753"/>
	<circle fill="#A2A2A2" cx="115.968" cy="593.978" r="8.753"/>
	<circle fill="#A2A2A2" cx="201.308" cy="593.978" r="8.753"/>
	<circle fill="#A2A2A2" cx="286.649" cy="593.978" r="8.753"/>
	<circle fill="#A2A2A2" cx="371.989" cy="593.978" r="8.753"/>
	<circle fill="#A2A2A2" cx="457.33" cy="593.978" r="8.753"/>
	<circle fill="#A2A2A2" cx="542.67" cy="593.978" r="8.753"/>
	<circle fill="#A2A2A2" cx="628.011" cy="593.978" r="8.753"/>
	<circle fill="#A2A2A2" cx="713.351" cy="593.978" r="8.753"/>
	<circle fill="#A2A2A2" cx="798.691" cy="593.978" r="8.753"/>
	<circle fill="#A2A2A2" cx="884.032" cy="593.978" r="8.753"/>
	<circle fill="#A2A2A2" cx="159.529" cy="648.175" r="8.753"/>
	<circle fill="#A2A2A2" cx="244.87" cy="648.175" r="8.753"/>
	<circle fill="#A2A2A2" cx="330.21" cy="648.175" r="8.753"/>
	<circle fill="#A2A2A2" cx="415.551" cy="648.175" r="8.753"/>
	<circle fill="#A2A2A2" cx="500.892" cy="648.175" r="8.753"/>
	<circle fill="#A2A2A2" cx="586.232" cy="648.175" r="8.753"/>
	<circle fill="#A2A2A2" cx="671.572" cy="648.175" r="8.753"/>
	<circle fill="#A2A2A2" cx="756.913" cy="648.175" r="8.753"/>
	<circle fill="#A2A2A2" cx="842.253" cy="648.175" r="8.753"/>
	<circle fill="#A2A2A2" cx="115.968" cy="715.054" r="8.753"/>
	<circle fill="#A2A2A2" cx="201.308" cy="715.054" r="8.753"/>
	<circle fill="#A2A2A2" cx="286.649" cy="715.054" r="8.753"/>
	<circle fill="#A2A2A2" cx="371.989" cy="715.054" r="8.753"/>
	<circle fill="#A2A2A2" cx="457.33" cy="715.054" r="8.753"/>
	<circle fill="#A2A2A2" cx="542.67" cy="715.054" r="8.753"/>
	<circle fill="#A2A2A2" cx="628.011" cy="715.054" r="8.753"/>
	<circle fill="#A2A2A2" cx="713.351" cy="715.054" r="8.753"/>
	<circle fill="#A2A2A2" cx="798.691" cy="715.054" r="8.753"/>
	<circle fill="#A2A2A2" cx="884.032" cy="715.054" r="8.753"/>
	<circle fill="#A2A2A2" cx="159.529" cy="769.251" r="8.753"/>
	<circle fill="#A2A2A2" cx="244.87" cy="769.251" r="8.753"/>
	<circle fill="#A2A2A2" cx="330.21" cy="769.251" r="8.753"/>
	<circle fill="#A2A2A2" cx="415.551" cy="769.251" r="8.753"/>
	<circle fill="#A2A2A2" cx="500.892" cy="769.251" r="8.753"/>
	<circle fill="#A2A2A2" cx="586.232" cy="769.251" r="8.753"/>
	<circle fill="#A2A2A2" cx="671.572" cy="769.251" r="8.753"/>
	<circle fill="#A2A2A2" cx="756.913" cy="769.251" r="8.753"/>
	<circle fill="#A2A2A2" cx="842.253" cy="769.251" r="8.753"/>
	<circle fill="#A2A2A2" cx="115.968" cy="836.13" r="8.753"/>
	<circle fill="#A2A2A2" cx="201.308" cy="836.13" r="8.753"/>
	<circle fill="#A2A2A2" cx="286.649" cy="836.13" r="8.753"/>
	<circle fill="#A2A2A2" cx="371.989" cy="836.13" r="8.753"/>
	<circle fill="#A2A2A2" cx="457.33" cy="836.13" r="8.753"/>
	<circle fill="#A2A2A2" cx="542.67" cy="836.13" r="8.753"/>
	<circle fill="#A2A2A2" cx="628.011" cy="836.13" r="8.753"/>
	<circle fill="#A2A2A2" cx="713.351" cy="836.13" r="8.753"/>
	<circle fill="#A2A2A2" cx="798.691" cy="836.13" r="8.753"/>
	<circle fill="#A2A2A2" cx="884.032" cy="836.13" r="8.753"/>
	<circle fill="#A2A2A2" cx="159.529" cy="890.327" r="8.753"/>
	<circle fill="#A2A2A2" cx="244.87" cy="890.327" r="8.753"/>
	<circle fill="#A2A2A2" cx="330.21" cy="890.327" r="8.753"/>
	<circle fill="#A2A2A2" cx="415.551" cy="890.327" r="8.753"/>
	<circle fill="#A2A2A2" cx="500.892" cy="890.327" r="8.753"/>
	<circle fill="#A2A2A2" cx="586.232" cy="890.327" r="8.753"/>
	<circle fill="#A2A2A2" cx="671.572" cy="890.327" r="8.753"/>
	<circle fill="#A2A2A2" cx="756.913" cy="890.327" r="8.753"/>
	<circle fill="#A2A2A2" cx="842.253" cy="890.327" r="8.753"/>
</g>
<g clip-path="url(#SVGID_2_)">
	<path fill="#FFFFFF" d="M808.345,709.852c0-27.876-11.852-52.877-30.617-69.967c9.828-14.929,15.576-32.958,15.576-52.374
		c0-51.5-40.404-93.25-90.246-93.25c-1.297,0-2.58,0.045-3.865,0.101c-6.146-45.317-43.797-80.195-89.348-80.195
		c-30.463,0-57.381,15.612-73.725,39.499c-16.34-23.887-43.259-39.499-73.722-39.499c-37.621,0-69.855,23.794-83.405,57.607
		c-10.563-3.765-21.973-5.576-33.817-4.978c-49.782,2.52-88.163,46.26-85.726,97.701c0.386,8.135,1.775,15.971,4.025,23.395
		c-41.002,8.79-71.821,46.323-71.821,91.301c0,30.369,14.059,57.34,35.81,74.365c-8.398,14.166-13.247,30.82-13.247,48.65
		c0,51.498,40.405,93.251,90.247,93.251c4.825,0,9.56-0.4,14.18-1.155c6.554,44.838,44.005,79.21,89.228,79.21
		c23.372,0,44.667-9.183,60.696-24.24c16.423,23.126,42.906,38.149,72.797,38.149c45.336,0,82.857-34.551,89.268-79.557
		c13.496,8.302,29.256,13.086,46.102,13.086c49.842,0,90.246-41.75,90.246-93.252c0-12.53-2.406-24.472-6.744-35.388
		C788.845,776.671,808.345,745.623,808.345,709.852z"/>
	<path fill="#FFFFFF" d="M787.493,456.861c0-26.153-11.12-49.61-28.726-65.642c9.221-14.008,14.613-30.922,14.613-49.138
		c0-48.319-37.908-87.489-84.67-87.489c-1.216,0-2.421,0.042-3.626,0.094c-5.768-42.516-41.091-75.239-83.826-75.239
		c-28.581,0-53.836,14.647-69.168,37.058c-15.33-22.41-40.586-37.058-69.167-37.058c-35.296,0-65.539,22.324-78.251,54.048
		c-9.911-3.534-20.615-5.233-31.728-4.671c-46.706,2.364-82.715,43.401-80.428,91.664c0.361,7.631,1.665,14.983,3.776,21.949
		c-38.469,8.247-67.382,43.461-67.382,85.658c0,28.494,13.19,53.798,33.597,69.772c-7.879,13.289-12.428,28.916-12.428,45.643
		c0,48.316,37.908,87.488,84.67,87.488c4.527,0,8.969-0.377,13.305-1.084c6.148,42.066,41.286,74.314,83.713,74.314
		c21.927,0,41.907-8.613,56.945-22.742c15.408,21.697,40.255,35.795,68.297,35.795c42.535,0,77.737-32.418,83.752-74.643
		c12.662,7.789,27.448,12.277,43.253,12.277c46.762,0,84.669-39.17,84.669-87.488c0-11.756-2.259-22.959-6.328-33.201
		C769.196,519.553,787.493,490.422,787.493,456.861z"/>
	<g>
		<path fill="#FFD286" d="M645.681,428.171c0,84.411-65.091,162.571-145.385,162.571c-80.294,0-145.385-78.16-145.385-162.571
			c0-84.413,65.091-152.841,145.385-152.841C580.59,275.33,645.681,343.758,645.681,428.171z"/>
		<circle fill="#353835" cx="428.99" cy="428.17" r="20.194"/>
		<circle fill="#353835" cx="581.136" cy="428.17" r="20.194"/>
		<g>
			<path fill="#353835" d="M500.07,544.756c-18.725,0-33.222,15.021-33.842,15.672c-1.68,1.769-1.61,4.563,0.158,6.245
				c1.767,1.678,4.561,1.611,6.242-0.154c0.21-0.217,12.611-12.927,27.448-12.927c0.285,0,0.569,0.005,0.856,0.015
				c8.197,0.271,15.82,4.545,22.656,12.702c1.567,1.871,4.354,2.115,6.223,0.549c1.871-1.567,2.116-4.354,0.549-6.224
				c-8.535-10.185-18.359-15.523-29.2-15.861C500.794,544.761,500.43,544.756,500.07,544.756z"/>
			<path fill="#353835" d="M499.562,529.323c-13.643,0-24.208-10.945-24.659-11.421c-1.225-1.288-1.173-3.325,0.115-4.55
				c1.287-1.224,3.323-1.175,4.548,0.111c0.153,0.159,9.189,9.42,20.001,9.42c0.207,0,0.414-0.003,0.622-0.012
				c5.974-0.197,11.528-3.312,16.509-9.256c1.144-1.36,3.173-1.54,4.534-0.396c1.363,1.14,1.542,3.17,0.4,4.533
				c-6.22,7.421-13.377,11.31-21.276,11.558C500.092,529.318,499.826,529.323,499.562,529.323z"/>
			<rect x="494.463" y="525.729" fill="#353835" width="7.476" height="27.879"/>
		</g>
		<path fill="#FFD286" d="M366.894,392.057c-21.568,78.993-125.814,62.803-135.4,58.811c-9.586-3.994-14.379-20.77,18.373-47.131
			c32.752-26.361,119.823-30.355,119.823-30.355S367.692,386.553,366.894,392.057z"/>
		<path fill="#FFD286" d="M629.509,390.057c21.568,78.993,125.814,62.803,135.4,58.811c9.586-3.994,14.379-20.77-18.373-47.131
			c-32.751-26.361-119.823-30.355-119.823-30.355S628.711,384.553,629.509,390.057z"/>
		<path fill="#FFFFFF" d="M620.455,289.488c0.32-2.314,0.498-4.674,0.498-7.075c0-28.324-22.961-51.284-51.285-51.284
			c-12.198,0-23.397,4.267-32.2,11.38c-6.706-20.518-25.989-35.345-48.746-35.345c-17.669,0-33.25,8.936-42.473,22.536
			c-8.041-6.32-18.173-10.1-29.194-10.1c-26.122,0-47.298,21.176-47.298,47.298c0,9.212,2.643,17.803,7.198,25.073
			c-19.389,7.317-33.183,26.037-33.183,47.988c0,28.323,22.961,51.285,51.284,51.285c16.04,0,30.354-7.368,39.758-18.898
			c8.328,5.842,18.464,9.282,29.409,9.282c13.264,0,25.352-5.036,34.455-13.3c9.105,8.264,21.192,13.3,34.457,13.3
			c13.597,0,25.948-5.302,35.127-13.939c9.127,14.165,25.028,23.555,43.13,23.555c28.324,0,51.285-22.962,51.285-51.285
			C662.678,314.727,644.455,293.768,620.455,289.488z"/>
		<path fill="#DCB776" d="M650.437,396.68c15.107,55.329,88.125,43.99,94.839,41.193c6.715-2.797,10.071-14.547-12.869-33.012
			c-22.939-18.464-83.928-21.262-83.928-21.262S649.878,392.825,650.437,396.68z"/>
	</g>
	<path fill="#DCB776" d="M345.59,398.799c-14.991,54.904-87.447,43.651-94.11,40.877c-6.663-2.776-9.994-14.436,12.77-32.759
		c22.765-18.322,83.283-21.099,83.283-21.099S346.145,394.974,345.59,398.799z"/>
	<g>
		<path fill="#F1EEDB" d="M723.811,801.667c0,5.5-4.5,10-10,10H289.626c-5.5,0-10-4.5-10-10V618.583c0-5.5,4.5-10,10-10h424.185
			c5.5,0,10,4.5,10,10V801.667z"/>
		<path fill="#FFFFFF" d="M703.558,804.765c-0.014,0-0.028,0-0.042,0h-6.28c-0.828,0-1.5-0.672-1.5-1.5c0-0.828,0.672-1.5,1.5-1.5
			h6.286c0.206,0.007,0.399-0.007,0.593-0.021c0.821-0.066,1.545,0.563,1.604,1.389c0.059,0.826-0.563,1.544-1.389,1.604
			C704.075,804.755,703.817,804.765,703.558,804.765z M690.25,804.765h-6.987c-0.828,0-1.5-0.672-1.5-1.5c0-0.828,0.672-1.5,1.5-1.5
			h6.987c0.828,0,1.5,0.672,1.5,1.5C691.75,804.093,691.078,804.765,690.25,804.765z M676.276,804.765h-6.987
			c-0.828,0-1.5-0.672-1.5-1.5c0-0.828,0.672-1.5,1.5-1.5h6.987c0.828,0,1.5,0.672,1.5,1.5
			C677.776,804.093,677.104,804.765,676.276,804.765z M662.302,804.765h-6.987c-0.828,0-1.5-0.672-1.5-1.5
			c0-0.828,0.672-1.5,1.5-1.5h6.987c0.828,0,1.5,0.672,1.5,1.5C663.802,804.093,663.13,804.765,662.302,804.765z M648.329,804.765
			h-6.987c-0.828,0-1.5-0.672-1.5-1.5c0-0.828,0.672-1.5,1.5-1.5h6.987c0.828,0,1.5,0.672,1.5,1.5
			C649.829,804.093,649.157,804.765,648.329,804.765z M634.354,804.765h-6.986c-0.828,0-1.5-0.672-1.5-1.5
			c0-0.828,0.672-1.5,1.5-1.5h6.986c0.828,0,1.5,0.672,1.5,1.5C635.854,804.093,635.182,804.765,634.354,804.765z M620.38,804.765
			h-6.986c-0.828,0-1.5-0.672-1.5-1.5c0-0.828,0.672-1.5,1.5-1.5h6.986c0.828,0,1.5,0.672,1.5,1.5
			C621.88,804.093,621.208,804.765,620.38,804.765z M606.407,804.765h-6.986c-0.828,0-1.5-0.672-1.5-1.5c0-0.828,0.672-1.5,1.5-1.5
			h6.986c0.828,0,1.5,0.672,1.5,1.5C607.907,804.093,607.235,804.765,606.407,804.765z M592.433,804.765h-6.986
			c-0.828,0-1.5-0.672-1.5-1.5c0-0.828,0.672-1.5,1.5-1.5h6.986c0.828,0,1.5,0.672,1.5,1.5
			C593.933,804.093,593.261,804.765,592.433,804.765z M578.459,804.765h-6.986c-0.828,0-1.5-0.672-1.5-1.5
			c0-0.828,0.672-1.5,1.5-1.5h6.986c0.828,0,1.5,0.672,1.5,1.5C579.959,804.093,579.288,804.765,578.459,804.765z M564.486,804.765
			h-6.987c-0.828,0-1.5-0.672-1.5-1.5c0-0.828,0.672-1.5,1.5-1.5h6.987c0.828,0,1.5,0.672,1.5,1.5
			C565.986,804.093,565.314,804.765,564.486,804.765z M550.512,804.765h-6.987c-0.828,0-1.5-0.672-1.5-1.5
			c0-0.828,0.672-1.5,1.5-1.5h6.987c0.828,0,1.5,0.672,1.5,1.5C552.012,804.093,551.34,804.765,550.512,804.765z M536.539,804.765
			h-6.987c-0.828,0-1.5-0.672-1.5-1.5c0-0.828,0.672-1.5,1.5-1.5h6.987c0.828,0,1.5,0.672,1.5,1.5
			C538.039,804.093,537.367,804.765,536.539,804.765z M522.565,804.765h-6.987c-0.828,0-1.5-0.672-1.5-1.5
			c0-0.828,0.672-1.5,1.5-1.5h6.987c0.828,0,1.5,0.672,1.5,1.5C524.065,804.093,523.393,804.765,522.565,804.765z M508.591,804.765
			h-6.987c-0.828,0-1.5-0.672-1.5-1.5c0-0.828,0.672-1.5,1.5-1.5h6.987c0.828,0,1.5,0.672,1.5,1.5
			C510.091,804.093,509.419,804.765,508.591,804.765z M494.618,804.765h-6.987c-0.829,0-1.5-0.672-1.5-1.5
			c0-0.828,0.671-1.5,1.5-1.5h6.987c0.828,0,1.5,0.672,1.5,1.5C496.118,804.093,495.446,804.765,494.618,804.765z M480.643,804.765
			h-6.986c-0.829,0-1.5-0.672-1.5-1.5c0-0.828,0.671-1.5,1.5-1.5h6.986c0.829,0,1.5,0.672,1.5,1.5
			C482.143,804.093,481.472,804.765,480.643,804.765z M466.669,804.765h-6.986c-0.829,0-1.5-0.672-1.5-1.5
			c0-0.828,0.671-1.5,1.5-1.5h6.986c0.829,0,1.5,0.672,1.5,1.5C468.169,804.093,467.499,804.765,466.669,804.765z M452.696,804.765
			h-6.987c-0.828,0-1.5-0.672-1.5-1.5c0-0.828,0.672-1.5,1.5-1.5h6.987c0.829,0,1.5,0.672,1.5,1.5
			C454.196,804.093,453.525,804.765,452.696,804.765z M438.722,804.765h-6.987c-0.828,0-1.5-0.672-1.5-1.5
			c0-0.828,0.672-1.5,1.5-1.5h6.987c0.828,0,1.5,0.672,1.5,1.5C440.222,804.093,439.55,804.765,438.722,804.765z M424.749,804.765
			h-6.987c-0.828,0-1.5-0.672-1.5-1.5c0-0.828,0.672-1.5,1.5-1.5h6.987c0.828,0,1.5,0.672,1.5,1.5
			C426.249,804.093,425.577,804.765,424.749,804.765z M410.775,804.765h-6.987c-0.828,0-1.5-0.672-1.5-1.5
			c0-0.828,0.672-1.5,1.5-1.5h6.987c0.828,0,1.5,0.672,1.5,1.5C412.275,804.093,411.603,804.765,410.775,804.765z M396.801,804.765
			h-6.987c-0.828,0-1.5-0.672-1.5-1.5c0-0.828,0.672-1.5,1.5-1.5h6.987c0.828,0,1.5,0.672,1.5,1.5
			C398.301,804.093,397.629,804.765,396.801,804.765z M382.828,804.765h-6.987c-0.829,0-1.5-0.672-1.5-1.5
			c0-0.828,0.671-1.5,1.5-1.5h6.987c0.828,0,1.5,0.672,1.5,1.5C384.328,804.093,383.656,804.765,382.828,804.765z M368.853,804.765
			h-6.986c-0.829,0-1.5-0.672-1.5-1.5c0-0.828,0.671-1.5,1.5-1.5h6.986c0.829,0,1.5,0.672,1.5,1.5
			C370.353,804.093,369.682,804.765,368.853,804.765z M354.879,804.765h-6.986c-0.829,0-1.5-0.672-1.5-1.5
			c0-0.828,0.671-1.5,1.5-1.5h6.986c0.829,0,1.5,0.672,1.5,1.5C356.379,804.093,355.708,804.765,354.879,804.765z M340.906,804.765
			h-6.986c-0.829,0-1.5-0.672-1.5-1.5c0-0.828,0.671-1.5,1.5-1.5h6.986c0.829,0,1.5,0.672,1.5,1.5
			C342.406,804.093,341.735,804.765,340.906,804.765z M326.932,804.765h-6.986c-0.829,0-1.5-0.672-1.5-1.5
			c0-0.828,0.671-1.5,1.5-1.5h6.986c0.829,0,1.5,0.672,1.5,1.5C328.432,804.093,327.761,804.765,326.932,804.765z M312.958,804.765
			h-6.986c-0.829,0-1.5-0.672-1.5-1.5c0-0.828,0.671-1.5,1.5-1.5h6.986c0.829,0,1.5,0.672,1.5,1.5
			C314.458,804.093,313.788,804.765,312.958,804.765z M298.989,804.722c-0.048,0-0.096-0.002-0.144-0.007
			c-2.722-0.258-5.24-1.491-7.093-3.473c-0.565-0.605-0.533-1.555,0.071-2.12c0.607-0.566,1.556-0.531,2.12,0.071
			c1.352,1.446,3.193,2.347,5.185,2.535c0.824,0.078,1.43,0.81,1.352,1.635C300.407,804.14,299.753,804.722,298.989,804.722z
			 M710.43,801.883c-0.379,0-0.758-0.143-1.05-0.429c-0.592-0.58-0.602-1.53-0.022-2.121c1.404-1.433,2.178-3.294,2.178-5.241
			c0-0.828,0.672-1.519,1.5-1.519c0.828,0,1.5,0.653,1.5,1.482v0.037c0,2.737-1.078,5.345-3.035,7.341
			C711.208,801.732,710.819,801.883,710.43,801.883z M290.401,795.361c-0.829,0-1.5-0.672-1.5-1.5v-6.986c0-0.828,0.671-1.5,1.5-1.5
			c0.828,0,1.5,0.672,1.5,1.5v6.986C291.901,794.69,291.229,795.361,290.401,795.361z M713.037,788.567c-0.828,0-1.5-0.672-1.5-1.5
			v-6.986c0-0.828,0.672-1.5,1.5-1.5c0.828,0,1.5,0.672,1.5,1.5v6.986C714.537,787.896,713.865,788.567,713.037,788.567z
			 M290.401,781.388c-0.829,0-1.5-0.672-1.5-1.5v-6.986c0-0.828,0.671-1.5,1.5-1.5c0.828,0,1.5,0.672,1.5,1.5v6.986
			C291.901,780.716,291.229,781.388,290.401,781.388z M713.037,774.594c-0.828,0-1.5-0.672-1.5-1.5v-6.986
			c0-0.828,0.672-1.5,1.5-1.5c0.828,0,1.5,0.672,1.5,1.5v6.986C714.537,773.922,713.865,774.594,713.037,774.594z M290.401,767.414
			c-0.829,0-1.5-0.672-1.5-1.5v-6.986c0-0.828,0.671-1.5,1.5-1.5c0.828,0,1.5,0.672,1.5,1.5v6.986
			C291.901,766.742,291.229,767.414,290.401,767.414z M713.037,760.62c-0.828,0-1.5-0.672-1.5-1.5v-6.987c0-0.828,0.672-1.5,1.5-1.5
			c0.828,0,1.5,0.672,1.5,1.5v6.987C714.537,759.948,713.865,760.62,713.037,760.62z M290.401,753.44c-0.829,0-1.5-0.672-1.5-1.5
			v-6.987c0-0.828,0.671-1.5,1.5-1.5c0.828,0,1.5,0.672,1.5,1.5v6.987C291.901,752.769,291.229,753.44,290.401,753.44z
			 M713.037,746.646c-0.828,0-1.5-0.672-1.5-1.5v-6.987c0-0.828,0.672-1.5,1.5-1.5c0.828,0,1.5,0.672,1.5,1.5v6.987
			C714.537,745.975,713.865,746.646,713.037,746.646z M290.401,739.467c-0.829,0-1.5-0.672-1.5-1.5v-6.987
			c0-0.828,0.671-1.5,1.5-1.5c0.828,0,1.5,0.672,1.5,1.5v6.987C291.901,738.795,291.229,739.467,290.401,739.467z M713.037,732.673
			c-0.828,0-1.5-0.672-1.5-1.5v-6.987c0-0.828,0.672-1.5,1.5-1.5c0.828,0,1.5,0.672,1.5,1.5v6.987
			C714.537,732.001,713.865,732.673,713.037,732.673z M290.401,725.493c-0.829,0-1.5-0.672-1.5-1.5v-6.987
			c0-0.828,0.671-1.5,1.5-1.5c0.828,0,1.5,0.672,1.5,1.5v6.987C291.901,724.821,291.229,725.493,290.401,725.493z M713.037,718.699
			c-0.828,0-1.5-0.672-1.5-1.5v-6.987c0-0.828,0.672-1.5,1.5-1.5c0.828,0,1.5,0.672,1.5,1.5v6.987
			C714.537,718.027,713.865,718.699,713.037,718.699z M290.401,711.519c-0.829,0-1.5-0.672-1.5-1.5v-6.987
			c0-0.828,0.671-1.5,1.5-1.5c0.828,0,1.5,0.672,1.5,1.5v6.987C291.901,710.848,291.229,711.519,290.401,711.519z M713.037,704.726
			c-0.828,0-1.5-0.672-1.5-1.5v-6.987c0-0.828,0.672-1.5,1.5-1.5c0.828,0,1.5,0.672,1.5,1.5v6.987
			C714.537,704.054,713.865,704.726,713.037,704.726z M290.401,697.546c-0.829,0-1.5-0.672-1.5-1.5v-6.987
			c0-0.828,0.671-1.5,1.5-1.5c0.828,0,1.5,0.672,1.5,1.5v6.987C291.901,696.874,291.229,697.546,290.401,697.546z M713.037,690.752
			c-0.828,0-1.5-0.672-1.5-1.5v-6.987c0-0.828,0.672-1.5,1.5-1.5c0.828,0,1.5,0.672,1.5,1.5v6.987
			C714.537,690.08,713.865,690.752,713.037,690.752z M290.401,683.572c-0.829,0-1.5-0.672-1.5-1.5v-6.987c0-0.828,0.671-1.5,1.5-1.5
			c0.828,0,1.5,0.672,1.5,1.5v6.987C291.901,682.9,291.229,683.572,290.401,683.572z M713.037,676.778c-0.828,0-1.5-0.672-1.5-1.5
			v-6.987c0-0.828,0.672-1.5,1.5-1.5c0.828,0,1.5,0.672,1.5,1.5v6.987C714.537,676.106,713.865,676.778,713.037,676.778z
			 M290.401,669.599c-0.829,0-1.5-0.672-1.5-1.5v-6.987c0-0.828,0.671-1.5,1.5-1.5c0.828,0,1.5,0.672,1.5,1.5v6.987
			C291.901,668.927,291.229,669.599,290.401,669.599z M713.037,662.804c-0.828,0-1.5-0.672-1.5-1.5v-6.986
			c0-0.828,0.672-1.5,1.5-1.5c0.828,0,1.5,0.672,1.5,1.5v6.986C714.537,662.132,713.865,662.804,713.037,662.804z M290.401,655.624
			c-0.829,0-1.5-0.672-1.5-1.5v-6.986c0-0.828,0.671-1.5,1.5-1.5c0.828,0,1.5,0.672,1.5,1.5v6.986
			C291.901,654.952,291.229,655.624,290.401,655.624z M713.037,648.83c-0.828,0-1.5-0.672-1.5-1.5v-6.986c0-0.828,0.672-1.5,1.5-1.5
			c0.828,0,1.5,0.672,1.5,1.5v6.986C714.537,648.158,713.865,648.83,713.037,648.83z M290.401,641.65c-0.829,0-1.5-0.672-1.5-1.5
			v-6.986c0-0.828,0.671-1.5,1.5-1.5c0.828,0,1.5,0.672,1.5,1.5v6.986C291.901,640.979,291.229,641.65,290.401,641.65z
			 M713.037,634.856c-0.828,0-1.5-0.672-1.5-1.5v-6.986c0-0.828,0.672-1.5,1.5-1.5c0.828,0,1.5,0.672,1.5,1.5v6.986
			C714.537,634.185,713.865,634.856,713.037,634.856z M290.401,627.668c-0.829,0-1.5-0.663-1.5-1.491v-0.018
			c0-2.73,1.072-5.332,3.02-7.326c0.58-0.592,1.53-0.604,2.121-0.025c0.593,0.579,0.604,1.528,0.025,2.121
			c-1.396,1.431-2.166,3.288-2.166,5.23C291.901,626.987,291.229,627.668,290.401,627.668z M710.576,621.519
			c-0.399,0-0.799-0.159-1.095-0.474c-1.353-1.444-3.195-2.341-5.188-2.525c-0.824-0.076-1.432-0.807-1.355-1.632
			c0.075-0.825,0.797-1.439,1.632-1.354c2.723,0.252,5.244,1.48,7.1,3.459c0.566,0.604,0.535,1.554-0.068,2.121
			C711.312,621.385,710.944,621.519,710.576,621.519z M299.195,618.512c-0.778,0-1.435-0.601-1.494-1.39
			c-0.062-0.826,0.559-1.545,1.385-1.606c0.274-0.021,0.551-0.03,0.83-0.03h6.268c0.828,0,1.5,0.672,1.5,1.5
			c0,0.828-0.672,1.5-1.5,1.5h-6.268c-0.205,0-0.407,0.008-0.608,0.022C299.27,618.511,299.232,618.512,299.195,618.512z
			 M697.447,618.485h-6.986c-0.828,0-1.5-0.672-1.5-1.5c0-0.828,0.672-1.5,1.5-1.5h6.986c0.828,0,1.5,0.672,1.5,1.5
			C698.947,617.813,698.275,618.485,697.447,618.485z M683.473,618.485h-6.986c-0.828,0-1.5-0.672-1.5-1.5
			c0-0.828,0.672-1.5,1.5-1.5h6.986c0.828,0,1.5,0.672,1.5,1.5C684.973,617.813,684.301,618.485,683.473,618.485z M669.5,618.485
			h-6.986c-0.828,0-1.5-0.672-1.5-1.5c0-0.828,0.672-1.5,1.5-1.5h6.986c0.828,0,1.5,0.672,1.5,1.5
			C671,617.813,670.328,618.485,669.5,618.485z M655.526,618.485h-6.987c-0.828,0-1.5-0.672-1.5-1.5c0-0.828,0.672-1.5,1.5-1.5
			h6.987c0.828,0,1.5,0.672,1.5,1.5C657.026,617.813,656.354,618.485,655.526,618.485z M641.552,618.485h-6.987
			c-0.828,0-1.5-0.672-1.5-1.5c0-0.828,0.672-1.5,1.5-1.5h6.987c0.828,0,1.5,0.672,1.5,1.5
			C643.052,617.813,642.38,618.485,641.552,618.485z M627.579,618.485h-6.987c-0.828,0-1.5-0.672-1.5-1.5c0-0.828,0.672-1.5,1.5-1.5
			h6.987c0.828,0,1.5,0.672,1.5,1.5C629.079,617.813,628.407,618.485,627.579,618.485z M613.605,618.485h-6.987
			c-0.828,0-1.5-0.672-1.5-1.5c0-0.828,0.672-1.5,1.5-1.5h6.987c0.828,0,1.5,0.672,1.5,1.5
			C615.105,617.813,614.433,618.485,613.605,618.485z M599.631,618.485h-6.987c-0.828,0-1.5-0.672-1.5-1.5
			c0-0.828,0.672-1.5,1.5-1.5h6.987c0.828,0,1.5,0.672,1.5,1.5C601.131,617.813,600.459,618.485,599.631,618.485z M585.658,618.485
			h-6.987c-0.828,0-1.5-0.672-1.5-1.5c0-0.828,0.672-1.5,1.5-1.5h6.987c0.828,0,1.5,0.672,1.5,1.5
			C587.158,617.813,586.486,618.485,585.658,618.485z M571.683,618.485h-6.986c-0.828,0-1.5-0.672-1.5-1.5
			c0-0.828,0.672-1.5,1.5-1.5h6.986c0.828,0,1.5,0.672,1.5,1.5C573.183,617.813,572.511,618.485,571.683,618.485z M557.709,618.485
			h-6.986c-0.828,0-1.5-0.672-1.5-1.5c0-0.828,0.672-1.5,1.5-1.5h6.986c0.828,0,1.5,0.672,1.5,1.5
			C559.209,617.813,558.538,618.485,557.709,618.485z M543.736,618.485h-6.986c-0.828,0-1.5-0.672-1.5-1.5
			c0-0.828,0.672-1.5,1.5-1.5h6.986c0.828,0,1.5,0.672,1.5,1.5C545.236,617.813,544.564,618.485,543.736,618.485z M529.762,618.485
			h-6.986c-0.828,0-1.5-0.672-1.5-1.5c0-0.828,0.672-1.5,1.5-1.5h6.986c0.828,0,1.5,0.672,1.5,1.5
			C531.262,617.813,530.59,618.485,529.762,618.485z M515.789,618.485h-6.986c-0.828,0-1.5-0.672-1.5-1.5c0-0.828,0.672-1.5,1.5-1.5
			h6.986c0.828,0,1.5,0.672,1.5,1.5C517.289,617.813,516.617,618.485,515.789,618.485z M501.815,618.485h-6.987
			c-0.828,0-1.5-0.672-1.5-1.5c0-0.828,0.672-1.5,1.5-1.5h6.987c0.828,0,1.5,0.672,1.5,1.5
			C503.315,617.813,502.643,618.485,501.815,618.485z M487.841,618.485h-6.987c-0.828,0-1.5-0.672-1.5-1.5
			c0-0.828,0.672-1.5,1.5-1.5h6.987c0.828,0,1.5,0.672,1.5,1.5C489.341,617.813,488.669,618.485,487.841,618.485z M473.868,618.485
			h-6.987c-0.828,0-1.5-0.672-1.5-1.5c0-0.828,0.672-1.5,1.5-1.5h6.987c0.828,0,1.5,0.672,1.5,1.5
			C475.368,617.813,474.696,618.485,473.868,618.485z M459.894,618.485h-6.987c-0.829,0-1.5-0.672-1.5-1.5
			c0-0.828,0.671-1.5,1.5-1.5h6.987c0.828,0,1.5,0.672,1.5,1.5C461.394,617.813,460.722,618.485,459.894,618.485z M445.919,618.485
			h-6.986c-0.829,0-1.5-0.672-1.5-1.5c0-0.828,0.671-1.5,1.5-1.5h6.986c0.829,0,1.5,0.672,1.5,1.5
			C447.419,617.813,446.749,618.485,445.919,618.485z M431.946,618.485h-6.986c-0.829,0-1.5-0.672-1.5-1.5
			c0-0.828,0.671-1.5,1.5-1.5h6.986c0.829,0,1.5,0.672,1.5,1.5C433.446,617.813,432.775,618.485,431.946,618.485z M417.972,618.485
			h-6.986c-0.829,0-1.5-0.672-1.5-1.5c0-0.828,0.671-1.5,1.5-1.5h6.986c0.829,0,1.5,0.672,1.5,1.5
			C419.472,617.813,418.801,618.485,417.972,618.485z M403.999,618.485h-6.986c-0.829,0-1.5-0.672-1.5-1.5
			c0-0.828,0.671-1.5,1.5-1.5h6.986c0.829,0,1.5,0.672,1.5,1.5C405.499,617.813,404.828,618.485,403.999,618.485z M390.025,618.485
			h-6.986c-0.829,0-1.5-0.672-1.5-1.5c0-0.828,0.671-1.5,1.5-1.5h6.986c0.829,0,1.5,0.672,1.5,1.5
			C391.525,617.813,390.854,618.485,390.025,618.485z M376.051,618.485h-6.987c-0.828,0-1.5-0.672-1.5-1.5
			c0-0.828,0.672-1.5,1.5-1.5h6.987c0.828,0,1.5,0.672,1.5,1.5C377.551,617.813,376.879,618.485,376.051,618.485z M362.078,618.485
			h-6.987c-0.828,0-1.5-0.672-1.5-1.5c0-0.828,0.672-1.5,1.5-1.5h6.987c0.828,0,1.5,0.672,1.5,1.5
			C363.578,617.813,362.906,618.485,362.078,618.485z M348.104,618.485h-6.987c-0.828,0-1.5-0.672-1.5-1.5
			c0-0.828,0.672-1.5,1.5-1.5h6.987c0.828,0,1.5,0.672,1.5,1.5C349.604,617.813,348.932,618.485,348.104,618.485z M334.13,618.485
			h-6.987c-0.828,0-1.5-0.672-1.5-1.5c0-0.828,0.672-1.5,1.5-1.5h6.987c0.828,0,1.5,0.672,1.5,1.5
			C335.63,617.813,334.958,618.485,334.13,618.485z M320.157,618.485h-6.987c-0.828,0-1.5-0.672-1.5-1.5c0-0.828,0.672-1.5,1.5-1.5
			h6.987c0.828,0,1.5,0.672,1.5,1.5C321.657,617.813,320.985,618.485,320.157,618.485z"/>
	</g>
	<g>
		<path fill="#FFD286" d="M243.441,738.694c-4.268-5.038-7.479-10.992-9.303-17.53c-2.855-8.277-4.484-17.784-4.484-27.901
			c0-31.992,11.167-57.37,31.204-57.37c0.026,0,0.051,0.002,0.079,0.002c0.209-0.008,0.419-0.017,0.631-0.017
			c9.593,0,17.371,7.777,17.371,17.37c0,3.271-0.905,6.328-2.478,8.94c0.82-0.043,1.646-0.066,2.478-0.066
			c25.691,0,46.518,20.827,46.518,46.52s-20.827,46.519-46.518,46.519c-8.92,0-17.252-2.515-24.331-6.869
			C250.515,746.148,246.747,742.87,243.441,738.694z"/>
		<path fill="#FFFFFF" d="M211.844,674.576c-6.294,4.063-10.49,11.335-10.49,19.633c0,8.878,4.804,16.578,11.841,20.435
			c-2.152,3.56-3.403,7.775-3.403,12.298c0,12.739,9.886,23.066,22.081,23.066s22.081-10.327,22.081-23.066
			c0-8.878-4.804-16.578-11.841-20.435c2.152-3.56,3.403-7.775,3.403-12.298c0-6.807-2.824-12.923-7.313-17.146
			c6.294-4.063,10.49-11.335,10.49-19.633c0-12.739-9.886-23.066-22.081-23.066s-22.081,10.327-22.081,23.066
			C204.532,664.237,207.356,670.354,211.844,674.576z"/>
	</g>
	<g>
		<path fill="#FFD286" d="M755.856,751.521c4.268-5.038,7.479-10.992,9.303-17.53c2.856-8.277,4.484-17.784,4.484-27.901
			c0-31.992-11.167-57.37-31.204-57.37c-0.026,0-0.051,0.002-0.079,0.002c-0.209-0.008-0.419-0.017-0.631-0.017
			c-9.593,0-17.371,7.777-17.371,17.37c0,3.271,0.905,6.328,2.478,8.94c-0.82-0.043-1.646-0.066-2.478-0.066
			c-25.691,0-46.518,20.827-46.518,46.52c0,25.692,20.827,46.519,46.518,46.519c8.92,0,17.252-2.515,24.331-6.869
			C748.782,758.975,752.55,755.697,755.856,751.521z"/>
		<path fill="#FFFFFF" d="M790.618,718.968c6.294-4.063,10.49-11.335,10.49-19.633c0-8.878-4.804-16.578-11.841-20.435
			c2.152-3.561,3.403-7.775,3.403-12.298c0-12.739-9.886-23.066-22.081-23.066c-12.195,0-22.081,10.327-22.081,23.066
			c0,8.878,4.804,16.578,11.841,20.435c-2.152,3.561-3.403,7.775-3.403,12.298c0,6.807,2.824,12.923,7.313,17.146
			c-6.294,4.063-10.49,11.335-10.49,19.633c0,12.739,9.886,23.066,22.081,23.066s22.081-10.327,22.081-23.066
			C797.93,729.307,795.106,723.19,790.618,718.968z"/>
	</g>
	<g>
		<path d="M438.086,663.455c0-10.508,6.863-17.23,16.33-17.23s16.33,6.723,16.33,17.23s-6.863,17.229-16.33,17.229
			S438.086,673.963,438.086,663.455z M443.009,663.455c0,7.336,3.834,13.158,11.407,13.158s11.407-5.822,11.407-13.158
			c0-7.338-3.834-13.158-11.407-13.158S443.009,656.117,443.009,663.455z"/>
		<path d="M473.819,668.424c0-6.721,4.212-12.068,11.502-12.068c7.242,0,11.502,5.348,11.502,12.068
			c0,6.723-4.26,12.07-11.502,12.07C478.032,680.494,473.819,675.146,473.819,668.424z M478.174,668.424
			c0,5.207,2.556,8.283,7.147,8.283s7.147-3.076,7.147-8.283c0-5.205-2.556-8.283-7.147-8.283S478.174,663.219,478.174,668.424z"/>
		<path d="M505.482,677.086v14.389h-4.26v-34.646h3.313l0.473,3.313c1.988-2.414,4.023-3.785,7.811-3.785
			c6.484,0,10.318,5.727,10.318,12.068c0,6.77-3.503,12.07-10.366,12.07C510.689,680.494,507.233,679.357,505.482,677.086z
			 M505.246,668.424c0,5.822,3.645,8.283,7.053,8.283c4.07,0,6.484-3.738,6.484-8.283c0-4.732-2.414-8.283-6.484-8.283
			C508.891,660.141,505.246,662.84,505.246,668.424z"/>
		<path d="M526.212,678.459l0.521-4.117c0.993,0.898,3.691,2.365,7.241,2.365c2.982,0,4.639-1.041,4.639-2.887
			c0-2.414-2.745-3.313-4.639-3.834c-3.171-0.852-7.289-1.988-7.289-6.674c0-3.551,2.367-6.957,8.709-6.957
			c3.077,0,4.876,0.805,6.296,1.514l-0.521,3.881c-1.373-1.135-3.077-2.035-5.681-2.035c-2.65,0-4.496,0.947-4.496,3.125
			c0,2.176,1.751,2.744,5.396,3.834c2.272,0.662,6.627,2.082,6.627,6.91c0,3.076-1.751,6.91-8.852,6.91
			C530.046,680.494,527.301,679.217,526.212,678.459z"/>
		<path d="M551.533,670.555h-3.029l-1.42-26.033h5.869L551.533,670.555z M548.03,680.021v-4.07h3.976v4.07H548.03z"/>
		<path d="M562.986,670.555h-3.029l-1.42-26.033h5.869L562.986,670.555z M559.483,680.021v-4.07h3.976v4.07H559.483z"/>
		<path d="M467.635,737.094v12.928h-6.804v-12.928h-20.479l21.908-34.699h5.375v28.848h5.783v5.852H467.635z M460.831,713.961
			l-10.41,17.281h10.41V713.961z"/>
		<path d="M481.717,727.023c0-15.445,9.049-25.582,20.411-25.582c11.158,0,19.596,9.729,19.596,24.289
			c0,15.445-8.233,25.242-20.412,25.242C489.677,750.973,481.717,741.652,481.717,727.023z M488.588,727.023
			c0,12.248,5.307,18.1,12.859,18.1c7.961,0,13.54-6.125,13.54-19.393c0-12.178-5.919-18.438-12.995-18.438
			C494.984,707.293,488.588,713.824,488.588,727.023z"/>
		<path d="M554.243,737.094v12.928h-6.804v-12.928H526.96l21.908-34.699h5.375v28.848h5.783v5.852H554.243z M547.439,713.961
			l-10.41,17.281h10.41V713.961z"/>
		<path d="M447.71,771.674v4.348h-1.775V763.6h3.976c2.307,0,4.33,0.531,4.33,3.867c0,3.23-2.183,4.207-3.833,4.207H447.71z
			 M447.71,765.107v5.057h2.378c1.721,0,2.396-0.957,2.396-2.625c0-1.775-0.709-2.432-2.893-2.432H447.71z"/>
		<path d="M462.547,776.199h-0.124c-1.544,0-1.881-0.463-2.236-1.279c-0.657,0.764-1.544,1.279-2.662,1.279
			c-1.615,0-2.68-1.066-2.68-2.521c0-2.447,2.981-3.068,5.2-3.105c0-1.65-0.674-2.004-1.899-2.004c-0.657,0-1.366,0.141-2.289,0.779
			l-0.231-1.295c0.692-0.531,1.792-0.904,2.946-0.904c2.201,0,3.07,1.029,3.07,4.17v1.775c0,1.242,0.071,1.826,0.994,1.826h0.16
			L462.547,776.199z M460.045,771.674c-2.538,0.088-3.567,0.621-3.567,1.916c0,0.941,0.55,1.33,1.349,1.33
			c0.852,0,1.704-0.461,2.218-1.17V771.674z"/>
		<path d="M463.4,777.832c0-0.48,0.177-1.475,1.544-1.953c-0.746-0.355-0.887-0.834-0.887-1.1c0-0.303,0.195-0.906,1.029-1.297
			c-1.242-0.904-1.509-1.951-1.509-2.838c0-1.918,1.242-3.496,3.549-3.496c0.816,0,1.508,0.195,2.218,0.639
			c0.532-0.283,1.242-0.498,2.112-0.498h0.142l-0.195,1.066h-0.408c-0.124,0-0.657,0.035-1.029,0.123
			c0.639,0.764,0.799,1.438,0.799,2.076c0,1.758-1.242,3.461-3.514,3.461c-0.408,0-0.87-0.053-1.243-0.16
			c-0.248,0.143-0.426,0.32-0.426,0.533c0,0.443,0.639,0.568,2.697,0.922c1.367,0.23,3.549,0.711,3.549,2.414
			c0,1.402-1.491,2.732-4.365,2.732C464.447,780.457,463.4,778.984,463.4,777.832z M466.311,776.27
			c-0.798,0.248-1.384,0.904-1.384,1.525c0,0.799,0.94,1.42,2.608,1.42c1.774,0,2.68-0.709,2.68-1.383
			c0-0.621-0.745-1.066-2.325-1.35C467.854,776.482,466.523,776.305,466.311,776.27z M465.104,770.59
			c0,1.367,0.852,2.201,2.076,2.201c1.331,0,2.059-0.994,2.059-2.254c0-1.365-0.87-2.111-2.094-2.111
			C465.814,768.426,465.104,769.33,465.104,770.59z"/>
		<path d="M473.96,771.674c0.231,2.412,1.615,3.105,3.266,3.105c0.798,0,1.721-0.16,2.502-0.516l0.213,1.26
			c-0.674,0.303-1.65,0.676-2.91,0.676c-3.07,0-4.703-2.096-4.703-4.598c0-2.43,1.562-4.453,4.259-4.453
			c2.165,0,3.745,1.33,3.745,3.674c0,0.248-0.018,0.549-0.071,0.852H473.96z M474.102,770.572h4.579c0-1.225-0.674-2.004-2.13-2.004
			C475.131,768.568,474.421,769.313,474.102,770.572z"/>
		<path d="M492.187,776.021v-4.791c0-1.846-0.621-2.662-2.271-2.662c-0.994,0-1.934,0.354-2.378,1.135v6.318h-1.597v-8.695h1.242
			l0.177,0.922c0.994-0.887,1.952-1.1,2.875-1.1c2.538,0,3.549,1.578,3.549,4.082v4.791H492.187z"/>
		<path d="M495.347,771.674c0-2.521,1.58-4.525,4.313-4.525c2.714,0,4.312,2.004,4.312,4.525c0,2.52-1.598,4.525-4.312,4.525
			C496.927,776.199,495.347,774.193,495.347,771.674z M496.98,771.674c0,1.951,0.958,3.105,2.68,3.105
			c1.721,0,2.679-1.154,2.679-3.105c0-1.953-0.958-3.105-2.679-3.105C497.938,768.568,496.98,769.721,496.98,771.674z"/>
		<path d="M509.936,776.199h-1.438c-1.65,0-2.271-1.029-2.271-2.076v-5.555h-1.491l0.143-1.242h1.349v-2.148l1.597-0.16v2.309h2.289
			v1.242h-2.289v4.578c0,1.668,0.106,1.773,1.828,1.773h0.408L509.936,776.199z"/>
		<path d="M517.674,768.568v7.453h-1.598v-7.453h-1.509l0.214-1.242h1.295v-2.201c0-1.402,0.692-2.414,2.023-2.414
			c1.011,0,1.384,0.09,1.81,0.23l-0.248,1.35c-0.391-0.125-0.728-0.16-1.065-0.16c-0.834,0-0.922,0.355-0.922,2.129v1.066h2.342
			v1.242H517.674z"/>
		<path d="M520.655,771.674c0-2.521,1.58-4.525,4.313-4.525c2.716,0,4.313,2.004,4.313,4.525c0,2.52-1.597,4.525-4.313,4.525
			C522.235,776.199,520.655,774.193,520.655,771.674z M522.288,771.674c0,1.951,0.958,3.105,2.68,3.105s2.68-1.154,2.68-3.105
			c0-1.953-0.958-3.105-2.68-3.105S522.288,769.721,522.288,771.674z"/>
		<path d="M536.646,776.021l-0.178-0.959c-0.55,0.764-1.277,1.137-2.413,1.137c-2.041,0-3.212-1.207-3.212-3.816v-5.057h1.597v4.613
			c0,1.846,0.586,2.84,2.023,2.84c0.798,0,1.579-0.303,2.005-0.994v-6.459h1.598v8.695H536.646z"/>
		<path d="M546.479,776.021v-4.791c0-1.846-0.621-2.662-2.271-2.662c-0.994,0-1.935,0.354-2.378,1.135v6.318h-1.598v-8.695h1.243
			l0.177,0.922c0.994-0.887,1.952-1.1,2.875-1.1c2.538,0,3.549,1.578,3.549,4.082v4.791H546.479z"/>
		<path d="M556.436,776.021l-0.177-1.102c-0.657,0.854-1.882,1.279-2.662,1.279c-2.219,0-3.958-1.988-3.958-4.525
			c0-2.379,1.526-4.525,3.958-4.525c0.78,0,1.916,0.195,2.662,1.1v-5.537h1.597v13.311H556.436z M551.271,771.674
			c0,1.703,0.923,3.105,2.449,3.105c1.277,0,2.715-0.869,2.715-3.053c0-2.094-1.438-3.158-2.715-3.158
			C552.194,768.568,551.271,769.898,551.271,771.674z"/>
	</g>
</g>
<g clip-path="url(#SVGID_2_)">
</g>
<g clip-path="url(#SVGID_2_)">
</g>
<g clip-path="url(#SVGID_2_)">
</g>
<g clip-path="url(#SVGID_2_)">
</g>
<g clip-path="url(#SVGID_2_)">
</g>
<g clip-path="url(#SVGID_2_)">
</g>
</svg>
