<svg xmlns="http://www.w3.org/2000/svg" xmlns:xlink="http://www.w3.org/1999/xlink" viewBox="0 0 800 800"><defs><style>.cls-1{isolation:isolate;}.cls-2{fill:url(#linear-gradient);}.cls-3{fill:url(#linear-gradient-2);}.cls-4{fill:url(#linear-gradient-3);}.cls-5{fill:url(#linear-gradient-4);}.cls-12,.cls-17,.cls-19,.cls-20,.cls-23,.cls-24,.cls-28,.cls-29,.cls-30,.cls-31,.cls-32,.cls-33,.cls-34,.cls-35,.cls-6,.cls-8,.cls-9{mix-blend-mode:multiply;}.cls-6{fill:url(#linear-gradient-5);}.cls-7{fill:url(#linear-gradient-6);}.cls-8{opacity:0.14;fill:url(#linear-gradient-7);}.cls-17,.cls-19,.cls-20,.cls-28,.cls-29,.cls-30,.cls-31,.cls-32,.cls-33,.cls-34,.cls-35,.cls-9{opacity:0.32;}.cls-9{fill:url(#linear-gradient-8);}.cls-10{fill:url(#linear-gradient-9);}.cls-11,.cls-13,.cls-14,.cls-22{mix-blend-mode:overlay;}.cls-11{fill:url(#linear-gradient-10);}.cls-12{fill:url(#linear-gradient-11);}.cls-13{opacity:0.66;fill:url(#linear-gradient-12);}.cls-14,.cls-43{fill:#fff;}.cls-14{opacity:0.37;}.cls-15{fill:url(#linear-gradient-13);}.cls-16{fill:#6b441b;}.cls-17{fill:url(#linear-gradient-14);}.cls-18{fill:url(#linear-gradient-15);}.cls-19{fill:url(#linear-gradient-16);}.cls-20{fill:url(#linear-gradient-17);}.cls-21{fill:url(#linear-gradient-18);}.cls-22{fill:url(#linear-gradient-19);}.cls-23{fill:url(#linear-gradient-20);}.cls-25{fill:url(#linear-gradient-21);}.cls-26{fill:url(#linear-gradient-22);}.cls-27{fill:#363810;}.cls-28{fill:url(#linear-gradient-23);}.cls-29{fill:url(#linear-gradient-24);}.cls-30{fill:url(#linear-gradient-25);}.cls-31{fill:url(#linear-gradient-26);}.cls-32{fill:url(#linear-gradient-27);}.cls-33{fill:url(#linear-gradient-28);}.cls-34{fill:url(#linear-gradient-29);}.cls-35{fill:url(#linear-gradient-30);}.cls-36{fill:#a04333;}.cls-37{fill:#dc6646;}.cls-38{fill:#e0c8c5;}.cls-39{fill:#c04131;}.cls-40{fill:#eadad6;}.cls-41{fill:#90382a;}.cls-42{fill:#bfaba4;}</style><linearGradient id="linear-gradient" x1="409.88" y1="-90.61" x2="397.88" y2="505.39" gradientUnits="userSpaceOnUse"><stop offset="0" stop-color="#29a3c2"/><stop offset="0.02" stop-color="#2fa5c2"/><stop offset="0.28" stop-color="#6eb9c0"/><stop offset="0.51" stop-color="#a0c8bf"/><stop offset="0.71" stop-color="#c4d4be"/><stop offset="0.88" stop-color="#dadabd"/><stop offset="0.98" stop-color="#e2ddbd"/></linearGradient><linearGradient id="linear-gradient-2" x1="550.39" y1="355.94" x2="614.85" y2="714.74" gradientUnits="userSpaceOnUse"><stop offset="0" stop-color="#fff"/><stop offset="0.01" stop-color="#fff" stop-opacity="0.96"/><stop offset="0.05" stop-color="#fff" stop-opacity="0.78"/><stop offset="0.09" stop-color="#fff" stop-opacity="0.61"/><stop offset="0.14" stop-color="#fff" stop-opacity="0.47"/><stop offset="0.2" stop-color="#fff" stop-opacity="0.34"/><stop offset="0.25" stop-color="#fff" stop-opacity="0.23"/><stop offset="0.32" stop-color="#fff" stop-opacity="0.15"/><stop offset="0.4" stop-color="#fff" stop-opacity="0.08"/><stop offset="0.49" stop-color="#fff" stop-opacity="0.03"/><stop offset="0.63" stop-color="#fff" stop-opacity="0.01"/><stop offset="1" stop-color="#fff" stop-opacity="0"/></linearGradient><linearGradient id="linear-gradient-3" x1="464.81" y1="198.85" x2="529.27" y2="557.65" xlink:href="#linear-gradient-2"/><linearGradient id="linear-gradient-4" x1="377.51" y1="389.41" x2="441.96" y2="748.21" gradientTransform="matrix(-1, 0, 0, 1, 629.72, 0)" xlink:href="#linear-gradient-2"/><linearGradient id="linear-gradient-5" x1="399.27" y1="558.44" x2="403.77" y2="447.45" gradientUnits="userSpaceOnUse"><stop offset="0" stop-color="#888f56"/><stop offset="0.98" stop-color="#e2ddbd"/></linearGradient><linearGradient id="linear-gradient-6" x1="299.38" y1="794.84" x2="353.38" y2="506.81" gradientUnits="userSpaceOnUse"><stop offset="0" stop-color="#653d22"/><stop offset="1" stop-color="#9d8831"/></linearGradient><linearGradient id="linear-gradient-7" x1="212.28" y1="629.79" x2="240.46" y2="479.49" gradientUnits="userSpaceOnUse"><stop offset="0" stop-color="#65691f"/><stop offset="1" stop-color="#9e8926"/></linearGradient><linearGradient id="linear-gradient-8" x1="298.53" y1="794" x2="349.42" y2="522.56" xlink:href="#linear-gradient-7"/><linearGradient id="linear-gradient-9" x1="559.37" y1="508.19" x2="532.37" y2="844.23" gradientUnits="userSpaceOnUse"><stop offset="0" stop-color="#928623"/><stop offset="1" stop-color="#3c3d26"/></linearGradient><linearGradient id="linear-gradient-10" x1="478.86" y1="406.1" x2="694.89" y2="832.14" gradientUnits="userSpaceOnUse"><stop offset="0" stop-color="#fffbd0"/><stop offset="1" stop-color="#6a732b" stop-opacity="0"/></linearGradient><linearGradient id="linear-gradient-11" x1="634.33" y1="547.73" x2="903.04" y2="1077.68" xlink:href="#linear-gradient-10"/><linearGradient id="linear-gradient-12" x1="447.73" y1="432.3" x2="669.75" y2="702.33" gradientUnits="userSpaceOnUse"><stop offset="0" stop-color="#ffe17a"/><stop offset="1" stop-color="#6a732b" stop-opacity="0"/></linearGradient><linearGradient id="linear-gradient-13" x1="702.49" y1="494.21" x2="690.49" y2="406.21" xlink:href="#linear-gradient-6"/><linearGradient id="linear-gradient-14" x1="673.05" y1="509.96" x2="695.22" y2="509.96" gradientTransform="matrix(-1, 0, 0, 1, 1386.2, 0)" xlink:href="#linear-gradient-7"/><linearGradient id="linear-gradient-15" x1="638.62" y1="504.13" x2="630.38" y2="443.75" xlink:href="#linear-gradient-6"/><linearGradient id="linear-gradient-16" x1="740.27" y1="514.94" x2="755.48" y2="514.94" gradientTransform="matrix(-1, 0, 0, 1, 1386.2, 0)" xlink:href="#linear-gradient-7"/><linearGradient id="linear-gradient-17" x1="151.1" y1="633.79" x2="116.62" y2="380.97" xlink:href="#linear-gradient-7"/><linearGradient id="linear-gradient-18" x1="115.1" y1="1016.89" x2="406.12" y2="653.85" gradientUnits="userSpaceOnUse"><stop offset="0" stop-color="#463f17"/><stop offset="1" stop-color="#6a732b"/></linearGradient><linearGradient id="linear-gradient-19" x1="479.45" y1="557.42" x2="427.48" y2="718.06" xlink:href="#linear-gradient-10"/><linearGradient id="linear-gradient-20" x1="365.37" y1="553.07" x2="244.27" y2="927.4" xlink:href="#linear-gradient-10"/><linearGradient id="linear-gradient-21" x1="767.09" y1="725.59" x2="759.46" y2="749.15" xlink:href="#linear-gradient-10"/><linearGradient id="linear-gradient-22" x1="728.9" y1="720.8" x2="693.22" y2="831.09" xlink:href="#linear-gradient-10"/><linearGradient id="linear-gradient-23" x1="17.98" y1="544" x2="49" y2="544" xlink:href="#linear-gradient-7"/><linearGradient id="linear-gradient-24" x1="72.58" y1="549.48" x2="111.38" y2="549.48" xlink:href="#linear-gradient-7"/><linearGradient id="linear-gradient-25" x1="147.98" y1="555.34" x2="175.65" y2="555.34" xlink:href="#linear-gradient-7"/><linearGradient id="linear-gradient-26" x1="337.07" y1="575.96" x2="359.24" y2="575.96" xlink:href="#linear-gradient-7"/><linearGradient id="linear-gradient-27" x1="275.47" y1="474.82" x2="282.8" y2="474.82" xlink:href="#linear-gradient-7"/><linearGradient id="linear-gradient-28" x1="223.47" y1="474.82" x2="230.8" y2="474.82" xlink:href="#linear-gradient-7"/><linearGradient id="linear-gradient-29" x1="291.01" y1="477.02" x2="295.58" y2="477.02" xlink:href="#linear-gradient-7"/><linearGradient id="linear-gradient-30" x1="249.76" y1="462.44" x2="225.07" y2="506.87" gradientUnits="userSpaceOnUse"><stop offset="0" stop-color="#65691f"/><stop offset="0.3" stop-color="#7c7622" stop-opacity="0.59"/><stop offset="0.6" stop-color="#8f8024" stop-opacity="0.27"/><stop offset="0.84" stop-color="#9a8725" stop-opacity="0.07"/><stop offset="0.99" stop-color="#9e8926" stop-opacity="0"/></linearGradient></defs><title>about_bg</title><g class="cls-1"><g id="BACKGROUND"><rect class="cls-2" width="800" height="800"/></g><g id="OBJECT"><path class="cls-3" d="M800,318.7c-5.6,4.8-14.9,11.3-26.6,13.9-19.3,4.3-25.8,15-40.8,21.5s-25.8-12.9-47.3-8.6-17.2,17.2-47.3,19.3-17.2,17.2-49.4,25.8-15,15-34.4,21.5-19.3,12.9-27.9,21.5-19.3-6.4-51.6-4.3-38.7,21.5-38.7,21.5l-15-6.4c-25.8-4.3-34.4,15-49.4,23.6s-55.9,8.6-55.9,8.6,27.7,81.1,46.4,129.7H800Z"/><path class="cls-4" d="M800,204.7c-5.6,4.8-14.9,11.3-26.6,13.9-19.3,4.3-25.8,15-40.8,21.5s-25.8-12.9-47.3-8.6-17.2,17.2-47.3,19.3-17.2,17.2-49.4,25.8-15,15-34.4,21.5-19.3,12.9-27.9,21.5-19.3-6.4-51.6-4.3-38.7,21.5-38.7,21.5l-15-6.4C395.3,326,383.2,341,371.6,354,279.8,456.8,180.8,477.8,180.8,477.8s60,48,181.4,14.5H800Z"/><path class="cls-5" d="M0,366.7c5.6,4.8,14.9,11.3,26.6,13.9,19.3,4.3,25.8,15,40.8,21.5s25.8-12.9,47.3-8.6,17.2,17.2,47.3,19.3,17.2,17.2,49.4,25.8,15,15,34.4,21.5,19.3,12.9,27.9,21.5,19.3-6.4,51.6-4.3,38.7,21.5,38.7,21.5l15-6.4c25.8-4.3,34.4,15,49.4,23.6s55.9,8.6,55.9,8.6-27.7,81.1-46.4,129.7H0Z"/><path class="cls-6" d="M0,742.6l800-122V471.9c-67.8-5.9-163.9-17.8-229.2-6.1C495.3,479.3,82.2,463.7,0,460.4Z"/><path class="cls-7" d="M0,726.9H384.8s249-120,327-198C519.6,475.7,120.5,461,0,457.7Z"/><path class="cls-8" d="M480.8,501.8c-29.3-10.1-95.9-20.2-172.3-28.8C177.5,463.4,57.3,459.2,0,457.7V583.8l360.8-46-243-36S438.8,498.8,480.8,501.8Z"/><path class="cls-9" d="M697,542.5c-198-41.2-539.7-36-697-30V726.9H31c179.4-55.7,455.4-135.6,635.3-160.4C677.6,558.3,688,550.2,697,542.5Z"/><path class="cls-10" d="M800,481.9c-65.3,2.9-178.2,23-283.2,50-151.7,39-228,57-228,57L695.9,800H800Z"/><path class="cls-11" d="M288.8,588.8l158.3,82.1C587.7,581.7,720.2,535.6,800,513.6V481.9c-65.3,2.9-178.2,23-283.2,50C365.1,570.8,288.8,588.8,288.8,588.8Z"/><path class="cls-12" d="M800,571.2c-45.5,27.3-127.8,81.7-222.7,167.3L695.9,800H800Z"/><path class="cls-13" d="M561.1,521c-14.8,3.5-29.6,7.1-44.2,10.9Q444,550.6,394.3,562.9l-16.8,71.9L695.9,800H800V572.8C719.7,543.4,632.8,528.5,561.1,521Z"/><path class="cls-14" d="M353.6,573.1l2.8,1.3S652.5,496.8,800,492.9v-11c-65.3,2.9-178.2,23-283.2,50Q410.4,559.2,353.6,573.1Z"/><path class="cls-15" d="M696.1,474.7l-6.9-12.2c4.7-16,11.4-36.5,11.4-36.5s2.5,7.8,5.6,17.4l-3.3,5.8,3.8-4.2,3.9,12.5-4,7.2,4.6-5.2c3,10,5.5,18.8,5.5,20.9,0,4.6-11.8,12.5-11.8,12.5l-5.1,2.7-3-2s-11.9-8.6-11.9-13.3c0-1.6,1.7-8.5,3.8-15.7Z"/><polygon class="cls-16" points="700.1 457.6 700.6 498.7 698.3 498.7 700.1 457.6"/><path class="cls-17" d="M700,497.1s7.9.5,8.8,1.2,4.5,20.5,4.3,24.5c-1-.5-20.3-18.8-22.2-21.2C691.5,499.7,700,497.1,700,497.1Z"/><path class="cls-18" d="M634.2,490.7l-4.7-8.4c3.2-10.9,7.8-25.1,7.8-25.1s1.7,5.3,3.8,12l-2.3,4,2.6-2.9,2.6,8.6-2.8,4.9,3.2-3.6c2.1,6.8,3.7,12.9,3.7,14.4,0,3.2-8.1,8.6-8.1,8.6l-3.5,1.9-2-1.4s-8.2-5.9-8.2-9.1c0-1.1,1.2-5.9,2.6-10.8Z"/><polygon class="cls-16" points="637 479 637.3 507.2 635.7 507.2 637 479"/><path class="cls-19" d="M636.9,506.1s5.4.3,6,.8,3.1,14.1,2.9,16.8c-.7-.3-13.9-12.9-15.2-14.6C631,507.9,636.9,506.1,636.9,506.1Z"/><path class="cls-20" d="M0,612.4c110.5,2.2,244.5,4.6,297,4.6-27.9-49.7-108.8-112.7-168.1-154.6-54.6-2.5-99.9-4-128.9-4.8Z"/><path class="cls-21" d="M0,523V800H800V703.6C520.4,552.7,158.4,526.7,0,523Z"/><path class="cls-22" d="M264.8,573.8c181.6,78.6,314.3,243,535.2,185.4V703.6C570.5,579.8,285.6,540.1,103.2,527.7A650.4,650.4,0,0,1,264.8,573.8Z"/><path class="cls-23" d="M108.8,621.8s411,54,465,51C377.9,609.6,130.2,568.6,0,549.8V800H368.1L264.8,768.9s366-6,402-15C501.8,690.8,108.8,621.8,108.8,621.8Z"/><g class="cls-24"><polygon class="cls-25" points="723.9 723.9 800 759.2 800 739.5 723.9 723.9"/><polygon class="cls-26" points="800 759.2 609.8 789.9 674.9 800 800 800 800 759.2"/></g><path class="cls-14" d="M0,529.5C152.6,536.7,574,573,800,709v-5.4C520.4,552.7,158.4,526.7,0,523Z"/><path class="cls-27" d="M41.8,494.7l9.6-17.1c-6.6-22.3-15.9-51.1-15.9-51.1s-3.5,10.9-7.8,24.4l4.6,8.1-5.3-5.9c-1.8,5.7-3.6,11.7-5.4,17.5l5.7,10-6.5-7.3c-4.2,14-7.6,26.4-7.6,29.3,0,6.5,16.5,17.5,16.5,17.5l7.2,3.8,4.2-2.8s16.7-12.1,16.7-18.6c0-2.3-2.3-11.9-5.3-22Z"/><polygon class="cls-16" points="36.2 470.7 35.5 528.3 38.8 528.3 36.2 470.7"/><path class="cls-28" d="M36.3,526s-11,.7-12.3,1.7-6.3,28.7-6,34.3c1.3-.7,28.3-26.3,31-29.7C48.3,529.7,36.3,526,36.3,526Z"/><path class="cls-27" d="M102.4,487.8l12.1-21.3c-8.2-27.9-19.9-63.9-19.9-63.9s-4.4,13.6-9.7,30.5l5.7,10.2L84,435.8c-2.2,7.1-4.5,14.6-6.7,21.9l7.1,12.5-8.1-9.1c-5.2,17.5-9.5,33-9.5,36.6,0,8.1,20.7,21.9,20.7,21.9l8.9,4.8,5.2-3.5s20.9-15.1,20.9-23.2c0-2.8-2.9-14.9-6.6-27.5Z"/><polygon class="cls-16" points="95.4 457.8 94.5 529.8 98.6 529.8 95.4 457.8"/><path class="cls-29" d="M95.5,527s-13.8.8-15.4,2.1-7.9,35.9-7.5,42.9c1.7-.8,35.4-32.9,38.8-37.1C110.5,531.6,95.5,527,95.5,527Z"/><path class="cls-27" d="M169.2,511.3l8.6-15.2c-5.9-19.9-14.2-45.6-14.2-45.6s-3.1,9.7-6.9,21.8l4.1,7.3-4.7-5.3-4.8,15.6,5,8.9-5.8-6.5c-3.7,12.5-6.8,23.5-6.8,26.1,0,5.8,14.7,15.6,14.7,15.6l6.4,3.4,3.7-2.5s14.9-10.8,14.9-16.6c0-2-2.1-10.7-4.7-19.6Z"/><polygon class="cls-16" points="164.2 490 163.6 541.3 166.5 541.3 164.2 490"/><path class="cls-30" d="M164.3,539.3s-9.8.6-11,1.5-5.6,25.6-5.4,30.6c1.2-.6,25.3-23.5,27.7-26.5C175.1,542.6,164.3,539.3,164.3,539.3Z"/><path class="cls-27" d="M354.1,540.7l6.9-12.2c-4.7-16-11.4-36.5-11.4-36.5s-2.5,7.8-5.6,17.4l3.3,5.8-3.8-4.2-3.9,12.5,4,7.2-4.6-5.2c-3,10-5.5,18.8-5.5,20.9,0,4.6,11.8,12.5,11.8,12.5l5.1,2.7,3-2s11.9-8.6,11.9-13.3c0-1.6-1.7-8.5-3.8-15.7Z"/><polygon class="cls-16" points="350.1 523.6 349.6 564.7 351.9 564.7 350.1 523.6"/><path class="cls-31" d="M350.2,563.1s-7.9.5-8.8,1.2-4.5,20.5-4.3,24.5c1-.5,20.3-18.8,22.2-21.2C358.8,565.7,350.2,563.1,350.2,563.1Z"/><path class="cls-27" d="M281.1,463.2l2.3-4c-1.6-5.3-3.8-12.1-3.8-12.1l-1.8,5.8,1.1,1.9-1.2-1.4-1.3,4.1,1.3,2.4-1.5-1.7a52.3,52.3,0,0,0-1.8,6.9c0,1.5,3.9,4.1,3.9,4.1l1.7.9,1-.7s3.9-2.9,3.9-4.4a36.6,36.6,0,0,0-1.2-5.2Z"/><polygon class="cls-16" points="279.8 457.5 279.6 471.1 280.4 471.1 279.8 457.5"/><path class="cls-32" d="M279.8,470.6a14.9,14.9,0,0,0-2.9.4c-.3.2-1.5,6.8-1.4,8.1s6.7-6.2,7.3-7S279.8,470.6,279.8,470.6Z"/><path class="cls-27" d="M229.1,463.2l2.3-4c-1.6-5.3-3.8-12.1-3.8-12.1l-1.8,5.8,1.1,1.9-1.2-1.4-1.3,4.1,1.3,2.4-1.5-1.7a52.3,52.3,0,0,0-1.8,6.9c0,1.5,3.9,4.1,3.9,4.1l1.7.9,1-.7s3.9-2.9,3.9-4.4a36.6,36.6,0,0,0-1.2-5.2Z"/><polygon class="cls-16" points="227.8 457.5 227.6 471.1 228.4 471.1 227.8 457.5"/><path class="cls-33" d="M227.8,470.6a14.9,14.9,0,0,0-2.9.4c-.3.2-1.5,6.8-1.4,8.1s6.7-6.2,7.3-7S227.8,470.6,227.8,470.6Z"/><path class="cls-27" d="M294.5,469.7l1.4-2.5c-1-3.3-2.4-7.5-2.4-7.5l-1.1,3.6.7,1.2-.8-.9-.8,2.6.8,1.5-1-1.1a32.7,32.7,0,0,0-1.1,4.3c0,1,2.4,2.6,2.4,2.6l1.1.6.6-.4s2.5-1.8,2.5-2.7a22.9,22.9,0,0,0-.8-3.2Z"/><polygon class="cls-16" points="293.7 466.2 293.6 474.7 294.1 474.7 293.7 466.2"/><path class="cls-34" d="M293.7,474.4a9.3,9.3,0,0,0-1.8.2,24.3,24.3,0,0,0-.9,5.1c.2-.1,4.2-3.9,4.6-4.4S293.7,474.4,293.7,474.4Z"/><polygon class="cls-35" points="239 468.3 191.5 503 263.5 502 268.5 468 239 468.3"/><polygon class="cls-36" points="269.3 455.7 268.3 470.3 260.9 474.9 259.1 449.1 269.3 455.7"/><polygon class="cls-37" points="239.1 474.4 236.3 455.5 241.7 441.9 249.6 437.1 256.5 442.2 262.7 458 260.9 474.9 239.1 474.4"/><polygon class="cls-38" points="248.8 434.5 258.1 433.5 265.5 438.4 272.6 456.8 263.9 460.9 258.3 444.2 249.6 437.1 248.8 434.5"/><polygon class="cls-39" points="237.1 460.7 243.7 444.2 249.9 440.4 255.8 443.5 262.7 458 256.5 442.2 249.6 437.1 241.7 441.9 236.3 455.5 237.1 460.7"/><path class="cls-39" d="M240.5,442.4c0,.5,1.2,15.8,1.2,15.8h.7l-.7-16.3Z"/><path class="cls-39" d="M259.2,442.4c0,.5-1.2,15.8-1.2,15.8h-.7l.7-16.3Z"/><polygon class="cls-39" points="247 440.1 246.5 457.7 247.3 457.9 247.3 438.6 247 440.1"/><polygon class="cls-39" points="253.3 440.5 252.8 458 253.6 458.2 253.6 439 253.3 440.5"/><path class="cls-40" d="M242.3,474.5c0-.8-1.4-17.5-1.4-17.5l17.6.3L257.2,475Z"/><path class="cls-41" d="M243.6,474.5c0-.6-.9-15.7-.9-15.7l14.2.2-1.3,15.9Z"/><polygon class="cls-42" points="261.9 436 252.7 439.6 253.4 440.2 262.9 436.7 261.9 436"/><polygon class="cls-42" points="266.5 441 258.2 444.2 258.3 444.2 258.6 445 266.8 441.9 266.5 441"/><polygon class="cls-42" points="268.8 447 260.4 450.3 260.6 451.1 269.2 447.9 268.8 447"/><polygon class="cls-42" points="271 452.6 262.3 456 262.6 456.8 271.4 453.5 271 452.6"/><path class="cls-40" d="M239.5,440.8s-6.6,16.7-6.3,16.7l2.1.8,6.4-16.4,7.9-4.9,6.9,5.1,7.4,18.7,1.8-.8-6.8-18.7-10.1-6.8Z"/><polygon class="cls-40" points="241.7 458.2 256.2 474.6 256.7 472.9 243.7 457.7 241.7 458.2"/><polygon class="cls-40" points="242.7 472.9 256.2 457.9 258 458.2 243.6 474.5 242.7 472.9"/><circle class="cls-43" cx="164.1" cy="268.7" r="6.6"/><circle class="cls-43" cx="615.9" cy="268.7" r="6.6"/></g></g></svg>