<?xml version="1.0" encoding="utf-8"?>
<!-- Generator: Adobe Illustrator 21.0.0, SVG Export Plug-In . SVG Version: 6.00 Build 0)  -->
<svg version="1.1" id="Layer_1" xmlns="http://www.w3.org/2000/svg" xmlns:xlink="http://www.w3.org/1999/xlink" x="0px" y="0px"
	 viewBox="0 0 1000 1000" style="enable-background:new 0 0 1000 1000;" xml:space="preserve">
<style type="text/css">
	.st0{fill:#A2A2A2;}
	.st1{fill:#7E2918;}
</style>
<g>
	<g>
		<path class="st0" d="M500.4,1C224.7,1,0.4,225.3,0.4,501c0,275.7,224.3,500,500,500c275.7,0,500-224.3,500-500
			C1000.4,225.3,776.2,1,500.4,1z M500.4,951c-248.1,0-450-201.9-450-450s201.9-450,450-450c248.1,0,450,201.9,450,450
			S748.6,951,500.4,951z"/>
	</g>
	<g>
		<path class="st1" d="M781.9,458.7l-8.6,21.6c-14.7,36.8-46.7,62.2-85.7,68.2l-5.7,0.9l-1.3-5.6c-6.2-26.5-18.5-51.8-35.5-73.1
			l-3.5-4.3l57.3-57.4c18.9-18.9,29.3-44,29.3-70.7v-43.6h-30v43.6c0,18.4-7.5,36.5-20.5,49.5L620.2,445l-4.4-3.5
			c-13.9-11.2-29.4-20.2-45.9-27l-9.1-3.7l7.3-6.7c20.9-19.3,32.5-45.3,32.5-73.3c0-55.2-44.9-100.1-100.1-100.1
			c-55.2,0-100.1,44.9-100.1,100.1c0,27.9,11.5,54,32.5,73.3l7.2,6.7l-9.1,3.7c-16.5,6.7-32,15.8-46,27l-4.4,3.5l-57.3-57.3
			c-13-13-20.5-31.1-20.5-49.5v-43.6h-30v43.6c0,26.8,10.4,51.9,29.3,70.7l57.3,57.4l-3.5,4.3c-17.3,21.6-29.2,46.2-35.5,73.1
			l-1.3,5.6l-5.7-0.9c-39-6-71.1-31.5-85.8-68.3l-8.6-21.5l-27.9,11.2l8.6,21.5c18.9,47.2,60.1,79.7,110.3,86.9l5.4,0.8v5.4
			c0,0.4,0,0.9-0.1,1.3c0,25.4,4.9,49.8,14.7,72.8l2.3,5.4l-15.5,7.8c-38.4,19.2-63,56.9-65.2,99.5h30.1
			c2.2-31.1,20.3-58.6,48.5-72.7l17.2-8.5l3.1,4.3c34.9,48.2,90.9,76.9,149.9,76.9c59,0,115-28.8,149.9-76.9l3.1-4.3l17.2,8.6
			c28.2,14.1,46.4,41.6,48.5,72.7h30.1c-2.2-42.6-26.8-80.3-65.2-99.5l-15.5-7.8l2.3-5.4c9.8-23,14.8-47.3,14.8-72.4
			c0-0.7-0.1-1.2-0.1-1.6v-5.4l5.3-0.8c49.4-7.1,91.7-40.4,110.3-86.9l8.6-21.6L781.9,458.7z M430.4,330.9c0-38.6,31.4-70,70-70
			c38.6,0,70.1,31.4,70.1,70s-31.4,70-70.1,70C461.8,400.9,430.4,369.5,430.4,330.9z M500.4,741.2c-85.5,0-155.1-69.6-155.1-155.1
			c0-85.5,69.6-155.1,155.1-155.1c85.5,0,155.1,69.6,155.1,155.1C655.5,671.6,586,741.2,500.4,741.2z"/>
	</g>
</g>
<g>
	<g>
		
			<rect x="469.8" y="90.8" transform="matrix(0.7071 -0.7071 0.7071 0.7071 -207.2646 499.6028)" class="st0" width="59.4" height="818.3"/>
	</g>
</g>
</svg>
