<svg xmlns="http://www.w3.org/2000/svg" xmlns:xlink="http://www.w3.org/1999/xlink" viewBox="0 0 901 904"><defs><style>.cls-1{isolation:isolate;}.cls-2{fill:url(#linear-gradient);}.cls-3{fill:#ead9d3;}.cls-4{fill:#ffd3a6;}.cls-5{fill:#c7aaac;}.cls-6{fill:#d8b6bf;}.cls-26,.cls-7{fill:#fff;}.cls-8{fill:#f9f0ca;}.cls-9{fill:#d9ceca;}.cls-10{fill:#845a7e;}.cls-11{fill:#de7482;}.cls-12{fill:#f9a397;}.cls-13{fill:#5b3657;}.cls-14{fill:#f5e3b8;}.cls-15{fill:#cc8278;}.cls-16{fill:#af665f;}.cls-17{fill:#7c4947;}.cls-18{fill:#9b8c78;}.cls-19{fill:#bcae91;}.cls-20{fill:#af736d;}.cls-21{fill:#d18a86;}.cls-22{fill:#492626;}.cls-23{fill:#664262;}.cls-24{fill:#772647;opacity:0.6;}.cls-24,.cls-31,.cls-33,.cls-35,.cls-39,.cls-40,.cls-59,.cls-65,.cls-66{mix-blend-mode:multiply;}.cls-25{fill:#c66374;}.cls-26,.cls-33,.cls-40,.cls-66{opacity:0.3;}.cls-27,.cls-31,.cls-66{fill:#58595b;}.cls-28,.cls-39,.cls-40{fill:#d19962;}.cls-29{fill:#ffc280;}.cls-30{fill:url(#linear-gradient-2);}.cls-31{opacity:0.5;}.cls-32{fill:#7c3522;}.cls-33,.cls-35,.cls-59{fill:#732926;}.cls-34,.cls-59{opacity:0.2;}.cls-34{mix-blend-mode:screen;}.cls-35,.cls-65{opacity:0.4;}.cls-36{fill:#345a6f;}.cls-37{fill:#8395b5;}.cls-38{fill:#f9ddb4;}.cls-39{opacity:0.7;}.cls-41{fill:#ff9e61;}.cls-42{fill:#f44a1c;}.cls-43{fill:#e6e7e8;}.cls-44{fill:#386a7f;}.cls-45{fill:#213945;}.cls-46{fill:#869ca9;}.cls-47{fill:#231f20;}.cls-48{fill:#e84215;}.cls-49{fill:#d1d3d4;}.cls-50{fill:#ffc27d;}.cls-51{fill:#ffc88d;}.cls-52,.cls-53,.cls-61,.cls-64,.cls-65{fill:none;}.cls-52{stroke:#3c2415;stroke-width:9.82px;}.cls-52,.cls-53,.cls-61,.cls-64{stroke-linecap:round;}.cls-52,.cls-53,.cls-63,.cls-64{stroke-linejoin:round;}.cls-53{stroke:#d82432;stroke-width:9.01px;}.cls-54{fill:#e29627;}.cls-55{fill:#de7540;}.cls-56{fill:#ce2a14;}.cls-57{fill:#ed1c24;}.cls-58{fill:#f7381b;}.cls-60{fill:#292d34;}.cls-61{stroke:#fff;}.cls-61,.cls-65{stroke-miterlimit:10;}.cls-61,.cls-64,.cls-65{stroke-width:6px;}.cls-62{fill:#e2f1f7;}.cls-63{fill:#363a41;stroke:#363a41;stroke-width:2px;}.cls-64{stroke:#535a66;}.cls-65{stroke:#58595b;}</style><linearGradient id="linear-gradient" x1="6623.52" y1="281.24" x2="7524.51" y2="281.24" gradientTransform="matrix(-1, 0, 0, 1, 7524.51, 1)" gradientUnits="userSpaceOnUse"><stop offset="0" stop-color="#a9f2fe"/><stop offset="0.09" stop-color="#a2f1fe"/><stop offset="0.7" stop-color="#74eafd"/><stop offset="1" stop-color="#62e7fd"/></linearGradient><linearGradient id="linear-gradient-2" x1="2.75" y1="801.74" x2="903.74" y2="801.74" gradientUnits="userSpaceOnUse"><stop offset="0" stop-color="#ffc127"/><stop offset="0.03" stop-color="#ffb822"/><stop offset="0.15" stop-color="#ff9d13"/><stop offset="0.26" stop-color="#ff8a08"/><stop offset="0.38" stop-color="#ff7f02"/><stop offset="0.51" stop-color="#ff7b00"/><stop offset="0.62" stop-color="#ff7f02"/><stop offset="0.74" stop-color="#ff8b09"/><stop offset="0.86" stop-color="#ff9f14"/><stop offset="0.98" stop-color="#ffbb23"/><stop offset="1" stop-color="#ffc127"/></linearGradient></defs><title>boss</title><g class="cls-1"><g id="Layer_1" data-name="Layer 1"><polygon class="cls-2" points="901 0 901 50.5 901 143.7 901 564.5 0 564.5 0 83.7 0 50.5 0 0 901 0"/><rect class="cls-3" x="93.8" y="47.7" width="122.4" height="242.68"/><rect class="cls-4" x="717.1" width="69.6" height="214.74"/><rect class="cls-5" x="187.2" y="162.7" width="112.1" height="240.78"/><rect class="cls-6" x="200.8" y="175.7" width="36.1" height="14.49"/><rect class="cls-6" x="249.5" y="175.7" width="36.1" height="14.49"/><rect class="cls-6" x="200.8" y="197" width="36.1" height="14.49"/><rect class="cls-6" x="249.5" y="197" width="36.1" height="14.49"/><rect class="cls-6" x="200.8" y="218.2" width="36.1" height="14.48"/><rect class="cls-6" x="249.5" y="218.2" width="36.1" height="14.48"/><rect class="cls-6" x="200.8" y="239.5" width="36.1" height="14.49"/><rect class="cls-6" x="249.5" y="239.5" width="36.1" height="14.49"/><rect class="cls-6" x="200.8" y="260.5" width="36.1" height="14.49"/><rect class="cls-6" x="249.5" y="260.5" width="36.1" height="14.49"/><rect class="cls-6" x="200.8" y="281.8" width="36.1" height="14.48"/><rect class="cls-6" x="249.5" y="281.8" width="36.1" height="14.48"/><rect class="cls-6" x="200.8" y="302.9" width="36.1" height="14.49"/><rect class="cls-6" x="249.5" y="302.9" width="36.1" height="14.49"/><rect class="cls-6" x="200.8" y="324.2" width="36.1" height="14.49"/><rect class="cls-6" x="249.5" y="324.2" width="36.1" height="14.49"/><rect class="cls-6" x="200.8" y="345.8" width="36.1" height="14.49"/><rect class="cls-6" x="249.5" y="345.8" width="36.1" height="14.49"/><rect class="cls-6" x="200.8" y="367.1" width="36.1" height="14.49"/><rect class="cls-6" x="249.5" y="367.1" width="36.1" height="14.49"/><rect class="cls-6" x="200.8" y="388.3" width="36.1" height="14.49"/><rect class="cls-6" x="249.5" y="388.3" width="36.1" height="14.49"/><rect class="cls-6" x="200.8" y="409.6" width="36.1" height="14.49"/><rect class="cls-6" x="249.5" y="409.6" width="36.1" height="14.49"/><rect class="cls-6" x="200.8" y="430.6" width="36.1" height="14.49"/><rect class="cls-6" x="249.5" y="430.6" width="36.1" height="14.49"/><rect class="cls-6" x="200.8" y="451.9" width="36.1" height="14.49"/><rect class="cls-6" x="249.5" y="451.9" width="36.1" height="14.49"/><rect class="cls-6" x="200.8" y="473.1" width="36.1" height="14.49"/><rect class="cls-6" x="249.5" y="473.1" width="36.1" height="14.49"/><rect class="cls-6" x="200.8" y="494.4" width="36.1" height="14.49"/><rect class="cls-6" x="249.5" y="494.4" width="36.1" height="14.49"/><rect class="cls-7" x="484.2" width="101.6" height="317.21"/><polygon class="cls-8" points="749.7 314.9 692.7 314.9 692.7 25.1 749.7 67.5 749.7 314.9"/><rect class="cls-9" x="540.4" y="25.1" width="152.2" height="315.95"/><rect class="cls-5" x="556.6" y="47.7" width="119.8" height="14.7"/><rect class="cls-5" x="556.6" y="73.7" width="119.8" height="14.7"/><rect class="cls-5" x="556.6" y="100.5" width="119.8" height="14.7"/><rect class="cls-5" x="556.6" y="128.2" width="119.8" height="14.7"/><rect class="cls-5" x="556.6" y="154.1" width="119.8" height="14.7"/><rect class="cls-5" x="556.6" y="180.9" width="119.8" height="14.7"/><rect class="cls-10" x="282.7" y="67.5" width="162.7" height="505.28"/><rect class="cls-11" x="316.5" y="14.3" width="53.1" height="53.24"/><rect class="cls-12" x="316.5" width="42.1" height="14.3"/><rect class="cls-13" x="325" y="115.2" width="27.2" height="14.23"/><rect class="cls-13" x="325" y="135.3" width="27.2" height="14.23"/><rect class="cls-13" x="325" y="155.3" width="27.2" height="14.23"/><rect class="cls-13" x="358.6" y="155.3" width="13.6" height="14.23"/><rect class="cls-13" x="325" y="175.4" width="27.2" height="14.23"/><rect class="cls-13" x="358.6" y="175.4" width="13.6" height="14.23"/><rect class="cls-13" x="325" y="196.8" width="27.2" height="14.23"/><rect class="cls-13" x="358.6" y="196.8" width="13.6" height="14.23"/><rect class="cls-13" x="358.6" y="216.9" width="13.6" height="14.23"/><rect class="cls-13" x="325" y="237.8" width="27.2" height="14.23"/><rect class="cls-13" x="358.6" y="237.8" width="13.6" height="14.23"/><rect class="cls-13" x="325" y="258" width="27.2" height="14.23"/><rect class="cls-13" x="358.6" y="258" width="13.6" height="14.23"/><rect class="cls-13" x="325" y="279.3" width="27.2" height="14.23"/><rect class="cls-13" x="358.6" y="279.3" width="13.6" height="14.23"/><rect class="cls-13" x="305.5" y="175.4" width="13.6" height="14.23"/><rect class="cls-13" x="305.5" y="237.8" width="13.6" height="14.23"/><rect class="cls-13" x="305.5" y="279.3" width="13.6" height="14.23"/><rect class="cls-13" x="325" y="299.4" width="27.2" height="14.23"/><rect class="cls-13" x="325" y="321" width="27.2" height="14.23"/><rect class="cls-13" x="358.6" y="321" width="13.6" height="14.23"/><rect class="cls-13" x="325" y="341.1" width="27.2" height="14.23"/><rect class="cls-13" x="358.6" y="341.1" width="13.6" height="14.23"/><rect class="cls-13" x="358.6" y="362.4" width="13.6" height="14.23"/><rect class="cls-13" x="358.6" y="382.5" width="13.6" height="14.23"/><rect class="cls-13" x="358.6" y="488.2" width="13.6" height="14.23"/><rect class="cls-13" x="358.6" y="509.6" width="13.6" height="14.23"/><rect class="cls-13" x="325" y="403.5" width="27.2" height="14.23"/><rect class="cls-13" x="358.6" y="403.5" width="13.6" height="14.23"/><rect class="cls-13" x="325" y="423.6" width="27.2" height="14.23"/><rect class="cls-13" x="358.6" y="423.6" width="13.6" height="14.23"/><rect class="cls-13" x="325" y="444.9" width="27.2" height="14.23"/><rect class="cls-13" x="325" y="465.1" width="27.2" height="14.23"/><rect class="cls-13" x="358.6" y="465.1" width="13.6" height="14.23"/><rect class="cls-14" x="382.3" y="118.4" width="182.9" height="463.29"/><rect class="cls-15" x="406.2" y="157.6" width="22.1" height="17.34"/><rect class="cls-15" x="434.3" y="157.6" width="22.1" height="17.34"/><rect class="cls-15" x="462" y="157.6" width="22.1" height="17.34"/><rect class="cls-11" x="490.1" y="157.6" width="22.1" height="17.34"/><rect class="cls-15" x="406.2" y="181.4" width="22.1" height="17.34"/><rect class="cls-15" x="434.3" y="181.4" width="22.1" height="17.34"/><rect class="cls-15" x="462" y="181.4" width="22.1" height="17.34"/><rect class="cls-15" x="490.1" y="181.4" width="22.1" height="17.34"/><rect class="cls-15" x="519.2" y="157.6" width="22.1" height="17.34"/><rect class="cls-15" x="519.2" y="181.4" width="22.1" height="17.34"/><rect class="cls-16" x="406.2" y="205.9" width="22.1" height="17.34"/><rect class="cls-15" x="434.3" y="205.9" width="22.1" height="17.34"/><rect class="cls-15" x="462" y="205.9" width="22.1" height="17.34"/><rect class="cls-15" x="490.1" y="205.9" width="22.1" height="17.34"/><rect class="cls-15" x="406.2" y="229.7" width="22.1" height="17.34"/><rect class="cls-15" x="434.3" y="229.7" width="22.1" height="17.34"/><rect class="cls-15" x="462" y="229.7" width="22.1" height="17.34"/><rect class="cls-15" x="490.1" y="229.7" width="22.1" height="17.34"/><rect class="cls-15" x="519.2" y="205.9" width="22.1" height="17.34"/><rect class="cls-15" x="519.2" y="229.7" width="22.1" height="17.34"/><rect class="cls-15" x="406.2" y="255.1" width="22.1" height="17.34"/><rect class="cls-15" x="434.3" y="255.1" width="22.1" height="17.34"/><rect class="cls-15" x="462" y="255.1" width="22.1" height="17.34"/><rect class="cls-15" x="490.1" y="255.1" width="22.1" height="17.34"/><rect class="cls-15" x="406.2" y="278.9" width="22.1" height="17.34"/><rect class="cls-15" x="434.3" y="278.9" width="22.1" height="17.34"/><rect class="cls-11" x="462" y="278.9" width="22.1" height="17.34"/><rect class="cls-15" x="490.1" y="278.9" width="22.1" height="17.34"/><rect class="cls-15" x="519.2" y="255.1" width="22.1" height="17.34"/><rect class="cls-15" x="519.2" y="278.9" width="22.1" height="17.34"/><rect class="cls-15" x="406.2" y="303.3" width="22.1" height="17.34"/><rect class="cls-15" x="434.3" y="303.3" width="22.1" height="17.34"/><rect class="cls-15" x="462" y="303.3" width="22.1" height="17.34"/><rect class="cls-15" x="490.1" y="303.3" width="22.1" height="17.34"/><rect class="cls-15" x="406.2" y="327.1" width="22.1" height="17.34"/><rect class="cls-15" x="434.3" y="327.1" width="22.1" height="17.34"/><rect class="cls-15" x="462" y="327.1" width="22.1" height="17.34"/><rect class="cls-16" x="490.1" y="327.1" width="22.1" height="17.34"/><rect class="cls-15" x="519.2" y="303.3" width="22.1" height="17.34"/><rect class="cls-15" x="519.2" y="327.1" width="22.1" height="17.34"/><rect class="cls-11" x="406.2" y="350.7" width="22.1" height="17.34"/><rect class="cls-15" x="434.3" y="350.7" width="22.1" height="17.34"/><rect class="cls-15" x="462" y="350.7" width="22.1" height="17.34"/><rect class="cls-15" x="490.1" y="350.7" width="22.1" height="17.34"/><rect class="cls-15" x="406.2" y="374.5" width="22.1" height="17.34"/><rect class="cls-15" x="434.3" y="374.5" width="22.1" height="17.34"/><rect class="cls-15" x="462" y="374.5" width="22.1" height="17.34"/><rect class="cls-15" x="490.1" y="374.5" width="22.1" height="17.34"/><rect class="cls-15" x="519.2" y="350.7" width="22.1" height="17.34"/><rect class="cls-15" x="519.2" y="374.5" width="22.1" height="17.34"/><rect class="cls-15" x="406.2" y="399" width="22.1" height="17.34"/><rect class="cls-15" x="434.3" y="399" width="22.1" height="17.34"/><rect class="cls-15" x="462" y="399" width="22.1" height="17.34"/><rect class="cls-15" x="490.1" y="399" width="22.1" height="17.34"/><rect class="cls-15" x="406.2" y="422.8" width="22.1" height="17.34"/><rect class="cls-15" x="434.3" y="422.8" width="22.1" height="17.34"/><rect class="cls-15" x="462" y="422.8" width="22.1" height="17.34"/><rect class="cls-15" x="490.1" y="422.8" width="22.1" height="17.34"/><rect class="cls-15" x="519.2" y="399" width="22.1" height="17.34"/><rect class="cls-15" x="519.2" y="422.8" width="22.1" height="17.34"/><rect class="cls-15" x="406.2" y="448.2" width="22.1" height="17.34"/><rect class="cls-15" x="434.3" y="448.2" width="22.1" height="17.34"/><rect class="cls-15" x="462" y="448.2" width="22.1" height="17.34"/><rect class="cls-11" x="490.1" y="448.2" width="22.1" height="17.34"/><rect class="cls-15" x="406.2" y="472" width="22.1" height="17.34"/><rect class="cls-16" x="434.3" y="472" width="22.1" height="17.34"/><rect class="cls-15" x="462" y="472" width="22.1" height="17.34"/><rect class="cls-15" x="490.1" y="472" width="22.1" height="17.34"/><rect class="cls-15" x="519.2" y="448.2" width="22.1" height="17.34"/><rect class="cls-15" x="519.2" y="472" width="22.1" height="17.34"/><rect class="cls-15" x="406.2" y="496.4" width="22.1" height="17.34"/><rect class="cls-15" x="434.3" y="496.4" width="22.1" height="17.34"/><rect class="cls-15" x="462" y="496.4" width="22.1" height="17.34"/><rect class="cls-15" x="490.1" y="496.4" width="22.1" height="17.34"/><rect class="cls-15" x="406.2" y="520.2" width="22.1" height="17.34"/><rect class="cls-15" x="434.3" y="520.2" width="22.1" height="17.34"/><rect class="cls-15" x="462" y="520.2" width="22.1" height="17.34"/><rect class="cls-15" x="490.1" y="520.2" width="22.1" height="17.34"/><rect class="cls-15" x="519.2" y="496.4" width="22.1" height="17.34"/><rect class="cls-15" x="519.2" y="520.2" width="22.1" height="17.34"/><rect class="cls-12" x="600.2" y="185.8" width="300.8" height="510.84"/><polygon class="cls-17" points="565.2 696.6 600.2 696.6 600.2 185.8 565.2 218 565.2 696.6"/><rect class="cls-14" x="854.8" y="185.8" width="9.4" height="510.84"/><rect class="cls-14" x="812.3" y="185.8" width="9.4" height="510.84"/><rect class="cls-14" x="769.1" y="185.8" width="9.4" height="510.84"/><rect class="cls-14" x="726.6" y="185.8" width="9.4" height="510.84"/><rect class="cls-14" x="681" y="185.8" width="9.4" height="510.84"/><rect class="cls-14" x="638.5" y="185.8" width="9.4" height="510.84"/><rect class="cls-14" x="592.4" y="177.4" width="308.6" height="24.62"/><rect class="cls-18" x="556.6" y="221.4" width="8.6" height="11.38"/><polygon class="cls-19" points="556.6 232.8 592.4 202 592.4 177.4 556.6 208.2 556.6 232.8"/><rect class="cls-20" x="609" y="213.4" width="19" height="41.89"/><rect class="cls-14" x="653.9" y="213.4" width="19" height="41.89"/><rect class="cls-20" x="698.3" y="213.4" width="19" height="41.89"/><rect class="cls-17" x="741.9" y="213.4" width="19" height="41.89"/><rect class="cls-20" x="786.7" y="213.4" width="19" height="41.89"/><rect class="cls-21" x="831.1" y="213.4" width="19" height="41.89"/><rect class="cls-20" x="873.4" y="213.4" width="19" height="41.89"/><rect class="cls-20" x="609" y="267.2" width="19" height="41.89"/><rect class="cls-20" x="653.9" y="267.2" width="19" height="41.89"/><rect class="cls-20" x="698.3" y="267.2" width="19" height="41.89"/><rect class="cls-20" x="741.9" y="267.2" width="19" height="41.89"/><rect class="cls-20" x="786.7" y="267.2" width="19" height="41.89"/><rect class="cls-20" x="831.1" y="267.2" width="19" height="41.89"/><rect class="cls-14" x="873.4" y="267.2" width="19" height="41.89"/><rect class="cls-20" x="609" y="320.7" width="19" height="41.88"/><rect class="cls-17" x="653.9" y="320.7" width="19" height="41.88"/><rect class="cls-20" x="698.3" y="320.7" width="19" height="41.88"/><rect class="cls-20" x="741.9" y="320.7" width="19" height="41.88"/><rect class="cls-20" x="786.7" y="320.7" width="19" height="41.88"/><rect class="cls-20" x="831.1" y="320.7" width="19" height="41.88"/><rect class="cls-20" x="873.4" y="320.7" width="19" height="41.88"/><rect class="cls-20" x="609" y="374.5" width="19" height="41.89"/><rect class="cls-20" x="653.9" y="374.5" width="19" height="41.89"/><rect class="cls-21" x="698.3" y="374.5" width="19" height="41.89"/><rect class="cls-20" x="741.9" y="374.5" width="19" height="41.89"/><rect class="cls-20" x="786.7" y="374.5" width="19" height="41.89"/><rect class="cls-20" x="831.1" y="374.5" width="19" height="41.89"/><rect class="cls-17" x="873.4" y="374.5" width="19" height="41.89"/><rect class="cls-20" x="609" y="428.2" width="19" height="41.88"/><rect class="cls-20" x="653.9" y="428.2" width="19" height="41.88"/><rect class="cls-20" x="698.3" y="428.2" width="19" height="41.88"/><rect class="cls-14" x="741.9" y="428.2" width="19" height="41.88"/><rect class="cls-17" x="786.7" y="428.2" width="19" height="41.88"/><rect class="cls-20" x="831.1" y="428.2" width="19" height="41.88"/><rect class="cls-20" x="873.4" y="428.2" width="19" height="41.88"/><rect class="cls-20" x="609" y="482" width="19" height="41.89"/><rect class="cls-20" x="653.9" y="482" width="19" height="41.89"/><rect class="cls-20" x="698.3" y="482" width="19" height="41.89"/><rect class="cls-20" x="741.9" y="482" width="19" height="41.89"/><rect class="cls-20" x="786.7" y="482" width="19" height="41.89"/><rect class="cls-20" x="831.1" y="482" width="19" height="41.89"/><rect class="cls-21" x="873.4" y="482" width="19" height="41.89"/><rect class="cls-21" x="609" y="535.5" width="19" height="41.89"/><polygon class="cls-22" points="589.5 255.3 573.2 264.1 573.2 232.3 589.5 220.3 589.5 255.3"/><polygon class="cls-22" points="589.5 309.1 573.2 313.8 573.2 274.9 589.5 267.2 589.5 309.1"/><polygon class="cls-22" points="589.5 362.5 573.2 360.7 573.2 323 589.5 320.7 589.5 362.5"/><polygon class="cls-22" points="589.5 416.3 573.2 409.2 573.2 371.5 589.5 374.5 589.5 416.3"/><polygon class="cls-22" points="589.5 467.8 573.2 459.5 573.2 419.8 589.5 428.2 589.5 467.8"/><polygon class="cls-22" points="589.5 520.2 573.2 509 573.2 470.4 589.5 480.6 589.5 520.2"/><polygon class="cls-22" points="589.5 562.8 573.2 552.5 573.2 520.1 589.5 531.1 589.5 562.8"/><rect class="cls-20" x="653.9" y="535.5" width="19" height="41.89"/><rect class="cls-17" x="698.3" y="535.5" width="19" height="41.89"/><rect class="cls-20" x="741.9" y="535.5" width="19" height="41.89"/><rect class="cls-20" x="786.7" y="535.5" width="19" height="41.89"/><rect class="cls-20" x="831.1" y="535.5" width="19" height="41.89"/><rect class="cls-20" x="873.4" y="535.5" width="19" height="41.89"/><rect class="cls-20" x="609" y="589.3" width="19" height="41.89"/><rect class="cls-14" x="653.9" y="589.3" width="19" height="41.89"/><rect class="cls-20" x="698.3" y="589.3" width="19" height="41.89"/><rect class="cls-21" x="741.9" y="589.3" width="19" height="41.89"/><rect class="cls-20" x="786.7" y="589.3" width="19" height="41.89"/><rect class="cls-20" x="831.1" y="589.3" width="19" height="41.89"/><rect class="cls-20" x="873.4" y="589.3" width="19" height="41.89"/><rect class="cls-20" x="609" y="641.7" width="19" height="41.89"/><rect class="cls-20" x="653.9" y="641.7" width="19" height="41.89"/><rect class="cls-20" x="698.3" y="641.7" width="19" height="41.89"/><rect class="cls-20" x="741.9" y="641.7" width="19" height="41.89"/><rect class="cls-20" x="786.7" y="641.7" width="19" height="41.89"/><rect class="cls-17" x="831.1" y="641.7" width="19" height="41.89"/><rect class="cls-20" x="873.4" y="641.7" width="19" height="41.89"/><rect class="cls-12" y="278.5" width="248.8" height="418.12"/><polygon class="cls-19" points="171 259.5 113.2 234.4 53.3 278.5 171 278.5 171 259.5"/><rect class="cls-11" x="113.2" y="338.5" width="116.3" height="13.62"/><rect class="cls-11" x="113.2" y="308.1" width="116.3" height="13.62"/><rect class="cls-11" x="113.2" y="397.8" width="116.3" height="13.62"/><rect class="cls-11" x="113.2" y="367.4" width="116.3" height="13.61"/><rect class="cls-11" x="23.9" y="338.5" width="29.4" height="13.62"/><rect class="cls-11" x="23.9" y="308.1" width="29.4" height="13.62"/><rect class="cls-11" x="23.9" y="397.8" width="29.4" height="13.62"/><rect class="cls-11" x="23.9" y="367.4" width="29.4" height="13.61"/><rect class="cls-11" x="113.2" y="456.8" width="116.3" height="13.62"/><rect class="cls-11" x="113.2" y="426.4" width="116.3" height="13.62"/><rect class="cls-11" x="113.2" y="516.1" width="116.3" height="13.62"/><rect class="cls-11" x="113.2" y="485.7" width="116.3" height="13.61"/><rect class="cls-11" x="23.9" y="456.8" width="29.4" height="13.62"/><rect class="cls-11" x="23.9" y="426.4" width="29.4" height="13.62"/><rect class="cls-11" x="23.9" y="516.1" width="29.4" height="13.62"/><rect class="cls-11" x="23.9" y="485.7" width="29.4" height="13.61"/><rect class="cls-11" x="113.2" y="577.7" width="116.3" height="13.62"/><rect class="cls-11" x="113.2" y="547.3" width="116.3" height="13.61"/><rect class="cls-11" x="113.2" y="637" width="116.3" height="13.62"/><rect class="cls-11" x="113.2" y="606.5" width="116.3" height="13.61"/><rect class="cls-11" x="23.9" y="577.7" width="29.4" height="13.62"/><rect class="cls-11" x="23.9" y="547.3" width="29.4" height="13.61"/><rect class="cls-11" x="23.9" y="637" width="29.4" height="13.62"/><rect class="cls-11" x="23.9" y="606.5" width="29.4" height="13.61"/><rect class="cls-11" x="113.2" y="665.5" width="116.3" height="13.62"/><rect class="cls-11" x="23.9" y="665.5" width="29.4" height="13.62"/><rect class="cls-14" x="53.3" y="234.4" width="59.9" height="462.19"/><polygon class="cls-23" points="316.5 314 248.8 278.5 248.8 696.6 316.5 696.6 316.5 314"/><polygon class="cls-19" points="122.1 696.6 113.2 696.6 113.2 234.4 122.1 238.3 122.1 696.6"/><polygon class="cls-13" points="306.5 329.2 264.8 312.6 264.8 326.2 306.5 341.3 306.5 329.2"/><polygon class="cls-13" points="306.5 356.7 264.8 343.2 264.8 356.8 306.5 368.8 306.5 356.7"/><polygon class="cls-10" points="306.5 383.6 264.8 371.6 264.8 385.3 306.5 395.6 306.5 383.6"/><polygon class="cls-13" points="306.5 411.1 264.8 402.3 264.8 415.9 306.5 423.2 306.5 411.1"/><polygon class="cls-13" points="306.5 435.9 264.8 430.2 264.8 443.8 306.5 448 306.5 435.9"/><polygon class="cls-13" points="306.5 461.9 264.8 460.8 264.8 474.4 306.5 474 306.5 461.9"/><polygon class="cls-10" points="306.5 485.2 264.8 490.2 264.8 503.8 306.5 497.2 306.5 485.2"/><polygon class="cls-13" points="306.5 508.1 264.8 520.8 264.8 534.4 306.5 520.1 306.5 508.1"/><polygon class="cls-13" points="306.5 652.5 264.8 678.3 264.8 664.7 306.5 640.4 306.5 652.5"/><polygon class="cls-13" points="306.5 626.1 264.8 650.4 264.8 636.8 306.5 614 306.5 626.1"/><polygon class="cls-13" points="306.5 595.5 264.8 619.8 264.8 606.2 306.5 583.4 306.5 595.5"/><polygon class="cls-13" points="306.5 567.6 264.8 590.4 264.8 576.8 306.5 555.6 306.5 567.6"/><polygon class="cls-13" points="306.5 543.2 264.8 559.8 264.8 546.1 306.5 531.1 306.5 543.2"/><polygon class="cls-24" points="122.1 278.5 132.4 278.5 171 696.6 122.1 696.6 122.1 278.5"/><polygon class="cls-24" points="282.7 590.2 263.2 601.6 253.5 696.6 282.7 696.6 282.7 601.6 282.7 590.2"/><rect class="cls-14" x="282.7" y="577.7" width="317.5" height="118.93"/><polygon class="cls-12" points="316.5 554.1 565.2 554.1 606 577.3 276.5 577.3 316.5 554.1"/><rect class="cls-11" x="316.1" y="623.1" width="18.5" height="47.92"/><rect class="cls-25" x="338.3" y="623.1" width="18.5" height="47.92"/><rect class="cls-12" x="360.3" y="623.1" width="18.5" height="47.92"/><rect class="cls-7" x="312.4" y="616.5" width="70.2" height="8.41"/><rect class="cls-11" x="551.1" y="623.1" width="18.5" height="47.92"/><rect class="cls-25" x="528.9" y="623.1" width="18.5" height="47.92"/><rect class="cls-12" x="506.9" y="623.1" width="18.5" height="47.92"/><rect class="cls-7" x="503.2" y="616.5" width="70.2" height="8.41"/><rect class="cls-12" x="411.1" y="623.1" width="18.5" height="47.92"/><rect class="cls-11" x="433.3" y="623.1" width="18.5" height="47.92"/><rect class="cls-12" x="455.3" y="623.1" width="18.5" height="47.92"/><rect class="cls-7" x="407.4" y="616.5" width="70.2" height="8.41"/><rect class="cls-14" x="276.5" y="577.3" width="329.5" height="20.7"/><polygon class="cls-24" points="592.4 202 565.2 225.4 565.2 232.8 600.2 208.6 882.9 209 882.9 288.2 663.4 449.1 663.4 616.5 349.5 650.6 349.5 696.6 901 696.6 901 209.1 901 202 592.4 202"/><rect class="cls-24" x="282.7" y="598" width="317.5" height="11.33"/><polygon class="cls-24" points="438.8 263.7 438.8 282 450.1 282 450.1 482 396.7 467.8 396.7 408.8 337.6 344.4 337.6 289 218.9 267.7 218.9 244.9 192.7 244.9 192.7 278.5 248.8 278.5 316.5 314 316.5 554.1 364 554.1 382.3 554.1 450.1 554.1 525.4 554.1 565.2 554.1 565.2 247 438.8 263.7"/><rect class="cls-26" width="901" height="698.7"/><rect class="cls-27" y="117.1" width="901" height="22.57"/><rect class="cls-28" y="683.1" width="901" height="21.57"/><rect class="cls-29" y="651.1" width="901" height="32.57"/><rect class="cls-27" x="276.7" width="22.6" height="680.7"/><rect class="cls-27" x="609.9" width="22.6" height="680.7"/><rect class="cls-30" y="702.5" width="901" height="198.52"/><rect class="cls-31" y="701.1" width="901" height="11.57"/><path class="cls-32" d="M296.4,211.7a45.6,45.6,0,0,0-45.6,45.6L245.2,370H655.3l-5.7-112.7a45.6,45.6,0,0,0-45.6-45.6Z" transform="translate(1 1)"/><polygon class="cls-33" points="246.3 368 656.4 368 653.6 311.6 249.2 311.6 246.3 368"/><polygon class="cls-32" points="238.2 528.6 664.3 528.6 656.2 369.1 246.3 369.1 238.2 528.6"/><polygon class="cls-33" points="238 531 663.7 531 660.2 474.6 241.6 474.6 238 531"/><polygon class="cls-32" points="230.3 687.3 672.2 687.3 664.2 527.8 238.3 527.8 230.3 687.3"/><g class="cls-34"><path class="cls-32" d="M253.6,539.2a6.5,6.5,0,0,0-6.3,5.6l-2.9,25a4.9,4.9,0,0,0,5,5.6H648.1a5.5,5.5,0,0,0,5.5-5.7l-.8-24.9a5.9,5.9,0,0,0-5.8-5.7Z" transform="translate(1 1)"/></g><polygon class="cls-33" points="231 684 656.7 684 653.2 627.6 234.6 627.6 231 684"/><g class="cls-34"><path class="cls-32" d="M272.1,260.8l1.4-12.3v-1.3a22.9,22.9,0,0,1,22.9-22.9H604.1A22.9,22.9,0,0,1,626.9,247l-.3,13.8Z" transform="translate(1 1)"/></g><g class="cls-34"><path class="cls-32" d="M263.6,379.2a6.5,6.5,0,0,0-6.3,5.6l-2.9,25a4.9,4.9,0,0,0,5,5.6H639.1a5.5,5.5,0,0,0,5.5-5.7l-.8-24.9a5.9,5.9,0,0,0-5.8-5.7Z" transform="translate(1 1)"/></g><path class="cls-35" d="M628.7,659.4c-1.9-24.7-38.2-99-44.2-103.1l-21.2-14.9c15.6-10.6,27.6-26.6,29.7-49.2l.6-6.1h1.6c9.7.2,18.4-8.6,19.4-19.6l1.6-16.9c1-11-6-20-15.7-20.2h-1.3l4.1-46.3c4.3-47.7-42.7-71-76.2-71.3h-7.4c2.5-8.7,6.8-22.3,10.5-29.2,5.1-9.6-26.5,7.7-30.7,29-.5,2.6-19.7-16.2-33.8-16.3-8.6-.1,4.4,4.1,12.6,22.6-25.6,8.9-49.6,28.1-52.5,61.1l-4.2,47.6h-.4c-9.7-.2-18.4,8.6-19.4,19.6L400,463.2c-1,11,6,20,15.7,20.2h1.6l-.3,3.7c-2.2,23.7,8.3,41.3,23.5,53.2h-.1l-25.5,16.1c-6.8,4.1-55.1,78.4-61,103.1-3.7,15.6,1.6,24.5,4.9,28.4,8.3,14.7,52,17.2,52,17.2l.2-.4,11.4,1.1s2.9-1.6,5.8-8.8c-.3,2.9-.1,5.4,1.1,6.4,3.3,2.5,10.9-.2,16.4-2a19.6,19.6,0,0,0-5.9,12.5h-2.7a2.8,2.8,0,0,0-2.6,2.7,2.3,2.3,0,0,0,2.1,2.7h73.3a2.9,2.9,0,0,0,2.3-4h66.4a2.8,2.8,0,0,0,2.6-2.7,2.3,2.3,0,0,0-2.1-2.7h-2.7l.4-5.3h-6.2c12.6-1.3,40.2-5.4,48.4-16.7C623.1,683.9,629.8,675,628.7,659.4ZM546.1,550.5l.8-.3-1.4,2.8ZM423.1,420.9l-.6,5.9h-.6C422.3,424.9,422.6,422.9,423.1,420.9Z" transform="translate(1 1)"/><path class="cls-36" d="M452.2,727.8l10.8,20.4c22.3-.9,65.8-2.7,73.9-8.6,0,0-8.3-118.8-10.3-147.3-4.9-69.2-23.8-61.5-59-66.3l-2.4-.3c-35.2-4.8-78.7,25.4-82,60.8-7.5,79.2.1,156.4.1,156.4s31.8,4.5,59.7,5.4Z" transform="translate(1 1)"/><rect class="cls-37" x="64.5" y="779.9" width="773.2" height="121.05"/><polygon class="cls-28" points="857.3 779.9 44.8 779.9 44.1 757.5 857.3 757.5 857.3 779.9"/><polygon class="cls-38" points="857.3 757.9 44.8 757.9 87.3 672.7 814.7 672.7 857.3 757.9"/><path class="cls-39" d="M762.2,716.2c-2.5,4.5-36.7,8.1-76.3,8.1s-69.7-3.6-67.2-8.1,36.7-8.1,76.3-8.1S764.7,711.8,762.2,716.2Z" transform="translate(1 1)"/><path class="cls-39" d="M585.4,730.3a4.3,4.3,0,0,0,4.3-4.3,4.3,4.3,0,0,0,0-.5c.6-1.9-7.2-14.7-8.3-16.6s18.7-5.2,32.8-11.1c22.5-9.4,35.8-26.3,34.7-26.3l-48.7.7L451,698.9a4.1,4.1,0,0,0,0,8.1l94.2,12.8-94.5-4.4a4.3,4.3,0,0,0-4.3,4.3,4.3,4.3,0,0,0,.6,2.2H325.1a4.3,4.3,0,0,0,0,8.6H459.8Z" transform="translate(1 1)"/><path class="cls-28" d="M292.1,672.5c2,10,0,19.7,11.3,24.3s29,10,39.3,10.3,26-17.7,24-20.3S292.1,672.5,292.1,672.5Z" transform="translate(1 1)"/><polygon class="cls-40" points="264.4 706.8 295.4 712.9 305.4 713.5 296.4 743.5 307.1 758.1 124.4 758.1 91.1 743.5 264.4 706.8"/><path class="cls-7" d="M397.9,481.1l-5.7,54.4c-.1,25.8,59.8,171.4,59.8,171.4s64.4-143,64.6-169.5l-9.7-55.7Z" transform="translate(1 1)"/><path class="cls-41" d="M408,489.8l-.2,44.3c-.1,21,24.3,31.1,41,31.2h6.4c16.7.1,41.2-8.2,41.3-29.7l.2-45.3Z" transform="translate(1 1)"/><polygon class="cls-42" points="469.4 676.4 457.6 592.3 466.2 577.6 452.7 566.3 439.3 577.6 447.8 592.3 436.1 676.4 453 706.9 469.4 676.4"/><polygon class="cls-43" points="507.9 538.5 452.7 565.4 397.6 538.5 426.1 592.1 452.7 568 479.3 592.1 507.9 538.5"/><path class="cls-44" d="M299.4,688.6s-15.7-9.3-11.6-32.2c4.6-25.9,55-104,62.6-108.3s39.1-23,39.1-23L388,665.2Z" transform="translate(1 1)"/><path class="cls-44" d="M359.9,704.3s-58.5-2.9-65-20.9c-4.8-13.3,32.4-46.7,32.4-46.7L384.4,658l-1.5,4.2Z" transform="translate(1 1)"/><path class="cls-36" d="M603.3,688.6s15.7-9.3,11.6-32.2c-4.6-25.9-55-104-62.6-108.3s-39.1-23-39.1-23l1.5,130.4Z" transform="translate(1 1)"/><path class="cls-36" d="M542.8,704.3s58.5-2.9,65-20.9c4.8-13.3-32.4-46.7-32.4-46.7L518.3,658l1.5,4.2Z" transform="translate(1 1)"/><path class="cls-45" d="M392.2,666.5s-6.2,8-10.8,6.4c-.9-.3,1.3-9.7.3-10a203,203,0,0,0-25.5-6.9c-12.8-2.4-39.4-2.3-39.3-6.3,0-2.2,33.8-.8,40.1-4.6s7-49.4,8.4-59.3c1.1-7.8,9.1-9.9,8.5,2.3-.4,7.5-1.3,29.1-1.7,40.9-.2,4.6.4,18.8-.2,23.6-.4,3.2,23.2,9.7,23.2,9.7Z" transform="translate(1 1)"/><polygon class="cls-46" points="396.2 518.9 367.4 560.5 389.8 570.1 382.6 599 453 707.9 396.2 518.9"/><path class="cls-41" d="M415.1,652.3c.2,3.5,7.6,5.8,16.4,5.3s15.9-2.2,15.6-7.4-7.6-5.8-16.4-5.2S414.9,648.8,415.1,652.3Z" transform="translate(1 1)"/><path class="cls-47" d="M458.1,686.6a1,1,0,0,1,1.4.2l3.3,4.2a1,1,0,0,1-.2,1.4h0a1,1,0,0,1-1.4-.2L458,688a1,1,0,0,1,.2-1.4Z" transform="translate(1 1)"/><path class="cls-7" d="M379.8,588.2a3.7,3.7,0,0,1,5.3.6l7.4,9.3a3.7,3.7,0,0,1-.6,5.3h0a3.7,3.7,0,0,1-5.3-.6l-7.4-9.3a3.7,3.7,0,0,1,.6-5.3Z" transform="translate(1 1)"/><rect class="cls-48" x="432.9" y="642.8" width="11.6" height="38.79" transform="translate(-315.9 418.1) rotate(-38.5)"/><rect class="cls-7" x="401.3" y="591" width="11.6" height="62.83" transform="translate(-298 389.8) rotate(-38.5)"/><rect class="cls-48" x="380" y="592.8" width="11.6" height="5.66" transform="translate(-285.9 370.4) rotate(-38.5)"/><polygon class="cls-43" points="461.1 692.2 447.3 682 456.3 674.8 463.2 690.5 461.1 692.2"/><path class="cls-48" d="M372.8,595.6a1.9,1.9,0,0,1,2.6.3l28.6,36a1.9,1.9,0,0,1-.3,2.6h0a1.9,1.9,0,0,1-2.6-.3l-28.6-36a1.9,1.9,0,0,1,.3-2.6Z" transform="translate(1 1)"/><rect class="cls-48" x="376.3" y="600" width="7.1" height="3.43" transform="translate(-291 368.2) rotate(-38.5)"/><path class="cls-49" d="M381.3,666.3s-7,2.3-10.7,19.6,3.3,19.1,3.3,19.1,6-3.1,8.7-19.3C384.5,674.2,381.3,666.3,381.3,666.3Z" transform="translate(1 1)"/><path class="cls-50" d="M379.2,667c3.5.3,9.5,2.8,14.3-3.2s0,11.3-3.5,17-11.7,10.3-15,10.5-9.7,4.8-9.2.3,1-11.2,3.3-14.2S379.2,667,379.2,667Z" transform="translate(1 1)"/><path class="cls-50" d="M381.5,683.8c2.2-13.6,10.3-17.4,10.3-17.4s9.6-13.4,16.1-16.4,25.5-4.8,32.7,0c1.9,1.3,3.7,6.3,3.3,8.5s-3.5,3.9-3.5,3.9,2,5.9,1.7,7.9-3.5,5.4-3.5,5.4,1.3,7.5.4,9.8-4.4,4.2-4.4,4.2,1.1,4.5.2,5.6c-4.8,5.8-22.4,2.6-29.7,4.2s-18.2,6.4-23.3,3.1S380.8,688.2,381.5,683.8Z" transform="translate(1 1)"/><polygon class="cls-41" points="441.5 663.4 418.5 663.4 419.2 660.4 443.8 661.3 441.5 663.4"/><polygon class="cls-41" points="416.2 673 416.2 676.2 439.6 676.7 441.4 674.4 416.2 673"/><polygon class="cls-41" points="416.2 686.9 416.7 689.7 435.7 690.6 438 688.8 416.2 686.9"/><path class="cls-7" d="M381.3,666.3s-6.3,3.3-10.1,22.4c-1.1,5.5,0,14.1,2.9,14.7l-.2,1.6-14.6-1.3s-5.2-8.6-1.2-22c2.8-9.2,12.5-17.7,12.5-17.7Z" transform="translate(1 1)"/><path class="cls-45" d="M511.9,667.5s6.2,8,10.8,6.4c.9-.3-1.3-9.7-.3-10,9.2-3,15.2-6.9,22.4-7.4,13-.9,42.4-1.7,42.4-5.8,0-2.2-33.8-.8-40.1-4.6s-7-49.4-8.4-59.3c-1.1-7.8-9.1-9.9-8.5,2.3.4,7.5,1.3,29.1,1.7,40.9.2,4.6-.4,14.8.2,19.6.4,3.2-31.9,11-31.9,11Z" transform="translate(1 1)"/><path class="cls-49" d="M521.8,658.3s6.8,3,8.9,20.5-5,18.7-5,18.7-5.6-3.7-6.9-20.1C517.9,665.9,521.8,658.3,521.8,658.3Z" transform="translate(1 1)"/><path class="cls-50" d="M507.7,665.2c4.5-3.2,1.7-5.6,6.4-4.4s13.6,3.9,17.1,4.4,9.3,27.8,5,32.5-27-.2-27-.2Z" transform="translate(1 1)"/><polygon class="cls-46" points="509.2 518.9 538 560.5 515.6 570.1 523.1 598.5 453 707.9 509.2 518.9"/><path class="cls-33" d="M462.6,564.5h14.9c23.8.4,45.3-2.9,63.7-23.5-5.2-3.3-7.4-4.1-15.1-9.2l-5.7-13.9-2.7,8.5-.6-.4-7-44.3-98.5-.6-5.1,54.4c0,.8,0,1.6.1,2.6l-2.6-8.2v-4.8l-1.3.9-2.6-8.1-5.4,13.3c-2.7,1.8.4-.8-2.7,1.3C409.2,557.6,437.1,564.1,462.6,564.5Z" transform="translate(1 1)"/><path class="cls-51" d="M347.7,370.4l-1.5,104.9c-.7,49.7,56.8,74.2,96.4,74.8l15.2.2c39.6.6,97.7-18.5,98.5-69.5l1.5-107.4-100-69.1Z" transform="translate(1 1)"/><path class="cls-52" d="M386.1,438.1c10.6-10.8,29.7-10.5,38.6.6" transform="translate(1 1)"/><path class="cls-52" d="M482.1,439.5c10.6-10.8,29.7-10.5,38.6.6" transform="translate(1 1)"/><path class="cls-53" d="M414,489c-.3,19.2,76.7,20.3,77,1.1" transform="translate(1 1)"/><path class="cls-54" d="M346.1,362c.3-34.6,27-54.8,56.6-64.2-11.5-19.4-27.4-23.8-17.2-23.7,16.8.1,41.4,19.9,41.8,17.1,3-22.3,39-40.6,33.8-30.4-3.7,7.2-7.4,21.5-9.6,30.6h8.9c40,.4,98,24.8,97.6,74.9l-.5,60s-5.2-68-41.5-68.3c-27.9-.2-33.7,38.1-67.2,37.8s-36.2-38.7-66.9-39c-35.2-.3-36.2,65.4-36.2,67.6Z" transform="translate(1 1)"/><path class="cls-55" d="M345.6,424.6h0Z" transform="translate(1 1)"/><path class="cls-51" d="M365.5,450.9a20.9,20.9,0,0,1-21.2,20.6h0a20.9,20.9,0,0,1-20.6-21.2l.3-17.7A20.9,20.9,0,0,1,345.2,412h0a20.9,20.9,0,0,1,20.6,21.2Z" transform="translate(1 1)"/><path class="cls-51" d="M537.7,453.3a20.9,20.9,0,0,0,20.6,21.2h0a20.9,20.9,0,0,0,21.2-20.6l.3-17.7A20.9,20.9,0,0,0,559.1,415h0a20.9,20.9,0,0,0-21.2,20.6Z" transform="translate(1 1)"/><path class="cls-41" d="M346.8,432.5l-1.9-.3a8.2,8.2,0,0,0-8.3,8.1v6.3a8.2,8.2,0,0,0,8.1,8.3l1.9-.2Z" transform="translate(1 1)"/><path class="cls-41" d="M558.8,435.3a8.1,8.1,0,0,0-3.2.6l-.3,21.5a8.1,8.1,0,0,0,3.2.7,8.2,8.2,0,0,0,8.3-8.1v-6.3A8.2,8.2,0,0,0,558.8,435.3Z" transform="translate(1 1)"/><path class="cls-7" d="M521.8,658.3s6,3.9,8,23.3c.6,5.6-1.3,14-4.2,14.4v1.6h14.7s5.9-8.1,3.2-21.8c-1.9-9.4-10.8-18.8-10.8-18.8Z" transform="translate(1 1)"/><path class="cls-50" d="M514.1,660.8a61.9,61.9,0,0,0-8.9-.9,107.1,107.1,0,0,0-21.5,5.3c-7.1,2.5-14.6,5.5-16.6,6.2a45.6,45.6,0,0,0-13.3,7.8c-1.7,1.5-1.1,5.4,2.4,6.2a30.7,30.7,0,0,0,3.8.2s.6,4.2,1.6,5,7.8,0,7.8,0,1.1,4.8,2.4,5.6,30.1-.4,45.9-.2c0,0,3.8-2.8,2.8-15.9C519.8,671,515.4,661,514.1,660.8Z" transform="translate(1 1)"/><polygon class="cls-41" points="470.4 691.7 484.1 686.8 497.5 684.2 503.6 684.2 503.6 686.5 497.5 687.1 484.4 689.8 470.9 693.3 470.4 691.7"/><polygon class="cls-41" points="461 686.7 473.5 681.2 488.8 678.3 503.8 676.3 503.8 673.4 488.5 675.6 473 678.4 456.6 686.3 461 686.7"/><path class="cls-56" d="M665.6,721s4.6,1,19.6,1,18.2-1,18.2-1c12.5-3.3,52.1-9.8,52.1-17.3h-142C613.5,711.2,653.1,717.7,665.6,721Z" transform="translate(1 1)"/><rect class="cls-31" x="64.5" y="779.9" width="773.2" height="20"/><path class="cls-57" d="M567.7,707.2c1.2,1.9,9.7,16,7.6,16L444.2,705.4a3.8,3.8,0,0,1-3.8-3.8h0a3.8,3.8,0,0,1,3.8-3.8l119.6,5.6c2.1,0,2.9,1.7,3.8,3.8Z" transform="translate(1 1)"/><path class="cls-7" d="M440.1,705.1l127,8-7.6-15.7s-73.2-11.4-90.6-12.2-21.7,4.8-21.7,4.8a20.2,20.2,0,0,0-6-7.1c-4-2.8-11.3-3.8-11.3-3.8Z" transform="translate(1 1)"/><path class="cls-57" d="M456.1,707.4a3.8,3.8,0,0,1-3.8,3.8L321.2,723.6c-2.1,0,6.7-14,7.6-16.3h0c1.4-2.5,2.4-3.8,4.6-3.8H452.3a3.8,3.8,0,0,1,3.8,3.8Z" transform="translate(1 1)"/><path class="cls-7" d="M430.4,679.1c-19.9-4.1-70.4,2.4-80.9,6.3-2.7,1-24.2,32.1-24.7,34.7l123.2-16.6C447.9,690,450.4,683.2,430.4,679.1Z" transform="translate(1 1)"/><path class="cls-57" d="M575.6,723.4a4.1,4.1,0,0,1-4.1,4.1l-127.6-6a4.1,4.1,0,0,1-4.1-4.1h0a4.1,4.1,0,0,1,4.1-4.1l127.6,6a4.1,4.1,0,0,1,4.1,4.1Z" transform="translate(1 1)"/><path class="cls-49" d="M439.8,713.3l127,6V713s-78.1-12.2-96.6-13-23.1,5.1-23.1,5.1a21.5,21.5,0,0,0-6.4-7.6c-4.3-3-12-4.1-12-4.1Z" transform="translate(1 1)"/><path class="cls-57" d="M456.7,723.5a4.1,4.1,0,0,1-4.1,4.1H325a4.1,4.1,0,0,1-4.1-4.1h0a4.1,4.1,0,0,1,4.1-4.1H452.6a4.1,4.1,0,0,1,4.1,4.1Z" transform="translate(1 1)"/><path class="cls-49" d="M429.2,693.4c-21.2-4.4-75.1,2.6-86.3,6.8-2.9,1.1-16.8,16.5-17.4,19.3H447.9C447.9,705.1,450.5,697.8,429.2,693.4Z" transform="translate(1 1)"/><path class="cls-45" d="M438.2,719.5s5.5-9.5,7.3-9.5,2.8,3.5,2.8,3.5l-.5,6Z" transform="translate(1 1)"/><ellipse class="cls-43" cx="685.5" cy="704.6" rx="71.8" ry="8.1"/><path class="cls-7" d="M687.8,695.5c-1.6,5.8-3.2,11.7-4.4,16.2h1.1c39.6,0,71.8-3.6,71.8-8.1S725.9,695.7,687.8,695.5Z" transform="translate(1 1)"/><path class="cls-58" d="M733.1,641.9c-10.1,0-18.3,9-18.3,20.1,0,8.3-7.5,42.5-3,36.9,6.2-7.5,13.3-10.1,24.5-16.8,8.7-5.2,15-9.1,16.6-20.1C754.9,649.3,743.2,641.9,733.1,641.9Zm13.1,18.9c-1.2,7.7-4.9,10.2-13.3,15.2-5.3,3.2-12.9,7.3-15.9,10.6s-3.4,1.3-4.6,2.2c.4-4.2,5.9-8.3,6.8-12.2,1.4-6,2.6-11.1,2.6-14.7,0-7.3,5.1-13.2,11.4-13.2a15.3,15.3,0,0,1,11.1,4.7A8.8,8.8,0,0,1,746.2,660.8Z" transform="translate(1 1)"/><path class="cls-58" d="M734.4,628.8H634.3s-2.8,21.6,4.9,39.7c3,7.1,14.5,23.3,17.4,30.4a96.6,96.6,0,0,1,3.6,13h48.2a97.1,97.1,0,0,1,3.7-13c3-7.1,14.4-23.3,17.4-30.4C737.1,650.4,734.4,628.8,734.4,628.8Z" transform="translate(1 1)"/><path class="cls-59" d="M727.9,628.8H696.3s1.6,21.6-2.8,39.7c-1.7,7.1-8.4,23.3-10.1,30.4-1.1,4.6-2.1,13-2.1,13h23.7a108,108,0,0,1,3.2-13c2.6-7.1,12.7-23.3,15.3-30.4C730.3,650.4,727.9,628.8,727.9,628.8Z" transform="translate(1 1)"/><path class="cls-7" d="M650.3,650c-1.7-4.7-1.8-9.4-1.8-14.3s-9-5.8-9,0,.2,11.3,2.2,16.7S652.4,655.5,650.3,650Z" transform="translate(1 1)"/><path class="cls-7" d="M650,658c-5.8,0-5.8,9,0,9S655.8,658,650,658Z" transform="translate(1 1)"/><path class="cls-43" d="M684.2,634c-27.1,0-44.5-2.3-48.2-4.2,3.7-1.9,21.1-4.2,48.2-4.2s44.5,2.3,48.2,4.2C728.7,631.7,711.3,634,684.2,634Z" transform="translate(1 1)"/><path class="cls-7" d="M684.2,627.1c19.9,0,34.8,1.3,42.4,2.7-7.6,1.4-22.5,2.7-42.4,2.7s-34.8-1.3-42.4-2.7c7.6-1.4,22.5-2.7,42.4-2.7m0-3c-27.7,0-50.2,2.5-50.2,5.7s22.5,5.7,50.2,5.7,50.2-2.5,50.2-5.7-22.5-5.7-50.2-5.7Z" transform="translate(1 1)"/><polygon class="cls-60" points="285.4 743.4 87.6 743.4 87.6 731.1 295.4 700.5 295.4 711.9 285.4 743.4"/><polygon class="cls-7" points="284.8 732.2 87.6 731.4 97.6 699.9 295.4 699.9 284.8 732.2"/><path class="cls-61" d="M756.3,703.6c0,4.5-32.1,8.1-71.8,8.1s-71.8-3.6-71.8-8.1" transform="translate(1 1)"/><polygon class="cls-62" points="286.9 726.1 284.9 732.3 68.9 578.3 72.2 574.5 268 574.5 286.9 726.1"/><polygon class="cls-63" points="284.9 732.4 87.1 732.4 68.1 578 265.9 578 284.9 732.4"/><polyline class="cls-64" points="255.7 739.5 244.7 759.5 244.7 901"/><line class="cls-65" x1="259.4" y1="799.8" x2="259.4" y2="901"/><polygon class="cls-66" points="202.2 660.7 148.2 660.7 146.8 649.7 200.9 649.7 202.2 660.7"/></g></g></svg>