<svg xmlns="http://www.w3.org/2000/svg" xmlns:xlink="http://www.w3.org/1999/xlink" viewBox="0 0 2685.8 2195.9"><defs><style>.cls-1{isolation:isolate;}.cls-2{fill:#ffd500;}.cls-10,.cls-11,.cls-12,.cls-2,.cls-3,.cls-5,.cls-6,.cls-7,.cls-8,.cls-9{fill-rule:evenodd;}.cls-3{fill:#f39200;}.cls-17,.cls-4{mix-blend-mode:multiply;}.cls-5{fill:#36a9e1;}.cls-6{fill:#1d71b8;}.cls-7{fill:#432918;}.cls-8{fill:#7d4e24;}.cls-9{fill:#e30613;}.cls-10{fill:#eb6209;}.cls-11{fill:#a3195b;}.cls-12{fill:#e71d73;}.cls-13{fill:#3aaa35;}.cls-14{fill:#dedc00;}.cls-15{fill:#1d1d1b;}.cls-16{fill:#fff;}.cls-17{fill:url(#radial-gradient);}</style><radialGradient id="radial-gradient" cx="2496.92" cy="51125.83" r="1253.7" gradientTransform="translate(-1154 -7290.9) scale(1 0.18)" gradientUnits="userSpaceOnUse"><stop offset="0" stop-color="#878787"/><stop offset="0.02" stop-color="#8c8c8c"/><stop offset="0.19" stop-color="#b5b5b5"/><stop offset="0.36" stop-color="#d5d5d5"/><stop offset="0.52" stop-color="#ececec"/><stop offset="0.67" stop-color="#fafafa"/><stop offset="0.8" stop-color="#fff"/></radialGradient></defs><title>bottle</title><g class="cls-1"><g id="Isolation_Mode" data-name="Isolation Mode"><path class="cls-2" d="M2624,2860.8c-31.6,0-57.3-27.4-57.3-61s25.7-60.9,57.3-61l100.9-.8V2860Z" transform="translate(-1154 -1606.6)"/><path class="cls-3" d="M2822.9,2860.8c31.6,0,57.3-27.4,57.3-61s-25.7-60.9-57.3-61l-98-1.1v121.9Z" transform="translate(-1154 -1606.6)"/><path class="cls-2" d="M2422,2632c-25.3,18.9-62.3,12.5-82.4-14.4s-16-64.2,9.3-83.2l80.3-61.1,73.1,97.6Z" transform="translate(-1154 -1606.6)"/><path class="cls-3" d="M2581.2,2512.7c25.3-19,29.5-56.3,9.3-83.2s-57.1-33.3-82.4-14.4l-79,57.9,73.1,97.6Z" transform="translate(-1154 -1606.6)"/><g class="cls-4"><path class="cls-5" d="M2622.3,2548.5c-25.5-18.7-30-56-10.2-83.1s56.8-33.9,82.3-15.2l81.8,59-72.1,98.3Z" transform="translate(-1154 -1606.6)"/><path class="cls-6" d="M2782.6,2666.1c25.5,18.7,62.4,11.8,82.3-15.3s15.3-64.4-10.2-83.1l-78.4-58.8-72.1,98.3Z" transform="translate(-1154 -1606.6)"/></g><g class="cls-4"><path class="cls-5" d="M2157.6,2454.4c-30.4-8.7-47.5-42.1-38.2-74.4s41.6-51.5,71.9-42.7l97.2,27.1-33.7,117.2Z" transform="translate(-1154 -1606.6)"/><path class="cls-6" d="M2348.8,2509.4c30.4,8.7,62.6-10.5,71.9-42.8s-7.9-65.7-38.3-74.4l-93.9-28.1-33.7,117.2Z" transform="translate(-1154 -1606.6)"/></g><g class="cls-4"><path class="cls-7" d="M2412.3,2695.7c25.6-18.5,62.5-11.4,82.2,15.8s14.9,64.5-10.7,83l-81.3,59.8-71.5-98.8Z" transform="translate(-1154 -1606.6)"/><path class="cls-8" d="M2251.1,2812.3c-25.6,18.5-30.4,55.8-10.7,83s56.6,34.3,82.2,15.8l80-56.6-71.5-98.8Z" transform="translate(-1154 -1606.6)"/></g><g class="cls-4"><path class="cls-7" d="M2805.8,2276.6c30.7-7.5,62.2,12.9,70.2,45.5s-10.4,65.3-41.1,72.9l-97.8,24.8-29.1-118.4Z" transform="translate(-1154 -1606.6)"/><path class="cls-8" d="M2612.7,2324.1c-30.7,7.6-49.1,40.3-41.1,72.9s39.5,53,70.2,45.5l95.4-22.4-29.1-118.4Z" transform="translate(-1154 -1606.6)"/></g><g class="cls-4"><path class="cls-9" d="M2691.3,2943.6c22.8,21.9,22.5,59.4-.8,83.7s-60.7,26.2-83.6,4.4l-73.4-69.2,84.3-88.1Z" transform="translate(-1154 -1606.6)"/><path class="cls-10" d="M2547.7,2806c-22.8-21.8-60.3-19.9-83.6,4.4s-23.6,61.8-.8,83.7l70,68.5,84.3-88.1Z" transform="translate(-1154 -1606.6)"/></g><g class="cls-4"><path class="cls-9" d="M2366.2,2642.4c24.3,20.2,26.7,57.6,5.3,83.5s-58.7,30.5-83,10.4l-78.2-63.7,77.8-93.9Z" transform="translate(-1154 -1606.6)"/><path class="cls-10" d="M2213,2515.6c-24.3-20.1-61.6-15.5-83,10.4s-19,63.4,5.3,83.5l74.8,63.3,77.8-93.9Z" transform="translate(-1154 -1606.6)"/></g><g class="cls-4"><path class="cls-11" d="M2469.7,2921.6c31.6,0,57.3,27.4,57.3,61s-25.7,60.9-57.3,61l-100.9.8V2922.3Z" transform="translate(-1154 -1606.6)"/><path class="cls-12" d="M2270.9,2921.6c-31.6,0-57.3,27.4-57.3,61s25.7,60.9,57.3,61l98,1.1V2922.6Z" transform="translate(-1154 -1606.6)"/></g><g class="cls-4"><path class="cls-11" d="M2707,2616.6c31.2,5.2,52.1,36.3,46.6,69.5s-35.3,55.9-66.5,50.8l-99.7-15.7,19.9-120.3Z" transform="translate(-1154 -1606.6)"/><path class="cls-12" d="M2510.8,2584.2c-31.2-5.1-61,17.7-66.5,50.8s15.4,64.3,46.6,69.5l96.5,17,19.9-120.3Z" transform="translate(-1154 -1606.6)"/></g><g class="cls-4"><path class="cls-13" d="M2758.9,2930.3a55.6,55.6,0,0,0,0,110.8Z" transform="translate(-1154 -1606.6)"/><path class="cls-14" d="M2768.3,2930.3v110.8a55.6,55.6,0,0,0,0-110.8Z" transform="translate(-1154 -1606.6)"/></g><g class="cls-4"><path class="cls-5" d="M2133.5,2889a55.6,55.6,0,0,0,75.5,81.1Z" transform="translate(-1154 -1606.6)"/><path class="cls-6" d="M2140.4,2882.6l75.5,81.1a55.6,55.6,0,0,0-75.5-81.1Z" transform="translate(-1154 -1606.6)"/></g><g class="cls-4"><path class="cls-10" d="M2482.7,2332.6a55.6,55.6,0,0,0-55.4,96Z" transform="translate(-1154 -1606.6)"/><path class="cls-9" d="M2490.9,2337.3l-55.4,96a55.6,55.6,0,0,0,55.4-96Z" transform="translate(-1154 -1606.6)"/></g><g class="cls-4"><path class="cls-10" d="M2237.9,2814.2a55.6,55.6,0,0,0-110.6-7.3Z" transform="translate(-1154 -1606.6)"/><path class="cls-9" d="M2237.3,2823.6l-110.6-7.3a55.6,55.6,0,0,0,110.6,7.3Z" transform="translate(-1154 -1606.6)"/></g><g class="cls-4"><path class="cls-2" d="M2594.8,2293a55.6,55.6,0,0,0-109.6,16.1Z" transform="translate(-1154 -1606.6)"/><path class="cls-3" d="M2596.2,2302.4l-109.6,16.1a55.6,55.6,0,0,0,109.6-16.1Z" transform="translate(-1154 -1606.6)"/></g><path class="cls-15" d="M2259.3,1988.8h475.2a84.8,84.8,0,0,0,84.8-84.8V1691.3a84.8,84.8,0,0,0-84.8-84.8H2259.3a84.8,84.8,0,0,0-84.8,84.8V1904A84.8,84.8,0,0,0,2259.3,1988.8Z" transform="translate(-1154 -1606.6)"/><rect class="cls-16" x="1550.2" y="63.1" width="33.2" height="259.2"/><rect class="cls-16" x="1460.6" y="63.1" width="33.2" height="259.2"/><rect class="cls-16" x="1371.1" y="63.1" width="33.1" height="259.2"/><rect class="cls-16" x="1281.5" y="63.1" width="33.2" height="259.2"/><rect class="cls-16" x="1192" y="63.1" width="33.1" height="259.2"/><rect class="cls-16" x="1102.5" y="63.1" width="33.1" height="259.2"/><path class="cls-15" d="M2737.3,3104.7H2256.6c-110,0-199.6-89.5-199.6-199.6V2216.4c0-99.8,73.7-182.8,169.5-197.3v-85.4h537.3l2.6,85.3c96.3,14.2,170.4,97.3,170.4,197.4v688.7C2936.8,3015.1,2847.3,3104.7,2737.3,3104.7ZM2256.6,2076.8c-77,0-139.6,62.6-139.6,139.6v688.7c0,77,62.6,139.6,139.6,139.6h480.7c77,0,139.6-62.6,139.6-139.6V2216.4c0-77-62.6-139.6-139.6-139.6h-29.1l-2.6-83.2H2286.5v83.2Z" transform="translate(-1154 -1606.6)"/><ellipse class="cls-17" cx="1342.9" cy="1927.1" rx="1342.9" ry="268.8"/></g></g></svg>