<svg id="Workplace" xmlns="http://www.w3.org/2000/svg" viewBox="0 0 344.9 301.2"><defs><style>.cls-1{fill:#c7c7c7;}.cls-11,.cls-2{fill:#262121;}.cls-100,.cls-101,.cls-102,.cls-104,.cls-106,.cls-107,.cls-108,.cls-109,.cls-110,.cls-115,.cls-117,.cls-119,.cls-123,.cls-126,.cls-127,.cls-13,.cls-132,.cls-133,.cls-134,.cls-135,.cls-137,.cls-138,.cls-139,.cls-14,.cls-140,.cls-141,.cls-143,.cls-15,.cls-151,.cls-152,.cls-153,.cls-16,.cls-17,.cls-18,.cls-19,.cls-2,.cls-20,.cls-22,.cls-23,.cls-24,.cls-25,.cls-26,.cls-27,.cls-28,.cls-29,.cls-30,.cls-31,.cls-32,.cls-33,.cls-34,.cls-35,.cls-36,.cls-37,.cls-38,.cls-4,.cls-40,.cls-42,.cls-43,.cls-44,.cls-45,.cls-46,.cls-47,.cls-49,.cls-5,.cls-50,.cls-52,.cls-53,.cls-54,.cls-58,.cls-6,.cls-70,.cls-71,.cls-72,.cls-73,.cls-74,.cls-75,.cls-76,.cls-77,.cls-78,.cls-79,.cls-81,.cls-91,.cls-92{fill-rule:evenodd;}.cls-3,.cls-5{fill:#302929;}.cls-4{fill:#403838;}.cls-6{fill:#807373;}.cls-7{fill:#120e0e;}.cls-8{fill:#1c1818;}.cls-9{fill:#140909;}.cls-10{fill:#080606;}.cls-12{fill:#665b5b;}.cls-13{fill:#4a4141;}.cls-14{fill:#2b2222;}.cls-15{fill:#21002e;}.cls-16{fill:#940076;}.cls-17{fill:#14001c;}.cls-18{fill:#1d0029;}.cls-19{fill:#70005a;}.cls-20{fill:#220030;}.cls-21{fill:#190436;}.cls-22{fill:#240e42;}.cls-23{fill:#e8e8e8;}.cls-24{fill:#170038;}.cls-25{fill:#db0000;}.cls-26{fill:#d11414;}.cls-27{fill:#f00000;}.cls-28{fill:#fff;}.cls-29{fill:#ff8742;}.cls-30{fill:#ff9152;}.cls-31{fill:#fa7e37;}.cls-32{fill:#fa7d35;}.cls-33{fill:#873400;}.cls-34{fill:#d66727;}.cls-35{fill:#361a09;}.cls-36{fill:#8f3806;}.cls-37{fill:#803100;}.cls-38{fill:#47220b;}.cls-39,.cls-70{fill:#666;}.cls-40{fill:#301c10;}.cls-41{fill:#a14008;}.cls-42{fill:#250d47;}.cls-43{fill:#1b0040;}.cls-44{fill:#f75229;}.cls-45{fill:#fa652f;}.cls-46{fill:#8f3700;}.cls-47{fill:#e03d14;}.cls-48{fill:#992900;}.cls-49{fill:#f0f0f0;}.cls-50{fill:#4a3663;}.cls-51{fill:#1a1a1a;}.cls-52{fill:#fff185;}.cls-53{fill:#ff7442;}.cls-54{fill:#f75d25;}.cls-55{fill:#d40000;}.cls-56{fill:#b3b3b3;}.cls-57,.cls-72{fill:#ccc;}.cls-58{fill:#ed0000;}.cls-59{fill:#a3a3a3;}.cls-60{fill:#8f8f8f;}.cls-61{fill:#b8b8b8;}.cls-62{fill:#c95422;}.cls-63{fill:#1f1414;}.cls-64{fill:#382222;}.cls-65{fill:#261717;}.cls-66{fill:#4f3434;}.cls-67{fill:#bd3f0a;}.cls-68,.cls-81{fill:#b03500;}.cls-69{fill:#c74914;}.cls-71{fill:#b08787;}.cls-73{fill:#b31029;}.cls-74,.cls-82{fill:#8f8582;}.cls-75{fill:#526acc;}.cls-76{fill:#8f6253;}.cls-77{fill:#e6e6e6;}.cls-78{fill:#122670;}.cls-79,.cls-80{fill:#00145c;}.cls-83{fill:#696361;}.cls-84{fill:#998d89;}.cls-85{fill:#9e9390;}.cls-86{fill:#b5a8a5;}.cls-87{fill:#005fa3;}.cls-88{fill:#00538f;}.cls-89{fill:#f0b609;}.cls-90{fill:#de8500;}.cls-91{fill:#c0c6cc;}.cls-92{fill:#969ba1;}.cls-93{fill:#6500c9;}.cls-94{fill:#4e009c;}.cls-95{fill:#ad10a8;}.cls-96{fill:#910a8d;}.cls-97{fill:#a848a5;}.cls-98{fill:#c90000;}.cls-99{fill:#8fba00;}.cls-100{fill:#759900;}.cls-101{fill:#692c00;}.cls-102,.cls-103{fill:#733000;}.cls-104{fill:#5c2600;}.cls-105,.cls-106{fill:#d48e48;}.cls-107{fill:#b0a4a4;}.cls-108{fill:#c2b8b8;}.cls-109{fill:#998686;}.cls-110{fill:#403232;}.cls-111{fill:#eb8a2f;}.cls-112{fill:#d4761e;}.cls-113{fill:#c26915;}.cls-114{fill:#96500f;}.cls-115{fill:#e69c57;}.cls-116{fill:#b0511a;}.cls-117{fill:#c47a35;}.cls-118{fill:#199400;}.cls-119{fill:#126e00;}.cls-120{fill:#bababa;}.cls-121{fill:#949494;}.cls-122{fill:#d4d4d4;}.cls-123{fill:#dedede;}.cls-124{fill:#f25100;}.cls-125{fill:#e34c00;}.cls-126{fill:#f5853b;}.cls-127{fill:#1a1414;}.cls-128{fill:#c40700;}.cls-129{fill:#a66c00;}.cls-130{fill:#cf8700;}.cls-131{fill:#e80800;}.cls-132{fill:#2a3e54;}.cls-133{fill:#24768f;}.cls-134{fill:#76959e;}.cls-135{fill:#364763;}.cls-136{fill:#141c2b;}.cls-137{fill:#453c4d;}.cls-138{fill:#00020a;}.cls-139{fill:#3a9cba;}.cls-140{fill:#b0b0b0;}.cls-141{fill:#9e9e9e;}.cls-142{fill:#4e658a;}.cls-143{fill:#006280;}.cls-144{fill:#eb840e;}.cls-145{fill:#a33993;}.cls-146{fill:#95d114;}.cls-147{fill:#736060;}.cls-148{fill:#8f7e7e;}.cls-149{fill:#a69999;}.cls-150{fill:#e0d0d0;}.cls-151{fill:#dae0ed;}.cls-152{fill:#bd6500;}.cls-153{fill:#76ad00;}.cls-154{fill:#7d2770;}</style></defs><title>ceo</title><rect id="Shadow" class="cls-1" y="268" width="343.9" height="33.14"/><g id="Chair"><path class="cls-2" d="M154.8,324v6.2a1.1,1.1,0,0,1-1.1,1.1h-8.2a1.1,1.1,0,0,1-1.1-1.1V324a.7.7,0,0,1-.6-.7v-6.6a.7.7,0,0,1,.7-.7h4v-2.7h2.5V316h4a.7.7,0,0,1,.7.7v6.6a.7.7,0,0,1-.7.7Z" transform="translate(-27 -56)"/><path class="cls-2" d="M257.6,324.1v6.2a1.1,1.1,0,0,0,1.1,1.1h8.2a1.1,1.1,0,0,0,1.1-1.1v-6.2a.7.7,0,0,0,.6-.7v-6.6a.7.7,0,0,0-.7-.7h-4v-2.7h-2.5v2.7h-4a.7.7,0,0,0-.7.7v6.6a.7.7,0,0,0,.7.7Z" transform="translate(-27 -56)"/><rect class="cls-3" x="176" y="247.2" width="7.1" height="10.69" rx="3" ry="3"/><path class="cls-4" d="M265.3,309l-53.5-18.4c-1.4-.5-8.2-.5-9.6,0L148.7,309c-5.1,1.7-1.5,6.4,3.4,4.5l3.2-1.2,50.3-11.2a2.2,2.2,0,0,0,1.4-.8,2.2,2.2,0,0,0,1.4.8l50.3,11.2,3.2,1.2C266.8,315.4,270.4,310.7,265.3,309Z" transform="translate(-27 -56)"/><path class="cls-5" d="M210.7,301.6l2.5-8.3,48.1,17,6.2,2c-.7,1.4-3,2.3-5.7,1.3l-.5-.2-2.6-1Z" transform="translate(-27 -56)"/><path class="cls-5" d="M203.2,301.5l-3.7-7.9-46.9,16.6-6.2,2c.7,1.4,3,2.3,5.7,1.3l.5-.2,2.6-1Z" transform="translate(-27 -56)"/><path class="cls-6" d="M202.5,256.9H210c.7,0,1.3.8,1.3,1.8v32.6c0,1.4-2.4,1.6-5,1.6s-5.1-.5-5.1-1.6V258.7C201.2,257.7,201.8,256.9,202.5,256.9Z" transform="translate(-27 -56)"/><rect class="cls-7" x="128.1" y="267.6" width="10.4" height="10.69" rx="1.1" ry="1.1"/><rect class="cls-8" x="127.4" y="263.1" width="11.8" height="8.02" rx="0.7" ry="0.7"/><rect class="cls-9" x="132.1" y="260.4" width="2.5" height="3.21"/><rect class="cls-10" x="128.1" y="271.1" width="10.4" height="1.55"/><rect class="cls-11" x="127.4" y="266.7" width="11.8" height="1.74"/><rect class="cls-7" x="220" y="267.8" width="10.4" height="10.69" rx="1.1" ry="1.1"/><rect class="cls-8" x="219.2" y="263.2" width="11.8" height="8.02" rx="0.7" ry="0.7"/><rect class="cls-9" x="223.9" y="260.5" width="2.5" height="3.21"/><rect class="cls-10" x="220" y="271.2" width="10.4" height="1.55"/><rect class="cls-11" x="219.2" y="266.8" width="11.8" height="1.74"/><path class="cls-4" d="M252.3,312.5l-42.3-18.4a20.5,20.5,0,0,0-7.6,0l-42.3,18.4c-4,1.7-1.2,6.4,2.7,4.5l2.5-1.2,39.8-11.2a1.8,1.8,0,0,0,1.1-.8,1.8,1.8,0,0,0,1.1.8l39.8,11.2,2.5,1.2C253.5,318.9,256.4,314.2,252.3,312.5Z" transform="translate(-27 -56)"/><path class="cls-5" d="M209.5,305.1l3.1-6,36.5,14.6,4.9,2c-.5,1.4-2.3,2.3-4.5,1.3l-.4-.2-2.1-1Z" transform="translate(-27 -56)"/><rect class="cls-12" x="174.2" y="210.7" width="10.1" height="7.51"/><path class="cls-5" d="M203.2,305l-3.2-6-36.8,14.6-4.9,2c.5,1.4,2.4,2.3,4.5,1.3l.4-.2,2.1-1Z" transform="translate(-27 -56)"/><path class="cls-13" d="M214.3,291.5v18c0,2.7-16.1,2.1-16.1,0v-20a1.2,1.2,0,0,1,1.3-1H213a1.2,1.2,0,0,1,1.3,1Z" transform="translate(-27 -56)"/><path class="cls-14" d="M212.4,288.5H199.5a1.2,1.2,0,0,0-1.3,1v.6h16.1v-.6a1.2,1.2,0,0,0-1.3-1Z" transform="translate(-27 -56)"/><path class="cls-4" d="M212.2,290.1h-5.4v21.2c3.8,0,7.5-.5,7.5-1.8V290.1Z" transform="translate(-27 -56)"/><rect class="cls-7" x="174.3" y="263.8" width="10.4" height="10.69" rx="1.1" ry="1.1"/><rect class="cls-8" x="173.7" y="259.2" width="11.8" height="8.02" rx="0.7" ry="0.7"/><rect class="cls-9" x="178.3" y="256.6" width="2.5" height="3.21"/><rect class="cls-10" x="174.3" y="267.3" width="10.4" height="1.55"/><rect class="cls-11" x="173.7" y="262.9" width="11.8" height="1.74"/><path class="cls-15" d="M158.9,253.3c.8-40.3-.7-50.8-5.1-62.8-7.9-4-13.4.3-9.9,10.4,4.5,17.2,4.6,34.2,7.4,54.1.2,1.3,1.9,1.2,4.4,1.2S159.1,255.4,158.9,253.3Z" transform="translate(-27 -56)"/><path class="cls-15" d="M252,253.1c-.8-40.3.7-50.8,5.1-62.8,7.9-4,13.4.3,9.9,10.4-4.5,17.2-4.6,34.2-7.4,54.1-.2,1.3-1.9,1.2-4.4,1.2S251.8,255.1,252,253.1Z" transform="translate(-27 -56)"/><path class="cls-16" d="M252.9,238.8l.6,14.3c.1,3.1-13.6,4.2-30.5,4.2H189.8c-16.9,0-30.8-1-30.9-4l-.3-7.2-.3-7.2c-.2-4,10.2-5.9,47-6S252.8,234.8,252.9,238.8Z" transform="translate(-27 -56)"/><path class="cls-17" d="M179.1,253.7h54.4a1,1,0,0,1,1,1v5.9a6.1,6.1,0,0,1-6.1,6.1H184.1a6.1,6.1,0,0,1-6.1-6.1v-5.9A1,1,0,0,1,179.1,253.7Z" transform="translate(-27 -56)"/><path class="cls-18" d="M158.5,249.1H254a.7.7,0,0,1,.7.7v3.7a3.9,3.9,0,0,1-3.9,3.9h-89a3.9,3.9,0,0,1-3.9-3.9v-3.7A.7.7,0,0,1,158.5,249.1Z" transform="translate(-27 -56)"/><path class="cls-19" d="M197.5,233.2v15.9h18.8V233.2h-3.5v10.1a2.3,2.3,0,0,1-2.2,2.4h-7.5a2.3,2.3,0,0,1-2.2-2.4V233h-3.3Z" transform="translate(-27 -56)"/><path class="cls-19" d="M241.9,238.6v10.5h11.5l-.2-4.4h-5.4c-1.7,0-2.2-1.1-2.2-2.4v-7.9l-1.7-.2-2-.4Z" transform="translate(-27 -56)"/><path class="cls-19" d="M173.7,249.1V234l-5.5.7h-.6V243c0,1.3-1.3,2.2-3,2.4l-6.1.8v2.9Z" transform="translate(-27 -56)"/><path class="cls-20" d="M244.5,129.6l9.4,85.4c.5,4.2-16.9,11.7-32.7,11.8L188,227c-15.6.1-33.7-7.4-33.1-11.4L167.2,128C170.3,106.6,241.9,106.1,244.5,129.6Z" transform="translate(-27 -56)"/><path class="cls-16" d="M242.2,131.9l8.9,80.4c.4,3.9-15.9,11-30.8,11.1l-31.3.2c-14.7.1-31.7-7-31.2-10.7l11.6-82.4C172.2,110.3,239.7,109.8,242.2,131.9Z" transform="translate(-27 -56)"/></g><g id="Businessman"><rect class="cls-21" x="138.4" y="143.8" width="81.3" height="47.26" rx="18.5" ry="18.5"/><path class="cls-22" d="M180.8,127.2h49.3c13.3,0,20.3,11.1,24.1,23.5l9.4,30.7-53.4,16.4-61.7-16.4,8-30.7C159.9,138.2,167.5,127.2,180.8,127.2Z" transform="translate(-27 -56)"/><polygon class="cls-23" points="162.7 71.2 194.1 71.2 185.8 102.2 171.2 102.9 162.7 71.2"/><polygon class="cls-24" points="120.8 125.8 123.2 119.8 235.1 120.5 237.7 126.9 120.8 125.8"/><path class="cls-22" d="M168.6,178.9H154c-5.6,0-10.1,4.8-10.1,10.7s4.6,10.7,10.1,10.7h14.6c5.6,0,10.1-4.8,10.1-10.7S174.2,178.9,168.6,178.9Z" transform="translate(-27 -56)"/><path class="cls-22" d="M243.6,178.9h14.6c5.6,0,10.1,4.8,10.1,10.7s-4.6,10.7-10.1,10.7H243.6c-5.6,0-10.1-4.8-10.1-10.7S238.1,178.9,243.6,178.9Z" transform="translate(-27 -56)"/><path class="cls-25" d="M204,138.5h2.4a2.4,2.4,0,0,1,2.2,2.2l1.2,6.4c.2,1.1-1.1,2.9-3,2.9h-3.2c-1.9,0-3.2-1.8-3-2.9l1.2-6.4A2.4,2.4,0,0,1,204,138.5Z" transform="translate(-27 -56)"/><path class="cls-26" d="M204.3,139.7h2a2,2,0,0,0,1.8-1.9l1-5.5a2.5,2.5,0,0,0-2.4-2.5H204a2.5,2.5,0,0,0-2.4,2.5l1,5.5A2,2,0,0,0,204.3,139.7Z" transform="translate(-27 -56)"/><path class="cls-27" d="M204.3,139.7h2a2,2,0,0,0,1.8-1.9l1-5.5a2.5,2.5,0,0,0-2.4-2.5H204a2.5,2.5,0,0,0-2.4,2.5l1,5.5A2,2,0,0,0,204.3,139.7Z" transform="translate(-27 -56)"/><path class="cls-28" d="M198.4,140.7l4.2-10.3h5.5l4.2,10.3c.7,1.8,9.8-11.5,8.8-13.3l-3-5c-1.6-2.7-.2-2.6-8.2-2.6h-8.9c-8,0-6.6-.1-8.2,2.6l-3,5C188.4,129.6,198,141.8,198.4,140.7Z" transform="translate(-27 -56)"/><path class="cls-29" d="M215.4,122.9V111.4c0-2.5-2.9-4.5-6.3-4.5h-6.9c-3.5,0-6.3,2-6.3,4.5v11.5c0,3.2,2.2,6.7,9.8,6.7S215.4,126.1,215.4,122.9Z" transform="translate(-27 -56)"/><path class="cls-30" d="M223.4,105.3V81.4c0-5.2-5.2-9.4-11.6-9.4H199.3c-6.4,0-11.6,4.2-11.6,9.4v23.9c0,6.6,4,13.9,17.8,13.9S223.4,111.9,223.4,105.3Z" transform="translate(-27 -56)"/><path class="cls-31" d="M219.5,91.5a5.5,5.5,0,0,0-10.9,0v2.4h10.9Z" transform="translate(-27 -56)"/><path class="cls-31" d="M202.7,91.5a5.5,5.5,0,0,0-10.9,0v2.4h10.9Z" transform="translate(-27 -56)"/><path class="cls-32" d="M217,76.6H188.9v2h30.2a2,2,0,0,0,2-1.9v-1A11.6,11.6,0,0,1,217,76.6Z" transform="translate(-27 -56)"/><path class="cls-33" d="M183.1,95.4V76.4c0-3.2,1.1-5.8,2.5-5.8h2.7c1.4,0,2.5,2.5,2.6,5.7V95.1c0,4-2,5.2-3.8,5.2S183.1,99.4,183.1,95.4Z" transform="translate(-27 -56)"/><path class="cls-33" d="M228.9,69.4,223,75.9a1.1,1.1,0,0,1-1.6.3l-.8-.7a1.1,1.1,0,0,1,.1-1.6l4.9-5.3,1-1.2C228.3,65.6,230.6,67.6,228.9,69.4Z" transform="translate(-27 -56)"/><path class="cls-33" d="M220.2,95.8V76.6c0-4,1.9-5.1,3.9-5.2s3.9.8,3.9,5V95.6c0,4-2,5.2-3.8,5.2S220.2,99.8,220.2,95.8Z" transform="translate(-27 -56)"/><path class="cls-34" d="M205.6,119.2a28.7,28.7,0,0,1-9.8-1.5v5.1a38.7,38.7,0,0,0,19.5,0v-5.1A28.7,28.7,0,0,1,205.6,119.2Z" transform="translate(-27 -56)"/><path class="cls-35" d="M196.8,337.6a7.4,7.4,0,0,1-1.5,4.4c-3.1,4.2-9.8,5.1-14.8,3.6-3-.9-5.7-2.5-7.3-5-3.1-5.2-2.1-10.4-2-15.5.3-11.5,24.3-11.1,24.9.2Z" transform="translate(-27 -56)"/><path class="cls-36" d="M195.1,337.5V325.1c0-2.7-3.3-4.9-7.4-5h-8.1c-4.1,0-7.5,2.1-7.5,4.8v5.6C171.6,348.6,195,347.6,195.1,337.5Z" transform="translate(-27 -56)"/><path class="cls-37" d="M195.4,323.8l-2.6-11.5a5.1,5.1,0,0,0-5.2-3.9h-7.2a5.1,5.1,0,0,0-5.3,3.8l-2.8,11.4c-.7,2.7,3,8.1,11.4,8.2S196,326.5,195.4,323.8Z" transform="translate(-27 -56)"/><path class="cls-36" d="M184,307.9h0a3.8,3.8,0,0,1,3.8,3.8v11.7a3.8,3.8,0,0,1-3.8,3.8h0a3.8,3.8,0,0,1-3.8-3.8V311.7A3.8,3.8,0,0,1,184,307.9Z" transform="translate(-27 -56)"/><path class="cls-38" d="M192.3,311l.8,2.7q-8.2,2.5-18.3-.1l.8-2.6Q188.4,311.7,192.3,311Z" transform="translate(-27 -56)"/><ellipse class="cls-39" cx="161.7" cy="269.7" rx="0.6" ry="0.6"/><ellipse class="cls-39" cx="161.7" cy="266.5" rx="0.6" ry="0.6"/><ellipse class="cls-39" cx="161.8" cy="259.9" rx="0.6" ry="0.6"/><ellipse class="cls-39" cx="152.4" cy="263.3" rx="0.6" ry="0.6"/><ellipse class="cls-39" cx="152.6" cy="269.8" rx="0.6" ry="0.6"/><ellipse class="cls-39" cx="152.5" cy="266.6" rx="0.6" ry="0.6"/><ellipse class="cls-39" cx="152.5" cy="260" rx="0.6" ry="0.6"/><ellipse class="cls-39" cx="161.9" cy="263.1" rx="0.6" ry="0.6"/><path class="cls-40" d="M179.3,319.5a.2.2,0,0,1-.1-.4.4.4,0,0,1,.5-.1l4.5,1.3,4.4-1.6a.4.4,0,0,1,.5.1.2.2,0,0,1-.1.4l-4.1,1.5,4.1,1.6a.2.2,0,0,1,.1.4.4.4,0,0,1-.5.1l-4.4-1.8-4.4,1.8a.4.4,0,0,1-.5-.1.2.2,0,0,1,.1-.4l4.1-1.6-4.2-1.2Zm.1-7.3a.2.2,0,0,1-.1-.4.4.4,0,0,1,.5-.1l4.4,2,4.4-2a.4.4,0,0,1,.5.1.2.2,0,0,1-.1.4l-4.1,1.8,4.1,1.6a.2.2,0,0,1,.1.4.4.4,0,0,1-.5.1l-4.4-1.8-4.6,2a.4.4,0,0,1-.5-.1.2.2,0,0,1,.1-.4l4.2-1.8-4.1-1.8Zm.2,13.8a.3.3,0,1,1,0-.5h9.1a.3.3,0,1,1,0,.5Z" transform="translate(-27 -56)"/><path class="cls-35" d="M216.7,337.6a7.4,7.4,0,0,0,1.5,4.4c3.1,4.2,9.8,5.1,14.8,3.6,3-.9,5.7-2.5,7.3-5,3.1-5.2,2.1-10.4,2-15.5-.3-11.5-24.3-11.1-24.9.2Z" transform="translate(-27 -56)"/><path class="cls-36" d="M218.4,337.5V325.1c0-2.7,3.3-4.9,7.4-5h8.1c4.1,0,7.5,2.1,7.5,4.8v5.6C241.9,348.6,218.5,347.6,218.4,337.5Z" transform="translate(-27 -56)"/><path class="cls-37" d="M218.1,323.8l2.6-11.5a5.1,5.1,0,0,1,5.2-3.9H233a5.1,5.1,0,0,1,5.3,3.8l2.8,11.4c.7,2.7-3,8.1-11.4,8.2S217.5,326.5,218.1,323.8Z" transform="translate(-27 -56)"/><path class="cls-36" d="M229.5,307.9h0a3.8,3.8,0,0,0-3.8,3.8v11.7a3.8,3.8,0,0,0,3.8,3.8h0a3.8,3.8,0,0,0,3.8-3.8V311.7A3.8,3.8,0,0,0,229.5,307.9Z" transform="translate(-27 -56)"/><path class="cls-38" d="M221.2,311l-.8,2.7q8.2,2.5,18.3-.1l-.8-2.6Q225.1,311.7,221.2,311Z" transform="translate(-27 -56)"/><ellipse class="cls-39" cx="197.9" cy="269.7" rx="0.6" ry="0.6"/><ellipse class="cls-39" cx="197.8" cy="266.5" rx="0.6" ry="0.6"/><ellipse class="cls-39" cx="197.7" cy="259.9" rx="0.6" ry="0.6"/><ellipse class="cls-39" cx="207.1" cy="263.3" rx="0.6" ry="0.6"/><ellipse class="cls-39" cx="207" cy="269.8" rx="0.6" ry="0.6"/><ellipse class="cls-39" cx="207" cy="266.6" rx="0.6" ry="0.6"/><ellipse class="cls-39" cx="207.1" cy="260" rx="0.6" ry="0.6"/><ellipse class="cls-39" cx="197.7" cy="263.1" rx="0.6" ry="0.6"/><path class="cls-40" d="M234.2,319.5a.2.2,0,0,0,.1-.4.4.4,0,0,0-.5-.1l-4.5,1.3-4.4-1.6a.4.4,0,0,0-.5.1.2.2,0,0,0,.1.4l4.1,1.5-4.1,1.6a.2.2,0,0,0-.1.4.4.4,0,0,0,.5.1l4.4-1.8,4.4,1.8a.4.4,0,0,0,.5-.1.2.2,0,0,0-.1-.4l-4.1-1.6,4.2-1.2Zm-.1-7.3a.2.2,0,0,0,.1-.4.4.4,0,0,0-.5-.1l-4.4,2-4.4-2a.4.4,0,0,0-.5.1.2.2,0,0,0,.1.4l4.1,1.8-4.1,1.6a.2.2,0,0,0-.1.4.4.4,0,0,0,.5.1l4.4-1.8,4.6,2a.4.4,0,0,0,.5-.1.2.2,0,0,0-.1-.4L230,314l4.1-1.8Zm-.2,13.8a.3.3,0,1,0,0-.5h-9.1a.3.3,0,1,0,0,.5Z" transform="translate(-27 -56)"/><ellipse class="cls-41" cx="199.5" cy="284.9" rx="4.1" ry="2.4"/><ellipse class="cls-41" cx="160" cy="284.9" rx="4.1" ry="2.4"/><path class="cls-42" d="M197.7,233.2v72.2c0,11.4-27.8,11.4-27.8,0V233.2c0-8,6.2-14.6,13.9-14.6S197.7,225.1,197.7,233.2Z" transform="translate(-27 -56)"/><path class="cls-43" d="M183.8,243.5v70.4c6.9,0,13.9-2.9,13.9-8.6V233.2c0-8-6.2-14.6-13.9-14.6Z" transform="translate(-27 -56)"/><path class="cls-42" d="M215.8,233.2v72.2c0,11.4,27.8,11.4,27.8,0V233.2c0-8-6.2-14.6-13.9-14.6S215.8,225.1,215.8,233.2Z" transform="translate(-27 -56)"/><path class="cls-43" d="M229.7,243.5v70.4c-6.9,0-13.9-2.9-13.9-8.6V233.2c0-8,6.2-14.6,13.9-14.6Z" transform="translate(-27 -56)"/><path class="cls-44" d="M202.2,110.1H209a1.1,1.1,0,0,0,1.1-1.1v-1.5h-9v1.5A1.1,1.1,0,0,0,202.2,110.1Z" transform="translate(-27 -56)"/><path class="cls-45" d="M203.9,105.2h3.3a2.3,2.3,0,0,0,2.3-2.3v-.7a2.2,2.2,0,0,0-.4-1.2,2.2,2.2,0,0,1-2.1,1.6h-2.8A2.2,2.2,0,0,1,202,101a2.2,2.2,0,0,0-.4,1.2v.7A2.3,2.3,0,0,0,203.9,105.2Z" transform="translate(-27 -56)"/><path class="cls-46" d="M191.6,58.3c29.2,0,32.8.3,33.4,9.7.1,1.3.1.9.1,2.5.1,6.3-2.8,6.8-9.3,6.9H192c-9.7.1-14,.3-14-7.9V62.7q1.1-6.1,6.9-6.8v2.8A32.5,32.5,0,0,1,191.6,58.3Z" transform="translate(-27 -56)"/><path class="cls-47" d="M202,106.3h7.1l1,.2.9.5.3.2-.6.2-2.1.2h-6.4l-2-.2-.6-.2.3-.2.9-.5Z" transform="translate(-27 -56)"/><ellipse class="cls-48" cx="176.4" cy="48" rx="0.9" ry="0.9"/><ellipse class="cls-48" cx="180.7" cy="48" rx="0.9" ry="0.9"/><path class="cls-46" d="M202,118.6h2.3v-4a1.3,1.3,0,1,1,2.5,0v4h2.3a3,3,0,0,0,3-3v-6.2a3,3,0,0,0-.9-2.1h0a3,3,0,0,0-2.1-.9H202a3,3,0,0,0-2.1.9h0a3,3,0,0,0-.9,2.1v6.2a3,3,0,0,0,3,3Zm7.1,2.5H202a5.6,5.6,0,0,1-5.6-5.6v-6.2a5.6,5.6,0,0,1,1.6-3.9h0a5.6,5.6,0,0,1,3.9-1.6h7.1a5.6,5.6,0,0,1,3.9,1.6h0a5.6,5.6,0,0,1,1.6,3.9v6.2a5.6,5.6,0,0,1-5.6,5.6Z" transform="translate(-27 -56)"/><path class="cls-49" d="M192,133.3q.3,0,2.3-6.1l1.4-4.3v-3.1c-2.3.2-2,.7-3.1,2.6l-2.9,4.8h-.1c-.4.6.1,2,1,3.7l1.3,2.1Z" transform="translate(-27 -56)"/><path class="cls-49" d="M215.4,122.3l1.7,5,1.9,5.6,1.2-2.1c.8-1.6,1.2-2.9.9-3.3H221l-2.9-4.8c-1.1-1.8-.8-2.3-2.7-2.5Z" transform="translate(-27 -56)"/><polygon class="cls-50" points="166.1 84 148.3 91 159.4 71.2 163.3 67.1 165.7 66.4 166.1 84"/><polygon class="cls-50" points="190.7 84 208.6 91 197.4 71.2 193.6 67.1 191.1 66.4 190.7 84"/><path class="cls-46" d="M210.7,90.1a1.3,1.3,0,0,1-1.3-2.2l1.5-.7,1.6-.4h3.4l1.6.4,1.5.7a1.3,1.3,0,0,1-1.3,2.2l-1.1-.5-1.1-.3h-2.4l-1.1.3Z" transform="translate(-27 -56)"/><circle class="cls-51" cx="169.9" cy="39.7" r="2.2"/><circle class="cls-51" cx="186.8" cy="39.7" r="2.2"/><path class="cls-46" d="M193.9,90.1a1.3,1.3,0,1,1-1.3-2.2l1.5-.7,1.6-.4h3.4l1.6.4,1.5.7a1.3,1.3,0,0,1-1.3,2.2l-1.1-.5-1.1-.3h-2.4l-1.1.3Z" transform="translate(-27 -56)"/><path class="cls-52" d="M202.3,94.6v3.3a2.2,2.2,0,0,1-2.2,2.2h-6.4a2.2,2.2,0,0,1-2.2-2.2V94.6H188a.7.7,0,1,1,0-1.4h14.3a3.5,3.5,0,0,1,6,0h14.3a.7.7,0,0,1,0,1.4h-3.5v3.3a2.2,2.2,0,0,1-2.2,2.2h-6.4a2.2,2.2,0,0,1-2.2-2.2V94.6h-.9l-.2-.4a2.1,2.1,0,0,0-3.9,0l-.2.4Zm16.2,0h-9.4v3.3a1.5,1.5,0,0,0,1.5,1.5H217a1.5,1.5,0,0,0,1.5-1.5V94.6Zm-16.9,0h-9.4v3.3a1.5,1.5,0,0,0,1.5,1.5h6.4a1.5,1.5,0,0,0,1.5-1.5Z" transform="translate(-27 -56)"/><path class="cls-53" d="M188,99.1c0-8.3,0-8.6-4.3-8.6a2.3,2.3,0,0,0-2.1,2.4v6.1a4.2,4.2,0,0,0,.7,2.4,2.9,2.9,0,0,0,2.5,1.1H188Z" transform="translate(-27 -56)"/><path class="cls-54" d="M187.4,98.2c0-5.1,0-5.3-2.7-5.3a1.4,1.4,0,0,0-1.3,1.5v3.8a2.6,2.6,0,0,0,.4,1.5,1.8,1.8,0,0,0,1.6.7h2Z" transform="translate(-27 -56)"/><path class="cls-53" d="M223,99.5c0-8.3,0-8.6,4.3-8.6a2.3,2.3,0,0,1,2.1,2.4v6.1a4.2,4.2,0,0,1-.7,2.4,2.9,2.9,0,0,1-2.5,1.1H223Z" transform="translate(-27 -56)"/><path class="cls-54" d="M223.6,98.6c0-5.1,0-5.3,2.7-5.3a1.4,1.4,0,0,1,1.3,1.5v3.8a2.6,2.6,0,0,1-.4,1.5,1.8,1.8,0,0,1-1.6.7h-2Z" transform="translate(-27 -56)"/></g><g id="Table2"><rect class="cls-51" x="81.4" y="172" width="7.6" height="1.08"/><rect class="cls-51" x="94.5" y="172" width="7.6" height="1.08"/><rect class="cls-55" x="30.7" y="164.2" width="51.9" height="13.09"/><ellipse class="cls-56" cx="75.4" cy="170.8" rx="3.6" ry="4.3"/><ellipse class="cls-51" cx="75.4" cy="170.8" rx="2.2" ry="2.6"/><rect class="cls-57" x="37.4" y="166.9" width="31.6" height="7.63"/><rect class="cls-39" x="38.3" y="173.3" width="29.7" height="0.35"/><rect class="cls-39" x="38.3" y="167.8" width="29.7" height="0.35"/><rect class="cls-57" x="34.2" y="166.9" width="0.9" height="7.63"/><polygon class="cls-58" points="82.1 177.3 84 177.3 104.7 177.3 104.7 175.4 84 175.4 84 166.1 104.7 166.1 104.7 164.2 84 164.2 82.1 164.2 82.1 166.1 82.1 175.4 82.1 177.3"/><rect class="cls-59" x="84" y="166.1" width="19.7" height="9.32"/><rect class="cls-60" x="84" y="171.4" width="20.1" height="1.58"/><rect class="cls-61" x="84" y="169.5" width="20.1" height="1.24"/><rect class="cls-60" x="84" y="167.4" width="20.1" height="0.65"/><rect class="cls-62" x="16.6" y="182.4" width="88" height="99.66"/><rect class="cls-63" x="89.2" y="286.2" width="8.2" height="6.83" rx="0.7" ry="0.7"/><rect class="cls-64" x="88.7" y="283.3" width="9.3" height="6.62" rx="0.6" ry="0.6"/><rect class="cls-65" x="85.9" y="281.7" width="14.8" height="0.9" rx="0.4" ry="0.4"/><rect class="cls-9" x="89.8" y="282.5" width="6.9" height="1"/><rect x="89.2" y="289.9" width="8.2" height="0.99"/><rect class="cls-66" x="88.7" y="286.3" width="9.3" height="1.44"/><rect class="cls-63" x="23.8" y="286.2" width="8.2" height="6.83" rx="0.7" ry="0.7"/><rect class="cls-64" x="23.2" y="283.3" width="9.3" height="6.62" rx="0.6" ry="0.6"/><rect class="cls-65" x="20.5" y="281.7" width="14.8" height="0.9" rx="0.4" ry="0.4"/><rect class="cls-9" x="24.5" y="282.5" width="6.9" height="1"/><rect x="23.8" y="289.9" width="8.2" height="0.99"/><rect class="cls-66" x="23.2" y="286.3" width="9.3" height="1.44"/><rect class="cls-67" x="16.6" y="276" width="88" height="6.08"/><rect class="cls-67" x="14.8" y="177.3" width="91.1" height="5.66"/><rect class="cls-68" x="33.5" y="177.3" width="17.8" height="104.8"/><rect class="cls-68" x="16.6" y="182.4" width="88" height="1.75"/><rect class="cls-69" x="98.6" y="183.3" width="5.9" height="92.7"/><rect class="cls-69" x="16.6" y="183.3" width="5.9" height="92.7"/></g><g id="Trash_bin" data-name="Trash bin"><polygon class="cls-70" points="302.8 275 299.3 259.3 306.1 253.8 317.4 259.9 314.8 277.2 302.8 275"/><polygon class="cls-71" points="288.5 241 272.8 250.1 279.8 264.9 295.9 250 288.5 241"/><polygon class="cls-72" points="288.3 247.8 272.7 256.9 279.6 271.6 295.8 256.7 288.3 247.8"/><polygon class="cls-73" points="302.1 245.4 287.6 257.8 299.1 265.1 313.5 253 302.1 245.4"/><polygon class="cls-74" points="312.3 269.4 299.5 253.1 298.8 275.9 312.3 269.4"/><polygon class="cls-75" points="290.9 269.4 283.3 263.6 295.8 256.7 302.9 261.9 290.9 269.4"/><polygon class="cls-76" points="302.6 271.1 284.4 273 293.1 263 304.6 265.8 302.6 271.1"/><polygon class="cls-77" points="276.2 276.4 271.6 264 281 260.2 292.1 265.7 276.2 276.4"/><path class="cls-78" d="M329.6,326.2a1.8,1.8,0,0,1-1.9,1.7,1.9,1.9,0,0,1-1.8-1.9l1.7-60.3a1.8,1.8,0,0,1,1.9-1.7,1.9,1.9,0,0,1,1.8,1.9l-1.7,60.3Zm-39.6-72.7h.2v3.7h.9l8.4,82.6h43.8l8.4-82.6h.9v-3.7h.2a.9.9,0,0,0,.9-.9h0a.9.9,0,0,0-.9-.9H289.9a.9.9,0,0,0-.9.9h0a.9.9,0,0,0,.9.9ZM332.2,326l3.1-60.3a1.8,1.8,0,0,1,1.9-1.7A1.9,1.9,0,0,1,339,266l-3.1,60.3A1.8,1.8,0,0,1,334,328a1.9,1.9,0,0,1-1.7-1.9Zm6.3,0,4.5-60.3a1.8,1.8,0,0,1,2-1.6,1.9,1.9,0,0,1,1.7,2l-4.5,60.3a1.8,1.8,0,0,1-2,1.6,1.9,1.9,0,0,1-1.7-2Zm-15.5-60.1v60.3a1.8,1.8,0,0,1-3.7,0V265.9a1.8,1.8,0,0,1,3.7,0Zm-8.2-.1,1.7,60.3a1.9,1.9,0,0,1-1.8,1.9,1.8,1.8,0,0,1-1.9-1.7l-1.7-60.3a1.9,1.9,0,0,1,1.8-1.9,1.8,1.8,0,0,1,1.9,1.7ZM304,326a1.9,1.9,0,0,1-1.7,2,1.8,1.8,0,0,1-2-1.6L295.8,266a1.9,1.9,0,0,1,1.7-2,1.8,1.8,0,0,1,2,1.6L304,326Zm3.2-60.3,3.1,60.3a1.9,1.9,0,0,1-1.7,1.9,1.8,1.8,0,0,1-1.9-1.7L303.5,266a1.9,1.9,0,0,1,1.7-1.9A1.8,1.8,0,0,1,307.1,265.7Z" transform="translate(-27 -56)"/><polygon class="cls-79" points="264.3 204 324.4 204.3 324.7 201.3 264.1 201.3 264.3 204"/><rect class="cls-80" x="263.1" y="197.6" width="62.4" height="0.93"/><polygon class="cls-79" points="272.1 280.3 316.6 280.3 316.4 281.8 272.3 281.8 272.1 280.3"/></g><g id="Table1"><rect class="cls-67" x="15.6" y="144.4" width="313.5" height="13.26"/><polygon class="cls-81" points="212.8 151 130.5 151 116.1 151 113.2 151 15.6 151 15.6 157.7 28.6 157.7 41.1 157.7 112.1 157.7 115.2 157.7 126.9 157.7 216.4 157.7 224.1 157.7 227.8 157.7 303.6 157.7 316.1 157.7 329.1 157.7 329.1 151 227 151 223.9 151 212.8 151"/><rect class="cls-82" x="36.1" y="157.7" width="12.3" height="135.74"/><rect class="cls-83" x="36.1" y="157.7" width="12.3" height="9.21"/><rect class="cls-84" x="36.1" y="192.9" width="12.3" height="53.3"/><rect class="cls-85" x="36.1" y="259.7" width="12.3" height="1.55"/><rect class="cls-86" x="36.1" y="211.5" width="12.3" height="8.04"/><rect class="cls-51" x="35.7" y="293" width="13.1" height="2.57" rx="0.4" ry="0.4"/><rect class="cls-82" x="296.3" y="157.7" width="12.3" height="135.74"/><rect class="cls-83" x="296.3" y="157.7" width="12.3" height="9.21"/><rect class="cls-84" x="296.3" y="188.6" width="12.3" height="53.3"/><rect class="cls-85" x="296.3" y="255.4" width="12.3" height="1.55"/><rect class="cls-86" x="296.3" y="207.2" width="12.3" height="8.04"/><rect class="cls-51" x="295.9" y="293" width="13.1" height="2.57" rx="0.4" ry="0.4"/></g><g id="Things2"><rect class="cls-87" x="35.2" y="81.4" width="13.3" height="63.04"/><rect class="cls-88" x="41.9" y="81.4" width="6.7" height="63.04"/><circle class="cls-56" cx="41.9" cy="90.1" r="4.4"/><circle class="cls-51" cx="41.9" cy="90.1" r="2.6"/><rect class="cls-57" x="38" y="97.8" width="7.8" height="38.42"/><rect class="cls-39" x="38.9" y="99" width="0.4" height="36.07"/><rect class="cls-39" x="44.5" y="99" width="0.4" height="36.07"/><rect class="cls-89" x="48.6" y="93.4" width="9.3" height="50.96"/><rect class="cls-90" x="53.2" y="93.4" width="4.7" height="50.96"/><path class="cls-91" d="M77.5,154.9v39.1a1.2,1.2,0,0,1,1.2,1.2h3.1a1.2,1.2,0,0,1,1.2-1.2V154.9a1.2,1.2,0,0,1-1.2-1.2H78.6A1.2,1.2,0,0,1,77.5,154.9Z" transform="translate(-27 -56)"/><path class="cls-92" d="M80.2,153.8v41.5h1.5a1.2,1.2,0,0,1,1.2-1.2V154.9a1.2,1.2,0,0,1-1.2-1.2Z" transform="translate(-27 -56)"/><rect class="cls-93" x="21.9" y="81.4" width="13.3" height="63.04"/><rect class="cls-94" x="28.6" y="81.4" width="6.7" height="63.04"/><circle class="cls-56" cx="28.6" cy="90.1" r="4.4"/><circle class="cls-51" cx="28.6" cy="90.1" r="2.6"/><rect class="cls-57" x="24.7" y="97.8" width="7.8" height="38.42"/><rect class="cls-39" x="25.6" y="99" width="0.4" height="36.07"/><rect class="cls-39" x="31.2" y="99" width="0.4" height="36.07"/><rect class="cls-95" x="39.7" y="132.4" width="47.7" height="8.72"/><rect class="cls-96" x="39.7" y="136.9" width="47.7" height="4.36"/><rect class="cls-97" x="42.7" y="134.3" width="42.1" height="4.6"/><rect class="cls-98" x="35.9" y="141.3" width="59.8" height="3.31"/><rect class="cls-99" x="68" y="101.9" width="10.5" height="24.11" rx="4.8" ry="4.8"/><path class="cls-100" d="M100.2,157.9v20.5h5.2c0-.2,0-.3,0-.5V162.7a4.8,4.8,0,0,0-4.8-4.8Z" transform="translate(-27 -56)"/><polygon class="cls-101" points="83.9 127.7 80.6 144.4 65.5 144.4 62.2 127.7 60.9 127.7 60.9 121.7 85.2 121.7 85.2 127.7 83.9 127.7"/><polygon class="cls-102" points="61.9 126.9 73.9 126.9 73.9 144.4 64.7 144.4 61.9 126.9"/><rect class="cls-103" x="60.9" y="121.7" width="15.5" height="5.97"/><polygon class="cls-104" points="62.3 129.5 83.5 129.5 83.9 127.7 62 127.7 62.3 129.5"/><circle class="cls-105" cx="73.3" cy="106.3" r="0.9"/><circle class="cls-105" cx="73.3" cy="112.5" r="0.9"/><polygon class="cls-106" points="66.6 106.3 68.2 105.5 68.2 107.2 66.6 106.3"/><polygon class="cls-106" points="80 106.3 78.3 105.5 78.3 107.2 80 106.3"/><polygon class="cls-106" points="66.6 112.5 68.2 111.6 68.2 113.4 66.6 112.5"/><polygon class="cls-106" points="80 112.5 78.3 111.6 78.3 113.4 80 112.5"/><circle class="cls-105" cx="73.3" cy="118.7" r="0.9"/><polygon class="cls-106" points="66.6 118.7 68.2 117.8 68.2 119.6 66.6 118.7"/><polygon class="cls-106" points="80 118.7 78.3 117.8 78.3 119.6 80 118.7"/><g id="Mouse"><path class="cls-107" d="M150.6,200.4H130.8c0-3.7,5-9.5,9.7-10.7,8.2-2,10.1,6.8,10.1,10.7Z" transform="translate(-27 -56)"/><path class="cls-108" d="M140.8,200.3q.2-3.4.4-6.2h-5a7.5,7.5,0,0,0-2.2,2.5,14.1,14.1,0,0,0-1.4,3.7Z" transform="translate(-27 -56)"/><path class="cls-108" d="M142.2,194.1q-.2,2.8-.4,6.2h7.2a16.1,16.1,0,0,0-.2-3.2,13.5,13.5,0,0,0-.9-3Z" transform="translate(-27 -56)"/><path class="cls-109" d="M143.1,196.4a2,2,0,0,1-3.2-.1v-.4a14.5,14.5,0,0,1,.7-4.3v-.2h.2c.7-.3,1.8-.4,2.3.4h.1v4.5Z" transform="translate(-27 -56)"/><path class="cls-110" d="M140.4,195.9a1.5,1.5,0,0,0,2.4.1v-4.1q-.3-.6-1.6-.1A13.8,13.8,0,0,0,140.4,195.9Z" transform="translate(-27 -56)"/></g></g><g id="Things1"><rect class="cls-111" x="243.2" y="74.2" width="36.7" height="37.48"/><rect class="cls-112" x="273.8" y="74.2" width="45.8" height="37.48"/><rect class="cls-111" x="242.2" y="74.2" width="78.1" height="7.93"/><rect class="cls-112" x="272.3" y="74.2" width="48.1" height="7.93"/><rect class="cls-113" x="243.2" y="82.2" width="76.4" height="3.04"/><rect class="cls-114" x="250.5" y="84.3" width="12.9" height="4.12" rx="2.1" ry="2.1"/><polygon class="cls-115" points="245.2 91.4 264 91.4 264.7 90.2 270.4 90.2 270.3 106.2 245.2 106.2 245.2 91.4"/><rect class="cls-116" x="245.2" y="107.9" width="25.1" height="0.73"/><path class="cls-117" d="M273.5,148.3H296l.4.2a.6.6,0,0,1,.2.4v11.7a.6.6,0,0,1-.2.4l-.4.2H273.5l-.4-.2a.6.6,0,0,1-.2-.4V148.9a.6.6,0,0,1,.2-.4l.4-.2Zm.4,6.8h21.7a.2.2,0,1,0,0-.5H273.9a.2.2,0,1,0,0,.5Zm22.2-6.4H273.3v12h22.9v-12Z" transform="translate(-27 -56)"/><rect class="cls-118" x="269.2" y="111.7" width="51" height="12.88"/><ellipse class="cls-56" cx="276.3" cy="118.2" rx="3.6" ry="4.2"/><ellipse class="cls-51" cx="276.3" cy="118.2" rx="2.1" ry="2.5"/><rect class="cls-57" x="282.5" y="114.4" width="31.1" height="7.5"/><rect class="cls-39" x="283.5" y="120.7" width="29.2" height="0.34"/><rect class="cls-39" x="283.5" y="115.3" width="29.2" height="0.34"/><rect class="cls-57" x="315.9" y="114.4" width="0.9" height="7.5"/><polygon class="cls-119" points="269.6 124.6 267.8 124.6 247.4 124.6 247.4 122.7 267.8 122.7 267.8 113.6 247.4 113.6 247.4 111.7 267.8 111.7 269.6 111.7 269.6 113.6 269.6 122.7 269.6 124.6"/><rect class="cls-59" x="248.4" y="113.6" width="19.4" height="9.17"/><rect class="cls-60" x="248" y="118.8" width="19.8" height="1.56"/><rect class="cls-61" x="248" y="116.9" width="19.8" height="1.22"/><rect class="cls-60" x="248" y="114.8" width="19.8" height="0.64"/><rect class="cls-59" x="294.7" y="134.5" width="21.8" height="9.9"/><rect class="cls-120" x="245.6" y="134.5" width="49.1" height="9.9"/><rect class="cls-59" x="245.4" y="140.1" width="49.3" height="1.78"/><rect class="cls-121" x="245.4" y="135.5" width="71.1" height="0.95"/><rect class="cls-1" x="245.5" y="138" width="71.1" height="1.42"/><rect class="cls-122" x="245.5" y="142.9" width="71.1" height="0.86"/><rect class="cls-60" x="294.7" y="140.1" width="21.9" height="1.68"/><polygon class="cls-123" points="266.6 138 251.5 138 258.4 142.9 266.6 138"/><polygon class="cls-123" points="298.6 135.5 315.3 135.5 309 137 298.6 135.5"/><polygon class="cls-72" points="291.4 140.1 282 140.1 288.6 141.9 291.4 140.1"/><rect class="cls-59" x="293.4" y="124.6" width="21.8" height="9.9"/><rect class="cls-120" x="244.3" y="124.6" width="49.1" height="9.9"/><rect class="cls-59" x="244" y="130.2" width="49.3" height="1.78"/><rect class="cls-121" x="244" y="125.6" width="71.1" height="0.95"/><rect class="cls-1" x="244.1" y="128.1" width="71.1" height="1.42"/><rect class="cls-122" x="244.1" y="133" width="71.1" height="0.86"/><rect class="cls-60" x="293.4" y="130.2" width="21.9" height="1.68"/><polygon class="cls-123" points="285.2 127.3 275.9 127.3 280.2 130.2 285.2 127.3"/><polygon class="cls-123" points="295 128.9 303.3 128.9 300.1 130.4 295 128.9"/><polygon class="cls-72" points="260.8 131.2 251.4 131.2 258 133 260.8 131.2"/><rect class="cls-124" x="293.9" y="114.3" width="2.8" height="28.81" transform="translate(138.7 367.6) rotate(-89.8)"/><rect class="cls-125" x="294.6" y="115" width="1.4" height="28.81" transform="translate(138 368.3) rotate(-89.8)"/><path class="cls-126" d="M309.7,128.7q-2.5.4,0,1.4l4.9-1.5-4.9-1.3Q307.8,128.3,309.7,128.7Z" transform="translate(-27 -56)"/><path class="cls-127" d="M313.2,129c-.4-.2-.4-.4,0-.7C315.3,128.5,315.3,128.7,313.2,129Z" transform="translate(-27 -56)"/><rect class="cls-128" x="279.6" y="126.3" width="2.7" height="4.67" transform="translate(123.3 352.6) rotate(-89.6)"/><rect class="cls-129" x="280.8" y="127.2" width="3.1" height="2.92" transform="translate(124.7 354.1) rotate(-89.6)"/><rect class="cls-130" x="281.6" y="126.8" width="1.6" height="2.13" transform="translate(125.5 353.3) rotate(-89.6)"/><rect class="cls-131" x="279.1" y="126.7" width="1.4" height="2.3" transform="translate(122.8 350.7) rotate(-89.6)"/></g><g id="Lamp"><path class="cls-132" d="M338.4,192.9h4c7-.1,13.7-.1,14.9,7.3.4,2.5,1.1,22.2,1.8,46.1,1,34.6,1.1,74.2,1.1,85.6,0,1.3-.1,2.8,0,3.9.4,4.4,1.5,7.6,3.5,9.7a8.9,8.9,0,0,0,7.1,2.8h.8l.2,2.5h-1a11.4,11.4,0,0,1-9-3.6c-2.3-2.5-3.6-6.2-4.1-11.2a27.4,27.4,0,0,1-.1-3.9c0-11.1-.1-51-1.1-85.7-.7-23.8-1.4-43.3-1.8-45.8-.8-5.3-6.5-5.2-12.4-5.2h-4.1Z" transform="translate(-27 -56)"/><path class="cls-133" d="M341.9,200.4v-.9c0-2.1-.5-11.6-2.6-11.6-5.6,0-26,1.5-35.5,4.2-3.5,1-5.1,4.6-5.1,7.4v.9Z" transform="translate(-27 -56)"/><path class="cls-134" d="M327.2,184.6h0a1.1,1.1,0,0,0,1.5-.7l17.1-45.2a1.1,1.1,0,0,0-.7-1.5h0a1.1,1.1,0,0,0-1.5.7l-17.1,45.2A1.1,1.1,0,0,0,327.2,184.6Z" transform="translate(-27 -56)"/><path class="cls-134" d="M331.4,186.2h0a1.1,1.1,0,0,0,1.5-.7L350,140.3a1.1,1.1,0,0,0-.7-1.5h0a1.1,1.1,0,0,0-1.5.7l-17.1,45.2A1.1,1.1,0,0,0,331.4,186.2Z" transform="translate(-27 -56)"/><path class="cls-134" d="M345.6,138.7h0a1.1,1.1,0,0,0,.4-1.6L320.7,95.9a1.1,1.1,0,0,0-1.6-.4h0a1.1,1.1,0,0,0-.4,1.6L344,138.4A1.1,1.1,0,0,0,345.6,138.7Z" transform="translate(-27 -56)"/><path class="cls-134" d="M349.4,136.4h0a1.3,1.3,0,0,0,.4-1.6l-26.1-43a1.2,1.2,0,0,0-1.6-.4h0a1.1,1.1,0,0,0-.4,1.6l26.1,43A1.1,1.1,0,0,0,349.4,136.4Z" transform="translate(-27 -56)"/><path class="cls-135" d="M342.6,134.9l6.5-1.7c.6-.2,1.5.8,1.5,1.6l-.3,7.6c0,.7-1,1.7-1.6,1.6l-6.4-1.7c-.9-.2-1-.4-1-1l.2-5.1C341.5,135.4,341.6,135.2,342.6,134.9Z" transform="translate(-27 -56)"/><path class="cls-134" d="M323.2,187.4l12.6-.8a.7.7,0,0,1,.8.7l.2,2.5-14,.9-.2-2.5A.7.7,0,0,1,323.2,187.4Z" transform="translate(-27 -56)"/><path class="cls-135" d="M334.1,184c.3,1.3,1.1,4.1,1.4,5.8l-11.5.8h0l1.5-8.6c.2-.9.6-1.1,1.2-.9l6.3,2C333.5,183.1,333.8,183,334.1,184Z" transform="translate(-27 -56)"/><rect class="cls-136" x="314.1" y="83.4" width="2.5" height="11.1" transform="translate(-20.6 142.1) rotate(-35.2)"/><path class="cls-137" d="M318.3,80.1a9.2,9.2,0,0,0,2.9,2.6c3,2,5.9,4.1,2.1,10.1l-1.2-.7c3-4.9.7-6.6-1.7-8.2a10.2,10.2,0,0,1-3.3-3Z" transform="translate(-27 -56)"/><path class="cls-135" d="M324.7,92.3c.6-1-.1-1.8-1.6-1.9l-6.2-.3c-.8,0-1.8,1.1-1.6,1.6l2.9,6c.4.8,1.6,2.2,2.7.7A40.3,40.3,0,0,0,324.7,92.3Z" transform="translate(-27 -56)"/><path class="cls-138" d="M317.3,68.7l4.8,6.2c.6.8.2,2.1-.8,3.1L309.5,89.1c-1.5,1.4-2.8,1.5-4,.1l-6.1-7.7c-1.2-1.5-.7-2.8,1-3.8l13.7-8.8C315.3,68,316.6,67.9,317.3,68.7Z" transform="translate(-27 -56)"/><polygon class="cls-133" points="268.7 56.4 238.5 28.2 273.8 18.4 284.4 34.2 268.7 56.4"/><path class="cls-139" d="M293.8,109.9a.6.6,0,0,0-.1.8.7.7,0,0,0,.9-.1l15.3-20.3a.6.6,0,0,0,.1-.8.7.7,0,0,0-.9.1Z" transform="translate(-27 -56)"/><path class="cls-139" d="M284.6,99.2c-.8.5-3.7-.8-4-1.4s-1.3-2.3-.5-2.9L299.8,84a1.5,1.5,0,0,1,2.2.2,1.8,1.8,0,0,1-.9,2.2Z" transform="translate(-27 -56)"/><path class="cls-139" d="M268.9,86.7a.6.6,0,0,1-.9-.1.7.7,0,0,1,.3-.9l30.7-9.9a.6.6,0,0,1,.9.1.7.7,0,0,1-.3.9Z" transform="translate(-27 -56)"/><path class="cls-140" d="M295.7,112.4c2-1.6-27.6-30.3-30.2-28.2C264.9,84.6,294.6,113.2,295.7,112.4Z" transform="translate(-27 -56)"/><path class="cls-141" d="M303.9,77.1h-.3a.2.2,0,0,1,.1-.3l11.2-7a2.3,2.3,0,0,1,1.2-.5,1.4,1.4,0,0,1,1.1.5l2,2.2a.2.2,0,0,1,0,.3h-.3L317,70a1.1,1.1,0,0,0-.8-.3,1.9,1.9,0,0,0-1,.4Z" transform="translate(-27 -56)"/><circle class="cls-142" cx="316.7" cy="80.5" r="0.7"/><circle class="cls-142" cx="316.7" cy="84.6" r="0.7"/><circle class="cls-142" cx="321.5" cy="79.2" r="0.7"/><circle class="cls-142" cx="321.4" cy="85.5" r="0.7"/><circle class="cls-142" cx="292.8" cy="40.7" r="0.9"/><circle class="cls-142" cx="290.8" cy="36.4" r="0.7"/><circle class="cls-142" cx="295.7" cy="36.4" r="0.7"/><circle class="cls-142" cx="300.6" cy="127.4" r="0.7"/><circle class="cls-142" cx="305.2" cy="128.5" r="0.7"/><rect x="269.7" y="142.6" width="46.6" height="1.8"/><path class="cls-143" d="M341.6,194.5H300.5a8.5,8.5,0,0,0-1.7,4.1h43.1C341.9,197.6,341.8,196,341.6,194.5Z" transform="translate(-27 -56)"/></g><g id="Laptop"><rect class="cls-144" x="128.7" y="82.3" width="15" height="12.8"/><rect class="cls-145" x="218.9" y="88.4" width="15" height="12.8"/><rect class="cls-146" x="214.1" y="81.3" width="15" height="12.8"/><rect class="cls-147" x="135.7" y="139.2" width="87.7" height="5.29" rx="1.2" ry="1.2"/><rect class="cls-148" x="135.7" y="87" width="87.7" height="53.9" rx="3.3" ry="3.3"/><rect class="cls-149" x="137.6" y="88.1" width="83.9" height="51.57" rx="3.2" ry="3.2"/><rect class="cls-148" x="137.1" y="141.8" width="84.9" height="2.04" rx="0.5" ry="0.5"/><path class="cls-107" d="M219.1,144.1l-53.3,50.8.4.3a3.4,3.4,0,0,0,1.8.5h1.5l.5-.5,53.6-51.1Zm18.4,0h7.6a3.3,3.3,0,0,1,3.3,3.2v45.2a3.1,3.1,0,0,1-1.5,2.7,3.4,3.4,0,0,1-1.8.5H183.4l.5-.5Z" transform="translate(-27 -56)"/><ellipse class="cls-150" cx="179.6" cy="113.9" rx="2.1" ry="2"/><path class="cls-151" d="M206.5,166.6a3.5,3.5,0,0,1,2.4,1h0a3.2,3.2,0,0,1,0,4.7h0a3.6,3.6,0,0,1-4.9,0h0a3.2,3.2,0,0,1,0-4.7h0a3.5,3.5,0,0,1,2.4-1Zm2,1.4a2.9,2.9,0,0,0-3.9,0,2.6,2.6,0,0,0,0,3.8,2.9,2.9,0,0,0,3.9,0,2.6,2.6,0,0,0,0-3.8Z" transform="translate(-27 -56)"/><path class="cls-152" d="M161.3,146.9V151h1.4v-4.8a3.4,3.4,0,0,1,3.5-3.3h4.4v-1.8h-3.3A5.9,5.9,0,0,0,161.3,146.9Z" transform="translate(-27 -56)"/><path class="cls-153" d="M241.1,141.2v1.8h5.8a3.5,3.5,0,0,1,2.9,1.4,3.2,3.2,0,0,1,.6,1.9v3.9h1.4v-3.2a5.5,5.5,0,0,0-.6-2.6,6.1,6.1,0,0,0-5.4-3.2Z" transform="translate(-27 -56)"/><rect class="cls-154" x="223.4" y="94.1" width="1.4" height="7.06"/></g></svg>