<?xml version="1.0" encoding="utf-8"?>
<!-- Generator: Adobe Illustrator 21.0.0, SVG Export Plug-In . SVG Version: 6.00 Build 0)  -->
<svg version="1.1" id="Layer_1" xmlns="http://www.w3.org/2000/svg" xmlns:xlink="http://www.w3.org/1999/xlink" x="0px" y="0px"
	 viewBox="0 0 1000 1000" style="enable-background:new 0 0 1000 1000;" xml:space="preserve">
<style type="text/css">
	.st0{fill:#A2A2A2;}
	.st1{fill:#7E2918;}
</style>
<g>
	<path class="st0" d="M501,2.4C225.3,2.4,1,226.6,1,502.4c0,275.7,224.3,500,500,500c275.7,0,500-224.3,500-500
		C1001,226.6,776.7,2.4,501,2.4z M501,952.4c-248.1,0-450-201.9-450-450s201.9-450,450-450c248.1,0,450,201.9,450,450
		S749.1,952.4,501,952.4z"/>
</g>
<g>
	<path class="st1" d="M585.1,349.4V233.6h-36.3V126.4H341.7v29.6h111.5v77.5h-36.3v115.8l-110,108.2v420.7h388.4V457.6L585.1,349.4z
		 M482.9,156.1h36.3v77.5h-36.3V156.1z M446.5,263.2h109v77.5h-109V263.2z M437.8,370.4h126.5l79.9,78.6H357.9L437.8,370.4z
		 M336.5,573.2H536v180.9H336.5V573.2z M665.6,848.6H336.5v-64.9h229.2V543.5H336.5v-64.9h329.1V848.6z"/>
</g>
</svg>
