<svg xmlns="http://www.w3.org/2000/svg" viewBox="0 0 5000 5000"><defs><style>.cls-1{fill:#7e2918;}.cls-2,.cls-4{opacity:0.12;}.cls-3,.cls-4,.cls-5{fill:#acdbd1;}.cls-5,.cls-8{fill-rule:evenodd;}.cls-6{fill:#3fb0b6;}.cls-7,.cls-8{fill:#a2a2a2;}.cls-9{opacity:0.19;}.cls-10{fill:#e34400;}.cls-11{fill:#fff;}.cls-12{opacity:0.11;}.cls-13{fill:#4f6269;}.cls-14{fill:#3d4a4f;}</style></defs><title>goals</title><g id="Layer_1" data-name="Layer 1"><rect class="cls-1" width="5000" height="5000"/></g><g id="Layer_2" data-name="Layer 2"><g class="cls-2"><path class="cls-3" d="M1080.1,4017.8a34.1,34.1,0,0,1-18.4-5.4,33.1,33.1,0,0,0,18.3,5.4h443.2a33.1,33.1,0,0,0,17.1-4.6,34.4,34.4,0,0,1-17.1,4.6Z"/><path class="cls-3" d="M1080.1,3385.2h443.2a34.4,34.4,0,0,1,21.8,8,33.1,33.1,0,0,0-21.8-8H1080.1a33.2,33.2,0,0,0-24,10A34,34,0,0,1,1080.1,3385.2Z"/><path class="cls-3" d="M1046.7,3986.7a32.1,32.1,0,0,0,15,26.1A33.5,33.5,0,0,1,1046.7,3986.7Z"/><path class="cls-3" d="M1540.1,4013.6a32.1,32.1,0,0,0,16.4-27.9V3589.4h0v395.5A33.6,33.6,0,0,1,1540.1,4013.6Z"/><path class="cls-3" d="M1046.6,3985.7c0,.4.1.7.1,1a33.2,33.2,0,0,0,15,25.9,34,34,0,0,0,18.4,5.2h443.2a33.8,33.8,0,0,0,17-4.4,33.1,33.1,0,0,0,16.3-28.5V3588.3H1046.6Zm475-323.9a10.1,10.1,0,0,1-10.1,10.1h-57.1a10.1,10.1,0,0,1-10.1-10.1v-34.9a10.1,10.1,0,0,1,10.1-10.1h57.1a10.1,10.1,0,0,1,10.1,10.1Zm0,104.7a10.1,10.1,0,0,1-10.1,10.1h-57.1a10.1,10.1,0,0,1-10.1-10.1v-34.9a10.1,10.1,0,0,1,10.1-10.1h57.1a10.1,10.1,0,0,1,10.1,10.1Zm0,208.4a10.1,10.1,0,0,1-10.1,10.1h-57.1a10.1,10.1,0,0,1-10.1-10.1V3836.4a10.1,10.1,0,0,1,10.1-10.1h57.1a10.1,10.1,0,0,1,10.1,10.1ZM1402,3871.3a10.1,10.1,0,0,1-10.1,10.1h-57.1a10.1,10.1,0,0,1-10.1-10.1v-34.9a10.1,10.1,0,0,1,10.1-10.1H1392a10.1,10.1,0,0,1,10.1,10.1Zm-2.1-209.5a10.1,10.1,0,0,1-10.1,10.1h-57.1a10.1,10.1,0,0,1-10.1-10.1v-34.9a10.1,10.1,0,0,1,10.1-10.1h57.1a10.1,10.1,0,0,1,10.1,10.1Zm0,104.7a10.1,10.1,0,0,1-10.1,10.1h-57.1a10.1,10.1,0,0,1-10.1-10.1v-34.9a10.1,10.1,0,0,1,10.1-10.1h57.1a10.1,10.1,0,0,1,10.1,10.1Zm0,209.5a10.1,10.1,0,0,1-10.1,10.1h-57.1a10.1,10.1,0,0,1-10.1-10.1v-34.9a10.1,10.1,0,0,1,10.1-10.1h57.1a10.1,10.1,0,0,1,10.1,10.1Zm-118.5-104.7a10.1,10.1,0,0,1-10.1,10.1h-57.1a10.1,10.1,0,0,1-10.1-10.1v-34.9a10.1,10.1,0,0,1,10.1-10.1h57.1a10.1,10.1,0,0,1,10.1,10.1Zm0-209.5a10.1,10.1,0,0,1-10.1,10.1h-57.1a10.1,10.1,0,0,1-10.1-10.1v-34.9a10.1,10.1,0,0,1,10.1-10.1h57.1a10.1,10.1,0,0,1,10.1,10.1Zm-1.1,104.7a10.1,10.1,0,0,1-10.1,10.1h-57.1a10.1,10.1,0,0,1-10.1-10.1v-34.9a10.1,10.1,0,0,1,10.1-10.1h57.1a10.1,10.1,0,0,1,10.1,10.1Zm0,209.5a10.1,10.1,0,0,1-10.1,10.1h-57.1a10.1,10.1,0,0,1-10.1-10.1v-34.9a10.1,10.1,0,0,1,10.1-10.1h57.1a10.1,10.1,0,0,1,10.1,10.1Zm-119.5-104.7a10.1,10.1,0,0,1-10.1,10.1h-57.1a10.1,10.1,0,0,1-10.1-10.1v-34.9a10.1,10.1,0,0,1,10.1-10.1h57.1a10.1,10.1,0,0,1,10.1,10.1Zm0-209.5a10.1,10.1,0,0,1-10.1,10.1h-57.1a10.1,10.1,0,0,1-10.1-10.1v-34.9a10.1,10.1,0,0,1,10.1-10.1h57.1a10.1,10.1,0,0,1,10.1,10.1Zm-2.1,104.7a10.1,10.1,0,0,1-10.1,10.1h-57.1a10.1,10.1,0,0,1-10.1-10.1v-34.9a10.1,10.1,0,0,1,10.1-10.1h57.1a10.1,10.1,0,0,1,10.1,10.1Zm0,209.5a10.1,10.1,0,0,1-10.1,10.1h-57.1a10.1,10.1,0,0,1-10.1-10.1v-34.9a10.1,10.1,0,0,1,10.1-10.1h57.1a10.1,10.1,0,0,1,10.1,10.1Z"/><path class="cls-3" d="M1556.5,3418.4v147.3h0V3417.8a31.8,31.8,0,0,0-11.7-24.7A33.4,33.4,0,0,1,1556.5,3418.4Z"/><path class="cls-3" d="M1046.7,3416.5a33.3,33.3,0,0,1,9.4-21.4A31.8,31.8,0,0,0,1046.7,3416.5Z"/><path class="cls-3" d="M1046.6,3566.1h509.9V3418.4a33.4,33.4,0,0,0-11.5-25.3,34,34,0,0,0-21.7-7.9H1080.1a33.9,33.9,0,0,0-24,9.9,33.4,33.4,0,0,0-9.4,21.4c0,.4-.1.9-.1,1.3Zm37-148.1h440.1v124.8H1083.6Z"/><polygon class="cls-3" points="1480.3 3663.4 1487.7 3663.4 1487.7 3648.6 1502.5 3648.6 1502.5 3640.2 1487.7 3640.2 1487.7 3625.3 1480.3 3625.3 1480.3 3640.2 1465.5 3640.2 1465.5 3648.6 1480.3 3648.6 1480.3 3663.4"/><rect class="cls-3" x="1465.5" y="3744.9" width="37" height="9.52"/><rect class="cls-3" x="1465.5" y="3896.1" width="37" height="7.4"/><rect class="cls-3" x="1465.5" y="3907.8" width="37" height="7.4"/></g><g class="cls-2"><path class="cls-3" d="M4263.5,2007.3a37.5,37.5,0,0,0-37.5-37.5H4008a37.5,37.5,0,0,0-37.5,37.5v356.6a37.5,37.5,0,0,0,37.5,37.5H4226a37.5,37.5,0,0,0,37.5-37.5Zm-14.8,292.9a82.6,82.6,0,0,1-21.4,55.4,6.7,6.7,0,0,1-.9,13.4,6.6,6.6,0,0,1-6.7-5.9,82.7,82.7,0,0,1-54,20.3H4065.2a82.6,82.6,0,0,1-50.9-17.8,6.6,6.6,0,0,1-5.9,3.4,6.8,6.8,0,0,1-6.7-6.8,6.7,6.7,0,0,1,2.9-5.6,82.7,82.7,0,0,1-22.5-56.5V2071.6c0-45.6,37.5-82.7,83.1-82.7h100.5c45.6,0,83,37.1,83,82.7Z"/><path class="cls-3" d="M4118,2151a109.5,109.5,0,1,0,109.5,109.5A109.5,109.5,0,0,0,4118,2151Zm0,211.2a101.7,101.7,0,1,1,101.7-101.7A101.7,101.7,0,0,1,4118,2362.3Z"/><path class="cls-3" d="M4118.2,2130.9a60.4,60.4,0,1,0-60.4-60.4A60.4,60.4,0,0,0,4118.2,2130.9Zm0-113.8a53.3,53.3,0,1,1-53.3,53.3A53.3,53.3,0,0,1,4118.2,2017.1Z"/><circle class="cls-3" cx="4118.2" cy="2259.7" r="33.9"/><circle class="cls-3" cx="4118.2" cy="2070.5" r="16.3"/><circle class="cls-3" cx="4016.3" cy="2021" r="6.7"/><circle class="cls-3" cx="4219.6" cy="2021" r="6.7"/><path class="cls-3" d="M4219.7,2362.9a6.7,6.7,0,1,0,7.5-7.4A84.1,84.1,0,0,1,4219.7,2362.9Z"/><path class="cls-3" d="M4219.6,2362.3a6.8,6.8,0,0,0,0,.7,84.1,84.1,0,0,0,7.5-7.4h-.8A6.7,6.7,0,0,0,4219.6,2362.3Z"/><path class="cls-3" d="M4004.7,2356.6a6.7,6.7,0,1,0,9.6,8.8A83.9,83.9,0,0,1,4004.7,2356.6Z"/><path class="cls-3" d="M4008.4,2355.5a6.7,6.7,0,0,0-3.7,1.1,83.9,83.9,0,0,0,9.6,8.8,6.7,6.7,0,0,0-5.9-9.9Z"/></g><g class="cls-2"><path class="cls-3" d="M4001.2,3330.2h-93.1v32.1c0,6.6-4.1,12.4-10.7,12.4h-.7c-6.6,0-12.9-5.8-12.9-12.4v-32.1H3419.4v32.1c0,6.6-4.8,12.4-11.4,12.4h-.7c-6.6,0-11.2-5.8-11.2-12.4v-32.1h-94.1v408.3c0,32.1,27.1,59.2,59.2,59.2h583c32.1,0,57.1-27.1,57.1-59.2Zm-533.2,366h-94.1v-60.3H3468Zm0-105.8h-94.1v-61.4H3468Zm0-107.9h-94.1v-61.4H3468Zm149.2,213.7H3522v-60.3h95.2Zm0-105.8H3522v-61.4h95.2Zm0-107.9H3522v-61.4h95.2Zm147,213.7h-93.1v-60.3h93.1Zm0-105.8h-93.1v-61.4h93.1Zm0-107.9h-93.1v-61.4h93.1Zm146,213.7h-93.1v-60.3h93.1Zm0-105.8h-93.1v-61.4h93.1Zm3.2-107.9h-94.1v-61.4h94.1Z"/><path class="cls-3" d="M3909.5,3250.1h0Z"/><path class="cls-3" d="M3908.1,3247.6v2.4h.8C3914.6,3249.4,3908.1,3241.3,3908.1,3247.6Z"/><path class="cls-3" d="M3421.7,3250.9c6.6,0-2.3-9.9-2.3-3.3v2.4a2.9,2.9,0,0,0,1.6.9Z"/><path class="cls-3" d="M3921.5,3162H3411.1c-52,0-109.1,28.2-109.1,80.2V3326h94.1v-78.4c0-6,14.8,1.1,23.3,2.4v-2.4c0-6.6,8.9,3.3,2.3,3.3h-.7a2.9,2.9,0,0,1-1.6-.9v76h464.4v-78.4c0-6.1,16.9,1.3,24.3,2.4v-2.4c0-6.3,6.9,2.2,1.1,2.9l1.2.4h-2.2V3326h93.1v-83.7C4001.2,3190.2,3973.5,3162,3921.5,3162Zm66,150.2h-64.5v-55.3c1.1-2.7,3.2-6.1,3.2-9.3,0-8.8-7.2-16.2-15.6-16.2a14.5,14.5,0,0,0-8.1,2.5c-9.5-2.5-19.2-4.5-26.4,1.1-3.9,3-7,7.6-7,12.6v64.7H3433.1v-53.5a13.8,13.8,0,0,0,4.6-10.7,17.1,17.1,0,0,0-16.6-16.7,14.8,14.8,0,0,0-8.1,2.4c-8.7-2.4-17.4-4.3-24.5,1.1a15.7,15.7,0,0,0-6.1,12.7v64.7h-64.5v-70c0-24.4,14.9-40.1,27.9-48.8,17.6-11.8,41.2-18.8,65.4-18.8h510.4c44.4,0,66,23.1,66,67.5Z"/><path class="cls-3" d="M3908.7,3250h0Z"/></g><g class="cls-2"><path class="cls-3" d="M1838.4,1047.4c-12.8,13.9-36.7,12.8-53.3-2.5h0c-16.6-15.3-19.6-39-6.8-52.9l85.1-92.2c6.1-11.3,66.6,49.5,60.1,55.4Z"/><path class="cls-3" d="M1855,1060.3l.3-.3c2.9-3.2,3-7.8.2-10.4l-83.4-76.9c-2.8-2.6-7.4-2.1-10.3,1.1l-17.7,19.2h-.1l-126.9,137.5c-32.2,34.9-37.4,82.6-11.6,106.4s72.9,14.8,105.1-20.1l144.3-156.5Z"/><path class="cls-3" d="M2169.1,624.5c-91-83.9-232.7-78.2-316.6,12.8s-78.2,232.7,12.8,316.6,232.7,78.2,316.6-12.8S2260,708.5,2169.1,624.5Zm-30.5,276.7a165.2,165.2,0,1,1-9.4-233.4A165.2,165.2,0,0,1,2138.5,901.2Z"/></g><path class="cls-4" d="M1228.7,1112.5c-159.2,0-288.2,101-288.2,225.5,0,68.7,39.3,130.3,101.3,171.6a14.3,14.3,0,0,0-.4,2l-10.7,77.5c-.7,5.4,2.8,8.1,8,6.1l105.1-41.6a362.6,362.6,0,0,0,84.9,10c159.2,0,288.2-101,288.2-225.5S1387.9,1112.5,1228.7,1112.5Z"/><g class="cls-2"><path class="cls-3" d="M4281.5,3029.9v173.4h171.7c-.6,93.1-76.9,169.1-170.9,169.1S4111,3295.5,4111,3201.1,4188.4,3029.9,4281.5,3029.9Z"/><path class="cls-3" d="M4303.7,3007.5c93.1,0,167.8,76.2,167.8,170.3a3,3,0,0,0,.5,1.1H4303.7Z"/></g><path class="cls-4" d="M2079.2,4014.8c-17.2-65.6-63.5-103.4-67.6-106.8,0,0-57.3-49-136.7-49.6V3857h-1c-.2,0,0,1.3,0,1.3V3857h-1c.2,0,.4.7.5.7-80.3.2-138,50-138,50-5.5,4-50.6,41.4-67.9,107s14.9,120.6,14.9,120.6c27,55.2,80.6,91.9,106.5,119.2,8.9,9.4,23.7,27.3,30.2,38.4,22.6,38.7,49.5,92.7,54.8,104.6v2.4a1.3,1.3,0,0,1,.1-1.2l.6,1.2h.3v-2.9c6.3-13.1,31.5-65.9,53.6-103.9,6.5-11.1,20.6-29,29.5-38.4,25.9-27.3,79.4-64,106.4-119.2C2064.4,4135.3,2096.4,4080.4,2079.2,4014.8Zm-205.2,132h-.8c-56.8-.5-104.9-46.6-105.4-101.1-.5-56.6,47.4-102.6,106-102.9s106,46.3,105.5,102.9C1978.9,4100.2,1930.8,4146.3,1874,4146.8Z"/><g class="cls-2"><path class="cls-3" d="M3203.2,3778.7c-109.9,0-199,89.1-199,199s89.1,199,199,199,199-89.1,199-199S3313.1,3778.7,3203.2,3778.7Zm-88.5,352.9V3823.8l266.5,153.9Z"/></g><path class="cls-4" d="M2715.8,4179.7h-35.6c-4.8-21.2-12.7-38.6-23.2-55.4v-.2l25.1-25.2a14.3,14.3,0,0,0,0-20.3l-43.7-43.7a14.3,14.3,0,0,0-20.2,0l-25.4,25.1a194.8,194.8,0,0,0-55.8-22.7v-35.7c0-7.9-5.9-14.5-13.8-14.5h-61.8a14.4,14.4,0,0,0-14.3,14.5v35.6c-21.2,4.8-38.5,12.7-55.4,23.2h-.1l-25.2-25.1a14.3,14.3,0,0,0-20.2,0l-43.7,43.7a14.3,14.3,0,0,0,0,20.2l25.1,25.1a181.5,181.5,0,0,0-22.7,55.5h-35.7a14.7,14.7,0,0,0-14.6,14.4v61.8c0,7.9,6.7,13.6,14.6,13.6h35.6a189,189,0,0,0,23.2,55.7v.3l-25.1,25.2a14.4,14.4,0,0,0,0,20.3l43.7,43.7a14.3,14.3,0,0,0,20.2,0l25-25.1a181.1,181.1,0,0,0,55.4,22.7v35.7c0,7.9,6.7,15,14.6,15h61.8c7.9,0,13.5-7.1,13.5-15v-35.6a189.4,189.4,0,0,0,55.8-23.2h.3l25.2,25.1a14.4,14.4,0,0,0,20.3,0l43.8-43.7a14.3,14.3,0,0,0,0-20.2l-25.1-25.3a194.3,194.3,0,0,0,22.7-55.7h35.7a13.6,13.6,0,0,0,13.8-14v-61.8A13.7,13.7,0,0,0,2715.8,4179.7Zm-259.1,127.1-2.6-1.2q-3.9-1.9-7.6-4.1l-3.6-2.3-3.5-2.5-1.7-1.3a89.6,89.6,0,0,1-17.1-17.7l-2.8-4.1a89.1,89.1,0,0,1,15-114.1q2.4-2.2,4.9-4.1l1.7-1.3,3.5-2.5a89,89,0,0,1,11.2-6.4l3.9-1.8a89.3,89.3,0,0,1,75.2,2.7l3.8,2.1,5.5,3.4,3.5,2.5,1.7,1.3,3.3,2.7q2.4,2.1,4.7,4.4l2.9,3.1a89.4,89.4,0,0,1,6.7,8.3l2.4,3.6,2.2,3.7q1.6,2.8,3,5.7a89.4,89.4,0,0,1,6,60.9q-.5,2.1-1.2,4.2t-2.2,6.2l-1.7,4-1.2,2.6q-1.3,2.6-2.7,5.1l-2.2,3.7-1.9,2.8-1.8,2.5-1.3,1.7-2.7,3.3-1.4,1.6-2.9,3.1-1.5,1.5q-3.1,2.9-6.5,5.6l-1.7,1.3-3.5,2.5-3.6,2.3-1.9,1.1-3.8,2.1a89.3,89.3,0,0,1-73.8,3.3Z"/><g class="cls-2"><path class="cls-3" d="M507.2,2505c-124.1,0-224.8,100.6-224.8,224.8s100.6,224.8,224.8,224.8S732,2853.9,732,2729.8,631.3,2505,507.2,2505Zm155.3,211.8a13.4,13.4,0,0,1-8.3,5.2l-.9.2-122.8,15.6a24.7,24.7,0,0,1-10.6,13.1l77.3,133.9-10.4,6L508,2754.4h-.8a24.6,24.6,0,0,1-24.6-24.6c0-.5,0-.9,0-1.4L394.4,2637a13.6,13.6,0,1,1,19.7-18.5l85,88a24.6,24.6,0,0,1,24.5,4.9l126.1-16h.1a13.5,13.5,0,0,1,12.6,21.4Z"/></g><g class="cls-2"><path class="cls-3" d="M784.2,2302.4a128.7,128.7,0,0,0-37.8,23.8c-12.2,11.1-22.6,25.4-30.8,40.9-1.2,2.3-2.4,3.6-3.5,7.9h-116l12.2-72.7c6.2-42.2,29-74.8,63.8-87a84.2,84.2,0,0,0,26.8,16.9,89.4,89.4,0,0,0,65.8-.1,98.8,98.8,0,0,0,10.5,55.9A102.3,102.3,0,0,0,784.2,2302.4Z"/><path class="cls-3" d="M801.9,2157.6a63.5,63.5,0,0,1-.4,7.1q-2.8,2.3-5.5,4.9a102.8,102.8,0,0,0-23.2,32.8,99.7,99.7,0,0,0-4.5,12.1,72.8,72.8,0,0,1-80.1-5c-15.9-12.2-26.1-30.9-26.1-51.9,0-36.7,31.3-66.5,69.9-66.5S801.9,2120.9,801.9,2157.6Z"/><path class="cls-3" d="M1149.3,2375H1033.5a34,34,0,0,0-3.7-8.4c-15.7-29.8-39.3-52.1-68.5-64a104.4,104.4,0,0,0,8.9-14.4,99.8,99.8,0,0,0,10.5-56.1,89.1,89.1,0,0,0,65.8-.1,84.8,84.8,0,0,0,26.8-17.2c34.8,12.3,57.6,45.3,63.8,87.4Z"/><path class="cls-3" d="M1083.3,2157.6c0,21-10.2,39.7-26.1,51.9a72.8,72.8,0,0,1-80.1,5,99.7,99.7,0,0,0-4.5-12.1,102.8,102.8,0,0,0-23.2-32.8q-2.7-2.5-5.5-4.9a63.5,63.5,0,0,1-.4-7.1c0-36.7,31.3-66.5,69.9-66.5S1083.3,2120.9,1083.3,2157.6Z"/><path class="cls-3" d="M1046.4,2522H699l15.6-92.4c2.9-19.6,8.6-37.8,16.8-53.4l.3-.4c14.4-27,36.3-47.3,64.4-57.2h.1c1.9,1.8,3.9,3.6,6,5.3l.7.6.9.7.9.7,1,.8,1,.7a109.7,109.7,0,0,0,23.5,13h.3a109.5,109.5,0,0,0,12.1,4.1l.9.3.9.2h1l1.1.3.3.3c5.3,1.2,10.8,2.8,16.3,2.8h0l9.6.2c3.2,0,6.4-.2,9.6-.5h0a113.1,113.1,0,0,0,13.5-2h0l3-.7,3.1-.8,1.8-.5h.4l4.8-1.5,3-1.1,2.9-1.1a108.5,108.5,0,0,0,34.3-21.9h.1c28.2,10,50.3,30.2,64.7,57.5,8.2,15.6,13.9,34,16.8,53.7Z"/><path class="cls-3" d="M962.1,2242.6c0,26.8-13,50.7-33.4,66.3a91.2,91.2,0,0,1-43.2,17.9,94.9,94.9,0,0,1-25.5,0,91.2,91.2,0,0,1-43.2-17.9c-20.4-15.6-33.4-39.5-33.4-66.3a81.3,81.3,0,0,1,3.4-23.4c10.7-35.6,45.1-61.7,85.9-61.7s75.3,26.1,85.9,61.7A81.3,81.3,0,0,1,962.1,2242.6Z"/></g><g class="cls-2"><path class="cls-5" d="M579.9,1349.1l8.2,1.8a14.3,14.3,0,0,1,4.4,1.8l13.4,8.2a14.3,14.3,0,0,1,2.2,1.6l18.8,17.2,1.2,1.2,24.5,28.5,22.5,28.2.9,1.3,12.6,20.2a14.3,14.3,0,0,1,1.8,4.2l2.7,11.2a14.3,14.3,0,0,1,0,6.8h0a14.3,14.3,0,0,1-5.1,7.8l-14.1,11-.8.6-19.7,13.3a14.3,14.3,0,0,0-6,9.3l-2.5,13.5a14.3,14.3,0,0,0,.2,6L652,1571a14.3,14.3,0,0,0,1.6,4l23.7,39.1.6.9,36.5,51.1,1,1.3,40.2,44.2,1.5,1.4,32.7,27.1a14.3,14.3,0,0,0,4,2.3l19.9,7.6a14.3,14.3,0,0,0,9.1.4l12.9-3.8a14.3,14.3,0,0,0,6.2-3.7l17.3-17.5,1.8-1.6,1.9-1.4a14.3,14.3,0,0,1,12.3-2.1l5.9,1.7a14.3,14.3,0,0,1,3.2,1.4l18,10.5a14.3,14.3,0,0,1,2.6,2l25,23.6.7.7,24.2,26.2,1,1.2,15.5,21.2a14.2,14.2,0,0,1,1.2,2l5.8,11.4a14.3,14.3,0,0,1,1.4,8.7l-.6,4a14.3,14.3,0,0,1-5.5,9.2l-25,18.7a14.3,14.3,0,0,1-2.8,1.6L907.4,1882a105.6,105.6,0,0,1-19.1,5.8l-12.2,1.1a35.8,35.8,0,0,1-9.9-.1,77.1,77.1,0,0,1-14.3-3.2l-1-.4-25-10.2c-1.1-.4-7.4-3.7-8.3-4.3l-50.1-33.5-1.6-1.3-59.1-54.5-1-1L648.9,1717l-.9-1.1-44.7-61.4-.6-1-34.4-56.3a14.3,14.3,0,0,1-1-2L545,1540.9a14.3,14.3,0,0,1-.6-2l-11.9-48q-.2-.7-.3-1.3l-5.8-39.3a14.3,14.3,0,0,1-.1-3l1.8-29.8a14.3,14.3,0,0,1,.8-4l6.7-18.7a14.3,14.3,0,0,1,2.2-3.9l20.1-25.7a14.3,14.3,0,0,1,3-2.9l19-13.4Z"/><path class="cls-5" d="M613.1,1316.1H622a7.1,7.1,0,0,1,2.7.5l12.2,5a7.1,7.1,0,0,1,2.4,1.6l13.3,13.5,18.7,18.7,18.2,18.2.8,1,13.9,20.2,14.9,22.7,11.7,19.7a7.1,7.1,0,0,1,.8,2.1l3.1,14.2a7.1,7.1,0,0,1-1.4,6l-7,8.6a7.1,7.1,0,0,1-2.7,2.1l-8.6,3.7a7.1,7.1,0,0,1-7.4-1.2h0a7.1,7.1,0,0,1-1.9-2.8l-3.3-8.4-.4-.9-7.9-13.9-10.1-16.3-.4-.5-12.3-16.4-12.4-16.5-.2-.3-11.9-14.2-.5-.5L634,1370.3l-.4-.4-12-10.1-.5-.5-9.1-9.3a7.1,7.1,0,0,0-2-1.4l-10.4-5.1a7.1,7.1,0,0,1-1.9-1.4l-2.2-2.2a7.1,7.1,0,0,1-1.7-7.3v-.4a7.1,7.1,0,0,1,1.7-2.8l6.7-6.7,1.4-1.1,9.5-5.7Z"/><path class="cls-5" d="M1021.9,1797.2l-2-11.6a7.1,7.1,0,0,0-.3-1.2l-3.8-11.1a7.1,7.1,0,0,0-.9-1.7l-9.4-13.4-.5-.6-12.3-14-16.3-18.6-.7-.7-18.1-15.8-.4-.4-21.9-16.3-1.3-.8-21-9.5a7.1,7.1,0,0,0-2.1-.6l-14.9-1.6a7.1,7.1,0,0,0-5.3,1.6l-8.7,7.3a7.1,7.1,0,0,0-1.9,2.4l-3.3,6.9a7.1,7.1,0,0,0,1.4,8.1l1.9,1.9,1.4,1.1,9.5,5.7,14.5,8,.7.4,13.4,9.6.9.8,12.1,12.4,12.5,12.3,12.1,12,.4.5,12.1,14.4.5.6,8,11.9L986,1809a7.1,7.1,0,0,1,.9,1.8l3.5,10.6a7.1,7.1,0,0,0,.8,1.7v.2a7.1,7.1,0,0,0,9,2.4l5.6-2.7a7.1,7.1,0,0,0,2.3-1.8l8.7-10.3a7.1,7.1,0,0,0,1.3-2.4l3.7-11.3Z"/></g><g class="cls-2"><path class="cls-3" d="M940.4,2685.2c-4-11.4-45.2-4.7-47.5,8.3l47.7,146.1Z"/><path class="cls-3" d="M940.8,2993.9c4,11.4,45.2,4.7,47.5-8.3l-47.7-146.1Z"/><path class="cls-3" d="M873.4,2700.6c-8.6-8.5-42.8,15.4-39.2,28l106.4,110.9Z"/><path class="cls-3" d="M1007.8,2978.5c8.6,8.5,42.8-15.4,39.2-28L940.6,2839.6Z"/><path class="cls-3" d="M819.8,2743.5c-11.5-4-31.8,32.4-23.1,42.3l144,53.8Z"/><path class="cls-3" d="M1061.4,2935.6c11.5,4,31.9-32.4,23.1-42.3l-144-53.8Z"/><path class="cls-3" d="M790.1,2805.4c-12,1.4-14.6,43-2.5,48.1l153-14Z"/><path class="cls-3" d="M1091.1,2873.7c12-1.4,14.6-43,2.5-48.1l-153,14Z"/><path class="cls-3" d="M790.2,2874.1c-10.2,6.5,5.5,45.1,18.6,44.4l131.8-79Z"/><path class="cls-3" d="M1091,2805c10.2-6.5-5.5-45.1-18.6-44.5l-131.8,79Z"/><path class="cls-3" d="M820.1,2936c-6.4,10.3,24.5,38.3,36.1,32l84.5-128.4Z"/><path class="cls-3" d="M1061.1,2743.2c6.4-10.3-24.5-38.3-36.1-32l-84.5,128.4Z"/><path class="cls-3" d="M873.8,2978.7c-1.3,12,38.7,23.8,46.4,13.2l20.4-152.3Z"/><path class="cls-3" d="M1007.4,2700.4c1.3-12-38.7-23.8-46.4-13.2l-20.4,152.3Z"/><polygon class="cls-3" points="920.1 2854.1 855.7 2953.6 819.5 3347.4 878.5 3285 925.1 3357.1 966 2911.8 920.1 2854.1"/><polygon class="cls-3" points="972.2 3348 1014.3 3273.2 1077 3331.8 1006.9 2880.8 926 2885.9 935.1 3109.2 972.2 3348"/><circle class="cls-3" cx="940.6" cy="2839.6" r="136.4"/></g><g class="cls-2"><path class="cls-3" d="M4457.1,2653.2v186.3c0,26.4-20.8,48.5-47.3,48.5H3958c-26.4,0-47.8-22.1-47.8-48.5V2653.2h242.7a101.6,101.6,0,0,0-11.7,20.6,103.6,103.6,0,0,0-7.4,27.6,106.2,106.2,0,0,0,.6,30.1l.5,2.6c.1.4,0,.8.1,1.3.5,2.6,1.7,5.1,1.7,7.6h0c1.1.8.6,1.7.9,2.5l.9,2.5c.8,2.5,2,4.9,3,7.4a101.4,101.4,0,0,0,5.8,11.3h0c0,1.8,2,3.6,3.1,5.4s2.5,4.2,4.1,6.2,1.3,1.3,1.3,2h0c0,.7,1.1,1.3,2.1,1.9h0a1.9,1.9,0,0,1,1.1,1.9h0c2.1.9,2.2,1.9,3,2.8s2.2,1.2,2.2,1.8h0c0,1.5,2.8,3,4.4,4.4l2.8,2.5,1.9,1.6,2,1.5,1,.7a104.1,104.1,0,0,0,12.8,8l1.1.6,2.3,1.1,4.6,2.1a104.9,104.9,0,0,0,137.5-137.4,101.6,101.6,0,0,0-11.7-20.6Z"/><path class="cls-3" d="M4457.1,2579.2v62.3H4314.5c-.8-2.1-1.6-1.1-2.5-1.9a105.5,105.5,0,0,0-115-21.9c-12.5,5.3-23.7,12.2-33.3,21.9-.8.8-1.7-.2-2.5,2h-251v-62.3a45.4,45.4,0,0,1,45.8-45.6h455.9C4437.3,2533.6,4457.1,2553.8,4457.1,2579.2Z"/><path class="cls-3" d="M4316.1,2714.7q0,3.1-.2,6a78.9,78.9,0,0,1-57.9,70l-2.8.7-1.9.4-1.9.4a79.4,79.4,0,0,1-8.9,1.1h-5.1a78.8,78.8,0,0,1-78.6-72.8q-.2-3-.2-6.1t.2-5.8a78.3,78.3,0,0,1,8.8-30.9c.2-.3-.3-.6-.2-1a6.2,6.2,0,0,0,1-2.8h0c0-.9,1.8-1.9,2.4-2.8s1.1-1.2,1.6-1.8a80.4,80.4,0,0,1,32-26.6,79.1,79.1,0,0,1,65.9,0l2.2,1a78.8,78.8,0,0,1,14.1,9h.1a79.2,79.2,0,0,1,15.4,16.5l1.1,1.8c.6.9,1.6,1.8,1.6,2.8h0c0,.9,1.2,1.9,1.7,2.8l.6,1a78.3,78.3,0,0,1,8.8,30.9C4316,2710.9,4316.1,2712.8,4316.1,2714.7Z"/><path class="cls-3" d="M4286.6,2653.2a78.8,78.8,0,0,0-14.1-9,102,102,0,0,1,14.1,9.1h0Z"/><polygon class="cls-3" points="4130.4 2491.3 4010.7 2491.3 3950.8 2550.6 4190.3 2550.6 4130.4 2491.3"/></g><g class="cls-2"><path class="cls-3" d="M4597.7,1877.8s-.2-62.2-56.2-102.5c0,0-31.3-26.8-88-27.2s-87.9,27.2-87.9,27.2c-56,40.4-56.1,102.5-56.1,102.5-6.5,50.9,50.9,140.2,50.9,140.2,30.9,45.5,39,104.2,39,104.2h108.4s8.1-58.7,39-104.2C4546.8,2018,4604.2,1928.7,4597.7,1877.8Z"/><path class="cls-3" d="M4506.4,2131.7H4400.9c-2.1,0-4.1,3-4.1,5.1v12.1c0,2.1,1.9,5,4.1,5h8.6v9.5h-3.9a2.5,2.5,0,0,0-2.5,2.8v5.6c0,1.6.9,2.2,2.5,2.2h3.9v11.6h-3.9a2.2,2.2,0,0,0-2.5,2.4v5.6c0,1.6.9,3.6,2.5,3.6h3.9v10.6h-3.9c-1.6,0-2.5.4-2.5,2v5.6c0,.5-.3.8-.1.8h-1.5s-3.6,3.6,5.4,10.2,39,18.6,39,18.6a20.4,20.4,0,0,0,9,2.3v-.4h0v.4a18.7,18.7,0,0,0,8.5-2.4s29.5-12.4,38.4-19.1,4.5-8.8,4.5-8.8h-2a2.8,2.8,0,0,0,.4-1.6v-5.6c0-1.6-1.2-2-2.8-2h-1.5v-10.6h1.5c1.6,0,2.8-2,2.8-3.6V2188c0-1.6-1.2-2.4-2.8-2.4h-1.5V2174h1.5c1.6,0,2.8-.6,2.8-2.2v-5.6a2.7,2.7,0,0,0-2.8-2.8h-1.5v-9.5h5.9c2.1,0,3.6-2.9,3.6-5v-12.1C4510,2134.6,4508.5,2131.7,4506.4,2131.7Z"/></g><g class="cls-2"><path class="cls-3" d="M3028,4257.8v-48.3c0-8.6-7.6-16.1-17.8-16.1H2797.4c-10.2,0-19.1,7.4-19.1,16.1v290.4c0,8.6,8.6,14.9,18.8,14.9l.3-.8H3010v1.5c9.5,0,17.2-6.1,18.1-14a13.2,13.2,0,0,0-.2-1.6V4257.8Zm-211.6.1h124.8v5.3H2816.4Zm0,30.7h111.1v5.3H2816.4Zm0,13.8h146v6.3h-146Zm0,12.7h165v3.2h-165Zm0,12.7h128v6.3h-128Zm0,13.8H2974v5.3H2816.4Zm0,28.6h111.1v4.2H2816.4Zm0,12.7h146v6.3h-146Zm0,26.4h128v6.3h-128Zm157.6,45.5H2816.4v-5.3H2974Zm0-13.8H2816.4v-6.3H2974Zm0-13.8H2816.4V4423H2974Zm7.4-25.4h-165v-6.3h165Zm5.3-41.3H2816.4v-6.3h170.3Zm0-81.5H2816.4v-5.3h170.3Z"/><line class="cls-3" x1="3028.4" y1="4257.8" x2="3028.4" y2="4257.8"/><line class="cls-3" x1="2966.6" y1="4193.4" x2="2966.6" y2="4196.6"/></g><g class="cls-2"><path class="cls-3" d="M3045.7,800l276.7,204.8c8.5,6.3,21.7,6.3,30.3,0l276.8-204Z"/><path class="cls-3" d="M3243.5,968.9l-191.9,179.6a34,34,0,0,1-4.6-17.6v-308Z"/><path class="cls-3" d="M3414.9,981.8l193.9,181.1a40.7,40.7,0,0,1-18.1,4.1H3084.6a40.8,40.8,0,0,1-16.7-3.4l193.6-180.9,76.1,56.4Z"/><path class="cls-3" d="M3629.9,822.9v308a34.4,34.4,0,0,1-4.4,16.3L3433.9,968Z"/></g><g class="cls-2"><path class="cls-3" d="M872.3,1125.8l-1.3-1.4-.2-.2a103.1,103.1,0,0,0-143.2-2.1l-1.6,1.5-.8.8a103.1,103.1,0,1,0,147.2,1.4ZM814.2,1297a99.7,99.7,0,0,1-11.4,1.2h-9.5a99.7,99.7,0,0,1-11.4-1.2,101.1,101.1,0,0,1-84.8-98.6c0-.4,0-.7,0-1.1s0-.7,0-1.1a100.7,100.7,0,0,1,30.4-71.1l1.6-1.5a100.7,100.7,0,0,1,52.8-26,99.7,99.7,0,0,1,11.4-1.2h9.5a99.7,99.7,0,0,1,11.4,1.2,100.8,100.8,0,0,1,55,28.1l1.6,1.6a100.6,100.6,0,0,1,28.3,68.9c0,.4,0,.7,0,1.1s0,.7,0,1.1A101.1,101.1,0,0,1,814.2,1297Z"/><path class="cls-3" d="M798,1305.2a107.8,107.8,0,0,1-76.2-184l.9-.8,1.7-1.6a107.8,107.8,0,0,1,149.6,2.2l.2.2,1.4,1.4h0A107.8,107.8,0,0,1,798,1305.2Zm0-204.1h-4.5a95.8,95.8,0,0,0-61.2,25.9l-1.5,1.5a95.6,95.6,0,0,0-29,67.8c0,.3,0,.7,0,1s0,.7,0,1a96.2,96.2,0,0,0,91.7,95.1c3,.1,6.1.1,9.1,0a95.5,95.5,0,0,0,10.8-1.1h0a96,96,0,0,0,80.9-94c0-.3,0-.7,0-1s0-.7,0-1a95.9,95.9,0,0,0-27-65.7l-1.5-1.5a95.9,95.9,0,0,0-63.3-27.9Z"/><path class="cls-3" d="M874,1124.2l-1.4-1.4-.2-.2-1.7-1.6-1.7,1.6-1.6,1.5a99,99,0,0,1-18.8,13.9l-1.9,1a97.5,97.5,0,0,1-29.8,10.3l-2.1.3a99.2,99.2,0,0,1-33.5-.7l-2.1-.4a97.7,97.7,0,0,1-29.1-11.4l-1.8-1.1a99.3,99.3,0,0,1-17.6-13.9l-1.5-1.5-1.6-1.7-1.7,1.6-1.6,1.6-1.7,1.7,1.6,1.7,1.4,1.4.2.2a106.4,106.4,0,0,0,19.1,15.1l1.9,1.2a104.1,104.1,0,0,0,31.2,12.1l2.2.4a107.2,107.2,0,0,0,35.5.7l2.2-.3a104.2,104.2,0,0,0,31.9-10.9l2-1.1a105.9,105.9,0,0,0,20.5-15.1l1.6-1.6,1.7-1.7Z"/><path class="cls-3" d="M874,1267.2l-1.6-1.6a105.9,105.9,0,0,0-20.5-15.1l-2-1.1a104.2,104.2,0,0,0-31.9-10.9l-2.2-.3a107.2,107.2,0,0,0-35.5.7l-2.2.4a104.1,104.1,0,0,0-31.2,12.1l-1.9,1.2a106.4,106.4,0,0,0-19.1,15.1l-.2.2-1.4,1.4-1.6,1.7,1.7,1.7,1.6,1.6,1.7,1.6,1.6-1.7,1.5-1.5a99.3,99.3,0,0,1,17.6-13.9l1.8-1.1a97.7,97.7,0,0,1,29.1-11.4l2.1-.4a99.2,99.2,0,0,1,33.5-.7l2.1.3a97.5,97.5,0,0,1,29.8,10.3l1.9,1a99,99,0,0,1,18.8,13.9l1.6,1.5,1.7,1.6,1.7-1.6.2-.2,1.4-1.4,1.6-1.7Z"/><path class="cls-3" d="M837.1,1123.4c-10.3-20.4-24.2-31.6-39.1-31.6s-28.8,11.2-39.1,31.6-15.6,46.1-15.6,73.9,5.5,54.1,15.6,73.9,24.2,31.6,39.1,31.6,28.8-11.2,39.1-31.6,15.6-46.1,15.6-73.9S847.1,1143.2,837.1,1123.4ZM798,1295.9c-12.8,0-24.9-10.1-34.2-28.4s-14.6-43.6-14.6-70.1,5.2-51.4,14.6-70.1,21.3-28.4,34.2-28.4,24.9,10.1,34.2,28.4,14.6,43.6,14.6,70.1-5.2,51.4-14.6,70.1S810.8,1295.9,798,1295.9Z"/><path class="cls-3" d="M900.1,1194.3H696a3.3,3.3,0,1,0,0,6.6H900.1a3.3,3.3,0,1,0,0-6.6Z"/><path class="cls-3" d="M801.9,1299.6V1095.5a3.6,3.6,0,0,0-7.2,0v204.1a3.6,3.6,0,0,0,7.2,0Z"/></g><g class="cls-2"><path class="cls-3" d="M2478.9,737.4h0c0-7.5,5.8-12.8,13.3-12.8h35.4V707.8h-35.4a13.8,13.8,0,0,1,0-27.5h35.4V663.4h-35.4a13.5,13.5,0,0,1-13.4-13.6v-.2h0v1c0-7.5,5.9-12.5,13.4-12.5h31.4c-10.9-39.1-45.4-64.7-86.2-64.7s-75.3,25.5-86.2,64.7h32.6c7.5,0,13.6,5.1,13.7,12.5l.2-1h-.2a13.7,13.7,0,0,1-13.7,13.6h-36.9v16.9h36.9a13.8,13.8,0,0,1,0,27.5h-36.9v16.9h36.9c7.5,0,13.9,5.3,13.9,12.8h0c0,7.5-6.4,14.7-13.9,14.7h-36.9v5c0,49.6,40.8,89.9,90.4,89.9s90.4-40.2,90.4-89.9v-5h-35.4C2484.7,752.2,2478.9,744.9,2478.9,737.4Z"/><path class="cls-3" d="M2437.1,1020.8h0a13.8,13.8,0,0,1-13.8-13.8V898.9a13.8,13.8,0,0,1,13.8-13.8h0a13.8,13.8,0,0,1,13.8,13.8v108.2A13.8,13.8,0,0,1,2437.1,1020.8Z"/><path class="cls-3" d="M2437.4,879.2a120.5,120.5,0,0,1-120.6-120.6h-25.7c0,80.4,65.5,146.3,146.3,146.3s146.3-65.9,146.3-146.3h-25.7A120.5,120.5,0,0,1,2437.4,879.2Z"/><rect class="cls-3" x="2364" y="1004.2" width="146.3" height="24.92" rx="12.5" ry="12.5"/></g><path class="cls-4" d="M1488.7,853.9l-.2-6.3-4.2,1c-24.5,4.9-92.6,6.9-92.6,6.9l.2,7.1-4.2.7a40.7,40.7,0,0,0-31.9,39.6v9.4a40.6,40.6,0,0,0,32.1,39.8l4.2.7v5.6h1.7l9,.3-11.9,91.3c-2.1,16.8,8.9,17.1,16.3,17.1l23.9-.7c3.7,0,11.3-2.4,12.2-14.1l7.4-91.2c13.4,1,25.9,2.2,33.9,3.7l4.2,1v-6.7c55.9,10.8,142.8,31.9,188.2,65.8l.4-117.9.2-117.9C1632.1,822.7,1544.7,843.5,1488.7,853.9Z"/><path class="cls-4" d="M4016.4,4071.7a99.8,99.8,0,0,1-61.4,92.1,53.6,53.6,0,0,1-27.7,7.7H3628.4a52.4,52.4,0,0,1-7.3-.5,99.8,99.8,0,0,1-4-198,84.6,84.6,0,0,1,121.6-60,119.9,119.9,0,0,1,209.9,47.4,35.3,35.3,0,0,1,31,34A99.5,99.5,0,0,1,4016.4,4071.7Z"/><g class="cls-2"><path class="cls-3" d="M2082.2,4296.9a21.3,21.3,0,1,0-2.4,1.7Z"/><path class="cls-3" d="M2152.8,4240.1a21.3,21.3,0,0,0,23,15.8l2.9-.5a21.3,21.3,0,1,0-25.9-15.3Z"/><polygon class="cls-3" points="2154 4310.9 2160 4338.4 2157 4342.9 2181.7 4346.8 2188 4359.4 2181.7 4323.1 2181.7 4323.1 2154 4310.9"/><path class="cls-3" d="M2192.7,4511.1l.2.5c1.8,5,8.3,13.7,13.6,12.4s7.6-12.2,6.8-17.5v-.6l-8.9-52.3-56.7-76.8Z"/><path class="cls-3" d="M2164,4198.4a37.5,37.5,0,0,0-27,45.7l17.1,66.7h0l-5.9-26.9,26-6.6,7.8,45.7-4.5-51a36.5,36.5,0,0,0,5.1-.9,37.5,37.5,0,1,0-18.8-72.7Zm30,31a21.3,21.3,0,0,1-15.3,25.9l-2.9.5a21.3,21.3,0,1,1,18.2-26.5Z"/><polygon class="cls-3" points="2148.3 4283.9 2154 4310.9 2181.7 4323.1 2181.7 4323.1 2174.1 4277.4 2148.3 4283.9"/><path class="cls-3" d="M2235.9,4496.4l.3.4c3.3,4.2,12.6,9.6,17.2,6.8s3-13.1.6-17.9l-.3-.5-65.5-125.9,16,94.2Z"/><polygon class="cls-3" points="2157.1 4342.9 2152 4342.1 2136.8 4319.3 2126.5 4348.3 2147.5 4376.8 2142.9 4363.1 2157.1 4342.9"/><path class="cls-3" d="M2157.1,4342.9l-14.1,20.3,4.6,13.6,56.7,76.8-16-94.2-6.5-12.6Zm19,17.9a10.3,10.3,0,1,1-14.2-3.3A10.3,10.3,0,0,1,2176.1,4360.8Z"/><path class="cls-3" d="M2121.1,4295.6l15.7,23.7h0l-36.5-58.4a37.5,37.5,0,1,0-12,51.7,37,37,0,0,0,4.2-3.1l33.8,38.9h0l-28.3-38.3Zm-70.6-3.8a21.3,21.3,0,1,1,31.7,5l-2.4,1.7A21.3,21.3,0,0,1,2050.5,4291.9Z"/><polygon class="cls-3" points="2121.1 4295.6 2098.2 4310 2126.5 4348.3 2136.8 4319.3 2121.1 4295.6"/></g><path class="cls-4" d="M518.7,2216.3l-3.6-1.8h0c.1,0,.4-.5.6-.6l.3-.3.5-.4.2-.2.6-.5.4-.5.3-.3.4-.4.2-.3.4-.5c.1-.1-.1-.3,0-.4s.1-.7.3-1l1.2-2.4c2.7-5.3,1.5-10.5-2.7-12.6l-16.5-8.5,84.1-164.2c11.8-1.6,23.4-9.9,28.7-23.5l16.9-49.3,2-5.9-40-20.5-3.5,5.1-29,43.3c-8.5,12.6-8.4,26.5-2.8,36.9l-84,164-18-9.2c-4.2-2.2-9.8-.4-12.5,4.9l-1.2,2.4c-.2.3-.2.7-.3,1s0,.2-.1.3l-.2.6v1.3h0a12.4,12.4,0,0,0-.2,1.4h0c0,.2,0,.5,0,.7h0c0,.1,0,.2,0,.3l-.2.3c0,.1-.2.5-.1.5l-2.5-1.3a5.2,5.2,0,0,0-7,2.6L330.5,2373.4c-11.9,23.3-6.9,51.3,11.8,60.8l21.8,11.2c18.7,9.6,44.2-2.7,56.1-26l100.3-195.9C522.1,2220.4,521,2217.5,518.7,2216.3Zm-78-40.7h0Zm-75.6,218.2c-3,5.9-9.4,8.6-14.1,6.2s-6.2-9.2-3.2-15.1l91.4-178.6c3-5.9,9.4-8.6,14.1-6.2s6.2,9.2,3.2,15.1Zm38.9,19.9c-3,5.9-9.1,8.8-13.8,6.4s-5.9-9.1-2.9-14.9l91.4-178.6c3-5.9,9.1-8.8,13.8-6.4s5.9,9.1,2.9,14.9Z"/><path class="cls-4" d="M1449.6,4113.1h0c-36.6-32.5-85.5-39.4-117.7-18.3l57.5,36.9c8,5.1,11.3,15,7.5,22.1l-17.4,32.2c-3.8,7.1-13.4,8.7-21.4,3.6l-57.5-36.9c-1,28.5,12,60,37.6,84.1a128.7,128.7,0,0,0,19.2,15h.2a55.2,55.2,0,0,0,12.6,6.9,49.5,49.5,0,0,0,13.4,3.1h0a62.8,62.8,0,0,0,8.6.1c8,0,19.5.3,26.6,1.1,11.5,1.4,27.4,8.1,27.4,8.1l234.2,220.9c16.2,15.3,40,16.5,52.8,2.9s10.3-37.2-6-52.5l-234.2-220.9s-16.3-17.1-18.7-35.5-2.9-33.1-2.9-33.1h0a49.1,49.1,0,0,0-9.2-26.8A55.7,55.7,0,0,0,1449.6,4113.1Zm262.4,334.7c9.3,8.8,10.8,22.2,3.5,30s-20.9,7.1-30.2-1.7L1488.1,4290c-9.3-8.8-10.8-22.2-3.5-30s20.9-7,30.2,1.7Z"/><path class="cls-4" d="M2843,667.4l-46-116.3a8,8,0,0,0-10.5-4.8l-10.7,4.2-169.2,66.9-14.6,5.8a8.2,8.2,0,0,0-4.6,10.8l46,116.3a18.5,18.5,0,0,0-3.8,19l134.5,340.3a14.8,14.8,0,0,0,19,8.2l202.1-79.9a14.6,14.6,0,0,0,8-18.9L2858.8,678.7A17.3,17.3,0,0,0,2843,667.4Zm-61.4-86.1,24.8,62.7-32,12.7-24.8-62.7ZM2622.8,644l31.3-12.4,24.8,62.7-31.3,12.4Zm252.8,199.6-12.5,5,17.5,44.3a18,18,0,0,1-1.8,16.7h-.1L2841,959.8l9.1,23.1a25.1,25.1,0,1,1-6.3,2.4l-1.2-3.1-61.4-13.7a19.6,19.6,0,0,1-14-11.9l-8.2-20.8a22.2,22.2,0,1,1,7-2.8l8.2,20.8a12.1,12.1,0,0,0,8.6,7.2l56.4,12.6-71.7-181.4-20.3,8,7.3-48.9,38.7,30.7-19.4,7.7,64,161.8,34.9-46.3a10.4,10.4,0,0,0,1-9.5l-17.5-44.3-12.5,5-12.9-32.7,32-12.7Z"/><path class="cls-4" d="M824.5,3668.6c11.8-5.9,21.5-14.7,29.8-25.3,3.5-1,6.7-2.1,9.9-3.3,83.6-31.3,84.3-125,84.3-125,0-12.5-11.9-15.6-11.9-15.6H897c1.1-14.8.9-25.8.9-25.8,0-10.2-12-12.3-12-12.3H727.6s-12,2.1-12,12.3c0,0-.1,11,.9,25.8H679.6s-11.9,3.1-11.9,15.6c0,0,.7,89.2,78.5,122.6,3.9,1.7,8,3.3,12.4,4.6,8.5,11.1,18.5,20.2,30.6,26.3,0,0,9.8,2.7,8.7,10.7v9.3s.2,27.8-58.6,39.1a7.7,7.7,0,0,0-2.8.6h0a8.5,8.5,0,0,0,3,16.5H873.9a8.7,8.7,0,0,0,8.6-8.5,8.4,8.4,0,0,0-5.2-8h-.3a6.8,6.8,0,0,0-2.6-.6c-58.8-11.4-58.5-39.1-58.5-39.1v-9.3C814.9,3671.3,824.5,3668.6,824.5,3668.6Zm71.1-152.3h23.2c13.3,1.1,11.6,11.6,11.6,11.6-7.2,50.4-30.6,74.6-51.3,86.2a87.7,87.7,0,0,1-9.8,4.7C885.5,3586.2,892.6,3548.1,895.6,3516.4Zm-164.2,94.3c-19.1-12.7-39.1-36.9-45.6-82.7,0,0-1.8-10.5,11.6-11.6H718c3,30.7,9.9,68.7,25.6,101A87.6,87.6,0,0,1,731.4,3610.7Z"/><path class="cls-4" d="M1234.3,906.4c-45.3,63.2-41.4,87.6,21.7,133.1-63-45.5-87.4-41.5-132.7,21.6,45.4-63.2,41.4-87.6-21.6-133.1C1164.6,973.5,1188.9,969.6,1234.3,906.4Z"/><path class="cls-4" d="M693,3015.8c-45.3,63.2-41.4,87.6,21.7,133.1-63-45.5-87.4-41.5-132.7,21.6,45.4-63.2,41.4-87.6-21.6-133.1C623.3,3082.9,647.6,3079,693,3015.8Z"/><path class="cls-4" d="M3258.7,4242.4c-45.3,63.2-41.4,87.6,21.7,133.1-63-45.5-87.4-41.5-132.7,21.6,45.4-63.2,41.4-87.6-21.6-133.1C3189,4309.5,3213.4,4305.6,3258.7,4242.4Z"/><g class="cls-2"><polygon class="cls-3" points="4727 2960.7 4726.8 2960.7 4658.7 2960.7 4599.6 2960.6 4599.5 3028.8 4726.9 3028.8 4727 2960.7"/><path class="cls-3" d="M4617,2908.7l-.3-11.5s-17.3-1.2-29.2-22L4532,2762.7s-3.2-6.3-3.1-10c0,0-.7-12.4,10.2-18.2,0,0,10.9-4,18.4,4.3,0,0,5.6,4,10.9,15.5l12.4,22.3,5.8,9.3-2.3-92.9-1.9-88.1s2.6-15,11.8-18.4c0,0,10.5-4.2,16.8,2.3a20.8,20.8,0,0,1,8.7,16.2l1.4,55.9,1.9,106s-.3-38.8,1.8-45c0,0,5.9-15.9,18.6-14.7a19.6,19.6,0,0,1,18.7,12.1s5.2,6,3.2,26.2l.7,20.6s-1.3-34.3.4-37.2,3.9-12.3,17.5-13.1c0,0,12,.2,16.8,12,0,0,1.8.6,2.1,11.5l1.1,22.6s-1.3-22.8.1-24.6c0,0,4.4-11.8,12.7-12,0,0,9.5-3.3,15.2,5.4,0,0,5.4,3.3,5.2,17.4l-.8,66.1s-2.4,55.9-24.3,80.2v12Z"/><rect class="cls-3" x="4631.7" y="2860.8" width="63.3" height="142.77" rx="13.6" ry="13.6" transform="translate(1725.7 7592.1) rotate(-89.9)"/></g><g class="cls-2"><polygon class="cls-3" points="582.6 3474.8 582.3 3474.8 514.3 3474.7 455.2 3474.7 455.1 3542.8 582.4 3542.8 582.6 3474.8"/><path class="cls-3" d="M472.5,3422.8l-.3-11.5s-17.3-1.2-29.2-22l-55.4-112.6s-3.2-6.3-3.1-10c0,0-.7-12.4,10.2-18.2,0,0,10.9-4,18.4,4.3,0,0,5.6,4,10.9,15.5l12.4,22.3,5.8,9.3-2.3-92.9-1.9-88.1s2.6-15,11.8-18.4c0,0,10.5-4.2,16.8,2.3a20.8,20.8,0,0,1,8.7,16.2l1.4,55.9,1.9,106s-.3-38.8,1.8-45c0,0,5.9-15.9,18.6-14.7a19.6,19.6,0,0,1,18.7,12.1s5.2,6,3.2,26.2l.7,20.6s-1.3-34.3.4-37.2,3.9-12.3,17.5-13.1c0,0,12,.2,16.8,12,0,0,1.8.6,2.1,11.5l1.1,22.6s-1.3-22.8.1-24.6c0,0,4.4-11.8,12.7-12,0,0,9.5-3.3,15.2,5.4,0,0,5.4,3.3,5.2,17.4l-.8,66.1s-2.4,55.9-24.3,80.2v12Z"/><rect class="cls-3" x="487.2" y="3374.9" width="63.3" height="142.77" rx="13.6" ry="13.6" transform="translate(-2928 3961.1) rotate(-89.9)"/></g><g class="cls-2"><path class="cls-3" d="M4478.9,1434.1a44.7,44.7,0,0,0-8.9-26.8,44.1,44.1,0,0,0-10.2-9.9,44.8,44.8,0,0,0-26-8.3h-176a45,45,0,0,0-45,45v189.1a45,45,0,0,0,45,45h176a45,45,0,0,0,45-45Zm-133,175.5a81,81,0,1,1,81-81A81,81,0,0,1,4345.9,1609.7Z"/><polygon class="cls-3" points="4323.9 1566.8 4390 1528.7 4323.9 1490.5 4323.9 1566.8"/></g><g class="cls-2"><path class="cls-3" d="M4128.6,1665.5a280.7,280.7,0,0,1-70.4,225.9l-1.9,2.1a281.5,281.5,0,0,1-308.4,71.4l-6.4-2.6a281.7,281.7,0,0,1-172.1-284.1q.1-1.2.2-2.4a278.5,278.5,0,0,1,4.2-28.7q.7-3.5,1.5-7.1a280.6,280.6,0,0,1,21.3-60.4q4-8.2,8.5-16.1a282.4,282.4,0,0,1,32.6-45.9l2.6-3q4.6-5.1,9.4-9.9a280.3,280.3,0,0,1,79.5-56.4l2.8-1.3a280.8,280.8,0,0,1,80.6-23.2q9.6-1.3,19.1-1.9,11.1-.7,22-.6a279.5,279.5,0,0,1,75.6,11.5l4.6,1.4a282,282,0,0,1,171.8,152,277.1,277.1,0,0,1,13,34.3l.9,2.9A283.1,283.1,0,0,1,4128.6,1665.5Z"/><path class="cls-3" d="M3850.1,1421.2h3.8a279.5,279.5,0,0,1,75.6,11.5l4.6,1.4a282,282,0,0,1,171.8,152,277.1,277.1,0,0,1,13,34.3l.9,2.9a283.9,283.9,0,0,1,10.3,103.9,279.4,279.4,0,0,1-15,69.1,282.3,282.3,0,0,1-56.8,95.1l-1.9,2.1a281.3,281.3,0,0,1-308.4,71.4l-6.4-2.6a281.7,281.7,0,0,1-172.1-284.1q.1-1.2.2-2.4a278.5,278.5,0,0,1,4.2-28.7q.7-3.5,1.5-7.1a280.6,280.6,0,0,1,21.3-60.4q4-8.2,8.5-16.1a282.4,282.4,0,0,1,32.6-45.9l2.6-3q4.6-5.1,9.4-9.9a280.3,280.3,0,0,1,79.5-56.4l2.8-1.3a280.8,280.8,0,0,1,80.6-23.2q9.6-1.3,19.1-1.9t18.3-.6m0-3.4c-6.1,0-12.3.2-18.5.6s-12.9,1-19.3,1.9a284.3,284.3,0,0,0-81.6,23.5l-2.9,1.3a282.9,282.9,0,0,0-80.4,57.1c-3.2,3.3-6.4,6.7-9.5,10.1l-2.6,3a286.3,286.3,0,0,0-33,46.5c-3,5.3-5.9,10.8-8.6,16.3a284.4,284.4,0,0,0-21.5,61.1c-.5,2.4-1.1,4.8-1.5,7.1a283.1,283.1,0,0,0-4.3,29c-.1.8-.2,1.7-.2,2.5a284.8,284.8,0,0,0,174.2,287.4l6.5,2.6a282,282,0,0,0,102.7,19.3,288.4,288.4,0,0,0,37.8-2.5,283.6,283.6,0,0,0,171.6-89l1.9-2.1a284,284,0,0,0,71.2-228.6,287.6,287.6,0,0,0-9-42.8l-.9-2.9a281.7,281.7,0,0,0-13.1-34.8,285.2,285.2,0,0,0-173.9-153.8l-4.7-1.4a283.1,283.1,0,0,0-76.5-11.6Z"/><path class="cls-6" d="M4107.3,1585.4a283.6,283.6,0,0,0-172.8-152.8c-9.8.9-19.2,4-27.1,11.7-12,11.8-4.6,29.8-3.5,44.5-17.1,3.1-47.9-1.2-56.2,15.9-2.6,5.3-2.8,10-6.9,15.2s-6.8,8.6-10.3,14.9c-2.1,3.8-2.9,6.7-6.6,8.2-1.5,16.7,31.3,4.7,41,3.4s28.3,1.4,36.5-3.9c4.8-3.1,4.5-12,8.8-13.9,6.2-2.7,9.9,6.8,13,9.9,6.9,7.1,12.4,8.8,21.9,8,6.7-.5,13.6-2.8,20.4-2.7,4.9.1,8.4,2.4,12.4,3.5-4.2,2.8-5.8,9.8-11,12.3-7.6,3.6-19.8,4.4-28.1,5.8-11.1,1.9-10.9-3.9-18.8-9s-14.6-5-25.3-4.1c-17.1,1.4-49.2,2.6-61.5,15.4-6,6.2-2.6,13.7-8.2,19.8-9.3,10-29.5,10.8-35.1,23.8-4.9,11.5,2.9,33,5.8,43.6,4.3,15.7,5.8,29.6,23.1,33.7s35.3,2.3,51.7,3.2c9,.5,19.5-2.6,23.6,6.5,2,4.5,1.4,11.1,3,15.9,3.5,10.2,11.4,13.9,19.8,20s8.6,11.1,10.2,22.7c2.2,16.9,5.1,26.3,13.6,40.8a59.4,59.4,0,0,1,7.3,21.5c1.8,13-.6,23.9-9.2,32.5-10.5,10.6-20.5,22.5-10.4,35.7,10.8,5.8,30.6-2.2,38.9-9.3,14.3-12.1,25.5-19.6,43.7-25.9,32.6-11.2,8.8-41,17.6-65.3,2.6-7.2,9.2-11.4,11.8-18.1s2.2-17.9,1-26.3c-2-14.9-6.5-28.8-8.5-43.7s1.8-13.1,9.9-20.5,6.5-19,4.8-31.4c-.4-3.4-.9-6.9-1.5-10.2-6.8-1.6-13.1-3-20.1-4.5-4.1-.9-13.5-1.3-16.7-3.6-10-7.2-17.3-34.3-17.8-46,21.1-7.7,23.6,33.8,45.3,31.7,24-2.3,24.1-17,20.6-36-16.3,1.3-20.2,2.1-21.7-16,8-2.5,16,2.3,22.5,5.9,4.4,2.4,11,2.9,15,5.4,9.9,6.1,6.8,21.4,15.7,29.2a9.1,9.1,0,0,1,8,6.1c9,3.5,15.5,18.6,23.9,24.6a130.8,130.8,0,0,1-.5-13.9A278.7,278.7,0,0,0,4107.3,1585.4Z"/><path class="cls-3" d="M3934.5,1432.6a283.6,283.6,0,0,1,172.8,152.8,278.7,278.7,0,0,1,13,34.5,130.8,130.8,0,0,0,.5,13.9c-8.4-6.1-14.9-21.1-23.9-24.6a9.1,9.1,0,0,0-8-6.1c-8.9-7.8-5.8-23-15.7-29.2-4-2.5-10.5-2.9-15-5.4s-11.6-6.6-18-6.6a15.3,15.3,0,0,0-4.6.7c1.1,13.8,3.7,16.6,12,16.6,2.6,0,5.8-.3,9.7-.6,3.6,19,3.4,33.7-20.6,36h-1.5c-18.5,0-22.5-32.8-38.7-32.8a14.5,14.5,0,0,0-5,1c.5,11.7,7.8,38.8,17.8,46,3.2,2.3,12.6,2.7,16.7,3.6,7,1.5,13.4,2.8,20.1,4.5.6,3.3,1.1,6.8,1.5,10.2,1.6,12.4,4.6,22.8-4.8,31.4s-11.8,6.7-9.9,20.5,6.5,28.8,8.5,43.7c1.2,8.4,2.2,18.2-1,26.3s-9.2,10.9-11.8,18.1c-8.8,24.3,14.9,54.1-17.6,65.3-18.2,6.3-29.4,13.7-43.7,25.9-6.3,5.4-19.2,11.3-29.8,11.3a19,19,0,0,1-9.1-2c-10.1-13.2-.1-25.1,10.4-35.7,8.6-8.7,10.9-19.5,9.2-32.5a59.4,59.4,0,0,0-7.3-21.5c-8.5-14.5-11.3-23.9-13.6-40.8-1.5-11.6-1.5-16.4-10.2-22.7s-16.3-9.8-19.8-20c-1.6-4.8-1-11.4-3-15.9s-7.7-6.6-13.4-6.6l-8,.2h-2.3c-16.4-.9-35.6.6-51.7-3.2s-18.8-18.1-23.1-33.7c-2.9-10.6-10.7-32.1-5.8-43.6,5.6-13.1,25.9-13.9,35.1-23.8,5.6-6,2.2-13.6,8.2-19.8,12.3-12.7,44.4-13.9,61.5-15.4,3.9-.3,7.1-.7,10.1-.7,5.2,0,9.5,1,15.2,4.7s7.6,9.4,14.9,9.4a23.2,23.2,0,0,0,3.9-.4c8.2-1.4,20.5-2.2,28.1-5.8,5.2-2.5,6.8-9.5,11-12.3-4-1.1-7.5-3.4-12.4-3.5h-.4c-6.6,0-13.4,2.2-20,2.7l-3.8.2c-7.2,0-12.1-2.1-18.1-8.2-2.7-2.8-6-10.4-10.9-10.4a5.3,5.3,0,0,0-2.1.5c-4.3,1.9-4,10.8-8.8,13.9s-13.9,3.5-22.3,3.5h-3.9a82.6,82.6,0,0,0-10.3.4c-5.8.8-19.9,5.4-29.9,5.4-6.8,0-11.7-2.1-11.1-8.8,3.8-1.5,4.5-4.4,6.6-8.2,3.5-6.3,6.1-9.6,10.3-14.9s4.3-9.9,6.9-15.2c8.3-17,39.1-12.8,56.2-15.9-1.2-14.7-8.5-32.7,3.5-44.5,7.9-7.7,17.3-10.8,27.1-11.7m.4-3.4h-.7c-12.1,1.1-21.6,5.3-29.1,12.6-10.4,10.2-8.1,24.3-6,36.7.4,2.6.8,5,1.1,7.4-3.7.5-7.9.7-12.3.9-17,.9-36.2,2-43.2,16.3a49,49,0,0,0-2.4,6.1,26,26,0,0,1-4.1,8.5l-.7.9a97,97,0,0,0-9.9,14.5l-1.1,2.2c-1.4,2.8-2,3.8-3.8,4.5l-2,.8-.2,2.1a10.7,10.7,0,0,0,2.5,8.5c2.4,2.7,6.4,4,12,4s15.6-2.1,22.5-3.7c3.3-.8,6.1-1.5,7.9-1.7a80.5,80.5,0,0,1,9.8-.4h3.9c9.4,0,18.3-.3,24.1-4,3.3-2.1,4.7-5.8,5.9-9.1s1.6-4.2,2.4-4.6l.8-.2c1.7,0,4,3.4,5.5,5.6a28.9,28.9,0,0,0,2.9,3.8c6.5,6.6,12.2,9.2,20.5,9.2l4.1-.2a88.8,88.8,0,0,0,8.9-1.3,60.7,60.7,0,0,1,10.8-1.4h.3a18.2,18.2,0,0,1,6.5,1.6l-1.5,2.3c-1.5,2.4-3,4.6-5,5.5-5.2,2.5-13.3,3.6-20.3,4.5l-6.8,1-3.3.3c-3.3,0-4.4-1.1-6.8-3.6a36.1,36.1,0,0,0-6.2-5.2c-5.8-3.7-10.7-5.3-17.1-5.3-2.6,0-5.4.2-8.6.5l-1.8.2-5.4.4c-18.4,1.4-46.3,3.5-58.3,15.9-3.8,3.9-4.5,8.1-5.2,11.9s-1,5.7-3.1,7.9c-3.5,3.7-9,6.1-14.8,8.6-8.5,3.7-17.2,7.5-21,16.2-4.7,10.9.6,28.8,4.1,40.6l1.5,5.1,1.4,5.2c3.6,13.8,6.9,26.7,24.2,30.9,11.4,2.7,24,2.8,36.2,2.9,5.6,0,10.9.1,16,.4h10.5c6.1,0,8.7,1.2,10.3,4.6.9,1.9,1.2,4.7,1.4,7.5a37.4,37.4,0,0,0,1.4,8.1c3.2,9.4,9.7,13.9,16.7,18.6l4.4,3c6.8,5,7.2,8.2,8.5,17.7l.4,2.7c2.4,18.2,5.6,27.6,14,42.1a55.8,55.8,0,0,1,6.9,20.3c1.7,12.9-.9,22.3-8.2,29.7s-23.4,23.5-10.7,40.1l.4.6.6.3a22.3,22.3,0,0,0,10.7,2.4c11.5,0,25.1-6.2,32-12.1,13.6-11.6,24.5-19,42.6-25.3,10.3-3.6,16.5-9.3,18.9-17.6s1.1-14.9.1-23.2-2.3-18.3.7-26.5c1.1-3.1,3.3-5.7,5.6-8.5s4.8-5.8,6.2-9.5c3.5-8.8,2.5-19.1,1.2-28s-2.7-14.9-4.3-22-3.2-14.4-4.2-21.7c-1.2-9.2-.1-10.1,4.5-13.8,1.3-1,2.7-2.2,4.4-3.7,9.6-8.8,8.1-19.1,6.5-30-.2-1.4-.4-2.9-.6-4.3v-1c-.4-3.1-.8-6.3-1.4-9.4l-.4-2.1-2.1-.5c-6.2-1.5-12.1-2.7-18.3-4.1l-1.9-.4-5-.8c-3.3-.4-8.8-1.1-10.4-2.3-8.1-5.8-14.9-28.6-16.2-40.8h1.4c6,0,10.5,6.8,15.2,14.1,5.7,8.8,12.2,18.7,23.6,18.7h1.8c10-.9,16.9-4,21-9.4,5.5-7.3,5-17.5,2.6-30.5l-.6-3-3,.2h-1.2c-3.2.3-6,.5-8.2.5-4.9,0-7.2,0-8.3-10.6h.9c5.1,0,10.5,3,15.3,5.6l1.1.6a37.4,37.4,0,0,0,8.1,2.9,27.5,27.5,0,0,1,6.7,2.4c4.1,2.5,5.4,7.3,7,12.8s3.3,11.6,8.2,16l.8.7h1.1a5.8,5.8,0,0,1,5.2,3.9l.5,1.4,1.4.5c4.2,1.6,8.3,7,12.2,12.2s6.9,9.1,11,12.1l6.1,4.4-.8-7.5a129.1,129.1,0,0,1-.4-13.5v-1a283.3,283.3,0,0,0-13.2-34.9,286.8,286.8,0,0,0-174.8-154.6l-.6-.2Z"/><path class="cls-6" d="M3752.6,1923.5c.3-13.5-16.3-19.2-19.3-30.6-3.5-13.7,8.4-23,11-34.6,1.5-6.5-1.4-15.5-1.3-22.4,7.9-2.5,10.6-4,15.5-10.5s10.9-9.1,18.2-14.8c12.9-10.1,19.8-23.6,15.8-40.3s-12.8-38-30.7-43.4c-8.7-2.6-11,.9-14.9-7.5-2.5-5.4-2.1-12.2-4.1-17.8-9.8-4.5-20.9-10.2-31.5-14.1s-24.9-10.9-36.9-11.1a29.1,29.1,0,0,0-15.5,3.9c-1.5.9-.8,3.6-2.9,4.7s-7.5.7-10,.4c-12.9-1.7-32.1-13.9-36.7-25.7-1.5-3.9-1.2-8.6-3.5-12.2s-5.6-4.1-7.9-6.8c-4.9-5.9-8.7-15,.8-20.1s11.8,1.7,19.4,3.1c10.6,2,20.5-4,29.4-8.8-.6-7.9,6.9-18.8,11.8-24.6,6.6-7.8,15.6-12.9,23-19.7,4.9-4.5,9.2-9.6,14.5-13.5,8.4-6,45.5-17.1,29.7-31.7-5.9-5.5-15.4-7.8-20.9-15.3-2.1-2.8-2.7-5.7-4.5-8.7-7.5-12.6-15.6-9.7-27.8-3.7s-13.4,16.7-27.4,16.5a50.3,50.3,0,0,1-6.8-.6l-2.6,3a284,284,0,0,0-32.8,46.2q-4.5,8-8.6,16.2a282.2,282.2,0,0,0-21.4,60.7q-.8,3.5-1.5,7.1a280.1,280.1,0,0,0-4.3,28.9q-.1,1.2-.2,2.5c5.9,1.3,9.8-6.7,17.2-4.2s10.9,18.5,18.5,23.7c11.9,8.3,30.1-4.3,40.1,9.9,13.8,19.6.3,60.8,22.6,74.1,9.3,5.5,11.2,2.6,11.9,16.2.6,11.8.1,23.6,4.6,34.6s14.3,18.8,17,31.5c2.3,10.7,3.9,16.2,10.4,24.8s14.2,18.2,20.7,28S3739.9,1925.5,3752.6,1923.5Z"/><path class="cls-3" d="M3688.7,1492.6c4.6,0,8.6,2.4,12.4,8.8,1.8,3,2.4,5.8,4.5,8.7,5.4,7.4,15,9.8,20.9,15.3,15.8,14.6-21.4,25.7-29.7,31.7-5.4,3.9-9.6,9-14.5,13.5-7.3,6.8-16.3,11.9-23,19.7-4.9,5.7-12.4,16.6-11.8,24.6-7.6,4.2-16.1,9.2-25.1,9.2a23.4,23.4,0,0,1-4.2-.4c-5.6-1-9-4.7-13.7-4.7a11.8,11.8,0,0,0-5.7,1.7c-9.5,5.2-5.7,14.2-.8,20.1,2.3,2.7,6.2,4.2,7.9,6.8s2,8.3,3.5,12.2c4.6,11.8,23.8,24,36.7,25.7a41.5,41.5,0,0,0,5.2.4,11.3,11.3,0,0,0,4.8-.8c2.1-1.1,1.4-3.9,2.9-4.7a29,29,0,0,1,15.1-3.9h.4c12,.1,26.2,7.1,36.9,11.1s21.6,9.6,31.5,14.1c2,5.6,1.6,12.4,4.1,17.8,3.9,8.4,6.1,4.9,14.9,7.5,17.9,5.4,26.7,26.5,30.7,43.4s-3,30.1-15.8,40.3c-7.3,5.7-12.3,7.1-18.2,14.8s-7.7,8-15.5,10.5c-.1,6.9,2.8,15.9,1.3,22.4-2.6,11.7-14.5,21-11,34.6,2.9,11.4,19.6,17.2,19.3,30.6-5.1.8-8.4,1.6-11,1.6s-6.3-1.9-10.7-8.5c-6.5-9.8-13.5-18.6-20.7-28s-8.1-14.1-10.4-24.8c-2.7-12.7-12.3-19.6-17-31.5s-4-22.8-4.6-34.6c-.6-13.6-2.5-10.6-11.9-16.2-22.4-13.3-8.8-54.5-22.6-74.1-4.3-6.1-10.1-7.3-16.2-7.3-3.8,0-7.8.5-11.6.5s-8.6-.6-12.2-3.1c-7.6-5.3-10.7-21.1-18.5-23.7a8.7,8.7,0,0,0-2.9-.5c-5.1,0-8.5,4.8-13,4.8l-1.4-.2q.1-1.2.2-2.5a280.1,280.1,0,0,1,4.3-28.9q.7-3.6,1.5-7.1a282.1,282.1,0,0,1,21.4-60.7q4-8.3,8.6-16.2a284,284,0,0,1,32.8-46.2l2.6-3a50.4,50.4,0,0,0,6.8.6h.5c13.6,0,16.2-11.2,26.9-16.5,5.9-2.9,10.9-5.1,15.3-5.1m0-3.4h0c-5.3,0-11,2.6-16.8,5.5s-7.9,5.5-10.8,8.4-7.7,7.7-14.6,7.7h-.4a46.8,46.8,0,0,1-6.3-.6l-1.8-.3-1.2,1.3-2.7,3a287.9,287.9,0,0,0-33.2,46.7c-3,5.3-6,10.9-8.7,16.4a286,286,0,0,0-21.7,61.4c-.5,2.4-1.1,4.8-1.5,7.2a284.5,284.5,0,0,0-4.3,29.2c-.1.8-.2,1.7-.2,2.5l-.2,2.9,2.8.6,2.1.2c3.1,0,5.5-1.5,7.7-2.8s3.5-2.1,5.2-2.1a5.3,5.3,0,0,1,1.8.3c2.9,1,5.5,5.8,8,10.4s5.5,10,9.6,12.9,10.1,3.7,14.2,3.7l6-.2,5.6-.2c5.6,0,10.1,1,13.5,5.8,5.4,7.7,6.3,20,7.1,31.8,1.2,17.1,2.4,34.7,16.6,43.2a61.9,61.9,0,0,0,5.5,2.9c2.2,1,3,1.5,3.4,2.2s1,3.6,1.2,8.3c.1,2,.2,4,.2,5.9.3,9.9.7,20.1,4.6,29.8,2.2,5.5,5.3,9.9,8.3,14.2s7.2,10.3,8.6,16.8c2.4,11.3,4.2,17.2,11.1,26.1l3.6,4.7c5.9,7.7,11.6,15,16.9,23s7.7,10,13.5,10a41.8,41.8,0,0,0,7.1-.9l4.4-.8,2.8-.4v-2.8c.2-9-5.8-14.9-11-20.2-3.7-3.7-7.3-7.2-8.3-11.4-1.9-7.3,1.5-13.3,5.2-19.7,2.4-4.2,4.8-8.5,5.9-13.4s.3-9.6-.4-14.5c-.3-2.2-.6-4.3-.7-6.2,6.6-2.2,9.9-4.5,14.8-10.8,3.6-4.7,6.7-6.7,10.7-9.4,2-1.3,4.3-2.8,6.9-4.9,15.1-11.9,21-27,17-43.7s-13.3-39.9-33-45.9a35.7,35.7,0,0,0-7.3-1.4c-3.2-.3-3.7-.4-5.5-4.4a33.1,33.1,0,0,1-2.1-8.8,45.8,45.8,0,0,0-1.9-8.7l-.5-1.3-1.3-.6-7.8-3.7c-7.8-3.7-16-7.6-23.9-10.5l-7-2.7c-9.8-3.9-21-8.4-31.1-8.5h-.4a32.4,32.4,0,0,0-16.8,4.3,6.1,6.1,0,0,0-2.7,4l-.2.7a9.9,9.9,0,0,1-3.1.3,38.2,38.2,0,0,1-4.8-.4c-11.6-1.5-29.9-13-34-23.6a25.1,25.1,0,0,1-1.1-4.5,22.4,22.4,0,0,0-2.7-8.4,16.8,16.8,0,0,0-5-4.6,16.8,16.8,0,0,1-3.2-2.6c-3.1-3.8-4.7-7.6-4.2-10.4s1.6-3.3,4-4.6a8.7,8.7,0,0,1,4.1-1.2c1.8,0,3.4.8,5.5,1.9a27.7,27.7,0,0,0,7.6,2.8,26.8,26.8,0,0,0,4.9.4c9.3,0,17.8-4.7,25.2-8.8l1.5-.8,1.9-1-.2-2.2c-.5-5.8,5.2-15.3,11-22.1,3.8-4.4,8.4-8,13.2-11.7,3.2-2.4,6.4-5,9.5-7.7l4.9-4.8a44.5,44.5,0,0,1,18.2-13.1c10.9-5.2,24.6-11.7,26-21,.6-3.9-1-7.7-4.8-11.2a48,48,0,0,0-9.2-6.2c-4.3-2.5-8.4-4.8-11.2-8.6a21.8,21.8,0,0,1-2.3-4.3,37.7,37.7,0,0,0-2-4.1c-4.2-7.1-9.2-10.5-15.3-10.5Z"/><path class="cls-6" d="M3737.8,1493.9c5.9,7.2,25.2,9.6,33.1,3.7s7.6-15.3,19.1-19.9c8.9-3.6,29.1-1.8,34.5-10.6s-4.9-19.3.5-26,15.6-2.6,20.7-7.4c1.5-1.4,7.4-11.2,8-13.1l.3-.9q-11-.1-22.2.6-9.6.6-19.2,1.9a282.4,282.4,0,0,0-81.1,23.4l-2.8,1.3a34.5,34.5,0,0,1,5.4,9.6C3738,1468.7,3728.4,1482.4,3737.8,1493.9Z"/><path class="cls-3" d="M3850.1,1419.6h3.8l-.3.9c-.6,1.9-6.5,11.7-8,13.1-5.1,4.8-16.5,2.1-20.7,7.4s4.2,18.4-.5,26-25.6,7-34.5,10.6c-11.5,4.6-11.8,14.5-19.1,19.9-3.1,2.3-7.9,3.3-13,3.3-8,0-16.6-2.6-20.1-7-9.4-11.5.3-25.2-3.8-37.5a34.5,34.5,0,0,0-5.4-9.6l2.8-1.3a282.4,282.4,0,0,1,81.1-23.4q9.6-1.3,19.2-1.9t18.4-.6m0-3.4c-6.1,0-12.4.2-18.6.6s-12.9,1-19.5,1.9a285.9,285.9,0,0,0-82,23.7l-2.9,1.3-3.6,1.7,2.3,3.3h.1a31,31,0,0,1,4.8,8.6c1.4,4.4.8,9.2.1,14.4-1,7.7-2.1,16.3,4.2,24.2,4.6,5.7,14.8,8.2,22.8,8.2,6.2,0,11.5-1.4,15-4s5.5-5.9,7.5-9,5-8.1,10.9-10.5c2.8-1.1,7.1-1.7,11.7-2.3,9.4-1.2,20-2.6,24.4-9.7,3.1-5,1.7-10.7.5-15.7s-1.8-8-.2-10,4.9-2.2,8.3-2.7,8.8-1.3,12.1-4.3,8.1-12.1,8.9-14.6v-.9l1.3-4.3h-8.3Z"/><path class="cls-6" d="M3964.2,1914.5c-11.1,3.2-22.4,3.8-33.7,3.6s-30.8.5-40.5,6.9c-6.2,4.1-5.4,11.9-10.8,16.8s-15,4.1-21.2,6.8c.3,5.9,4.8,9.7,4.6,16.2-19,3.5-44.1,8.4-61.8-.7s-2.5-21.3-9.4-34.8c-4.9-9.4-13.1-8.8-20.5-3.3s-9.9,16.2-14.6,24.3c-3.1,5.3-12.6,5-14.8,10.9a8.5,8.5,0,0,0-.5,2.5l6.4,2.6a282.5,282.5,0,0,0,310.2-71.8c-2.7-1.2-6-1.1-10.4-1C4018.1,1894.5,3991.1,1906.8,3964.2,1914.5Z"/><path class="cls-3" d="M4050.7,1893.5a16.6,16.6,0,0,1,6.8,1.1,282.9,282.9,0,0,1-310.2,71.8l-6.4-2.6a8.5,8.5,0,0,1,.5-2.5c2.1-5.9,11.7-5.6,14.8-10.9,4.7-8.1,5.9-17.9,14.6-24.3,3.4-2.5,6.9-4,10.2-4s7.6,2.1,10.3,7.3c7,13.5-7.5,26,9.4,34.8,7.5,3.9,16.4,5.3,25.5,5.3,12.4,0,25.3-2.5,36.2-4.5.2-6.5-4.3-10.3-4.6-16.2,6.3-2.7,16.4-2.4,21.2-6.8s4.6-12.7,10.8-16.8c8.8-5.8,25.9-6.9,37.5-6.9h6.7c10,0,20.1-.8,30-3.6,26.9-7.7,53.9-20,82.9-20.9h3.6m0-3.4H4047c-21.6.7-42,7.5-61.7,14.1-7.2,2.4-14.7,4.9-22,7s-17.5,3.5-29.1,3.5h-6.7c-12.8,0-30,1.3-39.3,7.5-4.2,2.8-5.8,6.8-7.2,10.3s-2,5-3.9,6.8-6.6,2.9-10.9,3.7a46.2,46.2,0,0,0-9.4,2.5l-2.1.9v2.3a22.7,22.7,0,0,0,2.5,8.6,24.1,24.1,0,0,1,1.8,4.7c-10.2,1.9-21.7,3.9-32.6,3.9s-17.6-1.6-24-4.9c-7.8-4.1-7.3-8.3-6.3-15.4.8-5.4,1.6-11.5-1.7-17.9s-9.4-9.1-13.3-9.1-8.1,1.6-12.2,4.6c-6.6,4.9-9.3,11.3-11.9,17.5a63.3,63.3,0,0,1-3.7,7.8c-.9,1.6-3.2,2.6-5.7,3.6s-7.8,3.4-9.4,7.9a11.8,11.8,0,0,0-.7,3.6v2.3l2.2.9,6.5,2.6a283.5,283.5,0,0,0,103.3,19.4,290,290,0,0,0,38-2.5,285.2,285.2,0,0,0,172.6-89.5l3.2-3.4-4.3-1.9a20.1,20.1,0,0,0-8.2-1.4Z"/></g><g class="cls-2"><path class="cls-3" d="M4027.1,1184.4s30.9-14.5,7.8-32.5c-20.5-16-9.4-25.4,2.2-34.6,0,0-53.7,18.7-12.4,44.3C4041.7,1172.2,4027.1,1184.4,4027.1,1184.4Z"/><path class="cls-3" d="M4074.9,1209.3s30.9-14.5,7.8-32.5c-20.5-16-9.4-25.4,2.2-34.6,0,0-53.7,18.7-12.4,44.3C4089.6,1197,4074.9,1209.3,4074.9,1209.3Z"/><path class="cls-3" d="M4158.1,1224.7H3946.7a110.5,110.5,0,0,0-8,40.5c0,61.3,50.4,111.3,113.7,113.2,63.2-1.9,113.7-52,113.7-113.2A110.3,110.3,0,0,0,4158.1,1224.7Z"/><path class="cls-3" d="M4162,1238.6c-19.9,0-36,15.2-36,33.9s16.1,33.9,36,33.9,36-15.2,36-33.9S4181.8,1238.6,4162,1238.6Zm0,57.5c-13.9,0-25.1-10.6-25.1-23.6s11.2-23.6,25.1-23.6,25.1,10.6,25.1,23.6S4175.8,1296.1,4162,1296.1Z"/></g></g><g id="Layer_3" data-name="Layer 3"><path class="cls-7" d="M1487.6,3616.5a24,24,0,0,1-12.9-3.8,23.3,23.3,0,0,0,12.9,3.8h311.9a23.3,23.3,0,0,0,12-3.3,24.2,24.2,0,0,1-12,3.3Z"/><path class="cls-7" d="M1487.6,3171.3h311.9a24.2,24.2,0,0,1,15.3,5.6,23.3,23.3,0,0,0-15.3-5.6H1487.6a23.3,23.3,0,0,0-16.9,7A24,24,0,0,1,1487.6,3171.3Z"/><path class="cls-7" d="M1464.1,3594.6a22.6,22.6,0,0,0,10.6,18.4A23.6,23.6,0,0,1,1464.1,3594.6Z"/><path class="cls-7" d="M1811.3,3613.6a22.6,22.6,0,0,0,11.6-19.7V3315h0v278.3A23.6,23.6,0,0,1,1811.3,3613.6Z"/><path class="cls-7" d="M1464,3593.9c0,.2,0,.5,0,.7a23.3,23.3,0,0,0,10.6,18.2,23.9,23.9,0,0,0,12.9,3.6h311.9a23.8,23.8,0,0,0,11.9-3.1,23.3,23.3,0,0,0,11.4-20.1V3314.2H1464ZM1798.3,3366a7.1,7.1,0,0,1-7.1,7.1H1751a7.1,7.1,0,0,1-7.1-7.1v-24.5a7.1,7.1,0,0,1,7.1-7.1h40.2a7.1,7.1,0,0,1,7.1,7.1Zm0,73.7a7.1,7.1,0,0,1-7.1,7.1H1751a7.1,7.1,0,0,1-7.1-7.1v-24.5a7.1,7.1,0,0,1,7.1-7.1h40.2a7.1,7.1,0,0,1,7.1,7.1Zm0,146.7a7.1,7.1,0,0,1-7.1,7.1H1751a7.1,7.1,0,0,1-7.1-7.1v-97.5a7.1,7.1,0,0,1,7.1-7.1h40.2a7.1,7.1,0,0,1,7.1,7.1Zm-84.1-73a7.1,7.1,0,0,1-7.1,7.1h-40.2a7.1,7.1,0,0,1-7.1-7.1v-24.5a7.1,7.1,0,0,1,7.1-7.1h40.2a7.1,7.1,0,0,1,7.1,7.1Zm-1.5-147.4a7.1,7.1,0,0,1-7.1,7.1h-40.2a7.1,7.1,0,0,1-7.1-7.1v-24.5a7.1,7.1,0,0,1,7.1-7.1h40.2a7.1,7.1,0,0,1,7.1,7.1Zm0,73.7a7.1,7.1,0,0,1-7.1,7.1h-40.2a7.1,7.1,0,0,1-7.1-7.1v-24.5a7.1,7.1,0,0,1,7.1-7.1h40.2a7.1,7.1,0,0,1,7.1,7.1Zm0,147.4a7.1,7.1,0,0,1-7.1,7.1h-40.2a7.1,7.1,0,0,1-7.1-7.1v-24.5a7.1,7.1,0,0,1,7.1-7.1h40.2a7.1,7.1,0,0,1,7.1,7.1Zm-83.4-73.7a7.1,7.1,0,0,1-7.1,7.1H1582a7.1,7.1,0,0,1-7.1-7.1v-24.5a7.1,7.1,0,0,1,7.1-7.1h40.2a7.1,7.1,0,0,1,7.1,7.1Zm0-147.4a7.1,7.1,0,0,1-7.1,7.1H1582a7.1,7.1,0,0,1-7.1-7.1v-24.5a7.1,7.1,0,0,1,7.1-7.1h40.2a7.1,7.1,0,0,1,7.1,7.1Zm-.7,73.7a7.1,7.1,0,0,1-7.1,7.1h-40.2a7.1,7.1,0,0,1-7.1-7.1v-24.5a7.1,7.1,0,0,1,7.1-7.1h40.2a7.1,7.1,0,0,1,7.1,7.1Zm0,147.4a7.1,7.1,0,0,1-7.1,7.1h-40.2a7.1,7.1,0,0,1-7.1-7.1v-24.5a7.1,7.1,0,0,1,7.1-7.1h40.2a7.1,7.1,0,0,1,7.1,7.1Zm-84.1-73.7a7.1,7.1,0,0,1-7.1,7.1h-40.2a7.1,7.1,0,0,1-7.1-7.1v-24.5a7.1,7.1,0,0,1,7.1-7.1h40.2a7.1,7.1,0,0,1,7.1,7.1Zm0-147.4a7.1,7.1,0,0,1-7.1,7.1h-40.2a7.1,7.1,0,0,1-7.1-7.1v-24.5a7.1,7.1,0,0,1,7.1-7.1h40.2a7.1,7.1,0,0,1,7.1,7.1Zm-1.5,73.7a7.1,7.1,0,0,1-7.1,7.1h-40.2a7.1,7.1,0,0,1-7.1-7.1v-24.5a7.1,7.1,0,0,1,7.1-7.1h40.2a7.1,7.1,0,0,1,7.1,7.1Zm0,147.4a7.1,7.1,0,0,1-7.1,7.1h-40.2a7.1,7.1,0,0,1-7.1-7.1v-24.5a7.1,7.1,0,0,1,7.1-7.1h40.2a7.1,7.1,0,0,1,7.1,7.1Z"/><path class="cls-7" d="M1822.9,3194.7v103.7h0V3194.2a22.4,22.4,0,0,0-8.2-17.4A23.5,23.5,0,0,1,1822.9,3194.7Z"/><path class="cls-7" d="M1464.1,3193.4a23.4,23.4,0,0,1,6.6-15A22.4,22.4,0,0,0,1464.1,3193.4Z"/><path class="cls-7" d="M1464,3298.6h358.8V3194.7a23.5,23.5,0,0,0-8.1-17.8,24,24,0,0,0-15.3-5.5H1487.6a23.9,23.9,0,0,0-16.9,7,23.5,23.5,0,0,0-6.6,15.1c0,.3,0,.6,0,.9Zm26.1-104.2h309.7v87.8H1490.1Z"/><polygon class="cls-7" points="1769.3 3367.1 1774.5 3367.1 1774.5 3356.7 1784.9 3356.7 1784.9 3350.7 1774.5 3350.7 1774.5 3340.3 1769.3 3340.3 1769.3 3350.7 1758.8 3350.7 1758.8 3356.7 1769.3 3356.7 1769.3 3367.1"/><rect class="cls-7" x="1758.8" y="3424.4" width="26.1" height="6.7"/><rect class="cls-7" x="1758.8" y="3530.9" width="26.1" height="5.21"/><rect class="cls-7" x="1758.8" y="3539.1" width="26.1" height="5.21"/><path class="cls-7" d="M3727.9,2201.6a26.4,26.4,0,0,0-26.4-26.4H3548.1a26.4,26.4,0,0,0-26.4,26.4v251a26.4,26.4,0,0,0,26.4,26.4h153.5a26.4,26.4,0,0,0,26.4-26.4Zm-10.4,206.1a58.1,58.1,0,0,1-15.1,39,4.7,4.7,0,0,1-.6,9.4,4.6,4.6,0,0,1-4.7-4.1,58.2,58.2,0,0,1-38,14.3h-70.7a58.1,58.1,0,0,1-35.8-12.5,4.7,4.7,0,0,1-4.2,2.4,4.8,4.8,0,0,1-4.7-4.8,4.7,4.7,0,0,1,2.1-4,58.2,58.2,0,0,1-15.8-39.8V2246.8c0-32.1,26.4-58.2,58.5-58.2h70.7a58.5,58.5,0,0,1,58.4,58.2Z"/><path class="cls-7" d="M3625.5,2302.8a77.1,77.1,0,1,0,77.1,77.1A77.1,77.1,0,0,0,3625.5,2302.8Zm0,148.7a71.6,71.6,0,1,1,71.6-71.6A71.6,71.6,0,0,1,3625.5,2451.4Z"/><path class="cls-7" d="M3625.6,2288.6a42.5,42.5,0,1,0-42.5-42.5A42.5,42.5,0,0,0,3625.6,2288.6Zm0-80.1a37.5,37.5,0,1,1-37.5,37.5A37.5,37.5,0,0,1,3625.6,2208.5Z"/><circle class="cls-7" cx="3625.6" cy="2379.2" r="23.9"/><circle class="cls-7" cx="3625.6" cy="2246.1" r="11.5"/><circle class="cls-7" cx="3553.9" cy="2211.3" r="4.7"/><circle class="cls-7" cx="3697" cy="2211.3" r="4.7"/><path class="cls-7" d="M3697.1,2451.9a4.7,4.7,0,1,0,5.3-5.2A59.2,59.2,0,0,1,3697.1,2451.9Z"/><path class="cls-7" d="M3697,2451.4a4.8,4.8,0,0,0,0,.5,59.2,59.2,0,0,0,5.3-5.2h-.6A4.7,4.7,0,0,0,3697,2451.4Z"/><path class="cls-7" d="M3545.8,2447.5a4.7,4.7,0,1,0,6.8,6.2A59.1,59.1,0,0,1,3545.8,2447.5Z"/><path class="cls-7" d="M3548.4,2446.7a4.7,4.7,0,0,0-2.6.8,59.1,59.1,0,0,0,6.8,6.2,4.7,4.7,0,0,0-4.2-7Z"/><path class="cls-7" d="M3543.3,3132.6h-65.5v22.6c0,4.6-2.9,8.7-7.5,8.7h-.5c-4.6,0-9.1-4.1-9.1-8.7v-22.6H3133.8v22.6c0,4.6-3.4,8.7-8,8.7h-.5c-4.6,0-7.9-4.1-7.9-8.7v-22.6h-66.3V3420c0,22.6,19.1,41.7,41.6,41.7h410.3c22.6,0,40.2-19.1,40.2-41.7Zm-375.2,257.6h-66.3v-42.4h66.3Zm0-74.4h-66.3v-43.2h66.3Zm0-75.9h-66.3v-43.2h66.3Zm105,150.4h-67v-42.4h67Zm0-74.4h-67v-43.2h67Zm0-75.9h-67v-43.2h67Zm103.5,150.4H3311v-42.4h65.5Zm0-74.4H3311v-43.2h65.5Zm0-75.9H3311v-43.2h65.5Zm102.7,150.4h-65.5v-42.4h65.5Zm0-74.4h-65.5v-43.2h65.5Zm2.2-75.9h-66.3v-43.2h66.3Z"/><path class="cls-7" d="M3478.8,3076.2h0Z"/><path class="cls-7" d="M3477.8,3074.4v1.7h.6C3482.4,3075.7,3477.8,3070,3477.8,3074.4Z"/><path class="cls-7" d="M3135.5,3076.8c4.6,0-1.6-6.9-1.6-2.3v1.7a2,2,0,0,0,1.1.6Z"/><path class="cls-7" d="M3487.2,3014.2H3128c-36.6,0-76.8,19.8-76.8,56.5v58.9h66.3v-55.2c0-4.2,10.4.8,16.4,1.7v-1.7c0-4.6,6.2,2.3,1.6,2.3h-.5a2,2,0,0,1-1.1-.6v53.5h326.8v-55.2c0-4.3,11.9.9,17.1,1.7v-1.7c0-4.4,4.8,1.6.8,2l.8.3h-1.6v52.9h65.5v-58.9C3543.3,3034.1,3523.8,3014.2,3487.2,3014.2Zm46.4,105.7h-45.4V3081c.7-1.9,2.2-4.3,2.2-6.6a11.3,11.3,0,0,0-11-11.4,10.2,10.2,0,0,0-5.7,1.7c-6.7-1.8-13.5-3.1-18.6.8-2.7,2.1-4.9,5.3-4.9,8.9v45.5H3143.5v-37.6a9.7,9.7,0,0,0,3.2-7.5,12,12,0,0,0-11.7-11.7,10.4,10.4,0,0,0-5.7,1.7c-6.1-1.7-12.3-3-17.3.8a11,11,0,0,0-4.3,8.9v45.5h-45.4v-49.2c0-17.2,10.5-28.2,19.6-34.3,12.4-8.3,29-13.2,46-13.2h359.2c31.2,0,46.4,16.3,46.4,47.5Z"/><path class="cls-7" d="M3478.2,3076.1h0Z"/><path class="cls-7" d="M2021.2,1526.1c-9,9.8-25.8,9-37.5-1.8h0c-11.7-10.8-13.8-27.4-4.8-37.2l59.9-64.9c4.3-7.9,46.8,34.9,42.3,39Z"/><path class="cls-7" d="M2033,1535.1l.2-.2c2.1-2.2,2.1-5.5.2-7.3l-58.7-54.1c-2-1.8-5.2-1.5-7.3.7l-12.4,13.5h0l-89.3,96.8c-22.7,24.6-26.3,58.1-8.2,74.9s51.3,10.4,74-14.2L2033,1535.2Z"/><path class="cls-7" d="M2253.9,1228.5a157.7,157.7,0,1,0,9,222.8A157.7,157.7,0,0,0,2253.9,1228.5Zm-21.5,194.7a116.2,116.2,0,1,1-6.6-164.3A116.2,116.2,0,0,1,2232.5,1423.2Z"/><path class="cls-7" d="M1592.2,1571.9c-112,0-202.8,71.1-202.8,158.7,0,48.4,27.7,91.7,71.3,120.8a10.1,10.1,0,0,0-.3,1.4l-7.5,54.5c-.5,3.8,2,5.7,5.6,4.3l74-29.3a255.2,255.2,0,0,0,59.8,7c112,0,202.8-71,202.8-158.7S1704.2,1571.9,1592.2,1571.9Z"/><path class="cls-7" d="M3740.6,2921.2v122h120.9c-.5,65.5-54.1,119-120.3,119s-120.6-54.1-120.6-120.5S3675.1,2921.2,3740.6,2921.2Z"/><path class="cls-7" d="M3756.2,2905.5c65.5,0,118.1,53.6,118.1,119.9a2.1,2.1,0,0,0,.3.8H3756.2Z"/><path class="cls-7" d="M2190.7,3614.4c-12.1-46.1-44.7-72.8-47.6-75.2,0,0-40.4-34.5-96.2-34.9v-.9h-.7c-.1,0,0,.9,0,.9v-.9h-.7c.1,0,.2.5.4.5-56.5.2-97.1,35.2-97.1,35.2-3.9,2.8-35.6,29.1-47.7,75.3s10.5,84.8,10.5,84.8c19,38.8,56.7,64.7,75,83.9,6.3,6.6,16.7,19.2,21.2,27,15.9,27.2,34.9,65.2,38.6,73.6v1.7a.9.9,0,0,1,.1-.8l.4.8h.2v-2c4.5-9.2,22.1-46.4,37.7-73.1,4.5-7.8,14.5-20.4,20.8-27,18.3-19.2,55.9-45,74.9-83.9C2180.3,3699.2,2202.8,3660.5,2190.7,3614.4Zm-144.4,92.9h-.5c-40-.4-73.8-32.8-74.2-71.2s33.4-72.2,74.6-72.4,74.6,32.6,74.2,72.4S2086.3,3706.9,2046.3,3707.3Z"/><path class="cls-7" d="M2981.7,3448.2a140.1,140.1,0,1,0,140.1,140.1A140.1,140.1,0,0,0,2981.7,3448.2Zm-62.3,248.3V3480L3107,3588.3Z"/><path class="cls-7" d="M2638.7,3730.4h-25a124.2,124.2,0,0,0-16.3-39h.1l17.7-17.7a10.1,10.1,0,0,0,0-14.3l-30.8-30.8a10.1,10.1,0,0,0-14.2,0l-17.9,17.7a137.1,137.1,0,0,0-39.3-16h0v-25a9.9,9.9,0,0,0-9.7-10.2h-43.5a10.1,10.1,0,0,0-10,10.2v25a123.9,123.9,0,0,0-39,16.3h-.1l-17.7-17.7a10.1,10.1,0,0,0-14.2,0l-30.8,30.8a10.1,10.1,0,0,0,0,14.2l17.7,17.6a127.7,127.7,0,0,0-16,39.1h-25.1a10.3,10.3,0,0,0-10.3,10.2v43.5c0,5.6,4.7,9.6,10.3,9.6h25a133,133,0,0,0,16.3,39.2v.2l-17.7,17.8a10.1,10.1,0,0,0,0,14.3l30.8,30.8a10.1,10.1,0,0,0,14.2,0l17.6-17.7a127.5,127.5,0,0,0,39,16h0v25c0,5.6,4.7,10.6,10.3,10.6h43.5c5.6,0,9.5-5,9.5-10.6v-25a133.3,133.3,0,0,0,39.2-16.3h.2l17.8,17.7a10.1,10.1,0,0,0,14.3,0l30.8-30.8a10.1,10.1,0,0,0,0-14.2l-17.7-17.8a136.8,136.8,0,0,0,16-39.2h25.1a9.6,9.6,0,0,0,9.7-9.8v-43.5A9.7,9.7,0,0,0,2638.7,3730.4Zm-182.4,89.4-1.8-.8q-2.7-1.3-5.3-2.9l-2.5-1.6-2.5-1.7-1.2-.9a63,63,0,0,1-12-12.5l-2-2.9a62.7,62.7,0,0,1,10.6-80.3l3.4-2.9,1.2-.9,2.5-1.7a62.6,62.6,0,0,1,7.9-4.5l2.8-1.3a62.8,62.8,0,0,1,52.9,1.9l2.7,1.4,3.8,2.4,2.5,1.7,1.2.9,2.3,1.9,3.3,3.1,2.1,2.2a62.9,62.9,0,0,1,4.7,5.9l1.7,2.5,1.6,2.6q1.1,2,2.1,4a62.9,62.9,0,0,1,4.2,42.8l-.8,3q-.7,2.2-1.5,4.3l-1.2,2.8-.9,1.8-1.9,3.6-1.6,2.6-1.3,2-1.2,1.7-.9,1.2-1.9,2.3-1,1.1-2.1,2.2-1.1,1.1q-2.2,2.1-4.5,3.9l-1.2.9-2.5,1.7-2.5,1.6-1.3.8-2.7,1.4a62.8,62.8,0,0,1-51.9,2.3Z"/><path class="cls-7" d="M1084.4,2551.8A158.2,158.2,0,1,0,1242.6,2710,158.2,158.2,0,0,0,1084.4,2551.8Zm109.3,149.1a9.4,9.4,0,0,1-5.9,3.6l-.6.2-86.4,11a17.4,17.4,0,0,1-7.5,9.2l54.4,94.2-7.3,4.2-55.4-96h-.5a17.3,17.3,0,0,1-17.3-17.3c0-.3,0-.6,0-1l-62.1-64.3a9.5,9.5,0,1,1,13.9-13l59.8,61.9a17.3,17.3,0,0,1,17.3,3.4l88.8-11.3h.1a9.5,9.5,0,0,1,8.9,15.1Z"/><path class="cls-7" d="M1279.4,2409.3a90.6,90.6,0,0,0-26.6,16.7c-8.6,7.8-15.9,17.9-21.7,28.8a19.5,19.5,0,0,0-2.4,5.5H1147l8.6-51.2c4.4-29.7,20.4-52.6,44.9-61.2a59.3,59.3,0,0,0,18.9,11.9,62.9,62.9,0,0,0,46.3,0,69.5,69.5,0,0,0,7.4,39.3A72,72,0,0,0,1279.4,2409.3Z"/><path class="cls-7" d="M1291.8,2307.4a44.7,44.7,0,0,1-.3,5l-3.9,3.4a72.4,72.4,0,0,0-16.4,23.1,70.2,70.2,0,0,0-3.1,8.5,51.3,51.3,0,0,1-56.3-3.5,45.9,45.9,0,0,1-18.4-36.5c0-25.8,22-46.8,49.2-46.8S1291.8,2281.5,1291.8,2307.4Z"/><path class="cls-7" d="M1536.3,2460.4h-81.5a23.9,23.9,0,0,0-2.6-5.9c-11-21-27.6-36.6-48.2-45a73.5,73.5,0,0,0,6.2-10.1,70.2,70.2,0,0,0,7.4-39.5,62.7,62.7,0,0,0,46.3-.1,59.7,59.7,0,0,0,18.9-12.1c24.5,8.6,40.5,31.9,44.9,61.5Z"/><path class="cls-7" d="M1489.9,2307.4a45.9,45.9,0,0,1-18.4,36.5,51.3,51.3,0,0,1-56.3,3.5,70.2,70.2,0,0,0-3.1-8.5,72.4,72.4,0,0,0-16.4-23.1l-3.9-3.4a44.6,44.6,0,0,1-.3-5c0-25.8,22-46.8,49.2-46.8S1489.9,2281.5,1489.9,2307.4Z"/><path class="cls-7" d="M1463.9,2563.8H1219.4l11-65a117.9,117.9,0,0,1,11.9-37.6l.2-.3c10.1-19,25.6-33.3,45.3-40.2h0l4.2,3.7.5.4.6.5.7.5.7.5.7.5a77.2,77.2,0,0,0,16.5,9.1h.2a77.1,77.1,0,0,0,8.5,2.9l.7.2.7.2h.7l.8.2.2.2c3.8.9,7.6,1.9,11.5,1.9h6.8c2.3,0,4.5-.2,6.8-.4h0a79.6,79.6,0,0,0,9.5-1.4h0l2.1-.5,2.2-.5,1.2-.3h.3l3.4-1.1,2.1-.7,2.1-.8a76.3,76.3,0,0,0,24.1-15.4h0c19.9,7,35.4,21.3,45.5,40.5a118.8,118.8,0,0,1,11.9,37.8Z"/><path class="cls-7" d="M1404.5,2367.2c0,18.9-9.2,35.7-23.5,46.7a64.2,64.2,0,0,1-30.4,12.6,66.8,66.8,0,0,1-18,0,64.2,64.2,0,0,1-30.4-12.6c-14.3-11-23.5-27.8-23.5-46.7a57.2,57.2,0,0,1,2.4-16.4c7.5-25.1,31.7-43.4,60.5-43.4s53,18.3,60.5,43.4A57.2,57.2,0,0,1,1404.5,2367.2Z"/><path class="cls-8" d="M1135.6,1738.4l5.7,1.3a10,10,0,0,1,3.1,1.2l9.4,5.8,1.5,1.1,13.2,12.1.8.9,17.3,20.1,15.9,19.9.7.9,8.9,14.2a10,10,0,0,1,1.2,3l1.9,7.9a10,10,0,0,1,0,4.8h0a10,10,0,0,1-3.6,5.5l-9.9,7.7-.5.4-13.9,9.4a10,10,0,0,0-4.3,6.5l-1.7,9.5a10,10,0,0,0,.1,4.2l4.9,19.8a10,10,0,0,0,1.2,2.8l16.7,27.5.4.6,25.7,35.9.7.9,28.3,31.1,1,1,23,19a10,10,0,0,0,2.8,1.6l14,5.4a10,10,0,0,0,6.4.3l9.1-2.6a10,10,0,0,0,4.3-2.6l12.1-12.3,1.3-1.1,1.3-1a10,10,0,0,1,8.6-1.5l4.2,1.2a10,10,0,0,1,2.3,1l12.7,7.4a10,10,0,0,1,1.8,1.4l17.6,16.6.5.5,17,18.4.7.9L1411,2062l.8,1.4,4.1,8.1a10,10,0,0,1,1,6.1l-.5,2.8a10,10,0,0,1-3.9,6.4l-17.6,13.1a10,10,0,0,1-2,1.1l-26.9,12.3a74.3,74.3,0,0,1-13.5,4.1l-8.6.8a25.2,25.2,0,0,1-7,0,54.2,54.2,0,0,1-10.1-2.3l-.7-.3-17.6-7.2c-.8-.3-5.2-2.6-5.8-3l-35.3-23.6-1.1-.9-41.6-38.4-.7-.7-40-44.6-.6-.8-31.5-43.2-.5-.7-24.2-39.6-.7-1.4-15.6-38.2a10,10,0,0,1-.5-1.4l-8.4-33.7-.2-.9-4.1-27.6a10,10,0,0,1-.1-2.1l1.3-20.9a10,10,0,0,1,.6-2.8l4.7-13.1a10,10,0,0,1,1.5-2.8l14.1-18.1a10,10,0,0,1,2.1-2l13.4-9.4Z"/><path class="cls-8" d="M1159,1715.2h6.2a5,5,0,0,1,1.9.4l8.6,3.5a5,5,0,0,1,1.7,1.1l9.3,9.5,13.1,13.2,12.8,12.8.6.7,9.8,14.2,10.5,16,8.2,13.9a5,5,0,0,1,.6,1.5l2.2,10a5,5,0,0,1-1,4.2l-4.9,6a5,5,0,0,1-1.9,1.4l-6,2.6a5,5,0,0,1-5.2-.8h0a5,5,0,0,1-1.4-1.9l-2.3-5.9-.3-.7-5.6-9.8-7.1-11.5-.3-.4-8.7-11.5-8.7-11.6-.2-.2-8.4-10-.3-.4-8.5-8.3-.3-.3-8.5-7.1-.4-.3-6.4-6.6a5,5,0,0,0-1.4-1l-7.3-3.6a5,5,0,0,1-1.3-1l-1.5-1.5a5,5,0,0,1-1.2-5.1v-.3a5,5,0,0,1,1.2-1.9l4.7-4.7,1-.8,6.7-4Z"/><path class="cls-8" d="M1446.6,2053.8l-1.4-8.2-.2-.8-2.7-7.8a5,5,0,0,0-.6-1.2l-6.6-9.5-.3-.4-8.7-9.9-11.5-13.1-.5-.5-12.7-11.1-.3-.3-15.4-11.4-.9-.5-14.8-6.7-1.5-.4-10.5-1.1a5,5,0,0,0-3.7,1.1l-6.2,5.1a5,5,0,0,0-1.3,1.7l-2.3,4.9a5,5,0,0,0,1,5.7l1.4,1.4,1,.8,6.7,4,10.2,5.6.5.3,9.5,6.8.7.6,8.5,8.7,8.8,8.6,8.5,8.5.3.3,8.5,10.1.3.4,5.6,8.4,5.6,8.3a5,5,0,0,1,.6,1.2l2.4,7.5a5,5,0,0,0,.6,1.2h.1a5,5,0,0,0,6.3,1.7l4-1.9a5,5,0,0,0,1.6-1.3l6.1-7.3a5,5,0,0,0,.9-1.7l2.6-7.9Z"/><path class="cls-7" d="M1389.3,2678.7c-2.8-8-31.8-3.3-33.4,5.8l33.6,102.8Z"/><path class="cls-7" d="M1389.6,2895.9c2.8,8,31.8,3.3,33.4-5.8l-33.6-102.8Z"/><path class="cls-7" d="M1342.2,2689.5c-6.1-6-30.1,10.8-27.6,19.7l74.9,78.1Z"/><path class="cls-7" d="M1436.7,2885.1c6.1,6,30.1-10.8,27.6-19.7l-74.9-78.1Z"/><path class="cls-7" d="M1304.4,2719.7c-8.1-2.8-22.4,22.8-16.3,29.7l101.3,37.9Z"/><path class="cls-7" d="M1474.5,2854.9c8.1,2.8,22.4-22.8,16.3-29.7l-101.3-37.9Z"/><path class="cls-7" d="M1283.5,2763.3c-8.5,1-10.3,30.3-1.8,33.9l107.7-9.8Z"/><path class="cls-7" d="M1495.4,2811.3c8.5-1,10.3-30.3,1.8-33.9l-107.7,9.8Z"/><path class="cls-7" d="M1283.6,2811.6c-7.2,4.6,3.9,31.7,13.1,31.3l92.8-55.6Z"/><path class="cls-7" d="M1495.3,2763c7.2-4.6-3.9-31.7-13.1-31.3l-92.8,55.6Z"/><path class="cls-7" d="M1304.6,2855.2c-4.5,7.2,17.2,26.9,25.4,22.5l59.5-90.3Z"/><path class="cls-7" d="M1474.3,2719.5c4.5-7.2-17.2-26.9-25.4-22.5l-59.5,90.3Z"/><path class="cls-7" d="M1342.4,2885.2c-.9,8.5,27.2,16.8,32.6,9.3l14.4-107.2Z"/><path class="cls-7" d="M1436.4,2689.4c.9-8.5-27.2-16.8-32.6-9.3l-14.4,107.2Z"/><polygon class="cls-7" points="1375 2797.6 1329.7 2867.6 1304.2 3144.7 1345.7 3100.8 1378.5 3151.5 1407.3 2838.1 1375 2797.6"/><polygon class="cls-7" points="1411.7 3145.1 1441.3 3092.5 1485.4 3133.7 1436.1 2816.4 1379.2 2819.9 1385.6 2977 1411.7 3145.1"/><circle class="cls-7" cx="1389.4" cy="2787.3" r="96"/><path class="cls-7" d="M3864.2,2656.1v131.1c0,18.6-14.7,34.2-33.3,34.2h-318c-18.6,0-33.7-15.5-33.7-34.2V2656.1h170.8a71.5,71.5,0,0,0-8.2,14.5,72.9,72.9,0,0,0-5.2,19.4,74.7,74.7,0,0,0,.4,21.2l.3,1.8c.1.3,0,.6.1.9s1.2,3.6,1.2,5.4h0c.7.6.4,1.2.6,1.8l.6,1.8c.6,1.7,1.4,3.5,2.1,5.2a71.3,71.3,0,0,0,4.1,8h0c0,1.3,1.4,2.5,2.2,3.8s1.8,2.9,2.9,4.3.9.9.9,1.4h0c0,.5.7.9,1.5,1.4h0a1.3,1.3,0,0,1,.7,1.3h0c1.5.7,1.5,1.3,2.1,2s1.6.9,1.6,1.3h0c0,1.1,2,2.1,3.1,3.1l2,1.7,1.3,1.1,1.4,1.1.7.5a73.2,73.2,0,0,0,9,5.6l.8.4,1.6.8,3.3,1.5a73.8,73.8,0,0,0,96.8-96.7,71.5,71.5,0,0,0-8.2-14.5Z"/><path class="cls-7" d="M3864.2,2604.1V2648H3763.8c-.6-1.5-1.1-.8-1.7-1.4a75.1,75.1,0,0,0-104.4,0c-.6.6-1.2-.1-1.7,1.4H3479.3v-43.9a32,32,0,0,1,32.2-32.1h320.8A31.6,31.6,0,0,1,3864.2,2604.1Z"/><path class="cls-7" d="M3764.9,2699.5q0,2.1-.2,4.3A55.5,55.5,0,0,1,3724,2753l-2,.5-1.3.3-1.4.3a55.9,55.9,0,0,1-6.3.8h-3.6a55.5,55.5,0,0,1-55.3-51.2q-.2-2.1-.2-4.3t.1-4.1a55.1,55.1,0,0,1,6.2-21.7c.1-.2-.2-.5-.1-.7a4.4,4.4,0,0,0,.7-2h0c0-.7,1.3-1.3,1.7-1.9s.8-.9,1.1-1.3a56.6,56.6,0,0,1,22.5-18.7,55.7,55.7,0,0,1,46.4,0l1.5.7a55.4,55.4,0,0,1,9.9,6.4h0a55.7,55.7,0,0,1,10.9,11.6l.8,1.3c.4.6,1.1,1.3,1.1,1.9h0c0,.7.8,1.3,1.2,2l.4.7a55.1,55.1,0,0,1,6.2,21.7C3764.9,2696.7,3764.9,2698.1,3764.9,2699.5Z"/><path class="cls-7" d="M3744.1,2656.1a55.4,55.4,0,0,0-9.9-6.4,71.8,71.8,0,0,1,9.9,6.4h0Z"/><polygon class="cls-7" points="3634.3 2542.2 3550 2542.2 3507.9 2583.9 3676.4 2583.9 3634.3 2542.2"/><path class="cls-7" d="M3963.1,2110.4s-.1-43.8-39.6-72.2c0,0-22-18.9-61.9-19.1s-61.8,19.1-61.8,19.1c-39.4,28.4-39.5,72.2-39.5,72.2-4.6,35.8,35.8,98.7,35.8,98.7,21.8,32,27.4,73.3,27.4,73.3h76.3s5.7-41.3,27.4-73.3C3927.3,2209.1,3967.7,2146.3,3963.1,2110.4Z"/><path class="cls-7" d="M3898.8,2289.1h-74.3c-1.5,0-2.9,2.1-2.9,3.6v8.5c0,1.5,1.4,3.5,2.9,3.5h6.1v6.7h-2.7a1.7,1.7,0,0,0-1.8,1.9v4c0,1.1.6,1.5,1.8,1.5h2.7v8.2h-2.7a1.5,1.5,0,0,0-1.8,1.7v4c0,1.1.6,2.5,1.8,2.5h2.7v7.4h-2.7c-1.1,0-1.8.3-1.8,1.4v4c0,.3-.2.6,0,.6h-1s-2.5,2.5,3.8,7.1,27.4,13.1,27.4,13.1a14.4,14.4,0,0,0,6.3,1.6v-.3h0v.3a13.2,13.2,0,0,0,6-1.7s20.8-8.7,27-13.5,3.2-6.2,3.2-6.2h-1.4a2,2,0,0,0,.3-1.1v-4c0-1.1-.8-1.4-1.9-1.4h-1v-7.4h1c1.1,0,1.9-1.4,1.9-2.5v-4c0-1.1-.8-1.7-1.9-1.7h-1v-8.2h1c1.1,0,1.9-.4,1.9-1.5v-4a1.9,1.9,0,0,0-1.9-1.9h-1v-6.7h4.2c1.5,0,2.5-2,2.5-3.5v-8.5C3901.4,2291.2,3900.3,2289.1,3898.8,2289.1Z"/><path class="cls-7" d="M2858.4,3785.4v-34c0-6.1-5.4-11.3-12.5-11.3H2696.1c-7.2,0-13.4,5.2-13.4,11.3v204.4c0,6.1,6,10.5,13.2,10.5l.2-.6h149.6v1.1c6.7,0,12.1-4.3,12.8-9.9a9.3,9.3,0,0,0-.1-1.1V3785.4Zm-148.9.1h87.8v3.7h-87.8Zm0,21.6h78.2v3.7h-78.2Zm0,9.7h102.7v4.5H2709.5Zm0,8.9h116.1v2.2H2709.5Zm0,8.9h90.1v4.5h-90.1Zm0,9.7h110.9v3.7H2709.5Zm0,20.1h78.2v3h-78.2Zm0,8.9h102.7v4.5H2709.5Zm0,18.6h90.1v4.5h-90.1Zm110.9,32H2709.5v-3.7h110.9Zm0-9.7H2709.5v-4.5h110.9Zm0-9.7H2709.5v-3h110.9Zm5.2-17.9H2709.5v-4.5h116.1Zm3.7-29H2709.5v-4.5h119.9Zm0-57.3H2709.5v-3.7h119.9Z"/><line class="cls-7" x1="2858.7" y1="3785.4" x2="2858.7" y2="3785.4"/><line class="cls-7" x1="2815.2" y1="3740.1" x2="2815.2" y2="3742.3"/><path class="cls-7" d="M2870.9,1352l194.7,144.1a18.7,18.7,0,0,0,21.3,0l194.8-143.6Z"/><path class="cls-7" d="M3010.1,1470.8,2875,1597.3a23.9,23.9,0,0,1-3.2-12.4V1368.1Z"/><path class="cls-7" d="M3130.7,1479.9l136.4,127.4a28.6,28.6,0,0,1-12.8,2.9H2898.2a28.7,28.7,0,0,1-11.7-2.4l136.3-127.3,53.6,39.7Z"/><path class="cls-7" d="M3282,1368.1v216.7a24.2,24.2,0,0,1-3.1,11.5L3144,1470.2Z"/><path class="cls-7" d="M1341.4,1581.3l-.9-1h-.1a72.6,72.6,0,0,0-100.8-1.5l-1.1,1.1-.6.6a72.6,72.6,0,1,0,103.6,1Zm-40.9,120.5a70.1,70.1,0,0,1-8,.8h-6.7a70.1,70.1,0,0,1-8-.8,71.2,71.2,0,0,1-59.7-69.4c0-.3,0-.5,0-.8s0-.5,0-.8a70.8,70.8,0,0,1,21.4-50l1.1-1.1a70.9,70.9,0,0,1,37.2-18.3,70.1,70.1,0,0,1,8-.8h6.7a70.1,70.1,0,0,1,8,.8,70.9,70.9,0,0,1,38.7,19.8l1.1,1.1a70.8,70.8,0,0,1,19.9,48.5c0,.3,0,.5,0,.8s0,.5,0,.8A71.2,71.2,0,0,1,1300.5,1701.8Z"/><path class="cls-7" d="M1289.1,1707.5a75.9,75.9,0,0,1-53.6-129.5l.6-.6,1.2-1.1a75.8,75.8,0,0,1,105.3,1.6l.2.2,1,1h0a75.9,75.9,0,0,1-54.6,128.5Zm0-143.6h-3.2a67.4,67.4,0,0,0-43.1,18.2l-1.1,1a67.3,67.3,0,0,0-20.4,47.7c0,.2,0,.5,0,.7s0,.5,0,.7a67.7,67.7,0,0,0,64.6,67c2.1.1,4.3.1,6.4,0a67.2,67.2,0,0,0,7.6-.8h0a67.6,67.6,0,0,0,56.9-66.2c0-.2,0-.5,0-.7s0-.5,0-.7a67.5,67.5,0,0,0-19-46.3l-1-1.1a67.5,67.5,0,0,0-44.5-19.6Z"/><path class="cls-7" d="M1342.6,1580.1l-1-1-.2-.2-1.2-1.1-1.2,1.1-1.1,1.1a69.7,69.7,0,0,1-13.3,9.8l-1.3.7a68.6,68.6,0,0,1-21,7.2l-1.5.2a69.8,69.8,0,0,1-23.6-.5l-1.5-.3a68.8,68.8,0,0,1-20.5-8l-1.3-.8a69.9,69.9,0,0,1-12.4-9.8l-1.1-1.1-1.2-1.2-1.2,1.1-1.2,1.1-1.2,1.2,1.2,1.2,1,1h.1a74.9,74.9,0,0,0,13.5,10.6l1.4.8a73.2,73.2,0,0,0,21.9,8.5l1.5.3a75.4,75.4,0,0,0,25,.5l1.5-.2a73.3,73.3,0,0,0,22.4-7.7l1.4-.8a74.5,74.5,0,0,0,14.4-10.6l1.2-1.1,1.2-1.2Z"/><path class="cls-7" d="M1342.6,1680.8l-1.2-1.1a74.5,74.5,0,0,0-14.4-10.6l-1.4-.8a73.3,73.3,0,0,0-22.4-7.7l-1.6-.2a75.4,75.4,0,0,0-25,.5l-1.5.3a73.2,73.2,0,0,0-21.9,8.5l-1.4.8a74.9,74.9,0,0,0-13.5,10.6l-.2.2-1,1-1.2,1.2,1.2,1.2,1.2,1.1,1.2,1.1,1.2-1.2,1.1-1.1a69.9,69.9,0,0,1,12.4-9.8l1.3-.8a68.8,68.8,0,0,1,20.5-8l1.5-.3a69.8,69.8,0,0,1,23.6-.5l1.5.2a68.6,68.6,0,0,1,21,7.2l1.3.7a69.7,69.7,0,0,1,13.3,9.8l1.1,1.1,1.2,1.1,1.2-1.1.2-.2,1-1,1.2-1.2Z"/><path class="cls-7" d="M1316.6,1579.6c-7.3-14.3-17-22.2-27.5-22.2s-20.2,7.9-27.5,22.2-10.9,32.4-10.9,52,3.9,38.1,10.9,52,17,22.2,27.5,22.2,20.2-7.9,27.5-22.2,10.9-32.4,10.9-52S1323.7,1593.5,1316.6,1579.6ZM1289.1,1701c-9,0-17.5-7.1-24-20s-10.3-30.7-10.3-49.4,3.7-36.2,10.3-49.4,15-20,24-20,17.5,7.1,24,20,10.3,30.7,10.3,49.4-3.7,36.2-10.3,49.4S1298.1,1701,1289.1,1701Z"/><path class="cls-7" d="M1360.9,1629.5H1217.3a2.3,2.3,0,1,0,0,4.7h143.6a2.3,2.3,0,1,0,0-4.7Z"/><path class="cls-7" d="M1291.8,1703.6V1559.9a2.5,2.5,0,0,0-5.1,0v143.6a2.5,2.5,0,0,0,5.1,0Z"/><path class="cls-7" d="M2472,1307.9h0c0-5.3,4.1-9,9.3-9h24.9v-11.9h-24.9a9.7,9.7,0,0,1,0-19.4h24.9v-11.9h-24.9a9.5,9.5,0,0,1-9.4-9.6h.1v.7c0-5.3,4.2-8.8,9.4-8.8h22.1c-7.7-27.5-31.9-45.5-60.7-45.5s-53,18-60.7,45.5H2405c5.3,0,9.6,3.6,9.6,8.8v-.7h-.1a9.7,9.7,0,0,1-9.6,9.6h-26v11.9h26a9.7,9.7,0,0,1,0,19.4h-26V1299h26c5.3,0,9.8,3.7,9.8,9h0c0,5.2-4.5,10.4-9.8,10.4h-26v3.5c0,34.9,28.7,63.3,63.7,63.3s63.7-28.3,63.7-63.3v-3.5h-24.9C2476.1,1318.4,2472,1313.2,2472,1307.9Z"/><path class="cls-7" d="M2442.6,1507.4h0a9.7,9.7,0,0,1-9.7-9.7v-76.1a9.7,9.7,0,0,1,9.7-9.7h0a9.7,9.7,0,0,1,9.7,9.7v76.1A9.7,9.7,0,0,1,2442.6,1507.4Z"/><path class="cls-7" d="M2442.8,1407.7a84.8,84.8,0,0,1-84.8-84.8h-18.1a102.9,102.9,0,1,0,205.9,0h-18.1A84.8,84.8,0,0,1,2442.8,1407.7Z"/><rect class="cls-7" x="2391.1" y="1495.7" width="102.9" height="17.54" rx="8.8" ry="8.8"/><path class="cls-7" d="M1775.2,1389.9v-4.5l-3,.7c-17.2,3.5-65.2,4.8-65.2,4.8v5l-3,.5a28.6,28.6,0,0,0-22.5,27.9v6.6a28.6,28.6,0,0,0,22.6,28l3,.5v3.9h1.2l6.3.2-8.3,64.3c-1.5,11.8,6.3,12,11.5,12l16.8-.5c2.6,0,8-1.7,8.6-9.9l5.2-64.2a223.9,223.9,0,0,1,23.9,2.6l3,.7V1464c39.3,7.6,100.5,22.5,132.5,46.3l.3-83v-83C1876.1,1367.9,1814.5,1382.6,1775.2,1389.9Z"/><path class="cls-7" d="M3554,3654.4a70.2,70.2,0,0,1-43.2,64.8,37.7,37.7,0,0,1-19.5,5.4H3281a36.9,36.9,0,0,1-5.1-.4,70.2,70.2,0,0,1-2.8-139.3,59.5,59.5,0,0,1,85.5-42.2,84.4,84.4,0,0,1,147.7,33.4,24.8,24.8,0,0,1,21.8,24A70,70,0,0,1,3554,3654.4Z"/><path class="cls-7" d="M2192.8,3812.9a15,15,0,1,0-1.7,1.2Z"/><path class="cls-7" d="M2242.5,3772.9a15,15,0,0,0,16.2,11.1l2-.4a15,15,0,1,0-18.2-10.8Z"/><polygon class="cls-7" points="2243.3 3822.7 2247.6 3842.1 2245.5 3845.2 2262.9 3848 2267.3 3856.9 2262.8 3831.3 2262.8 3831.3 2243.3 3822.7"/><path class="cls-7" d="M2270.6,3963.6v.4c1.3,3.5,5.8,9.6,9.6,8.7s5.3-8.6,4.8-12.3v-.4l-6.3-36.8-39.9-54.1Z"/><path class="cls-7" d="M2250.4,3743.6a26.4,26.4,0,0,0-19,32.2l12,47h0l-4.1-19,18.3-4.6,5.5,32.2-3.1-35.9,3.6-.7a26.4,26.4,0,1,0-13.2-51.1Zm21.1,21.8a15,15,0,0,1-10.8,18.2l-2,.4a15,15,0,1,1,12.8-18.6Z"/><polygon class="cls-7" points="2239.4 3803.8 2243.3 3822.7 2262.8 3831.3 2262.8 3831.3 2257.5 3799.2 2239.4 3803.8"/><path class="cls-7" d="M2301,3953.3l.2.3c2.3,3,8.8,6.8,12.1,4.8s2.1-9.2.4-12.6l-.2-.3-46.1-88.6,11.3,66.3Z"/><polygon class="cls-7" points="2245.5 3845.2 2241.9 3844.7 2231.3 3828.7 2224 3849.1 2238.8 3869.1 2235.6 3859.5 2245.5 3845.2"/><path class="cls-7" d="M2245.5,3845.2l-9.9,14.3,3.2,9.6,39.9,54.1-11.3-66.3-4.6-8.8Zm13.4,12.6a7.3,7.3,0,1,1-10-2.3A7.3,7.3,0,0,1,2258.9,3857.9Z"/><path class="cls-7" d="M2220.2,3812l11.1,16.6h0l-25.7-41.1a26.4,26.4,0,1,0-8.4,36.4,26,26,0,0,0,3-2.2l23.8,27.4h0l-19.9-27Zm-49.7-2.6a15,15,0,1,1,22.3,3.6l-1.7,1.2A15,15,0,0,1,2170.5,3809.4Z"/><polygon class="cls-7" points="2220.2 3812 2204.1 3822.1 2224 3849.1 2231.3 3828.7 2220.2 3812"/><path class="cls-7" d="M1092.5,2348.7l-2.5-1.3h0l.4-.4.2-.2.4-.3.2-.2.4-.4.3-.3.2-.2.3-.3.2-.2.3-.4c0-.1-.1-.2,0-.3s.1-.5.2-.7l.9-1.7c1.9-3.7,1.1-7.4-1.9-8.9l-11.6-6,59.2-115.6a25.9,25.9,0,0,0,20.2-16.6l11.9-34.7,1.4-4.2-28.2-14.4-2.5,3.6-20.4,30.5c-6,8.8-5.9,18.6-2,25.9L1060.7,2317l-12.7-6.5c-3-1.5-6.9-.3-8.8,3.4l-.9,1.7c-.1.2-.1.5-.2.7s0,.2,0,.2v1.4h0a8.7,8.7,0,0,0-.2,1h0v.5h0c0,.1,0,.2,0,.2v.6l-1.8-.9a3.7,3.7,0,0,0-4.9,1.8L960,2459.2c-8.4,16.4-4.8,36.1,8.3,42.8l15.4,7.9c13.1,6.7,31.1-1.9,39.5-18.3l70.6-137.9A3.6,3.6,0,0,0,1092.5,2348.7Zm-54.9-28.7h0Zm-53.2,153.5c-2.1,4.1-6.6,6.1-9.9,4.4s-4.4-6.5-2.2-10.6l64.3-125.7c2.1-4.1,6.6-6.1,9.9-4.4s4.4,6.5,2.2,10.6Zm27.4,14c-2.1,4.1-6.4,6.2-9.7,4.5s-4.2-6.4-2.1-10.5l64.3-125.7c2.1-4.1,6.4-6.2,9.7-4.5s4.2,6.4,2.1,10.5Z"/><path class="cls-7" d="M1747.6,3683.5h0c-25.8-22.9-60.2-27.7-82.8-12.9l40.5,26c5.6,3.6,8,10.6,5.3,15.6l-12.2,22.7c-2.7,5-9.4,6.1-15,2.5l-40.5-25.9c-.7,20,8.5,42.2,26.5,59.2a90.6,90.6,0,0,0,13.5,10.5h.1a38.8,38.8,0,0,0,8.9,4.8,34.8,34.8,0,0,0,9.5,2.2h0a44.2,44.2,0,0,0,6,.1c5.6,0,13.7.2,18.7.8,8.1,1,19.3,5.7,19.3,5.7l164.8,155.5c11.4,10.8,28.1,11.6,37.2,2.1s7.2-26.2-4.2-37l-164.8-155.5s-11.4-12-13.1-25-2.1-23.3-2.1-23.3h0a34.6,34.6,0,0,0-6.5-18.8A39.2,39.2,0,0,0,1747.6,3683.5Zm184.7,235.6c6.5,6.2,7.6,15.6,2.4,21.1s-14.7,5-21.2-1.2l-138.8-131c-6.5-6.2-7.6-15.6-2.4-21.1s14.7-5,21.2,1.2Z"/><path class="cls-7" d="M2728.3,1258.7l-32.4-81.9a5.6,5.6,0,0,0-7.4-3.4l-7.5,3-119.1,47.1-10.3,4.1a5.8,5.8,0,0,0-3.3,7.6l32.4,81.9a13,13,0,0,0-2.6,13.4l94.7,239.5a10.4,10.4,0,0,0,13.4,5.8l142.2-56.2a10.2,10.2,0,0,0,5.7-13.3l-94.7-239.5A12.1,12.1,0,0,0,2728.3,1258.7ZM2685,1198l17.4,44.1-22.5,8.9-17.4-44.1Zm-111.7,44.2,22.1-8.7,17.4,44.1-22.1,8.7Zm177.9,140.5-8.8,3.5,12.3,31.2a12.6,12.6,0,0,1-1.2,11.7h0l-26.6,35.3,6.4,16.2a17.7,17.7,0,1,1-4.4,1.7l-.9-2.2-43.2-9.7a13.8,13.8,0,0,1-9.8-8.4l-5.8-14.6a15.6,15.6,0,1,1,4.9-1.9l5.8,14.6a8.5,8.5,0,0,0,6.1,5.1l39.7,8.8-50.5-127.7-14.3,5.7,5.1-34.4,27.3,21.6-13.6,5.4,45,113.9,24.6-32.6a7.3,7.3,0,0,0,.7-6.7l-12.3-31.2-8.8,3.5-9.1-23,22.5-8.9Z"/><path class="cls-7" d="M1307.7,3370.8c8.3-4.2,15.1-10.3,21-17.8,2.4-.7,4.7-1.5,7-2.3,58.8-22,59.3-88,59.3-88,0-8.8-8.4-11-8.4-11h-27.9c.8-10.4.6-18.1.6-18.1,0-7.2-8.4-8.7-8.4-8.7H1239.6s-8.4,1.5-8.4,8.7c0,0-.1,7.7.6,18.1h-26s-8.3,2.2-8.3,11c0,0,.5,62.8,55.3,86.3,2.8,1.2,5.7,2.3,8.7,3.3,6,7.8,13,14.2,21.6,18.5,0,0,6.9,1.9,6.1,7.5v6.6s.1,19.5-41.2,27.5a5.4,5.4,0,0,0-1.9.4h0a6,6,0,0,0,2.1,11.6h94.5a6.1,6.1,0,0,0,6.1-6,5.9,5.9,0,0,0-3.7-5.6h-.2a4.8,4.8,0,0,0-1.8-.4c-41.4-8-41.2-27.5-41.2-27.5v-6.6C1301,3372.6,1307.7,3370.8,1307.7,3370.8Zm50-107.1h16.3c9.4.7,8.1,8.1,8.1,8.1-5,35.5-21.5,52.5-36.1,60.7a61.7,61.7,0,0,1-6.9,3.3C1350.7,3312.8,1355.6,3286,1357.8,3263.6ZM1242.2,3330c-13.5-9-27.5-26-32.1-58.2,0,0-1.3-7.4,8.1-8.1h14.5c2.1,21.6,7,48.3,18,71.1A61.7,61.7,0,0,1,1242.2,3330Z"/><path class="cls-7" d="M1596.1,1426.8c-31.9,44.5-29.1,61.6,15.2,93.7-44.4-32-61.5-29.2-93.4,15.2,31.9-44.4,29.1-61.6-15.2-93.7C1547.1,1474.1,1564.2,1471.3,1596.1,1426.8Z"/><path class="cls-7" d="M1215.2,2911.3c-31.9,44.5-29.1,61.6,15.2,93.7-44.4-32-61.5-29.2-93.4,15.2,31.9-44.4,29.1-61.6-15.2-93.7C1166.1,2958.6,1183.3,2955.8,1215.2,2911.3Z"/><path class="cls-7" d="M3020.8,3774.5c-31.9,44.5-29.1,61.6,15.2,93.7-44.4-32-61.5-29.2-93.4,15.2,31.9-44.4,29.1-61.6-15.2-93.7C2971.7,3821.8,2988.9,3819,3020.8,3774.5Z"/><polygon class="cls-7" points="4054.1 2872.6 4053.9 2872.6 4006 2872.5 3964.4 2872.5 3964.4 2920.5 4054 2920.5 4054.1 2872.6"/><path class="cls-7" d="M3976.6,2836l-.2-8.1s-12.2-.9-20.6-15.5l-39-79.2s-2.3-4.4-2.2-7.1c0,0-.5-8.7,7.2-12.8,0,0,7.7-2.8,12.9,3,0,0,3.9,2.8,7.7,10.9l8.7,15.7,4.1,6.5-1.6-65.4-1.3-62s1.8-10.5,8.3-13c0,0,7.4-3,11.8,1.6a14.6,14.6,0,0,1,6.1,11.4l1,39.3,1.3,74.6s-.2-27.3,1.3-31.6c0,0,4.1-11.2,13.1-10.3a13.8,13.8,0,0,1,13.1,8.5s3.6,4.3,2.2,18.5l.5,14.5s-.9-24.2.3-26.2,2.7-8.7,12.3-9.2a13.6,13.6,0,0,1,11.8,8.5s1.3.4,1.5,8.1l.8,15.9s-.9-16,.1-17.3,3.1-8.3,9-8.5c0,0,6.7-2.3,10.7,3.8,0,0,3.8,2.3,3.7,12.2l-.6,46.5s-1.7,39.3-17.1,56.4v8.5Z"/><rect class="cls-7" x="3987" y="2802.3" width="44.6" height="100.48" rx="9.6" ry="9.6" transform="translate(1152.1 6858.4) rotate(-89.9)"/><polygon class="cls-7" points="1137.5 3234.4 1137.3 3234.4 1089.4 3234.3 1047.8 3234.3 1047.7 3282.2 1137.4 3282.2 1137.5 3234.4"/><path class="cls-7" d="M1060,3197.8l-.2-8.1s-12.2-.9-20.6-15.5l-39-79.2s-2.3-4.4-2.2-7.1c0,0-.5-8.7,7.2-12.8,0,0,7.7-2.8,12.9,3,0,0,3.9,2.8,7.7,10.9l8.7,15.7,4.1,6.5-1.6-65.4-1.3-62s1.8-10.5,8.3-13c0,0,7.4-3,11.8,1.6a14.6,14.6,0,0,1,6.1,11.4l1,39.3,1.3,74.6s-.2-27.3,1.3-31.6c0,0,4.1-11.2,13.1-10.3a13.8,13.8,0,0,1,13.1,8.5s3.6,4.3,2.2,18.5l.5,14.5s-.9-24.2.3-26.2,2.7-8.7,12.3-9.2a13.6,13.6,0,0,1,11.8,8.5s1.3.4,1.5,8.1l.8,15.9s-.9-16,.1-17.3,3.1-8.3,9-8.5c0,0,6.7-2.3,10.7,3.8,0,0,3.8,2.3,3.7,12.2l-.6,46.5s-1.7,39.3-17.1,56.4v8.5Z"/><rect class="cls-7" x="1070.4" y="3164" width="44.6" height="100.48" rx="9.6" ry="9.6" transform="translate(-2122.9 4303.2) rotate(-89.9)"/><path class="cls-7" d="M3879.5,1798.2a31.4,31.4,0,0,0-6.2-18.8,31,31,0,0,0-7.2-7,31.5,31.5,0,0,0-18.3-5.8H3724a31.6,31.6,0,0,0-31.7,31.7v133a31.6,31.6,0,0,0,6.2,18.8,31.9,31.9,0,0,0,7.2,7,31.5,31.5,0,0,0,18.3,5.8h123.9a31.7,31.7,0,0,0,31.7-31.7Zm-93.6,123.5a57,57,0,1,1,57-57A57,57,0,0,1,3785.9,1921.8Z"/><polygon class="cls-7" points="3770.4 1891.6 3816.9 1864.8 3770.4 1837.9 3770.4 1891.6"/><path class="cls-7" d="M3626.7,1948a212.8,212.8,0,0,1-53.3,171.2l-1.4,1.6a213.4,213.4,0,0,1-233.8,54.1l-4.9-2a213.6,213.6,0,0,1-130.5-215.3l.2-1.9a211.1,211.1,0,0,1,3.2-21.7q.5-2.7,1.1-5.3a212.7,212.7,0,0,1,16.1-45.8q3-6.2,6.5-12.2a214.1,214.1,0,0,1,24.7-34.8l2-2.2q3.5-3.9,7.1-7.5a212.5,212.5,0,0,1,60.3-42.8l2.1-1a212.9,212.9,0,0,1,61.1-17.6q7.3-1,14.5-1.4t16.7-.4a211.9,211.9,0,0,1,57.3,8.7l3.5,1.1a213.8,213.8,0,0,1,130.2,115.2,210.1,210.1,0,0,1,9.8,26l.6,2.2A214.6,214.6,0,0,1,3626.7,1948Z"/><path class="cls-7" d="M3415.6,1762.8h2.9a211.9,211.9,0,0,1,57.3,8.7l3.5,1.1a213.8,213.8,0,0,1,130.2,115.2,210.1,210.1,0,0,1,9.8,26l.6,2.2a215.3,215.3,0,0,1,7.8,78.8,211.8,211.8,0,0,1-11.4,52.4,214,214,0,0,1-43.1,72.1l-1.4,1.6a213.3,213.3,0,0,1-233.8,54.1l-4.9-2a213.6,213.6,0,0,1-130.5-215.3l.2-1.9a211.1,211.1,0,0,1,3.2-21.7q.5-2.7,1.1-5.3a212.7,212.7,0,0,1,16.1-45.8q3-6.2,6.5-12.2a214.1,214.1,0,0,1,24.7-34.8l2-2.2q3.5-3.9,7.1-7.5a212.5,212.5,0,0,1,60.3-42.8l2.1-1a212.9,212.9,0,0,1,61.1-17.6q7.3-1,14.5-1.4t13.8-.4m0-2.6c-4.6,0-9.3.2-14,.5s-9.7.8-14.7,1.4A215.6,215.6,0,0,0,3325,1780l-2.2,1a214.5,214.5,0,0,0-61,43.3c-2.5,2.5-4.9,5.1-7.2,7.6l-2,2.3a217,217,0,0,0-25,35.2c-2.3,4-4.5,8.2-6.5,12.4a215.6,215.6,0,0,0-16.3,46.3c-.4,1.8-.8,3.6-1.2,5.4a214.7,214.7,0,0,0-3.3,22l-.2,1.9a215.9,215.9,0,0,0,132,217.9l4.9,2A213.8,213.8,0,0,0,3415,2192a218.6,218.6,0,0,0,28.7-1.9,215,215,0,0,0,130.1-67.5l1.5-1.6a215.3,215.3,0,0,0,54-173.3,218,218,0,0,0-6.8-32.4l-.7-2.2a213.5,213.5,0,0,0-9.9-26.3A216.2,216.2,0,0,0,3480,1770.2l-3.5-1.1a214.6,214.6,0,0,0-58-8.8Z"/><path class="cls-7" d="M3610.6,1887.3a215,215,0,0,0-131-115.8c-7.5.7-14.6,3-20.5,8.9-9.1,8.9-3.5,22.6-2.6,33.7-12.9,2.4-36.3-.9-42.6,12-1.9,4-2.1,7.6-5.2,11.5a74.7,74.7,0,0,0-7.8,11.3c-1.6,2.9-2.2,5.1-5,6.2-1.1,12.7,23.7,3.6,31.1,2.6s21.4,1,27.7-3c3.6-2.3,3.4-9.1,6.7-10.5s7.5,5.1,9.9,7.5c5.2,5.4,9.4,6.6,16.6,6.1,5.1-.4,10.3-2.1,15.4-2.1s6.3,1.8,9.4,2.7c-3.2,2.1-4.4,7.5-8.3,9.3-5.8,2.7-15,3.3-21.3,4.4-8.4,1.4-8.2-3-14.2-6.8s-11-3.8-19.2-3.1c-12.9,1.1-37.3,2-46.6,11.6-4.5,4.7-2,10.4-6.2,15-7,7.5-22.4,8.2-26.6,18.1s2.2,25,4.4,33c3.3,11.9,4.4,22.4,17.5,25.6s26.8,1.8,39.2,2.5c6.8.4,14.8-2,17.9,4.9,1.5,3.4,1,8.5,2.3,12.1,2.6,7.7,8.7,10.5,15,15.1s6.5,8.4,7.7,17.2c1.7,12.8,3.9,19.9,10.3,30.9a45,45,0,0,1,5.6,16.3c1.3,9.9-.4,18.1-7,24.7s-15.5,17.1-7.9,27.1c8.2,4.4,23.2-1.7,29.5-7,10.9-9.2,19.4-14.9,33.1-19.6,24.7-8.5,6.7-31.1,13.4-49.5,2-5.4,7-8.6,9-13.7s1.7-13.5.8-19.9c-1.6-11.3-4.9-21.9-6.4-33.1s1.4-9.9,7.5-15.5,4.9-14.4,3.7-23.8c-.3-2.6-.7-5.2-1.1-7.7l-15.3-3.4c-3.1-.7-10.2-1-12.6-2.7-7.6-5.5-13.2-26-13.5-34.9,16-5.9,17.9,25.6,34.3,24.1,18.2-1.7,18.3-12.9,15.6-27.3-12.3,1-15.3,1.6-16.4-12.2,6-1.9,12.1,1.8,17.1,4.5,3.4,1.8,8.3,2.2,11.3,4.1,7.5,4.6,5.1,16.2,11.9,22.1a6.9,6.9,0,0,1,6.1,4.6c6.8,2.7,11.8,14.1,18.1,18.7a99.2,99.2,0,0,1-.3-10.5A211.3,211.3,0,0,0,3610.6,1887.3Z"/><path class="cls-7" d="M3479.6,1771.5a215,215,0,0,1,131,115.8,211.3,211.3,0,0,1,9.9,26.2,99.1,99.1,0,0,0,.3,10.5c-6.4-4.6-11.3-16-18.1-18.7a6.9,6.9,0,0,0-6.1-4.6c-6.7-5.9-4.4-17.5-11.9-22.1-3-1.9-8-2.2-11.3-4.1s-8.8-5-13.6-5a11.6,11.6,0,0,0-3.5.5c.8,10.5,2.8,12.6,9.1,12.6,2,0,4.4-.2,7.4-.4,2.7,14.4,2.6,25.6-15.6,27.3h-1.2c-14,0-17.1-24.8-29.4-24.8a11,11,0,0,0-3.8.7c.4,8.9,5.9,29.4,13.5,34.9,2.4,1.8,9.6,2.1,12.6,2.7l15.3,3.4c.5,2.5.8,5.1,1.1,7.7,1.2,9.4,3.5,17.3-3.7,23.8s-8.9,5-7.5,15.5,4.9,21.9,6.4,33.1c.9,6.4,1.6,13.8-.8,19.9s-7,8.3-9,13.7c-6.7,18.4,11.3,41-13.4,49.5-13.8,4.7-22.3,10.4-33.1,19.6-4.8,4.1-14.6,8.6-22.6,8.6a14.4,14.4,0,0,1-6.9-1.5c-7.6-10-.1-19,7.9-27.1s8.3-14.8,7-24.7a45,45,0,0,0-5.6-16.3c-6.4-11-8.6-18.1-10.3-30.9-1.2-8.8-1.1-12.4-7.7-17.2s-12.4-7.4-15-15.1c-1.2-3.6-.7-8.7-2.3-12.1s-5.8-5-10.1-5H3431c-12.4-.7-27,.5-39.2-2.5s-14.2-13.7-17.5-25.6c-2.2-8-8.1-24.3-4.4-33s19.6-10.5,26.6-18.1c4.3-4.6,1.7-10.3,6.2-15,9.3-9.6,33.7-10.5,46.6-11.6,3-.3,5.4-.5,7.7-.5a19.4,19.4,0,0,1,11.6,3.6c5.2,3.4,5.7,7.1,11.3,7.1l2.9-.3c6.2-1.1,15.5-1.7,21.3-4.4,3.9-1.9,5.1-7.2,8.3-9.3-3.1-.8-5.7-2.6-9.4-2.7h-.3c-5,0-10.2,1.6-15.1,2.1h-2.9c-5.5,0-9.2-1.6-13.7-6.2-2.1-2.1-4.5-7.9-8.2-7.9a4,4,0,0,0-1.6.4c-3.3,1.4-3,8.2-6.7,10.5s-10.5,2.6-16.9,2.6h-3a62.6,62.6,0,0,0-7.8.3c-4.4.6-15.1,4.1-22.7,4.1-5.1,0-8.9-1.6-8.4-6.7,2.9-1.1,3.4-3.3,5-6.2a74.7,74.7,0,0,1,7.8-11.3c3.1-3.9,3.3-7.5,5.2-11.5,6.3-12.9,29.6-9.7,42.6-12-.9-11.1-6.4-24.8,2.7-33.7,6-5.8,13.1-8.2,20.5-8.9m.3-2.6h-.5c-9.2.9-16.4,4-22.1,9.6-7.9,7.8-6.1,18.4-4.5,27.8.3,1.9.6,3.8.9,5.6-2.8.3-6,.5-9.3.7-12.9.7-27.5,1.5-32.7,12.4a37.1,37.1,0,0,0-1.8,4.6,19.7,19.7,0,0,1-3.1,6.5l-.5.6a73.5,73.5,0,0,0-7.5,11l-.9,1.6c-1.1,2.1-1.5,2.9-2.9,3.4l-1.5.6v1.6a8.1,8.1,0,0,0,1.9,6.4c1.9,2,4.8,3,9.1,3s11.8-1.6,17.1-2.8c2.5-.6,4.6-1.1,6-1.3a61,61,0,0,1,7.4-.3h3c7.1,0,13.9-.2,18.3-3,2.5-1.6,3.6-4.4,4.5-6.9s1.2-3.2,1.8-3.5h.6c1.3,0,3,2.6,4.2,4.2a21.9,21.9,0,0,0,2.2,2.9c4.9,5,9.3,7,15.5,7h3.1a67.3,67.3,0,0,0,6.7-1,46,46,0,0,1,8.2-1h.3a13.8,13.8,0,0,1,4.9,1.2l-1.2,1.7c-1.2,1.8-2.2,3.5-3.8,4.2-4,1.9-10.1,2.7-15.4,3.4l-5.2.8-2.5.2c-2.5,0-3.3-.9-5.2-2.7a27.4,27.4,0,0,0-4.7-4,22.1,22.1,0,0,0-12.9-4c-2,0-4.1.2-6.5.4h-1.4l-4.1.3c-14,1.1-35.1,2.7-44.2,12.1-2.9,3-3.4,6.2-3.9,9s-.8,4.3-2.3,6-6.8,4.6-11.2,6.5c-6.4,2.8-13.1,5.6-15.9,12.3-3.6,8.3.5,21.8,3.1,30.8l1.1,3.9,1,4c2.7,10.4,5.3,20.3,18.3,23.4,8.6,2.1,18.2,2.2,27.5,2.2,4.3,0,8.3.1,12.1.3h7.9c4.6,0,6.6.9,7.8,3.5a20.2,20.2,0,0,1,1.1,5.7,28.3,28.3,0,0,0,1.1,6.1c2.4,7.1,7.4,10.5,12.6,14.1l3.3,2.3c5.2,3.8,5.5,6.2,6.4,13.4l.3,2.1c1.8,13.8,4.2,20.9,10.6,31.9a42.3,42.3,0,0,1,5.2,15.4c1.3,9.8-.7,16.9-6.2,22.5s-17.7,17.8-8.1,30.4l.3.4.5.3a16.9,16.9,0,0,0,8.1,1.8c8.7,0,19-4.7,24.2-9.2,10.3-8.8,18.6-14.4,32.3-19.2,7.8-2.7,12.5-7.1,14.3-13.3s.8-11.3,0-17.6-1.7-13.9.6-20.1a22.6,22.6,0,0,1,4.2-6.4,26.6,26.6,0,0,0,4.7-7.2c2.6-6.7,1.9-14.5.9-21.2s-2-11.3-3.2-16.6-2.5-10.9-3.2-16.5-.1-7.7,3.4-10.5l3.3-2.8c7.3-6.7,6.1-14.5,4.9-22.7l-.5-3.3v-.8c-.3-2.3-.6-4.8-1.1-7.1l-.3-1.6-1.6-.4-13.9-3.1-1.4-.3-3.8-.6c-2.5-.3-6.7-.9-7.9-1.7-6.1-4.4-11.3-21.7-12.3-30.9h1.1c4.6,0,7.9,5.2,11.5,10.7s9.2,14.2,17.9,14.2h1.4c7.6-.7,12.8-3,15.9-7.1s3.8-13.3,2-23.1l-.4-2.3-2.3.2h-.9l-6.2.4c-3.7,0-5.4,0-6.3-8h.7c3.9,0,8,2.3,11.6,4.2l.8.4a28.3,28.3,0,0,0,6.2,2.2,20.8,20.8,0,0,1,5.1,1.8c3.1,1.9,4.1,5.5,5.3,9.7s2.5,8.8,6.2,12.1l.6.5h.8a4.4,4.4,0,0,1,3.9,3l.4,1.1,1.1.4c3.2,1.2,6.3,5.3,9.2,9.2s5.2,6.9,8.3,9.1l4.6,3.3-.6-5.7a97.8,97.8,0,0,1-.3-10.2v-.7a214.7,214.7,0,0,0-10-26.5A217.4,217.4,0,0,0,3480.3,1769l-.5-.2Z"/><path class="cls-7" d="M3341.6,2143.6c.2-10.2-12.4-14.6-14.6-23.2-2.7-10.4,6.4-17.4,8.3-26.3,1.1-5-1.1-11.7-1-17,6-1.9,8-3.1,11.8-7.9s8.3-6.9,13.8-11.2c9.8-7.7,15-17.9,12-30.5s-9.7-28.8-23.3-32.9c-6.6-2-8.3.7-11.3-5.7-1.9-4.1-1.6-9.3-3.1-13.5-7.4-3.4-15.8-7.7-23.9-10.7s-18.9-8.3-28-8.4a22.1,22.1,0,0,0-11.8,2.9c-1.1.6-.6,2.8-2.2,3.6s-5.7.6-7.6.3c-9.8-1.3-24.4-10.5-27.8-19.5-1.2-3-.9-6.5-2.7-9.3s-4.3-3.1-6-5.2c-3.7-4.5-6.6-11.3.6-15.3s9,1.3,14.7,2.3c8.1,1.5,15.6-3,22.3-6.7-.5-6,5.3-14.3,8.9-18.6,5-5.9,11.8-9.8,17.4-15,3.7-3.4,6.9-7.3,11-10.2,6.3-4.5,34.5-12.9,22.5-24-4.5-4.1-11.7-5.9-15.8-11.6-1.6-2.1-2.1-4.3-3.4-6.6-5.7-9.6-11.9-7.3-21.1-2.8s-10.1,12.7-20.7,12.5a38.2,38.2,0,0,1-5.1-.5l-2,2.3a215.3,215.3,0,0,0-24.9,35q-3.4,6-6.5,12.3a213.9,213.9,0,0,0-16.2,46q-.6,2.7-1.2,5.4a212.4,212.4,0,0,0-3.2,21.9l-.2,1.9c4.5,1,7.5-5.1,13-3.2s8.3,14,14,18c9,6.3,22.8-3.3,30.4,7.5,10.5,14.8.2,46.1,17.1,56.1,7.1,4.2,8.5,1.9,9,12.3s.1,17.9,3.5,26.2,10.9,14.3,12.9,23.9,2.9,12.3,7.9,18.8,10.7,13.8,15.7,21.2S3332,2145.1,3341.6,2143.6Z"/><path class="cls-7" d="M3293.2,1816.9c3.5,0,6.5,1.8,9.4,6.7,1.3,2.3,1.8,4.4,3.4,6.6,4.1,5.6,11.4,7.4,15.8,11.6,11.9,11.1-16.2,19.5-22.5,24-4.1,2.9-7.3,6.8-11,10.2-5.6,5.1-12.4,9-17.4,15-3.7,4.3-9.4,12.6-8.9,18.6-5.8,3.2-12.2,7-19,7a17.7,17.7,0,0,1-3.2-.3c-4.3-.8-6.8-3.6-10.4-3.6a9,9,0,0,0-4.3,1.3c-7.2,3.9-4.3,10.8-.6,15.3,1.7,2.1,4.7,3.2,6,5.2s1.5,6.3,2.7,9.3c3.5,9,18,18.2,27.8,19.5a31.4,31.4,0,0,0,3.9.3,8.6,8.6,0,0,0,3.6-.6c1.6-.8,1-2.9,2.2-3.6a22,22,0,0,1,11.5-2.9h.3c9.1.1,19.9,5.4,28,8.4s16.4,7.3,23.9,10.7c1.5,4.2,1.2,9.4,3.1,13.5,2.9,6.4,4.7,3.7,11.3,5.7,13.6,4.1,20.2,20.1,23.3,32.9s-2.2,22.8-12,30.5c-5.5,4.4-9.3,5.4-13.8,11.2s-5.8,6.1-11.8,7.9c-.1,5.3,2.1,12,1,17-2,8.9-11,15.9-8.3,26.3,2.2,8.7,14.8,13,14.6,23.2-3.9.6-6.4,1.2-8.4,1.2s-4.8-1.4-8.1-6.5c-4.9-7.4-10.2-14.1-15.7-21.2s-6.2-10.7-7.9-18.8-9.3-14.9-12.9-23.9-3-17.3-3.5-26.2-1.9-8-9-12.3c-17-10.1-6.7-41.3-17.1-56.1-3.3-4.6-7.7-5.5-12.3-5.5-2.9,0-5.9.3-8.8.3s-6.5-.4-9.3-2.4c-5.7-4-8.1-16-14-18a6.6,6.6,0,0,0-2.2-.4c-3.9,0-6.5,3.7-9.8,3.7h-1l.2-1.9a212.3,212.3,0,0,1,3.2-21.9q.5-2.7,1.2-5.4a213.9,213.9,0,0,1,16.2-46q3.1-6.3,6.5-12.3a215.3,215.3,0,0,1,24.9-35l2-2.3a38.2,38.2,0,0,0,5.1.5h.3c10.3,0,12.3-8.5,20.4-12.5,4.5-2.2,8.3-3.9,11.6-3.9m0-2.6h0c-4,0-8.3,2-12.8,4.1a30.6,30.6,0,0,0-8.2,6.4c-3.3,3.3-5.8,5.8-11.1,5.8h-.3a35.5,35.5,0,0,1-4.8-.4l-1.4-.2-.9,1-2,2.3a218.3,218.3,0,0,0-25.2,35.4c-2.3,4-4.5,8.2-6.6,12.5a216.8,216.8,0,0,0-16.4,46.6c-.4,1.8-.8,3.6-1.2,5.4a215.7,215.7,0,0,0-3.3,22.1l-.2,1.9-.2,2.2,2.1.5,1.6.2a11.5,11.5,0,0,0,5.9-2.1,8.3,8.3,0,0,1,4-1.6l1.3.2c2.2.8,4.2,4.4,6.1,7.9s4.1,7.6,7.3,9.8,7.6,2.8,10.7,2.8l4.6-.2,4.3-.2c4.3,0,7.6.8,10.2,4.4,4.1,5.8,4.8,15.1,5.4,24.1.9,13,1.8,26.3,12.6,32.7a46.9,46.9,0,0,0,4.2,2.2c1.7.8,2.3,1.1,2.6,1.7s.8,2.8.9,6.3c.1,1.5.1,3,.2,4.5.3,7.5.5,15.2,3.5,22.6a52.4,52.4,0,0,0,6.3,10.7c2.8,4,5.5,7.8,6.5,12.7,1.8,8.6,3.2,13,8.4,19.8l2.8,3.6c4.5,5.8,8.8,11.4,12.8,17.5s5.8,7.6,10.2,7.6a31.7,31.7,0,0,0,5.4-.7l3.3-.6,2.1-.3v-2.1c.2-6.8-4.4-11.3-8.4-15.3s-5.5-5.5-6.3-8.6c-1.4-5.5,1.2-10.1,3.9-14.9,1.8-3.2,3.6-6.4,4.5-10.1s.2-7.3-.3-11c-.2-1.7-.5-3.2-.6-4.7,5-1.7,7.5-3.4,11.2-8.2a28.5,28.5,0,0,1,8.1-7.1c1.5-1,3.3-2.2,5.2-3.7,11.4-9,15.9-20.5,12.9-33.1s-10-30.3-25-34.8a27.1,27.1,0,0,0-5.5-1c-2.4-.2-2.8-.3-4.2-3.3a25.1,25.1,0,0,1-1.6-6.6,34.7,34.7,0,0,0-1.4-6.6l-.4-1-1-.4-5.9-2.8c-5.9-2.8-12.1-5.7-18.1-8l-5.3-2.1c-7.4-3-15.9-6.4-23.6-6.5h-.3a24.6,24.6,0,0,0-12.7,3.3,4.6,4.6,0,0,0-2,3.1l-.2.5a7.5,7.5,0,0,1-2.3.3l-3.6-.3c-8.8-1.2-22.7-9.8-25.8-17.9a19,19,0,0,1-.8-3.4,17,17,0,0,0-2.1-6.3,12.7,12.7,0,0,0-3.8-3.5,12.7,12.7,0,0,1-2.4-2c-2.4-2.8-3.6-5.8-3.2-7.9a5.2,5.2,0,0,1,3-3.5,6.6,6.6,0,0,1,3.1-.9,9.8,9.8,0,0,1,4.2,1.4,21,21,0,0,0,5.8,2.1,20.3,20.3,0,0,0,3.7.3c7.1,0,13.5-3.5,19.1-6.7l1.1-.6,1.4-.8v-1.6c-.3-4.4,3.9-11.6,8.3-16.8a63.9,63.9,0,0,1,10-8.9c2.4-1.8,4.9-3.8,7.2-5.9l3.7-3.6a33.7,33.7,0,0,1,13.8-9.9c8.3-4,18.6-8.9,19.7-15.9.5-3-.8-5.9-3.6-8.5a36.4,36.4,0,0,0-7-4.7c-3.3-1.9-6.4-3.6-8.5-6.5a16.6,16.6,0,0,1-1.7-3.3,28.6,28.6,0,0,0-1.5-3.1c-3.2-5.3-7-7.9-11.6-7.9Z"/><path class="cls-7" d="M3330.4,1817.9c4.5,5.5,19.1,7.2,25.1,2.8s5.8-11.6,14.5-15.1c6.8-2.7,22-1.4,26.1-8s-3.7-14.6.4-19.7,11.8-2,15.7-5.6c1.1-1,5.6-8.5,6-9.9l.2-.7q-8.3-.1-16.8.4t-14.6,1.4a214.1,214.1,0,0,0-61.5,17.7l-2.1,1a26.2,26.2,0,0,1,4.1,7.3C3330.6,1798.8,3323.3,1809.2,3330.4,1817.9Z"/><path class="cls-7" d="M3415.6,1761.6h2.9l-.2.7c-.5,1.4-4.9,8.9-6,9.9-3.9,3.6-12.5,1.6-15.7,5.6s3.2,13.9-.4,19.7-19.4,5.3-26.1,8c-8.7,3.5-8.9,11-14.5,15.1-2.3,1.7-6,2.5-9.8,2.5-6,0-12.5-2-15.3-5.3-7.1-8.7.2-19.1-2.9-28.4a26.2,26.2,0,0,0-4.1-7.3l2.1-1a214.1,214.1,0,0,1,61.5-17.7q7.3-1,14.6-1.4t13.9-.5m0-2.6c-4.7,0-9.4.2-14.1.5s-9.8.8-14.7,1.5a216.8,216.8,0,0,0-62.2,17.9l-2.2,1-2.7,1.3,1.8,2.5h.1a23.5,23.5,0,0,1,3.7,6.5c1.1,3.3.6,7,.1,10.9-.8,5.8-1.6,12.4,3.2,18.3,3.5,4.3,11.2,6.2,17.3,6.2s8.7-1.1,11.3-3a22.9,22.9,0,0,0,5.7-6.9c2-3.2,3.8-6.2,8.2-7.9,2.1-.8,5.4-1.3,8.9-1.7,7.1-.9,15.2-2,18.5-7.3,2.3-3.8,1.3-8.1.4-11.9s-1.4-6.1-.1-7.6,3.7-1.7,6.3-2.1,6.7-1,9.1-3.3,6.2-9.2,6.7-11v-.7l1-3.2h-6.3Z"/><path class="cls-7" d="M3502,2136.8c-8.4,2.4-17,2.9-25.5,2.7s-23.4.4-30.7,5.2c-4.7,3.1-4.1,9-8.2,12.7s-11.4,3.1-16.1,5.2c.2,4.5,3.6,7.3,3.5,12.3-14.4,2.7-33.4,6.4-46.8-.6s-1.9-16.2-7.2-26.4c-3.7-7.1-9.9-6.7-15.6-2.5s-7.5,12.3-11.1,18.4c-2.4,4-9.6,3.8-11.2,8.3a6.4,6.4,0,0,0-.4,1.9l4.9,2a214.1,214.1,0,0,0,235.1-54.4c-2.1-.9-4.6-.9-7.9-.7C3542.9,2121.6,3522.4,2130.9,3502,2136.8Z"/><path class="cls-7" d="M3567.6,2120.8a12.6,12.6,0,0,1,5.2.8,214.5,214.5,0,0,1-235.1,54.4l-4.9-2a6.4,6.4,0,0,1,.4-1.9c1.6-4.5,8.8-4.2,11.2-8.3,3.6-6.1,4.5-13.6,11.1-18.4a13.6,13.6,0,0,1,7.8-3c3,0,5.8,1.6,7.8,5.5,5.3,10.2-5.7,19.7,7.2,26.4,5.7,3,12.4,4,19.4,4,9.4,0,19.2-1.9,27.5-3.4.2-5-3.3-7.8-3.5-12.3,4.7-2.1,12.4-1.8,16.1-5.2s3.5-9.6,8.2-12.7c6.7-4.4,19.7-5.2,28.4-5.2h5.1a81.4,81.4,0,0,0,22.7-2.7c20.4-5.9,40.9-15.2,62.8-15.9h2.7m0-2.6h-2.8c-16.4.5-31.8,5.7-46.8,10.7-5.5,1.8-11.1,3.7-16.7,5.3s-13.3,2.6-22,2.6h-5.1c-9.7,0-22.8,1-29.8,5.7-3.2,2.1-4.4,5.1-5.5,7.8s-1.5,3.8-3,5.1-5,2.2-8.3,2.8a35,35,0,0,0-7.1,1.9l-1.6.7v1.8a17.2,17.2,0,0,0,1.9,6.5,18.3,18.3,0,0,1,1.4,3.6c-7.8,1.4-16.4,3-24.7,3s-13.4-1.2-18.2-3.7-5.5-6.3-4.7-11.7,1.2-8.7-1.3-13.6-7.1-6.9-10.1-6.9a16.1,16.1,0,0,0-9.3,3.5c-5,3.7-7,8.6-9,13.3a48,48,0,0,1-2.8,5.9c-.7,1.2-2.4,1.9-4.3,2.7s-5.9,2.5-7.1,6a9,9,0,0,0-.5,2.7v1.8l1.6.7,4.9,2a214.9,214.9,0,0,0,78.3,14.7,219.8,219.8,0,0,0,28.8-1.9,216.2,216.2,0,0,0,130.8-67.9l2.4-2.6-3.2-1.4a15.2,15.2,0,0,0-6.2-1Z"/><path class="cls-7" d="M3561.5,1622.5s21.7-10.2,5.5-22.9c-14.4-11.3-6.6-17.9,1.6-24.4,0,0-37.8,13.2-8.7,31.2C3571.8,1613.9,3561.5,1622.5,3561.5,1622.5Z"/><path class="cls-7" d="M3595.2,1640s21.7-10.2,5.5-22.9c-14.4-11.3-6.6-17.9,1.6-24.4,0,0-37.8,13.2-8.7,31.2C3605.5,1631.4,3595.2,1640,3595.2,1640Z"/><path class="cls-7" d="M3653.8,1650.9H3504.9a77.8,77.8,0,0,0-5.6,28.5c0,43.1,35.5,78.3,80,79.7,44.5-1.4,80-36.6,80-79.7A77.6,77.6,0,0,0,3653.8,1650.9Z"/><path class="cls-7" d="M3656.4,1660.6c-14,0-25.3,10.7-25.3,23.8s11.3,23.8,25.3,23.8,25.3-10.7,25.3-23.8S3670.4,1660.6,3656.4,1660.6Zm0,40.5c-9.8,0-17.7-7.4-17.7-16.6s7.9-16.6,17.7-16.6,17.7,7.4,17.7,16.6S3666.2,1701.1,3656.4,1701.1Z"/><path class="cls-7" d="M3735.9,3262.8c-5-19.7-19.1-32.7-19.6-32.1s-16.7-15.1-39.9-14.9-39.9,14.9-39.9,14.9-14.6,12.4-19.6,32.1,4.3,36.2,4.3,36.2a181.8,181.8,0,0,0,22.7,38.1c7.7,11.9,32.5,41.3,32.5,41.3s24.9-29.5,32.5-41.3a182.1,182.1,0,0,0,22.7-38.1S3740.9,3282.5,3735.9,3262.8Zm-59.5,39.6a30.6,30.6,0,1,1,30.6-30.6A30.6,30.6,0,0,1,3676.4,3302.4Z"/><path class="cls-7" d="M1096.1,2007.7c-5.9-23.5-22.8-39-23.3-38.2s-19.9-17.9-47.6-17.7-47.6,17.7-47.6,17.7-17.4,14.7-23.3,38.2,5.1,43.1,5.1,43.1c12.2,27.5,27,45.4,27,45.4,9.1,14.1,38.7,49.2,38.7,49.2s29.6-35.1,38.7-49.2c0,0,14.8-17.9,27-45.4C1091,2050.8,1102,2031.2,1096.1,2007.7Zm-70.9,47.2a36.5,36.5,0,1,1,36.5-36.5A36.5,36.5,0,0,1,1025.2,2054.9Z"/></g><g id="Layer_4" data-name="Layer 4"><path class="cls-9" d="M3502.4,2526.5q0,6.6-.1,13.3-.3,19.9-1.3,39.5c-21.1,415.4-289.1,765.6-660.3,906.7l-11.8,4.4q-17.7,6.5-35.7,12.3l-12,3.8q-36.1,11.2-73.4,19.8-12.4,2.9-24.9,5.4-31.3,6.4-63.3,10.9l-12.8,1.7q-12.8,1.6-25.8,2.9l-13,1.2q-13,1.2-26.1,2-32.7,2.1-65.9,2.1t-65.9-2.1q-13.1-.8-26.1-2l-13-1.2q-12.9-1.3-25.8-2.9l-12.8-1.7q-32-4.5-63.3-10.9-12.5-2.6-24.9-5.4-37.2-8.6-73.4-19.8l-12-3.8q-18-5.8-35.7-12.3l-11.7-4.4c-371.1-141.1-639.2-491.3-660.3-906.7q-.8-16.4-1.1-32.9c0-2.2-.1-4.5-.1-6.7v-4.8c0-2.8,0-5.6,0-8.4q0-18.3.6-36.4.2-5.7.5-11.4c.1-1.7.2-3.3.2-5q.7-13.1,1.7-26.2.5-6.5,1.1-13,1.2-13,2.6-25.9t3.3-25.7q2.7-19.2,6.1-38.1a1019.1,1019.1,0,0,1,111.1-313.5l5.3-9.5a1025.3,1025.3,0,0,1,69.5-106.7l4.3-5.7a1034.4,1034.4,0,0,1,76.9-90.6l.5-.6a1033.7,1033.7,0,0,1,118.7-106.6q29.4-22.5,60.4-42.9t63.5-38.5q10.8-6.1,21.8-11.8t22.1-11.3l14.8-7.2q13.3-6.4,26.8-12.3l7-3.1,19.6-8.2q11.6-4.7,23.3-9.2l11.7-4.4,14.9-5.3,20.8-7,12-3.8q12.1-3.7,24.2-7.2,30.4-8.6,61.6-15.4,12.5-2.7,25.1-5.1t25.3-4.5q19-3.2,38.3-5.6,12.8-1.6,25.8-3l13-1.2q13-1.2,26.1-2,32.7-2.1,65.9-2.1t65.9,2.1q13.1.8,26.1,2l13,1.2q12.9,1.3,25.8,3,19.2,2.4,38.3,5.6,12.7,2.1,25.3,4.5t25,5.1q31.2,6.8,61.6,15.4,12.2,3.5,24.2,7.2l12,3.8,20.8,7,14.9,5.3,11.8,4.4q11.7,4.5,23.3,9.2l19.6,8.2,7,3.1q13.5,6,26.9,12.3l14.8,7.2q11.1,5.5,22.1,11.3t21.8,11.8q32.5,18.1,63.5,38.5t60.3,42.9a1032.1,1032.1,0,0,1,118.7,106.6l.5.6a1034.5,1034.5,0,0,1,76.9,90.6l4.3,5.7a1028.3,1028.3,0,0,1,69.5,106.7l5.3,9.5a1019.3,1019.3,0,0,1,111.1,313.5q3.4,19,6.1,38.1,1.8,12.8,3.3,25.7t2.6,25.9q.6,6.5,1.1,13,1,13,1.7,26.2Q3502.4,2500,3502.4,2526.5Z"/><path class="cls-10" d="M3487.4,2524.8q0,6.5-.1,13-.3,19.5-1.2,38.8c-20.7,407.8-283.9,751.7-648.2,890.2l-11.5,4.3q-17.4,6.4-35,12.1l-11.8,3.8q-35.5,11-72.1,19.5-12.2,2.8-24.5,5.3-30.7,6.3-62.1,10.7l-12.6,1.7q-12.6,1.6-25.3,2.9l-12.7,1.2q-12.8,1.1-25.6,1.9-32.1,2-64.7,2t-64.7-2q-12.8-.8-25.6-1.9l-12.7-1.2q-12.7-1.3-25.3-2.9l-12.6-1.7q-31.4-4.4-62.1-10.7-12.3-2.5-24.5-5.3-36.5-8.4-72.1-19.5l-11.8-3.8q-17.7-5.7-35-12.1l-11.5-4.3c-364.4-138.5-627.6-482.4-648.2-890.2q-.8-16.1-1.1-32.3c0-2.2-.1-4.4-.1-6.6V2533c0-2.7,0-5.5,0-8.3q0-18,.6-35.8.2-5.6.5-11.2c.1-1.6.1-3.3.2-4.9q.7-12.9,1.6-25.7.5-6.4,1.1-12.8,1.1-12.7,2.6-25.4t3.2-25.2q2.6-18.8,6-37.4a1000.5,1000.5,0,0,1,109.1-307.8l5.2-9.4a1006.6,1006.6,0,0,1,68.2-104.8l4.2-5.6a1015.5,1015.5,0,0,1,75.5-89l.5-.6a1014.9,1014.9,0,0,1,116.5-104.6q28.8-22.1,59.3-42.1t62.3-37.8q10.6-5.9,21.4-11.6t21.7-11.1l14.5-7.1q13.1-6.2,26.4-12.1l6.8-3,19.2-8.1q11.4-4.6,22.9-9l11.5-4.3,14.6-5.2,20.4-6.9,11.8-3.8q11.8-3.7,23.8-7.1,29.9-8.5,60.5-15.2,12.2-2.7,24.6-5t24.8-4.4q18.7-3.1,37.6-5.5,12.6-1.6,25.3-2.9l12.7-1.2q12.8-1.1,25.6-2,32.1-2,64.7-2t64.7,2q12.8.8,25.6,2l12.7,1.2q12.7,1.3,25.3,2.9,18.9,2.4,37.6,5.5,12.5,2.1,24.8,4.4t24.6,5q30.6,6.7,60.5,15.2,12,3.4,23.8,7.1l11.8,3.8,20.4,6.9,14.6,5.2,11.5,4.3q11.5,4.4,22.9,9l19.2,8.1,6.8,3q13.3,5.9,26.4,12.1l14.5,7.1q10.9,5.4,21.7,11.1t21.4,11.6q31.9,17.8,62.3,37.8t59.2,42.1a1013.3,1013.3,0,0,1,116.5,104.6l.5.6a1015.6,1015.6,0,0,1,75.5,89l4.2,5.6a1009.6,1009.6,0,0,1,68.2,104.8l5.2,9.4a1000.8,1000.8,0,0,1,109.1,307.8q3.3,18.6,6,37.4,1.8,12.6,3.2,25.2t2.6,25.4q.6,6.4,1.1,12.8,1,12.8,1.6,25.7Q3487.4,2498.7,3487.4,2524.8Z"/><circle class="cls-11" cx="2480" cy="2524.8" r="838.2"/><circle class="cls-10" cx="2480" cy="2524.8" r="663.8"/><circle class="cls-11" cx="2480" cy="2524.8" r="503.3"/><circle class="cls-10" cx="2480" cy="2527.6" r="351.2"/><circle class="cls-11" cx="2480" cy="2516.5" r="168.6"/><path class="cls-12" d="M2828.2,2574c-15.6,121-92.9,222.7-199.2,272.6l-251.8-195.4h0A168.6,168.6,0,0,0,2584,2384.7v-.2Z"/><path class="cls-12" d="M3144.6,2525.7c0,355.4-279.3,645.6-630.4,662.9l-337.5-261.8A501,501,0,0,0,2480.9,3029c278,0,503.3-225.3,503.3-503.3,0-153.5-68.7-290.9-177-383.2l324.5,251.8A666.9,666.9,0,0,1,3144.6,2525.7Z"/><path class="cls-12" d="M3487.4,2524.8q0,6.5-.1,13-.3,19.5-1.2,38.8c-20.7,407.8-283.9,751.7-648.2,890.2l-11.5,4.3q-17.4,6.4-35,12.1l-11.8,3.8q-35.5,11-72.1,19.5-12.2,2.8-24.5,5.3-30.7,6.3-62.1,10.7l-12.6,1.7q-12.6,1.6-25.3,2.9l-12.7,1.2q-12.8,1.1-25.6,1.9-32.1,2-64.7,2t-64.7-2l-9.7-.7-458.1-355.4,1-1.3A834.7,834.7,0,0,0,2480,3362.9c462.9,0,838.2-375.3,838.2-838.2,0-277.4-134.8-523.4-342.4-675.9l.5-.6,459.3,356.4a1000,1000,0,0,1,36.2,141.8q3.3,18.6,6,37.4,1.8,12.6,3.2,25.2t2.6,25.4q.6,6.4,1.1,12.8,1,12.8,1.6,25.7Q3487.4,2498.7,3487.4,2524.8Z"/><path class="cls-13" d="M3850.3,912.1l.3,244.2,241.5-1.5-371.4,371.4-188.2-4.6L2516.3,2537.8a33.2,33.2,0,0,1-46.8,0l-2.7-2.7a33.2,33.2,0,0,1,0-46.8L3483.7,1471.6l-6-186.9Z"/><path class="cls-14" d="M3850.7,1156.3l241.5-1.5-371.4,371.4-188.2-4.6L2516.3,2537.8a33.2,33.2,0,0,1-46.8,0l-1.3-1.3L3850.7,1154Z"/></g></svg>