<?xml version="1.0" encoding="utf-8"?>
<!-- Generator: Adobe Illustrator 21.0.0, SVG Export Plug-In . SVG Version: 6.00 Build 0)  -->
<svg version="1.1" id="Layer_1" xmlns="http://www.w3.org/2000/svg" xmlns:xlink="http://www.w3.org/1999/xlink" x="0px" y="0px"
	 viewBox="0 0 1000 1000" style="enable-background:new 0 0 1000 1000;" xml:space="preserve">
<style type="text/css">
	.st0{fill:#A2A2A2;}
	.st1{fill:#7E2918;}
</style>
<g>
	<g>
		<g>
			<path class="st0" d="M501.9,0.4C225.9,0.5,1.4,225,1.5,501c0.1,276,224.6,500.5,500.6,500.4s500.5-224.6,500.4-500.6
				S777.9,0.3,501.9,0.4z M502.1,951.4C253.7,951.4,51.6,749.4,51.6,501c-0.1-248.4,202-450.5,450.4-450.6s450.5,202,450.6,450.4
				S750.5,951.3,502.1,951.4z"/>
		</g>
	</g>
</g>
<g>
	<g>
		<g>
			<path class="st1" d="M328.8,705.5l-91.6-52.8l0-105.7l91.5-52.9l91.5,52.8l0,105.7L328.8,705.5z M244.9,648.2l83.9,48.4
				l83.9-48.5l0-96.9l-83.9-48.4l-83.9,48.5L244.9,648.2z"/>
			<path class="st1" d="M328.8,707.3l-93.1-53.7l0-107.5l93.1-53.8l93.1,53.7l0,107.5L328.8,707.3z M238.8,651.7l90,51.9l90-52
				l0-103.9l-90-51.9l-90,52L238.8,651.7z M328.8,698.5l-85.5-49.3l0-98.7l85.5-49.4l85.5,49.3l0,98.7L328.8,698.5z M246.5,647.3
				l82.4,47.5l82.3-47.6l0-95.1l-82.4-47.5l-82.3,47.6L246.5,647.3z"/>
		</g>
	</g>
	<g>
		<g>
			<circle class="st1" cx="328.8" cy="498.4" r="15.4"/>
			<path class="st1" d="M328.8,515.4c-9.4,0-17-7.6-17-17c0-9.4,7.6-17,17-17c9.4,0,17,7.6,17,17
				C345.8,507.8,338.1,515.4,328.8,515.4z M328.8,484.6c-7.6,0-13.8,6.2-13.8,13.9s6.2,13.8,13.9,13.8c7.6,0,13.8-6.2,13.8-13.9
				S336.4,484.6,328.8,484.6z"/>
		</g>
		<g>
			<path class="st1" d="M328.8,517.7c-10.6,0-19.2-8.6-19.2-19.2s8.6-19.2,19.2-19.2c10.6,0,19.2,8.6,19.2,19.2
				C348,509,339.4,517.7,328.8,517.7z M328.8,486.8c-6.4,0-11.6,5.2-11.6,11.6s5.2,11.6,11.6,11.6s11.6-5.2,11.6-11.6
				C340.4,492,335.2,486.8,328.8,486.8z"/>
			<path class="st1" d="M328.8,519.2c-11.5,0-20.8-9.3-20.8-20.8c0-11.5,9.3-20.8,20.8-20.8c11.5,0,20.8,9.3,20.8,20.8
				C349.6,509.9,340.2,519.2,328.8,519.2z M328.8,480.8c-9.7,0-17.7,7.9-17.7,17.7c0,9.7,7.9,17.7,17.7,17.7
				c9.7,0,17.7-7.9,17.7-17.7C346.4,488.7,338.5,480.8,328.8,480.8z M328.8,511.6c-7.3,0-13.2-5.9-13.2-13.2
				c0-7.3,5.9-13.2,13.2-13.2c7.3,0,13.2,5.9,13.2,13.2C342,505.7,336,511.6,328.8,511.6z M328.8,488.4c-5.5,0-10,4.5-10,10
				c0,5.5,4.5,10,10,10c5.5,0,10-4.5,10-10C338.8,492.9,334.3,488.4,328.8,488.4z"/>
		</g>
	</g>
	<g>
		<g>
			<circle class="st1" cx="416.5" cy="551.3" r="15.4"/>
			<path class="st1" d="M416.5,568.3c-9.4,0-17-7.6-17-17s7.6-17,17-17c9.4,0,17,7.6,17,17C433.5,560.7,425.9,568.3,416.5,568.3z
				 M416.5,537.5c-7.6,0-13.8,6.2-13.8,13.9c0,7.6,6.2,13.8,13.9,13.8c7.6,0,13.8-6.2,13.8-13.9
				C430.4,543.7,424.2,537.5,416.5,537.5z"/>
		</g>
		<g>
			<path class="st1" d="M416.5,570.5c-10.6,0-19.2-8.6-19.2-19.2c0-10.6,8.6-19.2,19.2-19.2c10.6,0,19.2,8.6,19.2,19.2
				C435.7,561.9,427.1,570.5,416.5,570.5z M416.5,539.7c-6.4,0-11.6,5.2-11.6,11.6s5.2,11.6,11.6,11.6c6.4,0,11.6-5.2,11.6-11.6
				S422.9,539.7,416.5,539.7z"/>
			<path class="st1" d="M416.5,572.1c-11.5,0-20.8-9.3-20.8-20.8s9.3-20.8,20.8-20.8c11.5,0,20.8,9.3,20.8,20.8
				C437.3,562.8,428,572.1,416.5,572.1z M416.5,533.7c-9.7,0-17.7,7.9-17.7,17.7s7.9,17.7,17.7,17.7c9.7,0,17.7-7.9,17.7-17.7
				C434.2,541.6,426.3,533.7,416.5,533.7z M416.5,564.5c-7.3,0-13.2-5.9-13.2-13.2s5.9-13.2,13.2-13.2c7.3,0,13.2,5.9,13.2,13.2
				C429.7,558.6,423.8,564.5,416.5,564.5z M416.5,541.3c-5.5,0-10,4.5-10,10c0,5.5,4.5,10,10,10c5.5,0,10-4.5,10-10
				C426.6,545.8,422.1,541.3,416.5,541.3z"/>
		</g>
	</g>
	<g>
		<g>
			<circle class="st1" cx="416.5" cy="650.9" r="15.4"/>
			<path class="st1" d="M416.5,667.9c-9.4,0-17-7.6-17-17c0-9.4,7.6-17,17-17c9.4,0,17,7.6,17,17
				C433.5,660.3,425.9,667.9,416.5,667.9z M416.5,637.1c-7.6,0-13.8,6.2-13.8,13.9c0,7.6,6.2,13.8,13.9,13.8s13.8-6.2,13.8-13.9
				C430.4,643.3,424.2,637,416.5,637.1z"/>
		</g>
		<g>
			<path class="st1" d="M416.5,670.1c-10.6,0-19.2-8.6-19.2-19.2c0-10.6,8.6-19.2,19.2-19.2c10.6,0,19.2,8.6,19.2,19.2
				C435.8,661.5,427.1,670.1,416.5,670.1z M416.5,639.3c-6.4,0-11.6,5.2-11.6,11.6c0,6.4,5.2,11.6,11.6,11.6
				c6.4,0,11.6-5.2,11.6-11.6S422.9,639.3,416.5,639.3z"/>
			<path class="st1" d="M416.5,671.7c-11.5,0-20.8-9.3-20.8-20.8c0-11.5,9.3-20.8,20.8-20.8c11.5,0,20.8,9.3,20.8,20.8
				C437.3,662.4,428,671.7,416.5,671.7z M416.5,633.2c-9.7,0-17.7,7.9-17.7,17.7c0,9.7,7.9,17.7,17.7,17.7c9.7,0,17.7-7.9,17.7-17.7
				C434.2,641.2,426.3,633.2,416.5,633.2z M416.5,664.1c-7.3,0-13.2-5.9-13.2-13.2c0-7.3,5.9-13.2,13.2-13.2
				c7.3,0,13.2,5.9,13.2,13.2C429.7,658.2,423.8,664.1,416.5,664.1z M416.5,640.9c-5.5,0-10,4.5-10,10c0,5.5,4.5,10,10,10
				c5.5,0,10-4.5,10-10C426.6,645.4,422.1,640.9,416.5,640.9z"/>
		</g>
	</g>
	<g>
		<g>
			<circle class="st1" cx="328.8" cy="701.1" r="15.4"/>
			<path class="st1" d="M328.8,718c-9.4,0-17-7.6-17-17c0-9.4,7.6-17,17-17c9.4,0,17,7.6,17,17S338.2,718,328.8,718z M328.8,687.2
				c-7.6,0-13.8,6.2-13.8,13.9c0,7.6,6.2,13.8,13.9,13.8c7.6,0,13.8-6.2,13.8-13.9C342.7,693.4,336.5,687.2,328.8,687.2z"/>
		</g>
		<g>
			<path class="st1" d="M328.8,720.3c-10.6,0-19.2-8.6-19.2-19.2c0-10.6,8.6-19.2,19.2-19.2c10.6,0,19.2,8.6,19.2,19.2
				C348,711.6,339.4,720.3,328.8,720.3z M328.8,689.4c-6.4,0-11.6,5.2-11.6,11.6s5.2,11.6,11.6,11.6s11.6-5.2,11.6-11.6
				C340.4,694.7,335.2,689.4,328.8,689.4z"/>
			<path class="st1" d="M328.8,721.8c-11.5,0-20.8-9.3-20.8-20.8c0-11.5,9.3-20.8,20.8-20.8s20.8,9.3,20.8,20.8
				C349.6,712.5,340.3,721.8,328.8,721.8z M328.8,683.4c-9.7,0-17.7,7.9-17.7,17.7c0,9.7,7.9,17.7,17.7,17.7
				c9.7,0,17.7-7.9,17.7-17.7C346.5,691.3,338.6,683.4,328.8,683.4z M328.8,714.2c-7.3,0-13.2-5.9-13.2-13.2
				c0-7.3,5.9-13.2,13.2-13.2c7.3,0,13.2,5.9,13.2,13.2C342,708.3,336.1,714.2,328.8,714.2z M328.8,691c-5.5,0-10,4.5-10,10
				c0,5.5,4.5,10,10,10c5.5,0,10-4.5,10-10C338.9,695.5,334.4,691,328.8,691z"/>
		</g>
	</g>
	<g>
		<g>
			<circle class="st1" cx="241.1" cy="650.9" r="15.4"/>
			<path class="st1" d="M241.1,667.9c-9.4,0-17-7.6-17-17c0-9.4,7.6-17,17-17c9.4,0,17,7.6,17,17S250.4,667.9,241.1,667.9z
				 M241.1,637.1c-7.6,0-13.8,6.2-13.8,13.9c0,7.6,6.2,13.8,13.9,13.8s13.8-6.2,13.8-13.9C254.9,643.3,248.7,637.1,241.1,637.1z"/>
		</g>
		<g>
			<path class="st1" d="M241.1,670.2c-10.6,0-19.2-8.6-19.2-19.2c0-10.6,8.6-19.2,19.2-19.2c10.6,0,19.2,8.6,19.2,19.2
				C260.3,661.5,251.7,670.2,241.1,670.2z M241.1,639.3c-6.4,0-11.6,5.2-11.6,11.6c0,6.4,5.2,11.6,11.6,11.6
				c6.4,0,11.6-5.2,11.6-11.6S247.5,639.3,241.1,639.3z"/>
			<path class="st1" d="M241.1,671.7c-11.5,0-20.8-9.3-20.8-20.8c0-11.5,9.3-20.8,20.8-20.8c11.5,0,20.8,9.3,20.8,20.8
				C261.9,662.4,252.5,671.7,241.1,671.7z M241.1,633.3c-9.7,0-17.7,7.9-17.7,17.7c0,9.7,7.9,17.7,17.7,17.7
				c9.7,0,17.7-7.9,17.7-17.7C258.7,641.2,250.8,633.3,241.1,633.3z M241.1,664.1c-7.3,0-13.2-5.9-13.2-13.2
				c0-7.3,5.9-13.2,13.2-13.2c7.3,0,13.2,5.9,13.2,13.2C254.3,658.2,248.3,664.1,241.1,664.1z M241.1,640.9c-5.5,0-10,4.5-10,10
				c0,5.5,4.5,10,10,10c5.5,0,10-4.5,10-10C251.1,645.4,246.6,640.9,241.1,640.9z"/>
		</g>
	</g>
	<g>
		<g>
			<circle class="st1" cx="148.9" cy="704" r="15.4"/>
			<path class="st1" d="M148.9,721c-9.4,0-17-7.6-17-17c0-9.4,7.6-17,17-17c9.4,0,17,7.6,17,17C165.9,713.4,158.3,721,148.9,721z
				 M148.9,690.2c-7.6,0-13.8,6.2-13.8,13.9c0,7.6,6.2,13.8,13.9,13.8c7.6,0,13.8-6.2,13.8-13.9
				C162.7,696.4,156.5,690.2,148.9,690.2z"/>
		</g>
		<g>
			<path class="st1" d="M148.9,723.2c-10.6,0-19.2-8.6-19.2-19.2c0-10.6,8.6-19.2,19.2-19.2c10.6,0,19.2,8.6,19.2,19.2
				C168.1,714.6,159.5,723.2,148.9,723.2z M148.9,692.4c-6.4,0-11.6,5.2-11.6,11.6s5.2,11.6,11.6,11.6c6.4,0,11.6-5.2,11.6-11.6
				S155.3,692.4,148.9,692.4z"/>
			<path class="st1" d="M148.9,724.8c-11.5,0-20.8-9.3-20.8-20.8c0-11.5,9.3-20.8,20.8-20.8c11.5,0,20.8,9.3,20.8,20.8
				C169.7,715.5,160.4,724.8,148.9,724.8z M148.9,686.4c-9.7,0-17.7,7.9-17.7,17.7c0,9.7,7.9,17.7,17.7,17.7s17.7-7.9,17.7-17.7
				C166.5,694.3,158.6,686.4,148.9,686.4z M148.9,717.2c-7.3,0-13.2-5.9-13.2-13.2c0-7.3,5.9-13.2,13.2-13.2
				c7.3,0,13.2,5.9,13.2,13.2C162.1,711.3,156.2,717.2,148.9,717.2z M148.9,694c-5.5,0-10,4.5-10,10c0,5.5,4.5,10,10,10
				s10-4.5,10-10C158.9,698.5,154.4,694,148.9,694z"/>
		</g>
	</g>
	<g>
		<g>
			<circle class="st1" cx="416.5" cy="480" r="15.4"/>
			<path class="st1" d="M416.5,497c-9.4,0-17-7.6-17-17c0-9.4,7.6-17,17-17c9.4,0,17,7.6,17,17C433.5,489.4,425.9,497,416.5,497z
				 M416.5,466.1c-7.6,0-13.8,6.2-13.8,13.9s6.2,13.8,13.9,13.8c7.6,0,13.8-6.2,13.8-13.9C430.4,472.4,424.1,466.1,416.5,466.1z"/>
		</g>
		<g>
			<path class="st1" d="M416.5,499.2c-10.6,0-19.2-8.6-19.2-19.2s8.6-19.2,19.2-19.2c10.6,0,19.2,8.6,19.2,19.2
				C435.7,490.6,427.1,499.2,416.5,499.2z M416.5,468.4c-6.4,0-11.6,5.2-11.6,11.6c0,6.4,5.2,11.6,11.6,11.6s11.6-5.2,11.6-11.6
				C428.1,473.6,422.9,468.4,416.5,468.4z"/>
			<path class="st1" d="M416.5,500.8c-11.5,0-20.8-9.3-20.8-20.8c0-11.5,9.3-20.8,20.8-20.8s20.8,9.3,20.8,20.8
				C437.3,491.5,428,500.8,416.5,500.8z M416.5,462.3c-9.7,0-17.7,7.9-17.7,17.7c0,9.7,7.9,17.7,17.7,17.7c9.7,0,17.7-7.9,17.7-17.7
				C434.2,470.3,426.2,462.3,416.5,462.3z M416.5,493.2c-7.3,0-13.2-5.9-13.2-13.2c0-7.3,5.9-13.2,13.2-13.2
				c7.3,0,13.2,5.9,13.2,13.2C429.7,487.3,423.8,493.2,416.5,493.2z M416.5,470c-5.5,0-10,4.5-10,10c0,5.5,4.5,10,10,10
				c5.5,0,10-4.5,10-10C426.5,474.5,422,470,416.5,470z"/>
		</g>
	</g>
	<g>
		<g>
			<circle class="st1" cx="241.1" cy="551.3" r="15.4"/>
			<path class="st1" d="M241.1,568.3c-9.4,0-17-7.6-17-17c0-9.4,7.6-17,17-17c9.4,0,17,7.6,17,17S250.4,568.3,241.1,568.3z
				 M241.1,537.5c-7.6,0-13.8,6.2-13.8,13.9c0,7.6,6.2,13.8,13.9,13.8c7.6,0,13.8-6.2,13.8-13.9
				C254.9,543.7,248.7,537.5,241.1,537.5z"/>
		</g>
		<g>
			<path class="st1" d="M241.1,570.6c-10.6,0-19.2-8.6-19.2-19.2c0-10.6,8.6-19.2,19.2-19.2c10.6,0,19.2,8.6,19.2,19.2
				C260.3,561.9,251.7,570.6,241.1,570.6z M241.1,539.7c-6.4,0-11.6,5.2-11.6,11.6s5.2,11.6,11.6,11.6s11.6-5.2,11.6-11.6
				C252.7,544.9,247.5,539.7,241.1,539.7z"/>
			<path class="st1" d="M241.1,572.1c-11.5,0-20.8-9.3-20.8-20.8c0-11.5,9.3-20.8,20.8-20.8c11.5,0,20.8,9.3,20.8,20.8
				S252.5,572.1,241.1,572.1z M241.1,533.7c-9.7,0-17.7,7.9-17.7,17.7c0,9.7,7.9,17.7,17.7,17.7c9.7,0,17.7-7.9,17.7-17.7
				C258.7,541.6,250.8,533.7,241.1,533.7z M241.1,564.5c-7.3,0-13.2-5.9-13.2-13.2s5.9-13.2,13.2-13.2c7.3,0,13.2,5.9,13.2,13.2
				C254.2,558.6,248.3,564.5,241.1,564.5z M241.1,541.3c-5.5,0-10,4.5-10,10c0,5.5,4.5,10,10,10c5.5,0,10-4.5,10-10
				C251.1,545.8,246.6,541.3,241.1,541.3z"/>
		</g>
	</g>
	<g>
		<g>
			
				<rect x="328.1" y="659.2" transform="matrix(0.8642 -0.5031 0.5031 0.8642 -283.219 276.7217)" class="st1" width="85.8" height="7.6"/>
			<path class="st1" d="M335.3,690l-5.4-9.3l76.9-44.7l5.4,9.3L335.3,690z M334.2,681.9l2.3,3.9l71.4-41.6l-2.3-3.9L334.2,681.9z"/>
		</g>
	</g>
	<g>
		<g>
			<path class="st1" d="M504.3,705.4l-91.6-52.8l0-105.7l91.5-52.9l91.5,52.8l0,105.7L504.3,705.4z M420.3,648.2l83.9,48.4
				l83.9-48.5l0-96.9l-83.9-48.4l-83.9,48.5L420.3,648.2z"/>
			<path class="st1" d="M504.3,707.2l-93.1-53.7l0-107.5l93.1-53.8l93.1,53.7l0,107.5L504.3,707.2z M414.3,651.7l90,51.9l90-52
				l0-103.9l-90-51.9l-90,52L414.3,651.7z M504.3,698.4l-85.5-49.3l0-98.7l85.5-49.4l85.5,49.3l0,98.7L504.3,698.4z M421.9,647.3
				l82.4,47.5l82.3-47.6l0-95.1l-82.4-47.5l-82.3,47.6L421.9,647.3z"/>
		</g>
	</g>
	<g>
		<g>
			<circle class="st1" cx="504.2" cy="498.4" r="15.4"/>
			<path class="st1" d="M504.2,515.4c-9.4,0-17-7.6-17-17s7.6-17,17-17c9.4,0,17,7.6,17,17C521.2,507.8,513.6,515.4,504.2,515.4z
				 M504.2,484.6c-7.6,0-13.8,6.2-13.8,13.9s6.2,13.8,13.9,13.8c7.6,0,13.8-6.2,13.8-13.9C518.1,490.8,511.9,484.6,504.2,484.6z"/>
		</g>
		<g>
			<path class="st1" d="M504.2,517.6c-10.6,0-19.2-8.6-19.2-19.2s8.6-19.2,19.2-19.2c10.6,0,19.2,8.6,19.2,19.2
				S514.8,517.6,504.2,517.6z M504.2,486.8c-6.4,0-11.6,5.2-11.6,11.6s5.2,11.6,11.6,11.6c6.4,0,11.6-5.2,11.6-11.6
				C515.8,492,510.6,486.8,504.2,486.8z"/>
			<path class="st1" d="M504.2,519.2c-11.5,0-20.8-9.3-20.8-20.8c0-11.5,9.3-20.8,20.8-20.8c11.5,0,20.8,9.3,20.8,20.8
				C525,509.9,515.7,519.2,504.2,519.2z M504.2,480.8c-9.7,0-17.7,7.9-17.7,17.7c0,9.7,7.9,17.7,17.7,17.7c9.7,0,17.7-7.9,17.7-17.7
				C521.9,488.7,514,480.7,504.2,480.8z M504.2,511.6c-7.3,0-13.2-5.9-13.2-13.2c0-7.3,5.9-13.2,13.2-13.2s13.2,5.9,13.2,13.2
				C517.4,505.7,511.5,511.6,504.2,511.6z M504.2,488.4c-5.5,0-10,4.5-10,10c0,5.5,4.5,10,10,10c5.5,0,10-4.5,10-10
				C514.3,492.9,509.8,488.4,504.2,488.4z"/>
		</g>
	</g>
	<g>
		<g>
			<circle class="st1" cx="592" cy="551.3" r="15.4"/>
			<path class="st1" d="M592,568.3c-9.4,0-17-7.6-17-17c0-9.4,7.6-17,17-17c9.4,0,17,7.6,17,17C609,560.6,601.3,568.2,592,568.3z
				 M592,537.4c-7.6,0-13.8,6.2-13.8,13.9c0,7.6,6.2,13.8,13.9,13.8c7.6,0,13.8-6.2,13.8-13.9C605.8,543.6,599.6,537.4,592,537.4z"
				/>
		</g>
		<g>
			<path class="st1" d="M592,570.5c-10.6,0-19.2-8.6-19.2-19.2c0-10.6,8.6-19.2,19.2-19.2c10.6,0,19.2,8.6,19.2,19.2
				C611.2,561.9,602.6,570.5,592,570.5z M592,539.7c-6.4,0-11.6,5.2-11.6,11.6s5.2,11.6,11.6,11.6c6.4,0,11.6-5.2,11.6-11.6
				S598.4,539.7,592,539.7z"/>
			<path class="st1" d="M592,572.1c-11.5,0-20.8-9.3-20.8-20.8s9.3-20.8,20.8-20.8s20.8,9.3,20.8,20.8S603.4,572.1,592,572.1z
				 M592,533.6c-9.7,0-17.7,7.9-17.7,17.7s7.9,17.7,17.7,17.7c9.7,0,17.7-7.9,17.7-17.7C609.6,541.5,601.7,533.6,592,533.6z
				 M592,564.4c-7.3,0-13.2-5.9-13.2-13.2s5.9-13.2,13.2-13.2c7.3,0,13.2,5.9,13.2,13.2C605.2,558.5,599.2,564.4,592,564.4z
				 M592,541.2c-5.5,0-10,4.5-10,10c0,5.5,4.5,10,10,10c5.5,0,10-4.5,10-10C602,545.7,597.5,541.2,592,541.2z"/>
		</g>
	</g>
	<g>
		<g>
			<circle class="st1" cx="592" cy="650.9" r="15.4"/>
			<path class="st1" d="M592,667.8c-9.4,0-17-7.6-17-17c0-9.4,7.6-17,17-17c9.4,0,17,7.6,17,17C609,660.2,601.4,667.8,592,667.8z
				 M592,637c-7.6,0-13.8,6.2-13.8,13.9c0,7.6,6.2,13.8,13.9,13.8c7.6,0,13.8-6.2,13.8-13.9C605.8,643.2,599.6,637,592,637z"/>
		</g>
		<g>
			<path class="st1" d="M592,670.1c-10.6,0-19.2-8.6-19.2-19.2c0-10.6,8.6-19.2,19.2-19.2c10.6,0,19.2,8.6,19.2,19.2
				C611.2,661.5,602.6,670.1,592,670.1z M592,639.3c-6.4,0-11.6,5.2-11.6,11.6s5.2,11.6,11.6,11.6s11.6-5.2,11.6-11.6
				S598.4,639.3,592,639.3z"/>
			<path class="st1" d="M592,671.6c-11.5,0-20.8-9.3-20.8-20.8c0-11.5,9.3-20.8,20.8-20.8c11.5,0,20.8,9.3,20.8,20.8
				C612.8,662.3,603.5,671.6,592,671.6z M592,633.2c-9.7,0-17.7,7.9-17.7,17.7c0,9.7,7.9,17.7,17.7,17.7c9.7,0,17.7-7.9,17.7-17.7
				C609.7,641.1,601.7,633.2,592,633.2z M592,664c-7.3,0-13.2-5.9-13.2-13.2c0-7.3,5.9-13.2,13.2-13.2c7.3,0,13.2,5.9,13.2,13.2
				C605.2,658.1,599.3,664,592,664z M592,640.8c-5.5,0-10,4.5-10,10c0,5.5,4.5,10,10,10c5.5,0,10-4.5,10-10
				C602,645.3,597.5,640.8,592,640.8z"/>
		</g>
	</g>
	<g>
		<g>
			<circle class="st1" cx="504.3" cy="701" r="15.4"/>
			<path class="st1" d="M504.3,718c-9.4,0-17-7.6-17-17s7.6-17,17-17c9.4,0,17,7.6,17,17S513.6,718,504.3,718z M504.3,687.2
				c-7.6,0-13.8,6.2-13.8,13.9c0,7.6,6.2,13.8,13.9,13.8c7.6,0,13.8-6.2,13.8-13.9C518.1,693.4,511.9,687.2,504.3,687.2z"/>
		</g>
		<g>
			<path class="st1" d="M504.3,720.2c-10.6,0-19.2-8.6-19.2-19.2c0-10.6,8.6-19.2,19.2-19.2s19.2,8.6,19.2,19.2
				C523.5,711.6,514.9,720.2,504.3,720.2z M504.3,689.4c-6.4,0-11.6,5.2-11.6,11.6s5.2,11.6,11.6,11.6s11.6-5.2,11.6-11.6
				C515.9,694.6,510.7,689.4,504.3,689.4z"/>
			<path class="st1" d="M504.3,721.8c-11.5,0-20.8-9.3-20.8-20.8c0-11.5,9.3-20.8,20.8-20.8c11.5,0,20.8,9.3,20.8,20.8
				C525.1,712.5,515.7,721.8,504.3,721.8z M504.3,683.4c-9.7,0-17.7,7.9-17.7,17.7c0,9.7,7.9,17.7,17.7,17.7s17.7-7.9,17.7-17.7
				C521.9,691.3,514,683.4,504.3,683.4z M504.3,714.2c-7.3,0-13.2-5.9-13.2-13.2c0-7.3,5.9-13.2,13.2-13.2s13.2,5.9,13.2,13.2
				C517.5,708.3,511.5,714.2,504.3,714.2z M504.3,691c-5.5,0-10,4.5-10,10c0,5.5,4.5,10,10,10c5.5,0,10-4.5,10-10
				C514.3,695.5,509.8,691,504.3,691z"/>
		</g>
	</g>
	<g>
		<g>
			<circle class="st1" cx="504.2" cy="399.6" r="15.4"/>
			<path class="st1" d="M504.2,416.6c-9.4,0-17-7.6-17-17c0-9.4,7.6-17,17-17c9.4,0,17,7.6,17,17
				C521.2,408.9,513.6,416.6,504.2,416.6z M504.2,385.7c-7.6,0-13.8,6.2-13.8,13.9s6.2,13.8,13.9,13.8c7.6,0,13.8-6.2,13.8-13.9
				S511.9,385.7,504.2,385.7z"/>
		</g>
		<g>
			<path class="st1" d="M504.2,418.8c-10.6,0-19.2-8.6-19.2-19.2s8.6-19.2,19.2-19.2c10.6,0,19.2,8.6,19.2,19.2
				S514.8,418.8,504.2,418.8z M504.2,388c-6.4,0-11.6,5.2-11.6,11.6s5.2,11.6,11.6,11.6c6.4,0,11.6-5.2,11.6-11.6
				C515.8,393.2,510.6,388,504.2,388z"/>
			<path class="st1" d="M504.2,420.4c-11.5,0-20.8-9.3-20.8-20.8c0-11.5,9.3-20.8,20.8-20.8c11.5,0,20.8,9.3,20.8,20.8
				C525,411,515.7,420.4,504.2,420.4z M504.2,381.9c-9.7,0-17.7,7.9-17.7,17.7c0,9.7,7.9,17.7,17.7,17.7c9.7,0,17.7-7.9,17.7-17.7
				C521.9,389.9,513.9,381.9,504.2,381.9z M504.2,412.8c-7.3,0-13.2-5.9-13.2-13.2c0-7.3,5.9-13.2,13.2-13.2
				c7.3,0,13.2,5.9,13.2,13.2C517.4,406.8,511.5,412.8,504.2,412.8z M504.2,389.5c-5.5,0-10,4.5-10,10c0,5.5,4.5,10,10,10
				c5.5,0,10-4.5,10-10C514.3,394.1,509.7,389.5,504.2,389.5z"/>
		</g>
	</g>
	<g>
		<g>
			<path class="st1" d="M592,553.7l-91.5-52.8l0-105.7l91.5-52.9l91.6,52.8l0,105.7L592,553.7z M508,496.5l83.9,48.4l83.9-48.5
				l0-96.9l-83.9-48.4L508,399.6L508,496.5z"/>
			<path class="st1" d="M592,555.5l-93.1-53.7l0-107.5l93.1-53.8l93.1,53.7l0,107.5L592,555.5z M502,500l90,51.9l90-52l0-103.9
				l-90-51.9l-90,52L502,500z M592,546.7l-85.5-49.3l0-98.7l85.5-49.4l85.5,49.3l0,98.7L592,546.7z M509.6,495.6l82.4,47.5
				l82.3-47.6l0-95.1l-82.4-47.5l-82.3,47.6L509.6,495.6z"/>
		</g>
	</g>
	<g>
		<g>
			<circle class="st1" cx="591.9" cy="346.7" r="15.4"/>
			<path class="st1" d="M591.9,363.7c-9.4,0-17-7.6-17-17c0-9.4,7.6-17,17-17c9.4,0,17,7.6,17,17C608.9,356,601.3,363.7,591.9,363.7
				z M591.9,332.8c-7.6,0-13.8,6.2-13.8,13.9c0,7.6,6.2,13.8,13.9,13.8c7.6,0,13.8-6.2,13.8-13.9C605.8,339,599.6,332.8,591.9,332.8
				z"/>
		</g>
		<g>
			<path class="st1" d="M591.9,365.9c-10.6,0-19.2-8.6-19.2-19.2s8.6-19.2,19.2-19.2c10.6,0,19.2,8.6,19.2,19.2
				S602.5,365.9,591.9,365.9z M591.9,335.1c-6.4,0-11.6,5.2-11.6,11.6s5.2,11.6,11.6,11.6s11.6-5.2,11.6-11.6
				C603.5,340.3,598.3,335.1,591.9,335.1z"/>
			<path class="st1" d="M591.9,367.5c-11.5,0-20.8-9.3-20.8-20.8c0-11.5,9.3-20.8,20.8-20.8c11.5,0,20.8,9.3,20.8,20.8
				S603.4,367.5,591.9,367.5z M591.9,329c-9.7,0-17.7,7.9-17.7,17.7s7.9,17.7,17.7,17.7c9.7,0,17.7-7.9,17.7-17.7
				C609.6,336.9,601.7,329,591.9,329z M591.9,359.9c-7.3,0-13.2-5.9-13.2-13.2c0-7.3,5.9-13.2,13.2-13.2c7.3,0,13.2,5.9,13.2,13.2
				C605.1,353.9,599.2,359.9,591.9,359.9z M591.9,336.6c-5.5,0-10,4.5-10,10c0,5.5,4.5,10,10,10c5.5,0,10-4.5,10-10
				S597.5,336.6,591.9,336.6z"/>
		</g>
	</g>
	<g>
		<g>
			<circle class="st1" cx="679.7" cy="399.6" r="15.4"/>
			<path class="st1" d="M679.7,416.5c-9.4,0-17-7.6-17-17s7.6-17,17-17c9.4,0,17,7.6,17,17C696.7,408.9,689,416.5,679.7,416.5z
				 M679.7,385.7c-7.6,0-13.8,6.2-13.8,13.9c0,7.6,6.2,13.8,13.9,13.8c7.6,0,13.8-6.2,13.8-13.9
				C693.5,391.9,687.3,385.7,679.7,385.7z"/>
		</g>
		<g>
			<path class="st1" d="M679.7,418.8c-10.6,0-19.2-8.6-19.2-19.2c0-10.6,8.6-19.2,19.2-19.2c10.6,0,19.2,8.6,19.2,19.2
				S690.3,418.8,679.7,418.8z M679.7,387.9c-6.4,0-11.6,5.2-11.6,11.6s5.2,11.6,11.6,11.6c6.4,0,11.6-5.2,11.6-11.6
				C691.3,393.1,686.1,387.9,679.7,387.9z"/>
			<path class="st1" d="M679.7,420.3c-11.5,0-20.8-9.3-20.8-20.8c0-11.5,9.3-20.8,20.8-20.8c11.5,0,20.8,9.3,20.8,20.8
				C700.5,411,691.1,420.3,679.7,420.3z M679.7,381.9c-9.7,0-17.7,7.9-17.7,17.7c0,9.7,7.9,17.7,17.7,17.7c9.7,0,17.7-7.9,17.7-17.7
				C697.3,389.8,689.4,381.9,679.7,381.9z M679.7,412.7c-7.3,0-13.2-5.9-13.2-13.2c0-7.3,5.9-13.2,13.2-13.2
				c7.3,0,13.2,5.9,13.2,13.2C692.8,406.8,686.9,412.7,679.7,412.7z M679.7,389.5c-5.5,0-10,4.5-10,10c0,5.5,4.5,10,10,10
				c5.5,0,10-4.5,10-10C689.7,394,685.2,389.5,679.7,389.5z"/>
		</g>
	</g>
	<g>
		<g>
			<circle class="st1" cx="679.7" cy="499.1" r="15.4"/>
			<path class="st1" d="M679.7,516.1c-9.4,0-17-7.6-17-17c0-9.4,7.6-17,17-17c9.4,0,17,7.6,17,17S689.1,516.1,679.7,516.1z
				 M679.7,485.3c-7.6,0-13.8,6.2-13.8,13.9c0,7.6,6.2,13.8,13.9,13.8c7.6,0,13.8-6.2,13.8-13.9
				C693.5,491.5,687.3,485.3,679.7,485.3z"/>
		</g>
		<g>
			<path class="st1" d="M679.7,518.4c-10.6,0-19.2-8.6-19.2-19.2c0-10.6,8.6-19.2,19.2-19.2s19.2,8.6,19.2,19.2
				C698.9,509.7,690.3,518.4,679.7,518.4z M679.7,487.5c-6.4,0-11.6,5.2-11.6,11.6s5.2,11.6,11.6,11.6s11.6-5.2,11.6-11.6
				S686.1,487.5,679.7,487.5z"/>
			<path class="st1" d="M679.7,519.9c-11.5,0-20.8-9.3-20.8-20.8c0-11.5,9.3-20.8,20.8-20.8s20.8,9.3,20.8,20.8
				C700.5,510.6,691.2,519.9,679.7,519.9z M679.7,481.5c-9.7,0-17.7,7.9-17.7,17.7c0,9.7,7.9,17.7,17.7,17.7
				c9.7,0,17.7-7.9,17.7-17.7S689.4,481.5,679.7,481.5z M679.7,512.3c-7.3,0-13.2-5.9-13.2-13.2c0-7.3,5.9-13.2,13.2-13.2
				c7.3,0,13.2,5.9,13.2,13.2C692.9,506.4,687,512.3,679.7,512.3z M679.7,489.1c-5.5,0-10,4.5-10,10c0,5.5,4.5,10,10,10
				c5.5,0,10-4.5,10-10C689.7,493.6,685.2,489.1,679.7,489.1z"/>
		</g>
	</g>
	<g>
		<g>
			<circle class="st1" cx="767.4" cy="551.2" r="15.4"/>
			<path class="st1" d="M767.4,568.2c-9.4,0-17-7.6-17-17s7.6-17,17-17c9.4,0,17,7.6,17,17C784.4,560.6,776.8,568.2,767.4,568.2z
				 M767.4,537.4c-7.6,0-13.8,6.2-13.8,13.9c0,7.6,6.2,13.8,13.9,13.8c7.6,0,13.8-6.2,13.8-13.9
				C781.3,543.6,775.1,537.4,767.4,537.4z"/>
		</g>
		<g>
			<path class="st1" d="M767.4,570.5c-10.6,0-19.2-8.6-19.2-19.2c0-10.6,8.6-19.2,19.2-19.2c10.6,0,19.2,8.6,19.2,19.2
				C786.7,561.8,778,570.5,767.4,570.5z M767.4,539.6c-6.4,0-11.6,5.2-11.6,11.6s5.2,11.6,11.6,11.6c6.4,0,11.6-5.2,11.6-11.6
				S773.8,539.6,767.4,539.6z"/>
			<path class="st1" d="M767.4,572c-11.5,0-20.8-9.3-20.8-20.8s9.3-20.8,20.8-20.8c11.5,0,20.8,9.3,20.8,20.8
				C788.2,562.7,778.9,572,767.4,572z M767.4,533.6c-9.7,0-17.7,7.9-17.7,17.7s7.9,17.7,17.7,17.7c9.7,0,17.7-7.9,17.7-17.7
				C785.1,541.5,777.2,533.6,767.4,533.6z M767.4,564.4c-7.3,0-13.2-5.9-13.2-13.2s5.9-13.2,13.2-13.2c7.3,0,13.2,5.9,13.2,13.2
				C780.6,558.5,774.7,564.4,767.4,564.4z M767.4,541.2c-5.5,0-10,4.5-10,10c0,5.5,4.5,10,10,10c5.5,0,10-4.5,10-10
				C777.5,545.7,773,541.2,767.4,541.2z"/>
		</g>
	</g>
	<g>
		<g>
			<circle class="st1" cx="767.4" cy="346.7" r="15.4"/>
			<path class="st1" d="M767.4,363.6c-9.4,0-17-7.6-17-17c0-9.4,7.6-17,17-17c9.4,0,17,7.6,17,17S776.8,363.6,767.4,363.6z
				 M767.4,332.8c-7.6,0-13.8,6.2-13.8,13.9c0,7.6,6.2,13.8,13.9,13.8c7.6,0,13.8-6.2,13.8-13.9C781.2,339,775,332.8,767.4,332.8z"
				/>
		</g>
		<g>
			<path class="st1" d="M767.4,365.9c-10.6,0-19.2-8.6-19.2-19.2s8.6-19.2,19.2-19.2c10.6,0,19.2,8.6,19.2,19.2
				S778,365.9,767.4,365.9z M767.4,335c-6.4,0-11.6,5.2-11.6,11.6s5.2,11.6,11.6,11.6S779,353,779,346.6
				C779,340.2,773.8,335,767.4,335z"/>
			<path class="st1" d="M767.4,367.4c-11.5,0-20.8-9.3-20.8-20.8c0-11.5,9.3-20.8,20.8-20.8c11.5,0,20.8,9.3,20.8,20.8
				S778.9,367.4,767.4,367.4z M767.4,329c-9.7,0-17.7,7.9-17.7,17.7s7.9,17.7,17.7,17.7s17.7-7.9,17.7-17.7
				C785.1,336.9,777.1,329,767.4,329z M767.4,359.8c-7.3,0-13.2-5.9-13.2-13.2c0-7.3,5.9-13.2,13.2-13.2c7.3,0,13.2,5.9,13.2,13.2
				C780.6,353.9,774.7,359.8,767.4,359.8z M767.4,336.6c-5.5,0-10,4.5-10,10c0,5.5,4.5,10,10,10c5.5,0,10-4.5,10-10
				C777.4,341.1,772.9,336.6,767.4,336.6z"/>
		</g>
	</g>
	<g>
		<g>
			<circle class="st1" cx="855.1" cy="430.3" r="15.4"/>
			<path class="st1" d="M855.1,447.3c-9.4,0-17-7.6-17-17c0-9.4,7.6-17,17-17c9.4,0,17,7.6,17,17
				C872.1,439.7,864.5,447.3,855.1,447.3z M855.1,416.5c-7.6,0-13.8,6.2-13.8,13.9c0,7.6,6.2,13.8,13.9,13.8
				c7.6,0,13.8-6.2,13.8-13.9S862.8,416.5,855.1,416.5z"/>
		</g>
		<g>
			<path class="st1" d="M855.1,449.6c-10.6,0-19.2-8.6-19.2-19.2s8.6-19.2,19.2-19.2c10.6,0,19.2,8.6,19.2,19.2
				S865.7,449.6,855.1,449.6z M855.1,418.7c-6.4,0-11.6,5.2-11.6,11.6s5.2,11.6,11.6,11.6s11.6-5.2,11.6-11.6
				C866.7,423.9,861.5,418.7,855.1,418.7z"/>
			<path class="st1" d="M855.1,451.1c-11.5,0-20.8-9.3-20.8-20.8s9.3-20.8,20.8-20.8s20.8,9.3,20.8,20.8
				C875.9,441.8,866.6,451.1,855.1,451.1z M855.1,412.7c-9.7,0-17.7,7.9-17.7,17.7c0,9.7,7.9,17.7,17.7,17.7
				c9.7,0,17.7-7.9,17.7-17.7C872.8,420.6,864.9,412.7,855.1,412.7z M855.1,443.5c-7.3,0-13.2-5.9-13.2-13.2
				c0-7.3,5.9-13.2,13.2-13.2c7.3,0,13.2,5.9,13.2,13.2S862.4,443.5,855.1,443.5z M855.1,420.3c-5.5,0-10,4.5-10,10
				c0,5.5,4.5,10,10,10c5.5,0,10-4.5,10-10C865.2,424.8,860.7,420.3,855.1,420.3z"/>
		</g>
	</g>
	<g>
		<g>
			
				<rect x="162.1" y="677.2" transform="matrix(0.8642 -0.5031 0.5031 0.8642 -314.8022 195.6402)" class="st1" width="85.8" height="7.6"/>
			<path class="st1" d="M169.3,708l-5.4-9.3l76.8-44.7l5.4,9.3L169.3,708z M168.2,699.9l2.3,3.9l71.4-41.6l-2.3-3.9L168.2,699.9z"/>
		</g>
	</g>
	<g>
		<g>
			
				<rect x="157.3" y="664.6" transform="matrix(0.8642 -0.5031 0.5031 0.8642 -309.1421 191.5095)" class="st1" width="85.8" height="7.6"/>
			<path class="st1" d="M164.5,695.5l-5.4-9.3l76.9-44.7l5.4,9.3L164.5,695.5z M163.4,687.3l2.3,3.9l71.4-41.6l-2.3-3.9L163.4,687.3
				z"/>
		</g>
	</g>
	<g>
		<g>
			<rect x="412.7" y="499.2" class="st1" width="7.6" height="49.9"/>
			<path class="st1" d="M421.9,550.6l-10.7,0l0-53l10.7,0L421.9,550.6z M414.3,547.5l4.5,0l0-46.8l-4.5,0L414.3,547.5z"/>
		</g>
	</g>
	<g>
		<g>
			<circle class="st1" cx="679.7" cy="338.9" r="15.4"/>
			<path class="st1" d="M679.7,355.9c-9.4,0-17-7.6-17-17c0-9.4,7.6-17,17-17c9.4,0,17,7.6,17,17C696.6,348.2,689,355.8,679.7,355.9
				z M679.7,325c-7.6,0-13.8,6.2-13.8,13.9c0,7.6,6.2,13.8,13.9,13.8c7.6,0,13.8-6.2,13.8-13.9C693.5,331.2,687.3,325,679.7,325z"/>
		</g>
		<g>
			<path class="st1" d="M679.7,358.1c-10.6,0-19.2-8.6-19.2-19.2s8.6-19.2,19.2-19.2c10.6,0,19.2,8.6,19.2,19.2
				C698.9,349.5,690.3,358.1,679.7,358.1z M679.7,327.3c-6.4,0-11.6,5.2-11.6,11.6s5.2,11.6,11.6,11.6s11.6-5.2,11.6-11.6
				C691.3,332.5,686.1,327.3,679.7,327.3z"/>
			<path class="st1" d="M679.7,359.7c-11.5,0-20.8-9.3-20.8-20.8s9.3-20.8,20.8-20.8s20.8,9.3,20.8,20.8
				C700.5,350.3,691.1,359.7,679.7,359.7z M679.7,321.2c-9.7,0-17.7,7.9-17.7,17.7c0,9.7,7.9,17.7,17.7,17.7
				c9.7,0,17.7-7.9,17.7-17.7C697.3,329.1,689.4,321.2,679.7,321.2z M679.7,352c-7.3,0-13.2-5.9-13.2-13.2c0-7.3,5.9-13.2,13.2-13.2
				c7.3,0,13.2,5.9,13.2,13.2C692.8,346.1,686.9,352,679.7,352z M679.7,328.8c-5.5,0-10,4.5-10,10c0,5.5,4.5,10,10,10
				c5.5,0,10-4.5,10-10C689.7,333.3,685.2,328.8,679.7,328.8z"/>
		</g>
	</g>
	<g>
		<g>
			<rect x="675.9" y="358.1" class="st1" width="7.6" height="49.9"/>
			<path class="st1" d="M685.1,409.5l-10.7,0l0-53l10.7,0L685.1,409.5z M677.4,406.4l4.5,0l0-46.8l-4.5,0L677.4,406.4z"/>
		</g>
	</g>
	<g>
		<g>
			
				<ellipse transform="matrix(0.707 -0.7073 0.7073 0.707 28.5798 664.5579)" class="st1" cx="816.2" cy="297.8" rx="15.4" ry="15.4"/>
			<path class="st1" d="M816.2,314.8c-4.5,0-8.8-1.8-12-5c-3.2-3.2-5-7.5-5-12c0-4.5,1.8-8.8,5-12c3.2-3.2,7.5-5,12-5
				c4.5,0,8.8,1.8,12,5c6.6,6.6,6.6,17.4,0,24l0,0C825,313,820.8,314.8,816.2,314.8z M816.2,283.9c-3.7,0-7.2,1.4-9.8,4.1
				c-2.6,2.6-4.1,6.1-4.1,9.8c0,3.7,1.4,7.2,4.1,9.8c2.6,2.6,6.1,4.1,9.8,4.1c3.7,0,7.2-1.4,9.8-4.1c5.4-5.4,5.4-14.2,0-19.6
				C823.4,285.4,819.9,283.9,816.2,283.9z"/>
		</g>
		<g>
			<path class="st1" d="M816.2,317c-4.9,0-9.8-1.9-13.6-5.6c-7.5-7.5-7.5-19.7,0-27.2c7.5-7.5,19.7-7.5,27.2,0
				c7.5,7.5,7.5,19.7,0,27.2v0C826.1,315.1,821.2,317,816.2,317z M816.2,286.2c-3,0-5.9,1.1-8.2,3.4c-4.5,4.5-4.5,11.9,0,16.4
				c4.5,4.5,11.9,4.5,16.4,0c4.5-4.5,4.5-11.9,0-16.4C822.2,287.3,819.2,286.2,816.2,286.2z"/>
			<path class="st1" d="M816.2,318.6c-5.6,0-10.8-2.2-14.7-6.1c-8.1-8.1-8.1-21.3,0-29.4c3.9-3.9,9.1-6.1,14.7-6.1
				s10.8,2.2,14.7,6.1c8.1,8.1,8.1,21.3,0,29.4C827,316.4,821.8,318.6,816.2,318.6z M816.2,280.1c-4.7,0-9.2,1.8-12.5,5.2
				c-6.9,6.9-6.9,18.1,0,25c3.3,3.3,7.8,5.2,12.5,5.2c4.7,0,9.2-1.8,12.5-5.2c6.9-6.9,6.9-18.1,0-25
				C825.4,282,821,280.1,816.2,280.1z M816.2,311c-3.5,0-6.8-1.4-9.3-3.9c-5.1-5.1-5.1-13.5,0-18.6c2.5-2.5,5.8-3.9,9.3-3.9
				c3.5,0,6.8,1.4,9.3,3.9c5.1,5.1,5.1,13.5,0,18.6C823.1,309.6,819.8,311,816.2,311z M816.2,287.8c-2.7,0-5.2,1-7.1,2.9
				c-3.9,3.9-3.9,10.3,0,14.2c3.8,3.8,10.4,3.8,14.2,0c3.9-3.9,3.9-10.3,0-14.2C821.4,288.8,818.9,287.8,816.2,287.8z"/>
		</g>
	</g>
	<g>
		<g>
			
				<rect x="760.1" y="325.2" transform="matrix(0.707 -0.7073 0.7073 0.707 -2.6472 651.6347)" class="st1" width="49.9" height="7.6"/>
			<path class="st1" d="M770.1,351.6l-7.6-7.6l37.5-37.5l7.6,7.6L770.1,351.6z M766.9,344l3.2,3.2l33.1-33.1l-3.2-3.2L766.9,344z"/>
		</g>
	</g>
	<g>
		<g>
			<path class="st1" d="M768.5,554.3l-92.6-53.4l0-105.7l92.1-53.2l92.2,88L768.5,554.3z M683.5,496.4l82.9,47.8l83.7-113.5
				l-83.3-79.4l-83.3,48.1L683.5,496.4z"/>
			<path class="st1" d="M768.9,556.3l-94.6-54.6l0-107.5l93.9-54.2l94.1,89.7L768.9,556.3z M677.5,499.9l90.6,52.3l90.1-122.1
				l-90.4-86.2L677.4,396L677.5,499.9z M766.8,546.3l-84.9-49l0-98.7l85.1-49.2l85.1,81.2L766.8,546.3z M685.1,495.5l80.9,46.7
				L848,431l-81.4-77.6L685,400.4L685.1,495.5z"/>
		</g>
	</g>
</g>
</svg>
