<?xml version="1.0" encoding="utf-8"?>
<!-- Generator: Adobe Illustrator 21.0.0, SVG Export Plug-In . SVG Version: 6.00 Build 0)  -->
<svg version="1.1" id="Layer_1" xmlns="http://www.w3.org/2000/svg" xmlns:xlink="http://www.w3.org/1999/xlink" x="0px" y="0px"
	 viewBox="0 0 1000 1000" style="enable-background:new 0 0 1000 1000;" xml:space="preserve">
<style type="text/css">
	.st0{fill:#A2A2A2;}
	.st1{fill:#7E2918;}
</style>
<g>
	<g>
		<g>
			<g>
				<path class="st0" d="M501.8,2.4C226.5,2.4,2.5,226.4,2.5,501.6s224,499.2,499.2,499.2s499.2-224,499.2-499.2S777,2.4,501.8,2.4z
					 M501.8,951C254,951,52.4,749.4,52.4,501.6S254,52.3,501.8,52.3s449.3,201.6,449.3,449.3S749.5,951,501.8,951z"/>
			</g>
		</g>
	</g>
	<g transform="translate(0 1)">
		<g>
			<path class="st1" d="M784.4,295.4c-3,0-5-1-6.9-3L710,225c-4-4-4-9.9,0-13.9c4-4,9.9-4,13.9,0l67.4,67.4c4,4,4,9.9,0,13.9
				C789.3,294.4,786.3,295.4,784.4,295.4z"/>
		</g>
		<g>
			<path class="st1" d="M703.1,340c-3,0-5-1-6.9-3l-34.7-34.7c-4-4-4-9.9,0-13.9l63.5-63.5c4-4,9.9-4,13.9,0l34.7,34.7
				c4,4,4,9.9,0,13.9L710,337C708,339,705,340,703.1,340z M681.2,295.4l20.8,20.8l48.6-49.6l-20.8-20.8L681.2,295.4z"/>
		</g>
		<g>
			<path class="st1" d="M429.4,655.3c-3,0-5-1-6.9-3L352,582c-2-2-3-4-3-6.9s1-5,3-6.9l294.5-293.5c2-2,4-3,6.9-3l0,0c3,0,5,1,6.9,3
				l70.4,70.4c4,4,4,9.9,0,13.9L436.3,652.4C434.3,654.3,431.3,655.3,429.4,655.3z M372.8,576l56.5,56.5L710,351.9l-56.5-56.5
				L372.8,576z"/>
		</g>
		<g>
			<path class="st1" d="M737.8,374.7c-3,0-5-1-6.9-3l-98.2-98.2c-4-4-4-9.9,0-13.9c4-4,9.9-4,13.9,0l98.2,98.2c4,4,4,9.9,0,13.9
				C742.7,374.7,740.7,374.7,737.8,374.7z"/>
		</g>
		<g>
			<path class="st1" d="M365.9,672.2c-5,0-10.9-2-14.9-5.9l0,0l-12.9-12.9c-4-4-5.9-8.9-5.9-14.9s2-10.9,5.9-14.9l34.7-34.7
				c4-4,9.9-4,13.9,0l27.8,27.8c2,2,3,4,3,6.9s-1,5-3,6.9l-34.7,34.7C376.8,670.2,371.9,672.2,365.9,672.2z M365.9,652.4h1
				l27.8-27.8l-13.9-13.9L353,638.5v1L365.9,652.4z"/>
		</g>
		<g>
			<path class="st1" d="M219.1,793.2c-3,0-5-1-6.9-3c-4-4-4-9.9,0-13.9l132.9-130.9c4-4,9.9-4,13.9,0s4,9.9,0,13.9L226.1,790.2
				C224.1,792.2,221.1,793.2,219.1,793.2z"/>
		</g>
		<g>
			<path class="st1" d="M653.5,346.9c-3,0-5-1-6.9-3l-27.8-27.8c-4-4-4-9.9,0-13.9s9.9-4,13.9,0l27.8,27.8c4,4,4,9.9,0,13.9
				C658.4,346,656.4,346.9,653.5,346.9z"/>
		</g>
		<g>
			<path class="st1" d="M625.7,374.7c-3,0-5-1-6.9-3L591,344c-4-4-4-9.9,0-13.9s9.9-4,13.9,0l27.8,27.8c4,4,4,9.9,0,13.9
				C630.7,374.7,627.7,374.7,625.7,374.7z"/>
		</g>
		<g>
			<path class="st1" d="M597.9,403.5c-3,0-5-1-6.9-3l-27.8-27.8c-4-4-4-9.9,0-13.9c4-4,9.9-4,13.9,0l27.8,27.8c4,4,4,9.9,0,13.9
				C602.9,402.5,599.9,403.5,597.9,403.5z"/>
		</g>
		<g>
			<path class="st1" d="M569.2,431.2c-3,0-5-1-6.9-3l-27.8-27.8c-4-4-4-9.9,0-13.9c4-4,9.9-4,13.9,0l27.8,27.8c4,4,4,9.9,0,13.9
				C574.1,430.2,572.2,431.2,569.2,431.2z"/>
		</g>
		<g>
			<path class="st1" d="M579.1,505.6H439.3c-5.9,0-9.9-4-9.9-9.9s4-9.9,9.9-9.9h139.8c5.9,0,9.9,4,9.9,9.9S585,505.6,579.1,505.6z"
				/>
		</g>
	</g>
</g>
</svg>
