<?xml version="1.0" encoding="utf-8"?>
<!-- Generator: Adobe Illustrator 21.0.0, SVG Export Plug-In . SVG Version: 6.00 Build 0)  -->
<svg version="1.1" id="Layer_1" xmlns="http://www.w3.org/2000/svg" xmlns:xlink="http://www.w3.org/1999/xlink" x="0px" y="0px"
	 viewBox="0 0 1000 1000" style="enable-background:new 0 0 1000 1000;" xml:space="preserve">
<style type="text/css">
	.st0{fill:#A2A2A2;}
	.st1{fill:#7E2918;}
</style>
<g>
	<path class="st0" d="M502.8,2.8C227.5,2.8,3.5,226.7,3.5,502s224,499.2,499.2,499.2S1002,777.3,1002,502S778,2.8,502.8,2.8z
		 M502.8,951.3C255,951.3,53.4,749.8,53.4,502S255,52.7,502.8,52.7S952.1,254.2,952.1,502S750.5,951.3,502.8,951.3z"/>
</g>
<g>
	<g>
		<g>
			<path class="st1" d="M730.2,373.5v-0.3c0-1.2-0.1-2.5-0.2-3.7c0,0,0-0.1,0-0.2c-0.1-1.4-0.2-2.8-0.2-4.2c-0.1-1-0.2-2-0.2-3.1
				c-0.4-4.6-1-9.2-1.8-13.8c-0.2-1.3-0.5-2.6-0.7-3.9c-0.2-1.3-0.5-2.6-0.8-3.9c-0.2-1.1-0.5-2.2-0.7-3.3c-0.2-0.7-0.3-1.3-0.5-2
				c-0.2-1-0.5-2-0.8-3c-0.3-1.2-0.6-2.3-1-3.5c-0.5-1.7-1-3.5-1.6-5.2c-0.4-1.4-0.9-2.7-1.4-4.1c-0.4-1.2-0.9-2.5-1.4-3.7
				c-0.5-1.3-1-2.5-1.5-3.8c-0.2-0.4-0.3-0.9-0.5-1.3c-0.4-1.1-0.9-2.1-1.3-3.2c-0.5-1.2-1-2.3-1.6-3.5c-0.1-0.2-0.2-0.5-0.4-0.7
				c-0.6-1.2-1.2-2.4-1.7-3.6c-0.6-1.3-1.3-2.6-2-3.9c-0.6-1.2-1.3-2.4-1.9-3.6c-0.1-0.1-0.1-0.2-0.2-0.3c-0.7-1.2-1.4-2.4-2.1-3.7
				c-0.7-1.3-1.6-2.6-2.4-3.9c-0.8-1.2-1.6-2.5-2.3-3.7c-0.8-1.2-1.6-2.5-2.5-3.7c-0.1-0.1-0.2-0.2-0.2-0.4
				c-0.8-1.1-1.6-2.2-2.3-3.3c-0.7-0.9-1.4-1.8-2.1-2.8c-4.7-6.2-9.9-12.2-15.5-17.9c-19-19.4-41-35.2-65.4-47.1l13.4-1.9
				c-0.1,0-0.1-0.1-0.2-0.1l-25.5-9.3l-21.7-4.3c0,0,0,0,0,0l-21.6-4.3l-3.2-0.7c-0.3-0.1-0.7-0.1-1-0.2l-10.7-2.2l0.3,0.6
				c-31.6-4.2-62.7-3.6-92.5,1.9c-1,0.2-1.9,0.3-2.9,0.5l-1.1,0.2c-28.1,8.1-60.6,19.3-88.6,40.1c-15.2,11.3-28.3,23.4-39.3,36.4
				l0,0c-15,17.7-26.1,37-33.3,57.7c-0.4,1.1-0.7,2.2-1.1,3.3c-2.6,7.9-4.6,16-6,24.3c-0.2,1.3-0.4,2.6-0.6,3.9c-0.6,4-1.1,8-1.4,12
				c-0.1,1.3-0.2,2.7-0.3,4.1c0,0.7-0.1,1.3-0.1,2c-0.1,1.5-0.2,3.1-0.2,4.6c-0.1,1.9-0.1,3.8-0.1,5.7c0,1.8,0,3.6,0.1,5.4
				c0.9,33.8,11.7,65.5,32.1,94.1c2,2.8,2,3.3,0.8,6.1c-6.9,16.9-13.2,34-19.3,50.5c-9.2,24.8-1.1,46.1,21.1,55.6
				c26.2,11.2,54.9,1.3,65.4-22.3c3.2-7.4,6-14.9,8.5-22.2c1.6,0.8,3.2,1.6,4.6,2.3l1.9,0.9c4.1,2,8.3,4.1,10.2,5.3
				c-0.1,2.4-1,7.1-1.9,11.8c-0.9,4.6-1.7,9.2-2.5,13.9c-1.2,6.7-2.4,13.7-3.7,20.4c-4.2,20.6,1.2,36.1,16,46
				c4.6,3.1,9.4,5.4,14.3,7c0.7,0.2,1.5,0.5,2.3,0.7c0.8,0.2,1.6,0.4,2.3,0.6c0.8,0.2,1.6,0.3,2.3,0.4s1.6,0.2,2.3,0.3
				c1.9,0.2,3.8,0.3,5.7,0.3c0.6,0,1.2,0,1.7,0h0.6c2.8-0.2,5.6-0.5,8.4-1.1c0.6-0.1,1.1-0.2,1.7-0.4c0.4-0.1,0.7-0.2,1.1-0.2
				c0.4-0.1,0.9-0.2,1.3-0.4c2.7-0.8,5.4-1.8,8.1-3c13.4-6,21.7-17.4,24.1-33.1c1.1-7.2,2.3-14.5,3.6-21.5
				c1.2-7.1,2.5-14.4,3.6-21.7c8.9,1.5,16,1.4,22.3-0.3c0.4-0.1,0.7-0.2,1-0.3c0.2,0.8,0.3,2,0.5,3.5c2,15.4,4.9,30.6,7.5,43.4
				c5,24.7,29.2,39.3,56.2,33.8c26.6-5.4,40.3-25.2,35.6-51.6c-1-5.6-2-11.3-2.9-17c-1.8-10.8-3.7-21.9-5.9-33
				c5.6-2.5,11.2-5.3,16.7-8.1c2.6,7.2,5.5,14.8,8.8,22.9c6.8,16.8,21.1,26.5,40.4,27.2c26,1,39.3-12.1,46-23.2
				c8.8-14.8,3.2-29.6,1.3-34.4c-2.5-6.5-4.9-13-7.4-19.5c-4.5-11.9-9.1-24.2-13.9-36.4c-0.7-1.8-0.7-1.9,0.8-4.2
				c9.9-14.4,17.3-29.7,22.5-45.5c0.4-1.1,0.7-2.1,1-3.2c0.4-1.4,0.8-2.8,1.2-4.2c0.4-1.2,0.7-2.4,1-3.6c0.4-1.6,0.8-3.2,1.2-4.9
				c1.5-6.4,2.6-12.9,3.3-19.4c0.2-2.2,0.4-4.3,0.6-6.5c0.2-2.2,0.3-4.3,0.3-6.5c0.1-2.2,0.1-4.3,0.1-6.5
				C730.2,376.4,730.2,374.9,730.2,373.5z M678.3,464c-3.9,5.7-8.5,14.8-3.4,27.6c4.7,11.9,9.3,24.1,13.7,35.9
				c2.5,6.6,4.9,13.1,7.4,19.6c2.8,7.4,2,10.5,0.6,12.8c-3.2,5.4-9,11.6-23.6,11c-12.1-0.5-15.9-6.1-18.1-11.6
				c-4.2-10.5-7.8-19.9-10.9-29c-0.8-2.3-3.3-9.4-10.5-12.2c-4.9-1.8-10.1-1.2-15.8,2c-7.7,4.3-15.8,8.4-23.9,11.9
				c-10.6,4.7-14.8,13-12.4,24.8c2.3,11.2,4.3,22.9,6.2,34.1c1,5.7,1.9,11.5,3,17.2c2.3,13.1-2.6,20.1-16,22.8
				c-13.5,2.7-24.5-3.1-26.7-14.3c-2.5-12.4-5.3-27-7.2-41.6c-1-8-3.1-16.8-11-22.1c-5.8-3.9-13.1-4.5-22.1-2
				c-2.8,0.8-7.1,0.6-12.8-0.5c-7.4-1.4-13.4-0.5-18.3,3c-7.3,5.1-8.5,13.7-9,16.4c-1.1,7.6-2.5,15.3-3.8,22.8
				c-1.2,7.2-2.6,14.7-3.7,22.1c-1.4,9.4-5.9,12.4-9.6,14.1c-10.1,4.5-19.3,3.8-28.1-2.1c-5.2-3.5-8-8.1-5.5-20.3
				c1.5-7.1,2.7-14.2,3.9-21.1c0.8-4.5,1.6-9,2.5-13.6c5.1-26.9,2.4-32.3-22-44.2l-2-1c-3.2-1.5-6.2-3-8.5-4.6
				c-5.5-4-11-5.2-16.3-3.6c-8,2.5-10.7,10.1-11.7,13l-1.7,4.8c-2.8,8-5.4,15.4-8.6,22.7c-5,11.3-19,15.3-32.7,9.5
				c-6.6-2.8-13.4-8.1-7.5-24c6-16.3,12.3-33.2,19-49.8c4.4-10.8,3.2-20.3-3.7-30c-17.4-24.5-26.7-51.5-27.4-80.2
				c-1.5-56.1,22.2-101.5,72.3-138.8c2.1-1.5,4.1-3,6.2-4.4c2.6-1.7,5.3-3.4,8-5c1.6-1,3.2-1.9,4.9-2.8c1.6-0.9,3.3-1.8,4.9-2.7
				c0.1,0,0.1-0.1,0.2-0.1c4.9-2.5,9.9-4.8,14.9-6.9c1.8-0.7,3.6-1.5,5.4-2.2c3.3-1.3,6.6-2.6,10-3.7c1.7-0.6,3.4-1.2,5.1-1.8
				c1.9-0.6,3.7-1.2,5.6-1.8c5-1.6,10-3.1,14.9-4.5c30.4-5.9,62.3-6.2,94.9-0.9c3.7,2,7.8,3.1,12.4,3.2c0.4,0.2,0.9,0.3,1.4,0.5
				c1.8,0.5,3.6,0.7,5.4,0.5l0.2,0.1c0.4,0.3,0.9,0.7,1.3,0.9c0.4,0.3,0.9,0.5,1.3,0.7c1.5,0.8,3,1.4,4.3,1.8
				c0.6,0.2,1.1,0.3,1.6,0.4c0.5,0.1,1,0.2,1.4,0.3c0.5,0.1,0.9,0.2,1.4,0.4c32.1,11.3,59,28.3,82.3,52
				C712.6,323.1,720,403,678.3,464z"/>
		</g>
	</g>
	<g>
		<g>
			<path class="st1" d="M776.6,597.6c-4.3-13.4-8.7-27.3-13.4-40.9c-1.4-4.1-1.1-6.3,1.3-10.2c28.7-47.3,43.3-101.5,43.3-161.1
				c0-9.8-2.5-19.1-7.7-28.3c-38.4-68.6-93.8-119-164.4-149.7c-3.1-1.3-6.3-2.7-9.5-4.1c-0.1,0-0.1-0.1-0.2-0.1
				c-8.1-3.4-16.5-6.7-25.5-9.3c-7-2-14.2-3.6-21.7-4.3c0,0,0,0,0,0c-1.7-0.2-3.4-0.3-5.1-0.4l-25.3-1.4l14.3,20.9
				c1.3,1.8,2.7,3.3,4.2,4.4c0.4,0.3,0.9,0.7,1.3,0.9c0.4,0.3,0.9,0.5,1.3,0.7c1.5,0.8,3,1.4,4.3,1.8c0.6,0.2,1.1,0.3,1.6,0.4
				c0.5,0.1,1,0.2,1.4,0.3c0.5,0.1,0.9,0.2,1.4,0.4c32.1,11.3,59,28.3,82.3,52C712.6,323.1,720,403,678.3,464
				c-3.9,5.7-8.5,14.8-3.4,27.6c4.7,11.9,9.3,24.1,13.7,35.9c2.5,6.6,4.9,13.1,7.4,19.6c2.8,7.4,2,10.5,0.6,12.8
				c-3.2,5.4-9,11.6-23.6,11c-12.1-0.5-15.9-6.1-18.1-11.6c-4.2-10.5-7.8-19.9-10.9-29c-0.8-2.3-3.3-9.4-10.5-12.2
				c-4.9-1.8-10.1-1.2-15.8,2c-7.7,4.3-15.8,8.4-23.9,11.9c-10.6,4.7-14.8,13-12.4,24.8c2.3,11.2,4.3,22.9,6.2,34.1
				c1,5.7,1.9,11.5,3,17.2c2.3,13.1-2.6,20.1-16,22.8c-13.5,2.7-24.5-3.1-26.7-14.3c-2.5-12.4-5.3-27-7.2-41.6
				c-1-8-3.1-16.8-11-22.1c-5.8-3.9-13.1-4.5-22.1-2c-2.8,0.8-7.1,0.6-12.8-0.5c-7.4-1.4-13.4-0.5-18.3,3c-7.3,5.1-8.5,13.7-9,16.4
				c-1.1,7.6-2.5,15.3-3.8,22.8c-1.2,7.2-2.6,14.7-3.7,22.1c-1.4,9.4-5.9,12.4-9.6,14.1c-10.1,4.5-19.3,3.8-28.1-2.1
				c-5.2-3.5-8-8.1-5.5-20.3c1.5-7.1,2.7-14.2,3.9-21.1c0.8-4.5,1.6-9,2.5-13.6c5.1-26.9,2.4-32.3-22-44.2l-2-1
				c-3.2-1.5-6.2-3-8.5-4.6c-5.5-4-11-5.2-16.3-3.6c-8,2.5-10.7,10.1-11.7,13l-1.7,4.8c-2.8,8-5.4,15.4-8.6,22.7
				c-5,11.3-19,15.3-32.7,9.5c-6.6-2.8-13.4-8.1-7.5-24c6-16.3,12.3-33.2,19-49.8c4.4-10.8,3.2-20.3-3.7-30
				c-17.4-24.5-26.7-51.5-27.4-80.2c-1.5-56.1,22.2-101.5,72.3-138.8c2.1-1.5,4.1-3,6.2-4.4c2.6-1.8,5.3-3.4,8-5
				c1.6-1,3.2-1.9,4.9-2.8c1.6-0.9,3.3-1.8,4.9-2.7c0.1,0,0.1-0.1,0.2-0.1c4.9-2.5,9.9-4.8,14.9-6.9c1.8-0.7,3.6-1.5,5.4-2.2
				c3.3-1.3,6.6-2.6,10-3.7c1.7-0.6,3.4-1.2,5.1-1.8c1.9-0.6,3.7-1.2,5.6-1.8c5.1-1.7,10.3-3.2,15.4-4.7l36.4-10.5l-35.6-13.1
				c-1.3-0.5-2.6-0.8-3.8-1.1c-5.1-1-9.7-0.3-13.4,0.4c-100.3,21-177.7,75.6-230.3,162.3c-5.4,8.8-8.1,18.4-8.5,29.1
				c-2.1,62.3,12.3,119.4,42.7,169.7c3.7,6.2,4,10.6,1.2,19.1c-2.4,7.2-4.8,14.3-7.3,21.5c-7.2,21-14.7,42.7-20.1,65l-0.3,1.4
				l-0.1,32.5l0.5,1.8c7.1,23.7,29.5,40.1,55.7,40.8c23.2,0.7,47.3-15.8,54.9-37.5c4.7-13.6,9.6-28.1,14.1-42.9
				c9.6,6.2,19.6,12.5,30.7,17.4c-1.8,11.4-3.5,22.7-5.1,34.1c-2.7,18.5-5.6,37.6-8.7,56.4c-5,30.3,15.6,59.9,46,66.1
				c21.9,4.5,37.6-2.2,46.9-8.5c12.4-8.5,21.3-22.1,23.7-36.3c4.5-26.3,8-52.6,11.9-81.7c1.6,0.1,3.3,0.1,4.9,0.2
				c11,0.4,22.5,0.7,33.9-0.5c1,7.1,2,14.1,2.9,21.1c2.7,19.5,5.4,39.7,9,59.6c5.3,29.1,27.3,47.6,55.4,47.6c1.7,0,3.5-0.1,5.3-0.2
				c23.7-1.9,37.1-12.7,44.2-21.3c9.5-11.6,14-27.7,12-43c-3-23.7-6.9-47.6-10.7-70.6c-1.3-8.1-2.7-16.1-4-24.2
				c10.3-4.6,20.5-10.4,31-17.6c3.7,12.2,7.9,25.3,12.6,39.8c5.2,15.9,15.6,28.5,29.2,35.6c13.7,7.1,29.9,8.1,45.5,3
				c15.5-5.1,28.4-16.1,35.4-30.4c6.9-14,7.7-30,2.3-45.2C787.7,632.5,782,614.8,776.6,597.6z M769.1,683.8
				c-4,8.2-11.6,14.7-20.7,17.7c-9.4,3.1-18.5,2.6-26.3-1.5c-7.9-4.1-13.8-11.4-17-21.1c-5.8-17.7-10.7-33.3-15-47.6
				c-0.8-2.7-3.2-10.8-11.5-13.6c-8.2-2.7-15.2,2.3-17.4,4c-12.4,9.1-24.1,15.9-35.8,20.9c-10.2,4.4-14.4,12.7-12.4,24.7
				c1.3,8.5,2.7,16.9,4.2,25.4c3.7,22.8,7.6,46.5,10.6,69.7c1.1,8.7-1.4,17.7-6.6,24.2c-5.8,7.1-14.8,11.2-26.8,12.2
				c-18,1.5-30.8-8.6-34.2-27.1c-3.5-19.3-6.2-39.2-8.9-58.4c-1.1-7.6-2.1-15.2-3.2-22.8c-2.3-16.1-12.1-20.2-21.3-20.2
				c-1.4,0-2.9,0.1-4.2,0.2c-10.2,1.2-20.8,0.9-32,0.5c-2.3-0.1-4.7-0.2-7.1-0.2c-13.2-0.3-21.4,6.7-23.2,20
				c-3.9,29.5-7.5,56-12,82.5c-1,6-5,14.3-13.2,19.9c-7.6,5.2-17.2,6.8-27.8,4.6c-17.3-3.5-29.2-20.4-26.3-37.6
				c3.1-18.9,6-38.1,8.7-56.8c1.9-12.5,3.7-25.1,5.7-37.7c1.6-10-2.9-17.9-12.1-21.6c-11.7-4.7-22.4-11.6-33.7-19l-3.7-2.4
				c-2.3-1.5-9.3-6-17.1-3.1c-7.8,2.9-10.1,10.7-11,14c-5,16.9-10.6,33.7-16,49.3c-3.9,11.4-18.1,21.1-30.5,20.8
				c-14.8-0.4-27.5-9-32-21.5l0.1-25.7c5.1-20.7,12.2-41.4,19.1-61.4c2.5-7.2,5-14.5,7.4-21.7c3.6-10.9,6-24.1-3.5-39.9
				c-27.9-46.1-41-98.6-39.1-156c0.2-6.6,1.7-11.8,4.9-17.1c24.5-40.3,54.7-73.2,90.6-98.4c-15,17.7-26.1,37-33.3,57.7
				c-0.4,1.1-0.7,2.2-1.1,3.3c-2.6,7.9-4.6,16-6,24.3c-0.2,1.3-0.4,2.6-0.6,3.9c-0.6,4-1.1,8-1.4,12c-0.1,1.3-0.2,2.7-0.3,4.1
				c0,0.7-0.1,1.3-0.1,2c-0.1,1.5-0.2,3.1-0.2,4.6c-0.1,1.9-0.1,3.8-0.1,5.7c0,1.8,0,3.6,0.1,5.4c0.9,33.8,11.7,65.5,32.1,94.1
				c2,2.8,2,3.3,0.8,6.1c-6.9,16.9-13.2,34-19.3,50.5c-9.2,24.8-1.1,46.1,21.1,55.6c26.2,11.2,54.9,1.3,65.4-22.3
				c3.2-7.4,6-14.9,8.5-22.2c1.6,0.8,3.2,1.6,4.6,2.3l1.9,0.9c4.1,2,8.3,4.1,10.2,5.3c-0.1,2.4-1,7.1-1.9,11.8
				c-0.9,4.6-1.7,9.2-2.5,13.9c-1.2,6.7-2.4,13.7-3.7,20.4c-4.2,20.6,1.2,36.1,16,46c4.6,3.1,9.4,5.4,14.3,7
				c0.7,0.2,1.5,0.5,2.3,0.7c0.8,0.2,1.6,0.4,2.3,0.6c0.8,0.2,1.6,0.3,2.3,0.4s1.6,0.2,2.3,0.3c1,0.1,2,0.2,3,0.2c0.5,0,1.1,0,1.6,0
				c0.3,0,0.7,0,1,0c0.6,0,1.2,0,1.7,0h0.6c2.7-0.1,5.6-0.5,8.4-1.1c0.6-0.1,1.1-0.2,1.7-0.4c0.4-0.1,0.7-0.2,1.1-0.2
				c0.4-0.1,0.9-0.2,1.3-0.4c2.7-0.8,5.4-1.8,8.1-3c13.4-6,21.7-17.4,24.1-33.1c1.1-7.2,2.3-14.5,3.6-21.5
				c1.2-7.1,2.5-14.4,3.6-21.7c8.9,1.5,16,1.4,22.3-0.3c0.4-0.1,0.7-0.2,1-0.3c0.2,0.8,0.3,2,0.5,3.5c2,15.4,4.9,30.6,7.5,43.4
				c5,24.7,29.2,39.3,56.2,33.8c26.6-5.4,40.3-25.2,35.6-51.6c-1-5.6-2-11.3-2.9-17c-1.8-10.8-3.7-21.9-5.9-33
				c5.6-2.5,11.2-5.3,16.7-8.1c2.6,7.2,5.5,14.8,8.8,22.9c6.8,16.8,21.1,26.5,40.4,27.2c26,1,39.3-12.1,46-23.2
				c8.8-14.8,3.2-29.6,1.3-34.4c-2.5-6.5-4.9-13-7.4-19.5c-4.5-11.9-9.1-24.2-13.9-36.4c-0.7-1.8-0.7-1.9,0.8-4.2
				c9.9-14.4,17.3-29.7,22.5-45.5c0.4-1.1,0.7-2.1,1-3.2c0.4-1.4,0.8-2.8,1.2-4.2c0.4-1.2,0.7-2.4,1-3.6c0.4-1.6,0.8-3.2,1.2-4.9
				c1.5-6.4,2.6-12.9,3.3-19.4c0.2-2.2,0.4-4.3,0.6-6.5c0.2-2.2,0.3-4.3,0.3-6.5c0.1-2.2,0.1-4.3,0.1-6.5c0-1.4,0-2.8-0.1-4.2v-0.3
				c0-1.2-0.1-2.5-0.2-3.7c0,0,0-0.1,0-0.2c-0.1-1.4-0.2-2.8-0.2-4.2c-0.1-1-0.2-2-0.2-3.1c-0.4-4.6-1-9.2-1.8-13.8
				c-0.2-1.3-0.5-2.6-0.7-3.9c-0.2-1.3-0.5-2.6-0.8-3.9c-0.2-1.1-0.5-2.2-0.7-3.3c-0.2-0.7-0.3-1.3-0.5-2c-0.2-1-0.5-2-0.8-3
				c-0.3-1.2-0.6-2.3-1-3.5c-0.5-1.7-1-3.5-1.6-5.2c-0.4-1.4-0.9-2.7-1.4-4.1c-0.4-1.2-0.9-2.5-1.4-3.7c-0.5-1.3-1-2.5-1.5-3.8
				c-0.2-0.4-0.3-0.9-0.5-1.3c-0.4-1.1-0.9-2.1-1.3-3.2c-0.5-1.2-1-2.3-1.6-3.5c-0.1-0.2-0.2-0.5-0.4-0.7c-0.6-1.2-1.2-2.4-1.7-3.6
				c-0.6-1.3-1.3-2.6-2-3.9c-0.6-1.2-1.3-2.4-1.9-3.6c-0.1-0.1-0.1-0.2-0.2-0.3c-0.7-1.2-1.4-2.4-2.1-3.7c-0.7-1.3-1.6-2.6-2.4-3.9
				c-0.8-1.2-1.6-2.5-2.3-3.7c-0.8-1.2-1.6-2.5-2.5-3.7c-0.1-0.1-0.2-0.2-0.2-0.4c-0.8-1.1-1.6-2.2-2.3-3.3
				c-0.7-0.9-1.4-1.8-2.1-2.8c34,26.2,62.4,59.4,84.7,99.1c3.1,5.5,4.5,10.6,4.5,16.1c0,55.8-13,104.2-39.7,148.2
				c-6.2,10.2-7.3,20.1-3.6,31.2c4.6,13.4,9,27.1,13.2,40.4c5.6,17.3,11.3,35.3,17.5,52.9C774.3,669.2,771.8,678.2,769.1,683.8z"/>
		</g>
	</g>
</g>
</svg>
