<svg id="Layer_1" data-name="Layer 1" xmlns="http://www.w3.org/2000/svg" viewBox="0 0 1200 1200"><defs><style>.cls-1{fill:#7e2918;}.cls-2,.cls-9{fill:#fff;}.cls-3{fill:#eda677;}.cls-10,.cls-4{fill:#1b384c;}.cls-4,.cls-5,.cls-6{fill-rule:evenodd;}.cls-5{fill:#dddbdb;}.cls-6{fill:#e9e9f0;}.cls-7{fill:#0e2a30;}.cls-8{fill:#a2a2a2;}.cls-9{opacity:0.2;}.cls-11{fill:#9e302e;}.cls-12{fill:#f9f9f9;}.cls-13{fill:#b0b0b0;}.cls-14{fill:#84382f;}</style></defs><title>message</title><rect class="cls-1" width="1200" height="1200"/><circle class="cls-2" cx="600" cy="619.3" r="291.5"/><path class="cls-2" d="M208.3,624.1c-1.2-106.9,40.9-214,125.4-292.2s194.4-112.1,301-102.7l2.8-2.6c-7.4-.7-14.9-1.2-22.4-1.5A394.6,394.6,0,0,0,205.6,604.3c-.3,7.5-.3,15-.2,22.4Z"/><path class="cls-2" d="M938.3,421.5l2.1-2A398.8,398.8,0,0,0,795.2,276.1l-2.2,2A392.4,392.4,0,0,1,938.3,421.5Z"/><path class="cls-2" d="M988.7,570.5c15,121-26.3,247.3-122.4,336.4-158.5,146.9-407,137.4-553.9-21.2a390.5,390.5,0,0,1-67.4-100l-2.2,2A394.8,394.8,0,0,0,991.4,568.1Z"/><path class="cls-2" d="M315.1,463.2a324.5,324.5,0,0,1,44.1-61.9C477,271.2,676.9,258.8,809.8,371.4l1.7-1.9a327.4,327.4,0,0,0-454.3,30.1,329.8,329.8,0,0,0-45.2,63.6Z"/><path class="cls-2" d="M275.8,600.6h-2.8a333.4,333.4,0,0,0-.1,34.9,325.1,325.1,0,0,0,99.3,219l1.7-1.9C303.8,784.7,270.7,691.9,275.8,600.6Z"/><path class="cls-2" d="M888,463.2q-4.9-9.1-10.5-17.9l-1.9,2.1q4.9,7.8,9.2,15.8Z"/><path class="cls-2" d="M926.9,600.6h-2.8a323.8,323.8,0,0,1-83.3,236.8C741.2,947.4,583,973.2,456.1,910.6l-1.9,2.1A327.6,327.6,0,0,0,927,603.2C927,602.3,926.9,601.5,926.9,600.6Z"/><path class="cls-2" d="M732.6,944.8c4.8-2,9.6-4.1,14.2-6.3l-1.1-2.3c-4.6,2.2-9.4,4.3-14.1,6.3Z"/><path class="cls-2" d="M315.7,828.4l-2.1,1.5c3.1,4.1,6.3,8.3,9.6,12.3l2-1.6C322,836.6,318.8,832.5,315.7,828.4Z"/><path class="cls-2" d="M298.4,802.9l-2.2,1.4c2.7,4.4,5.5,8.8,8.5,13.1l2.1-1.5C303.9,811.6,301.1,807.2,298.4,802.9Z"/><path class="cls-2" d="M260.8,718.3l-2.5.7c1.5,5,3,10,4.7,14.9l2.5-.8C263.8,728.2,262.2,723.2,260.8,718.3Z"/><path class="cls-2" d="M356.9,874.5l-1.8,1.9c3.8,3.5,7.7,7,11.6,10.4l1.7-2C364.5,881.5,360.6,878,356.9,874.5Z"/><path class="cls-2" d="M283.4,775.8,281,777c2.3,4.6,4.8,9.3,7.3,13.8l2.3-1.3C288.1,785,285.7,780.4,283.4,775.8Z"/><path class="cls-2" d="M270.8,747.6l-2.4.9c1.9,4.8,3.9,9.7,6,14.4l2.4-1C274.7,757.2,272.7,752.4,270.8,747.6Z"/><path class="cls-2" d="M703.3,955.5c4.9-1.6,9.9-3.3,14.8-5l-.9-2.4c-4.8,1.8-9.7,3.4-14.6,5Z"/><path class="cls-2" d="M642.1,966.4l.3,2.6c5.1-.7,10.3-1.5,15.4-2.4l-.4-2.6C652.4,965,647.2,965.8,642.1,966.4Z"/><path class="cls-2" d="M672.6,961.1l.6,2.5c5.1-1.1,10.1-2.4,15.1-3.7l-.7-2.5C682.7,958.7,677.6,959.9,672.6,961.1Z"/><path class="cls-2" d="M380.3,894.7l-1.6,2c4.1,3.2,8.3,6.3,12.5,9.4l1.5-2.1C388.5,901,384.4,897.8,380.3,894.7Z"/><path class="cls-2" d="M405.5,912.7l-1.4,2.2c4.3,2.8,8.8,5.6,13.3,8.2l1.3-2.2C414.2,918.2,409.8,915.5,405.5,912.7Z"/><path class="cls-2" d="M469.8,945.7l-9.7-3.9-1,2.4,11.1,4.5Z"/><path class="cls-2" d="M432.1,928.4l-1.2,2.3c4.6,2.4,9.3,4.8,13.9,7l1.1-2.3C441.3,933.2,436.7,930.9,432.1,928.4Z"/><path class="cls-2" d="M335.3,852.4l-1.9,1.7c3.4,3.9,7,7.7,10.6,11.4l1.9-1.8C342.2,860,338.7,856.2,335.3,852.4Z"/><path class="cls-2" d="M326.1,397.5l-2-1.6c-3.3,4-6.5,8.1-9.6,12.3l2.1,1.6C319.6,405.6,322.8,401.5,326.1,397.5Z"/><path class="cls-2" d="M367.7,351.4c-3.9,3.4-7.8,6.8-11.6,10.4l1.8,1.9c3.8-3.5,7.6-7,11.5-10.3Z"/><path class="cls-2" d="M344.9,372.6c-3.6,3.7-7.2,7.5-10.7,11.4l1.9,1.7c3.4-3.8,7-7.6,10.6-11.3Z"/><path class="cls-2" d="M390,333.8c-3.5,2.5-6.9,5.1-10.3,7.7l1.6,2,9-6.8Z"/><path class="cls-2" d="M535.2,275l-.5-2.6-13.8,2.7.3,2.6C525.9,276.8,530.6,275.9,535.2,275Z"/><path class="cls-2" d="M611.4,969.1l.3,2.6c5.1-.2,10.2-.6,15.2-1l-.2-2.6C621.7,968.6,616.5,968.9,611.4,969.1Z"/><path class="cls-2" d="M305.4,420.8c-2.9,4.3-5.8,8.7-8.5,13.1l2.2,1.4c2.7-4.4,5.6-8.7,8.5-13Z"/><path class="cls-2" d="M288.9,447.3c-2.5,4.5-5,9.1-7.3,13.8l2.3,1.2c2.3-4.6,4.8-9.2,7.3-13.7Z"/><path class="cls-2" d="M254.4,534.1c-1.3,5-2.4,10.2-3.5,15.2l2.5.5c1-5,2.2-10.1,3.4-15.1Z"/><path class="cls-2" d="M274.9,475.1c-2.1,4.7-4.2,9.6-6.1,14.4l2.4,1c1.9-4.8,3.9-9.6,6-14.3Z"/><path class="cls-2" d="M263.4,504.1c-1.7,4.9-3.3,9.9-4.8,14.9l2.5.7c1.5-4.9,3.1-9.9,4.8-14.8Z"/><path class="cls-2" d="M934.3,720.4c1.5-5,2.9-10,4.1-15.1l-2.5-.6c-1.3,5-2.6,10-4.1,15Z"/><path class="cls-2" d="M916.4,477.6l2.4-1c-2.1-4.7-4.3-9.5-6.6-14.1l-2.3,1.2C912.1,468.2,914.3,472.9,916.4,477.6Z"/><path class="cls-2" d="M868,398.8l2-1.6c-3.3-4-6.7-8-10.1-11.9L858,387C861.4,390.8,864.8,394.8,868,398.8Z"/><path class="cls-2" d="M760.8,931.5c4.6-2.4,9.1-4.9,13.6-7.6l-1.3-2.2c-4.4,2.6-9,5.1-13.5,7.5Z"/><path class="cls-2" d="M886.4,423.5l2.1-1.5c-2.9-4.3-5.9-8.5-9-12.7l-2.1,1.5C880.6,415.1,883.6,419.3,886.4,423.5Z"/><path class="cls-2" d="M597.5,269.6V267c-5.2,0-10.4.1-15.6.3v2.6C587.2,269.7,592.4,269.6,597.5,269.6Z"/><path class="cls-2" d="M550.5,272.7h.8c5.1-.7,10.3-1.2,15.4-1.7l-.2-2.6c-5.1.4-10.4,1-15.5,1.7h-.7Z"/><path class="cls-2" d="M628.5,271l.2-2.6c-5.2-.5-10.4-.8-15.6-1.1V270C618.1,270.2,623.3,270.6,628.5,271Z"/><path class="cls-2" d="M718.9,291.7l.9-2.4c-4.9-1.8-9.8-3.6-14.7-5.1l-.8,2.5C709.1,288.1,714,289.8,718.9,291.7Z"/><path class="cls-2" d="M689.4,282.1l.7-2.5c-5-1.4-10.1-2.7-15.2-3.8l-.6,2.5C679.3,279.5,684.4,280.7,689.4,282.1Z"/><path class="cls-2" d="M659.1,275.2l.5-2.5c-5.1-.9-10.3-1.7-15.4-2.4l-.3,2.6C648.9,273.5,654.1,274.3,659.1,275.2Z"/><path class="cls-2" d="M902.6,449.9l2.3-1.3c-2.5-4.5-5.1-9-7.8-13.4l-2.2,1.4C897.5,440.9,900.1,445.4,902.6,449.9Z"/><path class="cls-2" d="M858.5,855.3c3.5-3.8,6.9-7.8,10.2-11.8l-2-1.6c-3.3,4-6.7,7.9-10.1,11.7Z"/><path class="cls-2" d="M878.3,831.3c3.1-4.1,6.2-8.4,9.1-12.7l-2.1-1.5c-2.9,4.2-5.9,8.5-9,12.6Z"/><path class="cls-2" d="M895.9,805.5c2.7-4.4,5.4-8.9,7.9-13.4l-2.3-1.3c-2.5,4.5-5.2,9-7.9,13.3Z"/><path class="cls-2" d="M787.6,915.8c4.3-2.8,8.7-5.7,12.9-8.7L799,905c-4.2,3-8.5,5.9-12.8,8.7Z"/><path class="cls-2" d="M911.2,778.3c2.3-4.6,4.6-9.4,6.7-14.1l-2.4-1.1c-2.1,4.7-4.4,9.4-6.7,14Z"/><path class="cls-2" d="M813,897.8c4.1-3.2,8.1-6.5,12.1-9.8l-1.7-2c-3.9,3.3-7.9,6.6-12,9.8Z"/><path class="cls-2" d="M836.7,877.6c3.8-3.5,7.5-7.2,11.2-10.9l-1.9-1.8c-3.6,3.7-7.3,7.3-11.1,10.8Z"/><path class="cls-2" d="M942.3,566.4l2.6-.4c-.8-5.1-1.7-10.3-2.7-15.4l-2.5.5C940.7,556.2,941.6,561.3,942.3,566.4Z"/><path class="cls-2" d="M924,749.9c1.9-4.8,3.8-9.7,5.5-14.6l-2.5-.9c-1.7,4.9-3.5,9.7-5.4,14.5Z"/><path class="cls-2" d="M927.7,506.4l2.5-.8c-1.7-4.9-3.5-9.8-5.4-14.6l-2.4.9C924.2,496.6,926,501.5,927.7,506.4Z"/><path class="cls-2" d="M936.3,536.1l2.5-.6c-1.2-5-2.6-10.1-4-15.1l-2.5.7C933.8,526.1,935.1,531.1,936.3,536.1Z"/><path class="cls-2" d="M948.3,597c-.3-5.1-.8-10.4-1.3-15.5l-2.6.3c.6,5.1,1,10.3,1.3,15.4Z"/><path class="cls-2" d="M941.9,690.1c1-5.1,2-10.2,2.8-15.3l-2.6-.4c-.8,5.1-1.7,10.2-2.8,15.2Z"/><path class="cls-2" d="M946.8,659.3c.6-5.1,1.1-10.4,1.4-15.5l-2.6-.2c-.3,5.1-.8,10.3-1.4,15.4Z"/><path class="cls-2" d="M948.9,628.2c.1-5.2.1-10.4,0-15.6h-2.6c.1,5.1.1,10.3,0,15.5Z"/><path class="cls-3" d="M698.9,806.3c-12.8-21.8-48.6-26.5-29.7-40.3-.5.4,7.2-6.4,9.1-8.6l1.8-2,1.1-2c.8-1.4,3.8-9.1,2.9-5.9a69.3,69.3,0,0,0,2.1-7.7l.5-2.8c.1-1.5.3-3,.4-4.5.2-4.1.4-8.1.5-12.2.1-8.9,0-17.9,0-26.8,0-11.8,3.9-21.1,10-27.8-11-7.1-23-8.1-27.3-1.9l-1.5,2.2-6.7,9.6-.4.6-5-3.6,6.7-9.5,6.8-9.6,5.5-7.7c4.5-6.4-1.1-18.2-12.5-26.2s-24.4-9.4-28.9-3l-5.5,7.7-6.8,9.6-6.7,9.5-5-3.6,30.5-43.2h0l.8-1,40.1-56.8c7.3-10.4,4-25.4-7.4-33.4s-26.6-6.2-34,4.2l-40.1,56.8-.7,1.1h-.1l-88.2,125L487.7,738l-6.5-126.3c3.5-14.9,5.7-29.3-6.6-38a27.3,27.3,0,0,0-38,6.6l-7.2,105.7s-12.2,28.9-3.7,74L445.5,800c.9,230.2,14.2,151.3.9,169.8l168.3,19.1c4.8-19.1,1-112.1,1-112.1,6.8-2.2,26-7.9,35.6-13,4.6-2.4,12.2-7.3,21.4-18.6C689.3,822.3,703,813.4,698.9,806.3Z"/><path class="cls-3" d="M756.5,468.8c-11.4-8.1-26.6-6.2-34,4.2l-40.1,56.8-.7,1.1h-.1L593.5,655.9l-.4-.3.2,1.5c3,18.5,4.3,39.9,10.8,57.8h.3c.1-.8,1.2.2,1.7.9l.3.2,1,.3,7.4,2.2h.6l8.1-11.2c16.4-23.4,31.6-47.6,46-72.2,7.1-12.2,18-18.6,29.4-20.3a46.8,46.8,0,0,1-.1-10l-1.3,1.8-5-3.6,12.5-17.7a40.4,40.4,0,0,1,4.4-6.2L723.1,560h0l.8-1,40.1-56.8C771.2,491.8,767.9,476.9,756.5,468.8Z"/><path class="cls-4" d="M719.4,808.7a13.5,13.5,0,0,1-13.6,13.4H494.2a13.5,13.5,0,0,1-13.6-13.4v-425a13.5,13.5,0,0,1,13.6-13.4H705.8a13.5,13.5,0,0,1,13.6,13.4Z"/><polygon class="cls-5" points="697.7 420.2 692 420.2 681 420.2 668.6 420.2 658.2 420.2 657.5 420.2 643.6 420.2 608.6 420.2 596.4 420.2 584 420.2 572.4 420.2 554.9 420.2 544.1 420.2 509.9 420.2 508.6 420.2 497.8 420.2 491.5 420.2 491.5 468.4 491.5 468.4 491.5 481.4 491.5 481.4 491.5 517.2 491.5 517.2 491.5 560.5 491.5 560.5 491.5 571.3 491.5 571.3 491.5 678.8 491.5 678.8 491.5 688.6 491.5 688.6 491.5 738.3 491.5 738.3 491.5 751.3 491.5 751.3 491.5 783.6 492.3 783.6 503.5 783.6 528.3 783.6 542.5 783.6 542.5 783.6 544.1 783.6 553.2 783.6 554.9 783.6 565.6 783.6 567.2 783.6 576.7 783.6 609.8 783.6 610.3 783.6 622.1 783.6 651.5 783.6 663.5 783.6 666.2 783.6 680.6 783.6 708.5 783.6 708.5 754 708.5 734.1 708.5 729.4 708.5 723.4 708.5 711.7 708.5 706.6 708.5 693.4 708.5 571.2 708.5 560.5 708.5 532.2 708.5 517.2 708.5 453.1 708.5 441.1 708.5 420.2 697.7 420.2"/><polygon class="cls-6" points="491.5 414.8 491.5 415 491.5 415 491.5 417.3 491.5 420 491.5 420 491.5 420.7 491.5 420.7 491.5 427.4 491.5 427.4 491.5 428 491.5 428 491.5 431.2 491.5 431.2 491.5 432 491.5 432 491.5 434.2 491.5 434.6 708.5 434.6 708.5 414.8 491.5 414.8"/><rect class="cls-2" x="384.8" y="906.2" width="270.6" height="293.85"/><path class="cls-7" d="M603.7,950.6a12.3,12.3,0,1,0-11.6-13A12.3,12.3,0,0,0,603.7,950.6Z"/><rect class="cls-8" x="368.2" y="967.6" width="298.7" height="232.44"/><circle class="cls-9" cx="602.6" cy="803.5" r="12"/><rect class="cls-10" x="506" y="420.3" width="61" height="6.67"/><rect class="cls-10" x="585.7" y="420.3" width="28.6" height="6.67"/><path class="cls-3" d="M748.5,705.8c2.7,10.2-3.1,20.6-13,23.2l-45.3,12c-9.9,2.6-20.1-3.6-22.8-13.8h0c-2.7-10.2,3.1-20.6,13-23.2l45.3-12c9.9-2.6,20.1,3.6,22.8,13.8Z"/><path class="cls-3" d="M562.8,829.2c.8-3.4,1.6-6.8,2.1-10.1-.6-1.8,1.3-37.9-40.8-67.4-19.5-13.6-42.4-10.6-53-9.6v87.1Z"/><polygon class="cls-11" points="600 497.6 677.9 561.1 599.7 628.2 522.1 561.1 600 497.6"/><rect class="cls-1" x="532.6" y="511.8" width="134.3" height="7.18"/><rect class="cls-12" x="532.6" y="519" width="134.3" height="129.42"/><rect class="cls-13" x="544.2" y="554.8" width="50.3" height="3.05"/><rect class="cls-13" x="544.2" y="567.3" width="111.2" height="3.05"/><rect class="cls-13" x="544.2" y="574.2" width="111.2" height="3.06"/><rect class="cls-13" x="544.2" y="581.1" width="111.2" height="3.05"/><rect class="cls-13" x="544.2" y="588.1" width="111.2" height="3.06"/><rect class="cls-13" x="544.2" y="595" width="111.2" height="3.05"/><rect class="cls-13" x="544.2" y="602" width="111.2" height="3.06"/><rect class="cls-13" x="544.2" y="608.9" width="111.2" height="3.05"/><rect class="cls-13" x="544.2" y="615.9" width="111.2" height="3.05"/><path class="cls-14" d="M677.9,561.1v96.4a8.5,8.5,0,0,1-8.5,8.5H530.6C525.3,666.1,677.9,561.1,677.9,561.1Z"/><path class="cls-1" d="M522.1,561.1v96.4a8.5,8.5,0,0,0,8.5,8.5H669.4C674.7,666.1,522.1,561.1,522.1,561.1Z"/><path class="cls-13" d="M579.9,527.3l2.2,6.2,1-3.4v3.7l-2.6,8.6h-.6l-4.3-12.8a2.2,2.2,0,0,0-.5-.9l-.5-.2c-.5-.1-.7-.3-.7-.7a.5.5,0,0,1,.2-.4l.6-.2Zm-4.3,5.1,1.2,3.4v3.3a4.8,4.8,0,0,0,0,.7l.2.5a1.6,1.6,0,0,0,.6.7l.4.3c.3.2.4.4.4.6s-.3.6-.8.6h-2.8c-.6,0-.8-.2-.8-.6a.4.4,0,0,1,.1-.3l.3-.2a2.4,2.4,0,0,0,1.2-2.3Zm8.4-5.1h5.2c.6,0,.8.2.8.6a.6.6,0,0,1-.4.6H589a1,1,0,0,0-.1.6v11.1a1,1,0,0,0,.1.6h.1l.4.2a.6.6,0,0,1,.4.6c0,.4-.3.6-.8.6h-6.3a.5.5,0,0,1-.3-.5.6.6,0,0,1,.5-.6h.7a1,1,0,0,0,.2-.6Z"/><path class="cls-13" d="M595.5,530.1l.6,2.3-2,7.2a2,2,0,0,0-.1.6,1,1,0,0,0,.7,1l.4.2a.6.6,0,0,1,.4.6q0,.6-.8.6h-2.8l-.6-.2a.5.5,0,0,1-.2-.5c0-.2.2-.4.5-.5l.7-.4.4-.4a4,4,0,0,0,.5-1.2Zm.8-2.8h4.5l3.1,13.1.2.6.4.3.4.2a.5.5,0,0,1,.1.3c0,.4-.3.6-.9.6h-5.5l-.5-.2a.6.6,0,0,1-.1-.8l.4-.3.3-.2a.6.6,0,0,0,.1-.3,1.5,1.5,0,0,0,0-.3l-.4-1.6h-3.1l.3-1.3h2.5l-2-9Z"/><path class="cls-13" d="M612,542.4h-5.9a.5.5,0,0,1-.2-.4.6.6,0,0,1,.4-.6l.4-.2h.1a.9.9,0,0,0,.1-.6V529.3a.9.9,0,0,0-.1-.6h-.6a.6.6,0,0,1-.4-.6.5.5,0,0,1,.2-.4l.6-.2h5.5l.6.2a.5.5,0,0,1,.2.4.6.6,0,0,1-.4.6h-.6a1,1,0,0,0-.1.6v11.1a.9.9,0,0,0,.1.6h.1l.4.2a.6.6,0,0,1,.4.6.5.5,0,0,1-.2.4H612Z"/><path class="cls-13" d="M621,542.4h-5.8a.5.5,0,0,1-.2-.4.6.6,0,0,1,.4-.6l.4-.2h.1a.9.9,0,0,0,.1-.6V529.3a.9.9,0,0,0-.1-.6h-.6a.6.6,0,0,1-.4-.6.5.5,0,0,1,.2-.4l.6-.2h6.3a.5.5,0,0,1,.3.5.6.6,0,0,1-.5.6h-.7a.9.9,0,0,0-.2.6Zm.9,0v-1.2l.9-.2.6-.4a3.6,3.6,0,0,0,.9-1,6.5,6.5,0,0,0,.6-1.4,2.8,2.8,0,0,1,.3-.8l.4-.2a.5.5,0,0,1,.5.3,1.2,1.2,0,0,1,.1.5v4.5Z"/><path class="cls-3" d="M743.6,601.2c5.5,11.6,1.5,24.9-8.8,29.8l-47.4,22.3c-10.3,4.9-23.1-.6-28.5-12.1h0c-5.5-11.6-1.5-24.9,8.8-29.8l47.4-22.3c10.3-4.9,23.1.6,28.6,12.1Z"/><path class="cls-3" d="M747.5,661c2.6,10.6-3.3,21.2-13.2,23.7l-45.5,11.2c-9.9,2.4-20.1-4.2-22.7-14.8h0c-2.6-10.6,3.3-21.2,13.2-23.7l45.5-11.2c9.9-2.4,20.1,4.2,22.7,14.8Z"/></svg>