<?xml version="1.0" encoding="utf-8"?>
<!-- Generator: Adobe Illustrator 21.0.0, SVG Export Plug-In . SVG Version: 6.00 Build 0)  -->
<svg version="1.1" id="Layer_1" xmlns="http://www.w3.org/2000/svg" xmlns:xlink="http://www.w3.org/1999/xlink" x="0px" y="0px"
	 viewBox="0 0 1000 1000" style="enable-background:new 0 0 1000 1000;" xml:space="preserve">
<style type="text/css">
	.st0{fill:#A2A2A2;}
	.st1{fill:#7E2918;}
</style>
<g>
	<g>
		<g>
			<path class="st0" d="M501.8,3.9C226.9,3.9,3.2,227.5,3.2,502.4S226.9,1001,501.8,1001s498.6-223.7,498.6-498.6
				S776.7,3.9,501.8,3.9z M501.8,951.1c-247.4,0-448.7-201.3-448.7-448.7S254.4,53.7,501.8,53.7S950.5,255,950.5,502.4
				S749.2,951.1,501.8,951.1z"/>
		</g>
	</g>
	<g>
		<g>
			<path class="st1" d="M222.6,552.6c-4.3,0-8.6-3.2-10.7-7.5c-2.1-5.4,1.1-11.8,6.4-14l204-66.6c5.4-2.1,11.8,1.1,14,6.4
				s-1.1,11.8-6.4,14l-204,66.6C224.8,552.6,223.7,552.6,222.6,552.6z"/>
		</g>
		<g>
			<path class="st1" d="M353.6,696.5c-52.6,0-100.9-31.1-117-79.4l-51.5-153.5c-20.4-62.3,14-128.8,75.2-149.2
				c62.3-20.4,128.8,14,149.2,75.2l50.5,152.5c12.9,31.1,12.9,63.3-1.1,90.2c-14,27.9-40.8,49.4-75.2,59l0,0
				C374,695.4,363.3,696.5,353.6,696.5z M381.5,682.5L381.5,682.5L381.5,682.5z M297.8,330.4c-9.7,0-20.4,1.1-30.1,5.4
				c-50.5,16.1-78.4,70.9-62.3,121.3l50.5,152.5c16.1,47.2,69.8,74.1,122.4,61.2c27.9-7.5,49.4-24.7,61.2-47.2
				c10.7-21.5,10.7-47.2,0-74.1L389,396.9C376.2,356.2,338.6,330.4,297.8,330.4z"/>
		</g>
		<g>
			<path class="st1" d="M726.2,620.3c-3.2,0-5.4-1.1-7.5-3.2L567.3,464.6c-4.3-4.3-4.3-10.7,0-15c4.3-4.3,10.7-4.3,15,0L733.7,602
				c4.3,4.3,4.3,10.7,0,15C731.5,619.2,728.3,620.3,726.2,620.3z"/>
		</g>
		<g>
			<path class="st1" d="M601.6,696.5c-34.4,0-65.5-12.9-90.2-37.6l0,0c-42.9-42.9-42.9-111.7,0-154.6l121.3-120.2
				c20.4-20.4,48.3-32.2,77.3-32.2s55.8,11.8,77.3,32.2c49.4,49.4,49.4,131,0,180.4l-94.5,94.5C667.1,682.5,636,696.5,601.6,696.5z
				 M527.5,643.9c20.4,20.4,46.2,31.1,74.1,31.1c27.9,0,54.8-10.7,74.1-31.1l94.5-94.5c41.9-41.9,41.9-108.4,0-150.3
				c-15-17.2-37.6-25.8-60.1-25.8c-22.5,0-45.1,8.6-61.2,25.8L527.5,519.3C493.2,553.7,493.2,609.5,527.5,643.9L527.5,643.9z"/>
		</g>
	</g>
</g>
</svg>
