<?xml version="1.0" encoding="utf-8"?>
<!-- Generator: Adobe Illustrator 21.0.0, SVG Export Plug-In . SVG Version: 6.00 Build 0)  -->
<svg version="1.1" id="Layer_1" xmlns="http://www.w3.org/2000/svg" xmlns:xlink="http://www.w3.org/1999/xlink" x="0px" y="0px"
	 viewBox="0 0 1000 1000" style="enable-background:new 0 0 1000 1000;" xml:space="preserve">
<style type="text/css">
	.st0{fill:#A2A2A2;}
	.st1{fill:#7E2918;}
</style>
<g>
	<g>
		<g>
			<g>
				<path class="st0" d="M501.2,3.8C226.5,3.8,3.1,227.3,3.1,501.9S226.5,1000,501.2,1000s498.1-223.4,498.1-498.1
					S775.8,3.8,501.2,3.8z M501.2,950.2C254,950.2,52.9,749.1,52.9,501.9S254,53.6,501.2,53.6s448.3,201.1,448.3,448.3
					S748.4,950.2,501.2,950.2z"/>
			</g>
		</g>
	</g>
	<g>
		<path class="st1" d="M606.3,341.2l-2.2,0c-8.2-0.1-15.2-6-16.7-14.1l-4.5-23.8h10.1c11.9,0,21.6-9.7,21.6-21.6V211
			c0-11.9-9.7-21.6-21.6-21.6H410.2c-11.9,0-21.6,9.7-21.6,21.6v70.7c0,11.9,9.7,21.6,21.6,21.6h9l-4.3,23.3
			c-1.5,8.2-8.7,14.1-17,14.1c-16.1,0-31.2,6.3-42.6,17.6c-11.4,11.4-17.6,26.5-17.6,42.5v196.4l-0.9,0.1v25.2l0.9,0.1v131.6
			c0,33.2,27,60.1,60.1,60.1h207.7c33.2,0,60.1-27,60.1-60.1V401.3C665.6,368.6,639,341.7,606.3,341.2z M413.6,278.4v-63.9h176.1
			v63.9H413.6z M640.7,754.2c0,19.4-15.8,35.1-35.2,35.1H397.8c-19.4,0-35.2-15.8-35.2-35.1v-42.1h278.1V754.2z M640.7,687.2H362.6
			V471.8h278.1V687.2z M640.7,446.8H362.6v-45.9c0-9.4,3.7-18.2,10.3-24.9c3.3-3.3,7.2-5.9,11.4-7.6c4.2-1.7,8.8-2.6,13.5-2.6
			c20.4,0,37.9-14.5,41.6-34.6l5.2-27.9h113l5.4,28.4c3.7,19.7,21,34.2,41,34.4l2.1,0c19.1,0.3,34.7,16.1,34.7,35.2V446.8z"/>
	</g>
</g>
</svg>
