<svg xmlns="http://www.w3.org/2000/svg" viewBox="0 0 5018 5049.7"><defs><style>.cls-1{isolation:isolate;}.cls-2{fill:#a2a2a2;}.cls-3{fill:#f0f2ce;}.cls-4{fill:#8c5b30;}.cls-5{fill:#d96422;}.cls-6{mix-blend-mode:multiply;}.cls-7{fill:#e6e6e6;}.cls-8{fill:#f2f2f2;}.cls-9{fill:#edb150;}.cls-10{fill:#ffbf57;}.cls-11{fill:#c28e3a;}.cls-12{fill:#e1e3c0;}.cls-13{fill:#5c3b1f;}.cls-14{fill:#fcfcf5;}.cls-15{fill:#ffdebf;}.cls-16{fill:#fa8a8a;}.cls-17{fill:#7e2918;}</style></defs><title>vision</title><g class="cls-1"><g id="Layer_3" data-name="Layer 3"><rect class="cls-2" width="5018" height="5049.74"/><path class="cls-3" d="M585.5,706.3a127.5,127.5,0,0,0-21.4,1.9c.1-2.4.4-4.8.4-7.2A176.8,176.8,0,0,0,387.6,524.2c-84.4,0-154.9,59.2-172.5,138.4l-4.3-.2a149.2,149.2,0,1,0,0,298.4H585.5a127.2,127.2,0,1,0,0-254.4Z" transform="translate(-7.7 8.4)"/><path class="cls-3" d="M3185.4,696.8a113.7,113.7,0,0,0-19,1.7c.1-2.1.3-4.3.3-6.4a157.6,157.6,0,0,0-157.6-157.6c-75.2,0-138,52.8-153.7,123.3l-3.9-.2a132.9,132.9,0,0,0,0,265.9h333.8a113.4,113.4,0,1,0,0-226.7Z" transform="translate(-7.7 8.4)"/><path class="cls-3" d="M894,1491.1a81.4,81.4,0,0,0-12.9,1.1A132.3,132.3,0,1,0,618,1465.9a95.2,95.2,0,1,0-22.7,187.6H894a81.2,81.2,0,1,0,0-162.4Z" transform="translate(-7.7 8.4)"/><rect class="cls-4" x="1594.6" y="531.8" width="81.6" height="3295.21"/><path class="cls-3" d="M531.4,2939.8c517.8-652.2,884.6-1291.1,1070.9-1913.9V2939.8Z" transform="translate(-7.7 8.4)"/><path class="cls-3" d="M3052.8,3472.5c-209.7-953.1-678.4-1768.9-1369-2446.7,112.9,832.2,110.6,1647.4,0,2446.7Z" transform="translate(-7.7 8.4)"/><polygon class="cls-5" points="2360.6 1034.3 1676.1 1034.3 1676.1 531.8 2360.6 531.8 2125.7 789.9 2360.6 1034.3"/><g class="cls-6"><path class="cls-7" d="M2981.3,3330.1l-58-387.8a4917.2,4917.2,0,0,0-320.3-744.2c-66.9-7-156.6-44.7-266.9,11.9-144.5,74-139.2,181.2-139.2,181.2-278.2,30,34.7,633.5,34.7,633.5-4.3,4.4-8.4,8.8-12.3,13.2l-5.8,6.5-5.2,6-7.3,8.6-2.5,3c-174.1,212.5-23.2,347.3,86.5,410.5h320.9c90.1-10.9,205.2-31.5,309.2-70.4l68.2,70.4h72Zm-724.6-216.2,1-1.2,82.4,277.3C2156.6,3293.8,2207.9,3176.6,2256.6,3113.8Z" transform="translate(-7.7 8.4)"/></g><g class="cls-6"><path class="cls-8" d="M4895.5,4443c0,65-562.9,117.6-1860.4,117.6S196.7,4508,196.7,4443s1540.8-117.6,2838.3-117.6S4895.5,4378.1,4895.5,4443Z" transform="translate(-7.7 8.4)"/></g><path class="cls-9" d="M2715.2,4433.8l-277.3-612.2c32.9-8.2,65.8-15.1,98.7-21.1h0l6.7-1.1,5.6-1h0q53.4-9.2,107-14.3h0l7.2-.6,5.1-.4h0q59.7-5.2,119.5-5.4H2800q51.4.2,103,4.3h0l12.4,1h0q54.4,4.6,108.9,13.4h0l7.3,1.2,5,.9h0c33.4,5.6,66.7,12.3,100.1,20.2a11.3,11.3,0,0,1,7.6,15.6l-271.7,599.9h62.2l332.8-734.6a38,38,0,0,1,34.6-22.3H2372.3l342.9,756.9Z" transform="translate(-7.7 8.4)"/><path class="cls-10" d="M2292.7,3685.4a24.7,24.7,0,0,1,22.5-34.9H108.2a24.7,24.7,0,0,0-22.5,34.9l339,748.4h2207Z" transform="translate(-7.7 8.4)"/><path class="cls-11" d="M2292.7,3685.4l339,748.4h83.5l-342.9-756.9-.8-1.7-1.1-2.3a38,38,0,0,0-34.6-22.3h-20.6A24.7,24.7,0,0,0,2292.7,3685.4Z" transform="translate(-7.7 8.4)"/><path class="cls-3" d="M2437.8,3821.6l277.3,612.2h18.2l-196.9-633.3C2503.6,3806.5,2470.7,3813.4,2437.8,3821.6Z" transform="translate(-7.7 8.4)"/><path class="cls-3" d="M2668.1,3783l104.2,650.9h15.3V3777.5Q2727.8,3777.7,2668.1,3783Z" transform="translate(-7.7 8.4)"/><path class="cls-3" d="M3136.6,3818.4c-33.4-8-66.8-14.6-100.1-20.2l-185.5,635.7h21.5L3144.2,3834A11.3,11.3,0,0,0,3136.6,3818.4Z" transform="translate(-7.7 8.4)"/><path class="cls-3" d="M2548.8,3798.5l197.5,635.4h13.4l-104-649.7Q2602.3,3789.3,2548.8,3798.5Z" transform="translate(-7.7 8.4)"/><path class="cls-3" d="M2915.3,3782.7l-91,651.1H2838l186.1-637.7Q2969.7,3787.3,2915.3,3782.7Z" transform="translate(-7.7 8.4)"/><path class="cls-3" d="M2800,3777.5v656.3h11.8l91.1-652.1Q2851.4,3777.8,2800,3777.5Z" transform="translate(-7.7 8.4)"/><path class="cls-11" d="M3267.5,3699.2l-332.8,734.6h83.5l327.1-722a24.7,24.7,0,0,0-22.5-34.9h-20.6A38,38,0,0,0,3267.5,3699.2Z" transform="translate(-7.7 8.4)"/><path class="cls-12" d="M2787.7,3777.4H2417.8l20,44.2c32.9-8.2,65.8-15.1,98.7-21l196.9,633.3h13l-197.5-635.4h0c35.6-6.1,71.3-11,106.9-14.4h0l104,649.7h12.5L2668.1,3783c39.8-3.5,79.6-5.4,119.5-5.6h0v656.3H2800V3777.5h-12.3Zm-131.8,6.6h0Z" transform="translate(-7.7 8.4)"/><path class="cls-12" d="M3031.4,3797.3l-7.3-1.2h0L2838,4433.8h12.9l185.5-635.7h0Z" transform="translate(-7.7 8.4)"/><path class="cls-12" d="M2915.3,3782.7l-12.4-1h0l-91.1,652.1h12.5l91-651.1Z" transform="translate(-7.7 8.4)"/><path class="cls-12" d="M2793.8,3777.3h0Z" transform="translate(-7.7 8.4)"/><path class="cls-13" d="M2420.4,3413.8l43.2,172.6-13.1,206.8s247.3,16,159.2-66.7c-68.5-64.2-127.6,30.2-127.6,30.2l43.5-198-7.6-101.1s275.8-4.2,502.4-88.7L3122,3473.9l-38.1,194.4s258,35.3,178.1-54.6c-53.7-60.4-139.5,21.8-139.5,21.8l60.9-166.5-91.8-177.2Z" transform="translate(-7.7 8.4)"/><path class="cls-14" d="M3021.6,2823.7l70,468s-270.9,102.7-671.3,122.2l-133.8-450.1S2746.8,2965.4,3021.6,2823.7Z" transform="translate(-7.7 8.4)"/><path class="cls-15" d="M3021.6,2823.7s-53.9-819.8-629-457c0,0-169.7,195-106,597C2860,2975.1,3021.6,2823.7,3021.6,2823.7Z" transform="translate(-7.7 8.4)"/><path class="cls-13" d="M2815.4,1933.4s403,447.3-410.5,540.2l19.1,174.6s-77.1-56-85,18.6,76.7,35.8,76.7,35.8-48,198.8-129.1,261c0,0-336-648-37.3-680.2,0,0-5.7-115,149.5-194.5C2620.1,1975.6,2764,2215.3,2815.4,1933.4Z" transform="translate(-7.7 8.4)"/><path class="cls-13" d="M2850.5,2539.8c8.1,27.3,25.2,46.2,38.1,42.4s16.9-29,8.8-56.3-25.2-46.3-38.1-42.4S2842.4,2512.5,2850.5,2539.8Z" transform="translate(-7.7 8.4)"/><path class="cls-13" d="M2524.6,2649.1c8.1,27.3,25.2,46.3,38.1,42.5s16.9-29,8.7-56.3-25.2-46.3-38.1-42.5S2516.5,2621.8,2524.6,2649.1Z" transform="translate(-7.7 8.4)"/><path class="cls-16" d="M2862.5,2705.9s-137.7,21.8-216.2,64.6c0,0,13.8,112.9,141,78.8S2862.5,2705.9,2862.5,2705.9Z" transform="translate(-7.7 8.4)"/><g class="cls-6"><path class="cls-7" d="M2911,2938.5l21.8,26.5-15.3,39.3s11,231-265.7,272.8l-77.4-66.5,68.4-67.9c229.4,18.4,231.8-126,231.8-126l-33.4-31.7,8.8-27Z" transform="translate(-7.7 8.4)"/></g><path class="cls-13" d="M2911,2938.5l21.8,26.5-15.3,39.3s10.8,210.1-265.9,251.9l-77.4-66.5,68.4-67.9c229.4,18.4,232-105.1,232-105.1l-33.4-31.7,8.8-27Z" transform="translate(-7.7 8.4)"/><path class="cls-15" d="M3310.6,2427.6c-9.5,3.5-9.5,15.3-8.6,22.5-1.7-7.2-6.4-19.3-18.5-16.1-13.9,3.7-12,21.9-10.8,28.3h-.1c-1.8-5.8-7.5-21.1-19.2-17.8s-8.6,19.5-7,25.8c-2.1-6.7-8.7-23.7-22.6-19.2-10.4,3.4-1.3,26.5-1.3,26.5,157.7,403.7-200.7,346.2-200.7,346.2l12.9,86c471.8,17.5,307.9-419.6,292.2-461.7C3326.7,2447.9,3321.1,2423.7,3310.6,2427.6Z" transform="translate(-7.7 8.4)"/><path class="cls-14" d="M3021.6,2823.7l12.9,86a657.5,657.5,0,0,0,67.4-.8l-13.9-83.1C3050.4,2828.3,3021.6,2823.7,3021.6,2823.7Z" transform="translate(-7.7 8.4)"/><path class="cls-15" d="M2462.8,3490.6c3.7-9.4-5.1-17.3-11.1-21.3,6.5,3.5,18.7,8,24.3-3.1,6.5-12.8-8.4-23.5-13.9-26.9h.1c5.5,2.6,20.7,8.4,26.1-2.5s-8.8-19.4-14.5-22.4c6.3,2.9,23.5,9.2,29.4-4.1,4.4-10-19-18.6-19-18.6-406.3-150.8-125-380.2-125-380.2l-72.7-47.6c-327,340.6,108.4,509,150.3,525.3C2436.9,3489.1,2458.7,3501,2462.8,3490.6Z" transform="translate(-7.7 8.4)"/><path class="cls-14" d="M2359.3,3011.3l-72.7-47.6a657.6,657.6,0,0,0-44.2,50.9l71.3,44.9C2336.7,3029.7,2359.3,3011.3,2359.3,3011.3Z" transform="translate(-7.7 8.4)"/><path class="cls-4" d="M3156.2,2394.5l-52.4,20.3s-19.2,20-4.8,77.5,38.3,63,38.3,63l49.7-4.5Z" transform="translate(-7.7 8.4)"/><path class="cls-10" d="M3208.7,2458.1s-21.4-71.7-52.5-63.6-34,41.3-28,71.7c7.6,38.7,22,92.5,58.8,84.7S3208.7,2458.1,3208.7,2458.1Z" transform="translate(-7.7 8.4)"/><path class="cls-4" d="M3350.9,2352,3159,2430.5c-11.6,21.5,6.5,83,23,84.3l201.9-42.9Z" transform="translate(-7.7 8.4)"/><path class="cls-10" d="M3530.4,2190.7l-245,101.4s-27.9,149.1,75,263.8l238.8-44.7Z" transform="translate(-7.7 8.4)"/><path class="cls-4" d="M3802.6,1965.5l-306,143.9c-87.4,127.1,10.2,440.5,137.8,490.7l336.8-41.8Z" transform="translate(-7.7 8.4)"/><ellipse class="cls-10" cx="3912" cy="2254.3" rx="239.3" ry="310.1" transform="translate(-446.1 1054.6) rotate(-14.4)"/><ellipse class="cls-14" cx="3912" cy="2254.3" rx="214.4" ry="277.8" transform="translate(-446.1 1054.6) rotate(-14.4)"/><g class="cls-6"><path class="cls-7" d="M4119.6,2200.8c-38.2-148.6-162.2-245.1-276.9-215.6-4.9,1.3-9.7,2.8-14.5,4.5,108-12.7,218.8,80.8,254.6,219.8,36.6,142.2-18.6,280.5-123.9,318a167.7,167.7,0,0,0,22.3-4.1C4095.9,2493.8,4157.9,2349.4,4119.6,2200.8Z" transform="translate(-7.7 8.4)"/></g><path class="cls-17" d="M4268.2,1411.4a29.2,29.2,0,0,1-29.1-29.1c0-51.9-45.7-94.1-101.8-94.1s-101.8,42.2-101.8,94.1a29.1,29.1,0,1,1-58.3,0c0-51.9-45.7-94.1-101.8-94.1s-101.8,42.2-101.8,94.1a29.1,29.1,0,1,1-58.3,0c0-84.1,71.8-152.4,160.1-152.4,54.1,0,101.9,25.6,130.9,64.8,29-39.2,76.9-64.8,130.9-64.8,88.3,0,160.1,68.4,160.1,152.4A29.2,29.2,0,0,1,4268.2,1411.4Z" transform="translate(-7.7 8.4)"/><path class="cls-17" d="M4938.6,958.2a29.2,29.2,0,0,1-29.1-29.1c0-51.9-45.7-94.1-101.8-94.1s-101.8,42.2-101.8,94.1a29.1,29.1,0,1,1-58.3,0c0-51.9-45.7-94.1-101.8-94.1s-101.8,42.2-101.8,94.1a29.1,29.1,0,1,1-58.3,0c0-84.1,71.8-152.4,160.1-152.4,54.1,0,101.9,25.6,130.9,64.8,29-39.2,76.9-64.8,130.9-64.8,88.3,0,160.1,68.4,160.1,152.4A29.2,29.2,0,0,1,4938.6,958.2Z" transform="translate(-7.7 8.4)"/></g></g></svg>