<?xml version="1.0" encoding="utf-8"?>
<!-- Generator: Adobe Illustrator 21.0.0, SVG Export Plug-In . SVG Version: 6.00 Build 0)  -->
<svg version="1.1" id="Layer_1" xmlns="http://www.w3.org/2000/svg" xmlns:xlink="http://www.w3.org/1999/xlink" x="0px" y="0px"
	 viewBox="0 0 1000 1000" style="enable-background:new 0 0 1000 1000;" xml:space="preserve">
<style type="text/css">
	.st0{fill:#A2A2A2;}
	.st1{fill:#7E2918;}
</style>
<g>
	<g>
		<g>
			<path class="st0" d="M502.5,2C227.1,2,3,226.1,3,501.5S227.1,1001,502.5,1001S1002,776.9,1002,501.5S777.9,2,502.5,2z M502.5,951
				C254.6,951,53,749.4,53,501.5S254.6,51.9,502.5,51.9s449.6,201.7,449.6,449.6S750.4,951,502.5,951z"/>
		</g>
	</g>
	<g>
		<g>
			<path class="st1" d="M502.5,505.2c-21.4,0-38.8,17.4-38.8,38.8c0,21.4,17.4,38.8,38.8,38.8c21.4,0,38.8-17.4,38.8-38.8
				C541.3,522.6,523.9,505.2,502.5,505.2z M502.5,564.9c-11.5,0-20.9-9.4-20.9-20.9c0-11.5,9.4-20.9,20.9-20.9s20.9,9.4,20.9,20.9
				C523.4,555.5,514,564.9,502.5,564.9z"/>
		</g>
		<g>
			<path class="st1" d="M440.1,600.3c-21.4,0-38.8,17.4-38.8,38.8c0,21.4,17.4,38.8,38.8,38.8c21.4,0,38.8-17.4,38.8-38.8
				C478.9,617.7,461.5,600.3,440.1,600.3z M440.1,660c-11.6,0-20.9-9.4-20.9-20.9c0-11.5,9.4-20.9,20.9-20.9
				c11.5,0,20.9,9.4,20.9,20.9C461,650.6,451.6,660,440.1,660z"/>
		</g>
		<g>
			<path class="st1" d="M564.9,600.3c-21.4,0-38.8,17.4-38.8,38.8c0,21.4,17.4,38.8,38.8,38.8c21.4,0,38.8-17.4,38.8-38.8
				C603.7,617.7,586.3,600.3,564.9,600.3z M564.9,660c-11.5,0-20.9-9.4-20.9-20.9c0-11.5,9.4-20.9,20.9-20.9
				c11.5,0,20.9,9.4,20.9,20.9C585.8,650.6,576.5,660,564.9,660z"/>
		</g>
		<g>
			<path class="st1" d="M377.6,695.4c-21.4,0-38.8,17.4-38.8,38.8c0,21.4,17.4,38.8,38.8,38.8c21.4,0,38.8-17.4,38.8-38.8
				C416.4,712.8,399,695.4,377.6,695.4z M377.6,755.1c-11.5,0-20.9-9.4-20.9-20.9s9.4-20.9,20.9-20.9c11.5,0,20.9,9.4,20.9,20.9
				S389.1,755.1,377.6,755.1z"/>
		</g>
		<g>
			<path class="st1" d="M502.5,695.4c-21.4,0-38.8,17.4-38.8,38.8c0,21.4,17.4,38.8,38.8,38.8c21.4,0,38.8-17.4,38.8-38.8
				C541.3,712.8,523.9,695.4,502.5,695.4z M502.5,755.1c-11.5,0-20.9-9.4-20.9-20.9s9.4-20.9,20.9-20.9s20.9,9.4,20.9,20.9
				S514,755.1,502.5,755.1z"/>
		</g>
		<g>
			<path class="st1" d="M627.4,695.4c-21.4,0-38.8,17.4-38.8,38.8c0,21.4,17.4,38.8,38.8,38.8c21.4,0,38.8-17.4,38.8-38.8
				C666.2,712.8,648.8,695.4,627.4,695.4z M627.4,755.1c-11.5,0-20.9-9.4-20.9-20.9s9.4-20.9,20.9-20.9s20.9,9.4,20.9,20.9
				S638.9,755.1,627.4,755.1z"/>
		</g>
		<g>
			<path class="st1" d="M807.4,269.4c-52.6-52.6-138.2-52.6-190.8,0L502.7,382.6L388.5,269.5C363,244,329.2,230,293.1,230
				c-36.1,0-70,14-95.4,39.5c-25.4,25.4-39.5,59.3-39.5,95.4s14,70,39.5,95.4l119.5,119.5c3.4,3.4,9.3,3.4,12.6,0l172.9-171.9
				l172.6,171.9c3.4,3.4,9.3,3.4,12.6,0l119.5-119.5C860,407.7,860,322,807.4,269.4z M323.5,560.8l-28.7-28.7l98.1-98.2
				c3.5-3.5,3.5-9.2,0-12.7c-3.5-3.5-9.1-3.5-12.6,0l-98.2,98.2l-71.8-71.8c-22.1-22.1-34.2-51.5-34.2-82.8
				c0-31.3,12.2-60.7,34.2-82.8c22.1-22.1,51.5-34.2,82.7-34.2c31.3,0,60.7,12.2,82.8,34.3L490,395.2L323.5,560.8z M794.7,447.6
				L681.6,560.8L515.4,395.2l29.1-28.9l98.4,98.4c3.4,3.4,9.3,3.4,12.6,0c3.5-3.5,3.5-9.1,0-12.6l-98.3-98.4l72.1-71.6
				c45.6-45.6,119.9-45.6,165.5,0C840.4,327.7,840.4,402,794.7,447.6z"/>
		</g>
		<g>
			<path class="st1" d="M693.5,493.8c0,0.6-0.1,1.2-0.2,1.7c-0.1,0.6-0.3,1.2-0.5,1.7c-0.2,0.5-0.5,1.1-0.8,1.5
				c-0.4,0.5-0.7,1-1.1,1.3c-0.4,0.4-0.9,0.8-1.4,1.2c-0.5,0.3-1,0.6-1.6,0.8c-0.5,0.2-1.1,0.4-1.7,0.5c-1.1,0.2-2.4,0.2-3.5,0
				c-0.6-0.1-1.1-0.3-1.7-0.5c-0.6-0.2-1.1-0.5-1.5-0.8c-0.5-0.4-1-0.7-1.4-1.2c-0.4-0.4-0.8-0.9-1.1-1.4c-0.3-0.5-0.6-1-0.8-1.5
				c-0.2-0.5-0.4-1.1-0.5-1.7c-0.1-0.6-0.2-1.2-0.2-1.7c0-0.5,0.1-1.1,0.2-1.7c0.1-0.6,0.3-1.2,0.5-1.7c0.2-0.5,0.5-1.1,0.8-1.6
				c0.3-0.5,0.7-0.9,1.1-1.3c0.4-0.4,0.9-0.7,1.3-1.1c0.5-0.3,1-0.6,1.6-0.9c0.5-0.2,1.1-0.4,1.7-0.5c0.6-0.1,1.2-0.2,1.7-0.2
				s1.2,0,1.7,0.2c0.6,0.1,1.2,0.3,1.7,0.5c0.6,0.2,1.1,0.5,1.6,0.8l0,0c0.5,0.3,0.9,0.7,1.3,1.1
				C692.5,489.1,693.5,491.4,693.5,493.8z"/>
		</g>
		<g>
			<path class="st1" d="M430.9,392.3c0,0.6-0.1,1.2-0.2,1.7c-0.1,0.6-0.3,1.2-0.5,1.7c-0.2,0.5-0.5,1.1-0.8,1.6
				c-0.3,0.5-0.7,0.9-1.1,1.3c-2.2,2.1-5.4,3-8.1,2.5c-0.6-0.1-1.2-0.3-1.7-0.5c-0.6-0.2-1.1-0.5-1.5-0.8c-0.5-0.3-1-0.7-1.4-1.2
				c-0.4-0.4-0.8-0.9-1.1-1.3c-0.3-0.5-0.6-1-0.8-1.6c-0.2-0.5-0.4-1.1-0.5-1.7c-0.1-0.6-0.2-1.2-0.2-1.7c0-0.6,0.1-1.2,0.2-1.7
				c0.1-0.6,0.3-1.2,0.5-1.7c0.2-0.5,0.5-1,0.8-1.6c0.3-0.5,0.7-0.9,1-1.3c0.4-0.4,0.9-0.8,1.4-1.1c0.5-0.3,1.1-0.6,1.6-0.9
				c0.5-0.2,1.1-0.4,1.7-0.5c1.2-0.2,2.3-0.2,3.5,0c0.6,0.1,1.2,0.3,1.7,0.5c0.6,0.2,1.1,0.5,1.6,0.8c0.5,0.3,1,0.7,1.3,1.1
				c0.4,0.4,0.8,0.9,1.1,1.4c0.3,0.5,0.6,1,0.8,1.6c0.2,0.5,0.4,1.1,0.5,1.7C430.9,391.1,430.9,391.7,430.9,392.3z"/>
		</g>
		<g>
			<path class="st1" d="M343.9,415.6c-4,4-8,5.6-9.3,5.1l-78.2-29.1l-0.4-0.2c-0.4-0.1-1.2-0.6-1.5-0.9c-2.4-2.4,0.2-12.7,5.6-18
				c1.6-1.6,2.8-2,3.7-2c0.7,0,1.1,0.2,1.3,0.3l60.1,26.1l-26.1-60.1c-0.3-0.7-1-2.3,1.5-4.9c4-4,15.7-7.9,18.2-5.4
				c0.5,0.5,0.7,0.7,1.1,1.7l29.1,78.2C349.4,407.4,348,411.4,343.9,415.6z"/>
		</g>
	</g>
</g>
</svg>
